<?xml version="1.0" encoding="UTF-8" standalone="no"?>
<!DOCTYPE svg PUBLIC "-//W3C//DTD SVG 1.1//EN" "http://www.w3.org/Graphics/SVG/1.1/DTD/svg11.dtd">
<svg width="100%" height="100%" viewBox="0 0 24 24" version="1.1" xmlns="http://www.w3.org/2000/svg" xmlns:xlink="http://www.w3.org/1999/xlink" xml:space="preserve" xmlns:serif="http://www.serif.com/" style="fill-rule:evenodd;clip-rule:evenodd;stroke-linejoin:round;stroke-miterlimit:2;">
    <g id="Pacifier_1">
        <path d="M15.57,9.23C14.89,7.885 13.507,7.034 12,7.034C10.493,7.034 9.11,7.885 8.43,9.23C5.86,9.962 4.074,12.328 4.074,15C4.074,18.264 6.737,20.96 10,21L14,21C17.263,20.96 19.926,18.264 19.926,15C19.926,12.328 18.14,9.962 15.57,9.23ZM8.83,13.41C9.586,14.397 10.761,14.977 12.005,14.977C13.249,14.977 14.424,14.397 15.18,13.41C15.676,13.788 15.967,14.377 15.967,15C15.967,16.085 15.085,16.982 14,17L10,17C8.919,16.977 8.043,16.082 8.043,15C8.043,14.377 8.334,13.788 8.83,13.41Z" style="fill:rgb(141,141,141);fill-rule:nonzero;"/>
        <path d="M21.83,5C19.826,3.042 16.824,2.484 14.25,3.59C12.803,4.205 11.167,4.205 9.72,3.59C8.722,3.143 7.632,2.94 6.54,3C3.163,3.226 0.4,5.849 0,9.21C-0.212,11.372 0.595,13.514 2.18,15C2.271,15.078 2.387,15.121 2.506,15.121C2.751,15.121 2.961,14.942 3,14.7C3.117,11.888 4.933,9.414 7.58,8.46C7.682,8.425 7.769,8.359 7.83,8.27C8.753,6.863 10.327,6.014 12.01,6.014C13.693,6.014 15.267,6.863 16.19,8.27C16.251,8.359 16.338,8.425 16.44,8.46C19.083,9.422 20.89,11.9 21,14.71C21.009,14.904 21.13,15.076 21.31,15.15C21.373,15.162 21.437,15.162 21.5,15.15C21.627,15.148 21.749,15.098 21.84,15.01C23.207,13.707 23.981,11.898 23.981,10.01C23.981,8.116 23.203,6.304 21.83,5Z" style="fill:rgb(141,141,141);fill-rule:nonzero;"/>
    </g>
</svg>
