<?xml version="1.0" encoding="UTF-8" standalone="no"?>
<!DOCTYPE svg PUBLIC "-//W3C//DTD SVG 1.1//EN" "http://www.w3.org/Graphics/SVG/1.1/DTD/svg11.dtd">
<svg width="100%" height="100%" viewBox="0 0 32 32" version="1.1" xmlns="http://www.w3.org/2000/svg" xmlns:xlink="http://www.w3.org/1999/xlink" xml:space="preserve" xmlns:serif="http://www.serif.com/" style="fill-rule:evenodd;clip-rule:evenodd;stroke-linejoin:round;stroke-miterlimit:2;">
    <g transform="matrix(1,0,0,1,0,-1020.36)">
        <path d="M14.232,1024.05C13.964,1024.06 13.746,1024.28 13.746,1024.55C13.746,1024.65 13.779,1024.75 13.84,1024.84L14.324,1025.53C15.089,1026.62 15.5,1027.92 15.5,1029.26L15.5,1029.66C15.434,1029.65 15.365,1029.64 15.307,1029.62C14.417,1029.29 13.465,1029.18 12.5,1029.18C8.358,1029.18 5,1032.54 5,1036.68C5,1040.82 8.358,1048.68 12.5,1048.68C13.72,1048.68 14.922,1048 16,1047.43C17.078,1048 18.28,1048.67 19.5,1048.68C23.642,1048.68 27,1040.82 27,1036.68C27,1032.54 23.642,1029.18 19.5,1029.18C18.535,1029.18 17.583,1029.29 16.693,1029.62C16.635,1029.64 16.566,1029.65 16.5,1029.66L16.5,1029.26C16.5,1027.72 16.027,1026.22 15.145,1024.96L14.66,1024.27C14.564,1024.13 14.403,1024.04 14.232,1024.05ZM14.23,1031.28C14.314,1031.28 14.397,1031.29 14.473,1031.33C15.639,1031.89 16.314,1031.78 17.568,1031.31C17.625,1031.29 17.684,1031.28 17.744,1031.28C18.019,1031.28 18.245,1031.51 18.245,1031.78C18.245,1031.99 18.114,1032.18 17.918,1032.25C16.572,1032.75 15.423,1032.89 14.041,1032.23C13.865,1032.15 13.751,1031.97 13.751,1031.78C13.751,1031.51 13.964,1031.29 14.23,1031.28L14.23,1031.28Z" style="fill:rgb(141,141,141);"/>
        <path d="M16.666,1026.77L18.137,1025.3C18.939,1024.5 20.055,1024.09 21.185,1024.19L24.647,1024.49L22.187,1026.34C21.423,1026.91 20.47,1027.17 19.521,1027.07L16.666,1026.77Z" style="fill:rgb(141,141,141);"/>
    </g>
</svg>
