<?xml version="1.0" encoding="UTF-8" standalone="no"?>
<!DOCTYPE svg PUBLIC "-//W3C//DTD SVG 1.1//EN" "http://www.w3.org/Graphics/SVG/1.1/DTD/svg11.dtd">
<svg width="100%" height="100%" viewBox="0 0 32 32" version="1.1" xmlns="http://www.w3.org/2000/svg" xmlns:xlink="http://www.w3.org/1999/xlink" xml:space="preserve" xmlns:serif="http://www.serif.com/" style="fill-rule:evenodd;clip-rule:evenodd;stroke-linejoin:round;stroke-miterlimit:2;">
    <g transform="matrix(1,0,0,1,0,-1020.36)">
        <path d="M15.249,1021.36C14.426,1021.36 13.75,1022.04 13.75,1022.86L13.75,1043.61L7.997,1043.61C6.812,1043.61 5.843,1044.54 5.762,1045.71C4.651,1047.66 4.224,1049.03 4.004,1050.8C3.967,1051.1 4.198,1051.36 4.498,1051.36L7.495,1051.36C7.604,1051.36 7.71,1051.33 7.798,1051.27L9.001,1050.36L9.001,1050.86C9,1051.13 9.222,1051.36 9.497,1051.36L14,1051.36C14.109,1051.36 14.215,1051.33 14.303,1051.27L15.499,1050.37L15.499,1050.86C15.498,1051.14 15.723,1051.36 16.001,1051.36L20.506,1051.36C20.781,1051.36 21.001,1051.13 21,1050.86L21,1050.57L21.651,1051.21C21.744,1051.31 21.871,1051.36 22.004,1051.36L27.003,1051.36C27.444,1051.36 27.664,1050.83 27.357,1050.51C25.572,1048.86 24.858,1047.48 24.745,1045.81C24.713,1044.6 23.717,1043.61 22.498,1043.61L16.755,1043.61L16.755,1022.86C16.755,1022.04 16.071,1021.36 15.249,1021.36L15.249,1021.36ZM15.249,1022.37C15.534,1022.37 15.751,1022.58 15.751,1022.86L15.751,1039.37L14.754,1039.37L14.754,1022.86C14.754,1022.58 14.963,1022.37 15.249,1022.37ZM14.754,1040.36L15.751,1040.36L15.751,1043.61L14.754,1043.61L14.754,1040.36ZM7.997,1044.62L22.498,1044.62C23.02,1044.62 23.46,1044.92 23.651,1045.36L6.852,1045.36C7.041,1044.92 7.475,1044.62 7.997,1044.62ZM6.543,1046.36L23.809,1046.38C24.077,1048.07 24.798,1049.24 25.827,1050.36L22.211,1050.37L20.852,1049.01C20.536,1048.7 20.007,1048.92 20.004,1049.37L20.004,1050.37L16.503,1050.37L16.503,1049.37C16.505,1048.95 16.028,1048.71 15.698,1048.97L13.83,1050.37L9.999,1050.37L9.999,1049.37C9.996,1048.96 9.529,1048.72 9.2,1048.97L7.333,1050.37L5.067,1050.39C5.306,1049.01 5.612,1048.02 6.543,1046.36L6.543,1046.36Z" style="fill:rgb(141,141,141);fill-rule:nonzero;"/>
    </g>
</svg>
