<?xml version="1.0" encoding="UTF-8" standalone="no"?>
<!DOCTYPE svg PUBLIC "-//W3C//DTD SVG 1.1//EN" "http://www.w3.org/Graphics/SVG/1.1/DTD/svg11.dtd">
<svg width="100%" height="100%" viewBox="0 0 64 64" version="1.1" xmlns="http://www.w3.org/2000/svg" xmlns:xlink="http://www.w3.org/1999/xlink" xml:space="preserve" xmlns:serif="http://www.serif.com/" style="fill-rule:evenodd;clip-rule:evenodd;stroke-linejoin:round;stroke-miterlimit:2;">
    <path d="M62.6,38.5C59.8,37.6 56.4,37.1 52.5,37.1L51.1,37.1C49.3,37.2 47.5,37.3 45.7,37.9C45,38.2 44.3,38.5 43.7,38.9C42.6,39.5 41.6,40.1 40.3,40.3C40.2,40.3 39.6,40.4 38.9,40.4L38.1,40.4L38.2,40.8C38.3,41.1 38.3,41.3 38.3,41.5C38.3,42.2 38.1,43 37.8,43.6L37.6,43.9L37.9,44C38.2,44.1 38.8,44.2 39.7,44.2C41.2,44.2 43,43.9 45.2,43.2C47.8,42.4 51.2,42 55.3,42C58.3,42 61.1,42.2 62.9,42.4L63,42.4C63.3,42.4 63.5,42.3 63.7,42.1C63.8,42 64,41.7 64,41.3L64,40.2C64,39.5 63.4,38.7 62.6,38.5ZM36.5,38.5L37.2,39.1L37.8,38.4C43.9,30.3 43.1,12.7 42.4,7.2C42.2,6.5 41.6,6 40.9,6C40.5,6 40.1,6.2 39.9,6.4C39.7,6.6 39.5,7 39.5,7.5C41,26.7 37.1,34.4 35.4,36.8L34.9,37.5L35.7,38C36,38.1 36.2,38.3 36.5,38.5ZM31.3,36.7L31.6,36.9L31.7,36.6C36.8,22.8 34.3,13.2 32.9,9.7C32.7,9.3 32.4,9.1 32.3,9.1C32.3,9 32.1,9 32,9C31.8,9 31.6,9 31.5,9.1C23.4,13.8 16.4,16.7 14.4,17.4L14.1,17.5L14.2,17.8C16.9,27.7 28,34.8 31.3,36.7Z" style="fill:rgb(141,141,141);fill-rule:nonzero;"/>
    <path d="M19.2,34.2C21.3,35.1 26.4,37.5 29,39.6L29.3,39.8L29.5,39.4C29.7,38.9 30,38.5 30.4,38.1L30.7,37.8L30.4,37.6C26.3,35.2 16.5,28.7 13.3,19.2L13.1,18.6L12.8,19.1C10.6,22.1 5,29.5 0.4,33.7L0,34L2.7,36.6L2.9,36.5C4.4,35.5 8.4,33.2 13.4,33.2C15.3,33.1 17.3,33.5 19.2,34.2ZM33.6,38.2C31.8,38.2 30.4,39.7 30.4,41.4C30.4,43.2 31.9,44.6 33.6,44.6C35.4,44.6 36.8,43.1 36.8,41.4C36.8,39.7 35.4,38.2 33.6,38.2Z" style="fill:rgb(141,141,141);fill-rule:nonzero;"/>
    <path d="M55.2,43.5C51.3,43.5 48,43.9 45.5,44.7C43.2,45.4 41.3,45.8 39.7,45.8C38.5,45.8 37.5,45.6 36.8,45.2L36.7,45L36.5,45.1C35.7,45.8 34.7,46.1 33.6,46.1C31.1,46.1 29.1,44.2 29,41.7L29,41.6C28.4,40.3 22.6,37.2 18.7,35.5C17,34.8 15.2,34.5 13.4,34.5C10.2,34.5 7.5,35.5 5.7,36.4L5.4,36.6L9.1,41.8C11.7,45.4 14.6,49.5 17.4,53.5C20.3,57.8 27.3,57.8 32.9,57.9L36.5,57.9C38,57.9 39.5,58 41,58C43.2,58 45,57.9 46.7,57.7L46.9,57.7C48.9,57.5 50.6,57.3 51.8,55.7C52.8,54.4 53.3,52.9 53.9,51.2C54.2,50.4 54.5,49.5 54.9,48.6L57.2,43.4L56.7,43.4C56.2,43.5 55.7,43.5 55.2,43.5Z" style="fill:rgb(141,141,141);fill-rule:nonzero;"/>
</svg>
