<?xml version="1.0" encoding="UTF-8" standalone="no"?>
<!DOCTYPE svg PUBLIC "-//W3C//DTD SVG 1.1//EN" "http://www.w3.org/Graphics/SVG/1.1/DTD/svg11.dtd">
<svg width="100%" height="100%" viewBox="0 0 64 64" version="1.1" xmlns="http://www.w3.org/2000/svg" xmlns:xlink="http://www.w3.org/1999/xlink" xml:space="preserve" xmlns:serif="http://www.serif.com/" style="fill-rule:evenodd;clip-rule:evenodd;stroke-linejoin:round;stroke-miterlimit:2;">
    <g>
        <path d="M36,46C35.999,44.183 34.759,42.584 33,42.13C32.345,41.957 31.655,41.957 31,42.13L31,33L24.92,33C24.89,33.182 24.85,33.362 24.8,33.54C24.112,36.172 21.716,38.023 18.995,38.023C16.274,38.023 13.878,36.172 13.19,33.54C13.19,33.39 13.11,33.22 13.08,33.05L6,33.05L6,58L31,58L31,49.87C31.655,50.043 32.345,50.043 33,49.87C34.759,49.416 35.999,47.817 36,46Z" style="fill:rgb(141,141,141);fill-rule:nonzero;"/>
        <path d="M15,32C14.997,32.338 15.041,32.674 15.13,33C15.589,34.755 17.186,35.989 19,35.989C20.814,35.989 22.411,34.755 22.87,33C23.043,32.345 23.043,31.655 22.87,31L31,31L31,23.92C30.818,23.89 30.638,23.85 30.46,23.8C27.828,23.112 25.977,20.716 25.977,17.995C25.977,15.274 27.828,12.878 30.46,12.19L30.95,12.08L30.95,6L6,6L6,31L15.13,31C15.041,31.326 14.997,31.662 15,32Z" style="fill:rgb(141,141,141);fill-rule:nonzero;"/>
        <path d="M33,6L33,14.13C32.345,13.957 31.655,13.957 31,14.13C29.245,14.589 28.011,16.186 28.011,18C28.011,19.814 29.245,21.411 31,21.87C31.655,22.043 32.345,22.043 33,21.87L33,31L39.08,31C39.11,30.818 39.151,30.638 39.2,30.46C39.897,27.84 42.287,26.002 44.998,26.002C47.729,26.002 50.131,27.866 50.81,30.51C50.81,30.66 50.89,30.83 50.92,31L58,31L58,6L33,6Z" style="fill:rgb(141,141,141);fill-rule:nonzero;"/>
    </g>
</svg>
