<?xml version="1.0" encoding="UTF-8" standalone="no"?>
<!DOCTYPE svg PUBLIC "-//W3C//DTD SVG 1.1//EN" "http://www.w3.org/Graphics/SVG/1.1/DTD/svg11.dtd">
<svg width="100%" height="100%" viewBox="0 0 16 16" version="1.1" xmlns="http://www.w3.org/2000/svg" xmlns:xlink="http://www.w3.org/1999/xlink" xml:space="preserve" xmlns:serif="http://www.serif.com/" style="fill-rule:evenodd;clip-rule:evenodd;stroke-linejoin:round;stroke-miterlimit:2;">
    <g transform="matrix(1,0,0,1,2.135,2)">
        <path d="M3.865,6.5L3.865,7L7.865,7L7.865,6.5C7.865,4.57 9.435,3 11.365,3C11.487,3 11.609,3.011 11.731,3.024C11.292,1.291 9.732,0 7.865,0L3.865,0C1.998,0 0.439,1.291 0,3.024C0.122,3.011 0.244,3 0.365,3C2.296,3 3.865,4.57 3.865,6.5L3.865,6.5Z" style="fill:white;fill-rule:nonzero;"/>
    </g>
    <g transform="matrix(1,0,0,1,-0.139,5.652)">
        <path d="M16.038,2.132C15.808,1.314 15.133,0.65 14.311,0.436C12.641,0 11.139,1.249 11.139,2.848L11.139,4.348L5.139,4.348L5.139,2.848C5.139,1.249 3.636,0 1.966,0.436C1.144,0.65 0.469,1.314 0.239,2.132C0,2.984 0.205,3.785 0.668,4.375C0.958,4.744 1.139,5.185 1.139,5.654L1.139,7.348L3.139,7.348L3.139,8.348L5.139,8.348L5.139,7.348L11.139,7.348L11.139,8.348L13.139,8.348L13.139,7.348L15.139,7.348L15.139,5.654C15.139,5.185 15.319,4.744 15.609,4.375C16.072,3.785 16.277,2.984 16.038,2.132L16.038,2.132ZM2.639,3.348C2.362,3.348 2.139,3.124 2.139,2.848C2.139,2.572 2.362,2.348 2.639,2.348C2.915,2.348 3.139,2.572 3.139,2.848C3.139,3.124 2.915,3.348 2.639,3.348ZM13.639,3.348C13.362,3.348 13.139,3.124 13.139,2.848C13.139,2.572 13.362,2.348 13.639,2.348C13.915,2.348 14.139,2.572 14.139,2.848C14.139,3.124 13.915,3.348 13.639,3.348Z" style="fill:white;fill-rule:nonzero;"/>
    </g>
</svg>
