<?xml version="1.0" encoding="UTF-8" standalone="no"?>
<!DOCTYPE svg PUBLIC "-//W3C//DTD SVG 1.1//EN" "http://www.w3.org/Graphics/SVG/1.1/DTD/svg11.dtd">
<svg width="100%" height="100%" viewBox="0 0 999 834" version="1.1" xmlns="http://www.w3.org/2000/svg" xmlns:xlink="http://www.w3.org/1999/xlink" xml:space="preserve" xmlns:serif="http://www.serif.com/" style="fill-rule:evenodd;clip-rule:evenodd;stroke-miterlimit:10;">
    <g transform="matrix(1,0,0,1,-100.52,-33.01)">
        <path d="M424.35,62.67C453.56,36.67 499.41,31.34 541.15,33.41C672.24,39.93 790.57,103.21 892.93,174.8C929.99,200.71 966.47,228.64 990.52,264.33C1039.52,336.98 1024.96,437.62 956.88,497.47C933.71,517.83 905.63,533.47 876.8,547.28C825.54,571.88 770.23,591.63 712.05,597.28C670.57,601.28 628.57,598.03 587.32,592.44C472.09,576.78 359,542.22 264.17,483.1C222.59,457.17 183.4,424.93 166.26,383C149.12,341.07 160.09,287.87 202.55,263C220.11,252.73 241.11,248.09 261.66,243.73C291.92,237.32 322.66,231 349.96,217.97C378.17,204.51 411.56,178.48 405.96,148.68C400,116.75 395.18,88.67 424.35,62.67Z" style="fill:white;fill-opacity:0.1;fill-rule:nonzero;"/>
    </g>
    <g transform="matrix(1,0,0,1,-100.52,-33.01)">
        <path d="M785.47,701.9C785.47,701.9 810.53,657.51 848.26,644.72C864.119,639.457 877.851,629.186 887.38,615.46C891.854,608.908 895.717,601.959 898.92,594.7" style="fill:none;fill-rule:nonzero;stroke:rgb(83,84,97);stroke-width:2px;"/>
    </g>
    <g transform="matrix(1,0,0,1,-100.52,-33.01)">
        <path d="M922.66,586.49C918.36,590.67 898.33,594.98 898.33,594.98C898.33,594.98 903.24,575.09 907.54,570.92C909.564,568.954 912.278,567.853 915.1,567.853C921.053,567.853 925.952,572.752 925.952,578.705C925.952,581.637 924.763,584.447 922.66,586.49Z" style="fill:white;fill-rule:nonzero;"/>
    </g>
    <g transform="matrix(1,0,0,1,-100.52,-33.01)">
        <path d="M911.33,622.48C905.45,623.65 886.33,616.39 886.33,616.39C886.33,616.39 901.27,602.39 907.14,601.19C907.836,601.052 908.545,600.982 909.255,600.982C915.209,600.982 920.108,605.881 920.108,611.835C920.108,616.994 916.43,621.475 911.37,622.48L911.33,622.48Z" style="fill:white;fill-rule:nonzero;"/>
    </g>
    <g transform="matrix(1,0,0,1,-100.52,-33.01)">
        <path d="M870.08,661.42C864.41,659.42 851.54,643.52 851.54,643.52C851.54,643.52 871.54,638.96 877.18,640.92C881.653,642.359 884.707,646.549 884.707,651.248C884.707,657.201 879.809,662.098 873.857,662.098C872.567,662.098 871.289,661.869 870.08,661.42Z" style="fill:white;fill-rule:nonzero;"/>
    </g>
    <g transform="matrix(1,0,0,1,-100.52,-33.01)">
        <path d="M832.23,683.86C826.32,682.86 810.94,669.35 810.94,669.35C810.94,669.35 829.85,661.47 835.76,662.45C841.023,663.267 844.945,667.845 844.945,673.171C844.945,679.124 840.047,684.021 834.095,684.021C833.47,684.021 832.846,683.967 832.23,683.86Z" style="fill:white;fill-rule:nonzero;"/>
    </g>
    <g transform="matrix(1,0,0,1,-100.52,-33.01)">
        <path d="M869.59,600.85C869.59,606.85 880.43,624.22 880.43,624.22C880.43,624.22 891.29,606.85 891.29,600.86C891.29,594.908 886.392,590.01 880.44,590.01C874.488,590.01 869.59,594.908 869.59,600.86L869.59,600.85Z" style="fill:white;fill-rule:nonzero;"/>
    </g>
    <g transform="matrix(1,0,0,1,-100.52,-33.01)">
        <path d="M825.66,627.65C827.46,633.37 843,646.71 843,646.71C843,646.71 848.16,626.88 846.37,621.16C844.956,616.646 840.745,613.553 836.015,613.553C830.062,613.553 825.163,618.452 825.163,624.405C825.163,625.506 825.331,626.6 825.66,627.65Z" style="fill:white;fill-rule:nonzero;"/>
    </g>
    <g transform="matrix(1,0,0,1,-100.52,-33.01)">
        <path d="M786.54,659.55C787.34,665.49 800.41,681.27 800.41,681.27C800.41,681.27 808.85,662.6 808.05,656.66C807.33,651.299 802.705,647.253 797.295,647.253C791.342,647.253 786.443,652.152 786.443,658.105C786.443,658.588 786.476,659.071 786.54,659.55Z" style="fill:white;fill-rule:nonzero;"/>
    </g>
    <g transform="matrix(1,0,0,1,-100.52,-33.01)">
        <path d="M922.66,586.49C918.36,590.67 898.33,594.98 898.33,594.98C898.33,594.98 903.24,575.09 907.54,570.92C909.564,568.954 912.278,567.853 915.1,567.853C921.053,567.853 925.952,572.752 925.952,578.705C925.952,581.637 924.763,584.447 922.66,586.49Z" style="fill-opacity:0.25;fill-rule:nonzero;"/>
    </g>
    <g transform="matrix(1,0,0,1,-100.52,-33.01)">
        <path d="M911.33,622.48C905.45,623.65 886.33,616.39 886.33,616.39C886.33,616.39 901.27,602.39 907.14,601.19C907.836,601.052 908.545,600.982 909.255,600.982C915.209,600.982 920.108,605.881 920.108,611.835C920.108,616.994 916.43,621.475 911.37,622.48L911.33,622.48Z" style="fill-opacity:0.25;fill-rule:nonzero;"/>
    </g>
    <g transform="matrix(1,0,0,1,-100.52,-33.01)">
        <path d="M870.08,661.42C864.41,659.42 851.54,643.52 851.54,643.52C851.54,643.52 871.54,638.96 877.18,640.92C881.653,642.359 884.707,646.549 884.707,651.248C884.707,657.201 879.809,662.098 873.857,662.098C872.567,662.098 871.289,661.869 870.08,661.42Z" style="fill-opacity:0.25;fill-rule:nonzero;"/>
    </g>
    <g transform="matrix(1,0,0,1,-100.52,-33.01)">
        <path d="M832.23,683.86C826.32,682.86 810.94,669.35 810.94,669.35C810.94,669.35 829.85,661.47 835.76,662.45C841.023,663.267 844.945,667.845 844.945,673.171C844.945,679.124 840.047,684.021 834.095,684.021C833.47,684.021 832.846,683.967 832.23,683.86Z" style="fill-opacity:0.25;fill-rule:nonzero;"/>
    </g>
    <g transform="matrix(1,0,0,1,-100.52,-33.01)">
        <path d="M869.59,600.85C869.59,606.85 880.43,624.22 880.43,624.22C880.43,624.22 891.29,606.85 891.29,600.86C891.29,594.908 886.392,590.01 880.44,590.01C874.488,590.01 869.59,594.908 869.59,600.86L869.59,600.85Z" style="fill-opacity:0.25;fill-rule:nonzero;"/>
    </g>
    <g transform="matrix(1,0,0,1,-100.52,-33.01)">
        <path d="M825.66,627.65C827.46,633.37 843,646.71 843,646.71C843,646.71 848.16,626.88 846.37,621.16C844.956,616.646 840.745,613.553 836.015,613.553C830.062,613.553 825.163,618.452 825.163,624.405C825.163,625.506 825.331,626.6 825.66,627.65Z" style="fill-opacity:0.25;fill-rule:nonzero;"/>
    </g>
    <g transform="matrix(1,0,0,1,-100.52,-33.01)">
        <path d="M786.54,659.55C787.34,665.49 800.41,681.27 800.41,681.27C800.41,681.27 808.85,662.6 808.05,656.66C807.33,651.299 802.705,647.253 797.295,647.253C791.342,647.253 786.443,652.152 786.443,658.105C786.443,658.588 786.476,659.071 786.54,659.55Z" style="fill-opacity:0.25;fill-rule:nonzero;"/>
    </g>
    <g transform="matrix(1,0,0,1,-100.52,-33.01)">
        <path d="M786.91,701C786.91,701 791.83,650.26 821.15,623.28C833.515,612.039 841.904,597.082 845.05,580.67C846.489,572.863 847.206,564.939 847.19,557" style="fill:none;fill-rule:nonzero;stroke:rgb(83,84,97);stroke-width:2px;"/>
    </g>
    <g transform="matrix(1,0,0,1,-100.52,-33.01)">
        <path d="M865.56,539.92C863.32,545.48 846.76,557.54 846.76,557.54C846.76,557.54 843.2,537.36 845.44,531.81C847.022,527.58 851.087,524.76 855.603,524.76C861.555,524.76 866.453,529.657 866.453,535.61C866.453,537.092 866.149,538.559 865.56,539.92Z" style="fill:white;fill-rule:nonzero;"/>
    </g>
    <g transform="matrix(1,0,0,1,-100.52,-33.01)">
        <path d="M869.79,577.41C864.89,580.86 844.43,581.98 844.43,581.98C844.43,581.98 852.43,563.11 857.3,559.66C859.128,558.374 861.31,557.683 863.545,557.683C869.498,557.683 874.397,562.582 874.397,568.535C874.397,572.064 872.676,575.379 869.79,577.41Z" style="fill:white;fill-rule:nonzero;"/>
    </g>
    <g transform="matrix(1,0,0,1,-100.52,-33.01)">
        <path d="M847.86,629.73C841.86,630.23 823.66,620.87 823.66,620.87C823.66,620.87 840.07,608.61 846,608.1C846.303,608.075 846.606,608.062 846.91,608.062C852.864,608.062 857.763,612.961 857.763,618.915C857.763,624.526 853.412,629.26 847.82,629.73L847.86,629.73Z" style="fill:white;fill-rule:nonzero;"/>
    </g>
    <g transform="matrix(1,0,0,1,-100.52,-33.01)">
        <path d="M822.35,665.58C816.55,667.08 797.01,660.94 797.01,660.94C797.01,660.94 811.1,646.07 816.9,644.57C817.855,644.302 818.842,644.166 819.835,644.166C825.787,644.166 830.685,649.063 830.685,655.016C830.685,660.022 827.22,664.409 822.35,665.57L822.35,665.58Z" style="fill:white;fill-rule:nonzero;"/>
    </g>
    <g transform="matrix(1,0,0,1,-100.52,-33.01)">
        <path d="M822.87,574.54C825.29,580.02 842.25,591.54 842.25,591.54C842.25,591.54 845.14,571.26 842.71,565.78C840.932,561.963 837.086,559.512 832.875,559.512C826.923,559.512 822.025,564.41 822.025,570.362C822.025,571.803 822.312,573.231 822.87,574.56L822.87,574.54Z" style="fill:white;fill-rule:nonzero;"/>
    </g>
    <g transform="matrix(1,0,0,1,-100.52,-33.01)">
        <path d="M793.57,616.85C797.52,621.35 817.14,627.25 817.14,627.25C817.14,627.25 813.83,607.03 809.87,602.53C807.81,600.102 804.782,598.701 801.598,598.701C795.645,598.701 790.748,603.599 790.748,609.551C790.748,612.249 791.754,614.853 793.57,616.85Z" style="fill:white;fill-rule:nonzero;"/>
    </g>
    <g transform="matrix(1,0,0,1,-100.52,-33.01)">
        <path d="M770.73,661.87C773.87,666.98 792.21,676.1 792.21,676.1C792.21,676.1 792.36,655.62 789.21,650.51C787.238,647.301 783.732,645.34 779.965,645.34C774.013,645.34 769.115,650.238 769.115,656.19C769.115,658.195 769.67,660.162 770.72,661.87L770.73,661.87Z" style="fill:white;fill-rule:nonzero;"/>
    </g>
    <ellipse cx="374.17" cy="814.05" rx="118.88" ry="19.93" style="fill:white;fill-opacity:0.1;"/>
    <ellipse cx="608.16" cy="661.06" rx="118.88" ry="19.93" style="fill:white;fill-opacity:0.1;"/>
    <path d="M616.05,398.03L615.94,401.92L609.18,640.44L597.82,640.44L603.39,401.92L603.5,397.43L616.05,398.03Z" style="fill:rgb(183,123,127);fill-rule:nonzero;"/>
    <path d="M681.82,600.09L673.31,600.07L546.87,599.8L540.13,599.79L543.72,588.73L680.92,588.73L681.82,600.09Z" style="fill:rgb(221,162,166);fill-rule:nonzero;"/>
    <path d="M616.05,398.03L615.94,401.92L603.39,401.92L603.5,397.43L616.05,398.03Z" style="fill-opacity:0.1;fill-rule:nonzero;"/>
    <rect x="599.77" y="392.2" width="21.07" height="7.93" style="fill:rgb(183,123,127);"/>
    <path d="M547.99,588.73L546.87,599.8L540.13,599.79L543.72,588.73L547.99,588.73Z" style="fill-opacity:0.1;fill-rule:nonzero;"/>
    <path d="M566.14,392.05L565.79,395.49L537.74,672.13L524.89,671.52L554.45,395.49L554.78,392.35L566.14,392.05Z" style="fill:rgb(221,162,166);fill-rule:nonzero;"/>
    <path d="M681.82,600.09L673.31,600.07L672.16,588.73L680.92,588.73L681.82,600.09Z" style="fill-opacity:0.1;fill-rule:nonzero;"/>
    <path d="M695.27,671.52L682.41,672.13L654.37,395.49L654.02,392.05L665.37,392.35L665.7,395.49L695.27,671.52Z" style="fill:rgb(221,162,166);fill-rule:nonzero;"/>
    <rect x="466.6" y="119.3" width="283.36" height="271.7" style="fill:rgb(239,239,239);"/>
    <g transform="matrix(1,0,0,1,-100.52,-33.01)">
        <path d="M714.33,61.44L714.33,127.05L703.28,127.05L703.28,61.44C703.277,61.362 703.275,61.283 703.275,61.205C703.275,58.171 705.771,55.675 708.805,55.675C711.839,55.675 714.335,58.171 714.335,61.205C714.335,61.283 714.333,61.362 714.33,61.44Z" style="fill:rgb(221,162,166);fill-rule:nonzero;"/>
    </g>
    <rect x="602.75" y="88.07" width="11.06" height="5.97" style="fill-opacity:0.1;"/>
    <g transform="matrix(1,0,0,1,-100.52,-33.01)">
        <path d="M718.67,125.56L718.67,147.22L699,147.22L699,125.56L699,125.55C699,124.08 700.21,122.87 701.68,122.87L716,122.87C717.468,122.881 718.67,124.092 718.67,125.56Z" style="fill:rgb(221,162,166);fill-rule:nonzero;"/>
    </g>
    <circle cx="608.28" cy="103.61" r="4.18" style="fill-opacity:0.1;"/>
    <circle cx="608.28" cy="102.71" r="4.18" style="fill:rgb(183,123,127);"/>
    <rect x="598.42" y="111.53" width="19.73" height="2.69" style="fill-opacity:0.1;"/>
    <rect x="590.35" y="115.12" width="35.87" height="5.98" style="fill-opacity:0.1;"/>
    <rect x="590.35" y="113.32" width="35.87" height="5.98" style="fill:rgb(221,162,166);"/>
    <path d="M535.72,384L686.37,384C689.936,384 692.87,386.934 692.87,390.5L692.87,391.92L529.22,391.92L529.22,390.5C529.22,386.934 532.154,384 535.72,384Z" style="fill-opacity:0.1;fill-rule:nonzero;"/>
    <path d="M554.78,392.35L566.14,392.05L565.79,395.49L554.45,395.49L554.78,392.35Z" style="fill-opacity:0.1;fill-rule:nonzero;"/>
    <rect x="599.77" y="392.2" width="21.07" height="3.29" style="fill-opacity:0.1;"/>
    <path d="M665.7,395.49L654.37,395.49L654.02,392.05L665.37,392.35L665.7,395.49Z" style="fill-opacity:0.1;fill-rule:nonzero;"/>
    <path d="M535.72,385.77L686.37,385.77C689.936,385.77 692.87,388.704 692.87,392.27L692.87,393.69L529.22,393.69L529.22,392.27C529.22,388.704 532.154,385.77 535.72,385.77Z" style="fill:rgb(221,162,166);fill-rule:nonzero;"/>
    <g transform="matrix(1,0,0,1,-100.52,-33.01)">
        <path d="M603.21,292.64C600.94,291.44 576.21,272.76 576.21,272.76L536.3,247.45C536.3,247.45 536.09,246.85 535.71,245.82C546.66,233.39 544.27,215.35 533.13,202.67C519.63,187.29 458.63,154.18 440.25,182.5C437.68,186.5 437.59,191.04 436.92,195.44C435.35,205.71 430.29,215.66 422.35,224.04C416.23,230.51 408.2,236.47 404.68,243.79C404.68,243.7 404.61,243.61 404.58,243.51C403.73,245.079 403.114,246.763 402.75,248.51C401,257.44 407,266 410.19,274.69C411.261,277.633 412.038,280.674 412.51,283.77C412.59,283.15 412.66,282.54 412.73,281.92C413.507,286.328 413.773,290.811 413.52,295.28C391.37,299.79 391.36,337.68 391.36,337.68C391.36,337.68 388.63,352.74 389.09,358.17C389.55,363.6 389.54,375.34 389.54,378.17C389.54,381 386.81,398.65 386.54,400.77C386.543,400.8 386.543,400.83 386.54,400.86C386.14,403.18 381.99,414.36 392.02,416.86C392.72,417.04 393.46,417.19 394.23,417.33C394.66,426.38 395.44,445.33 394.75,449.55C394.75,449.55 398.4,475.01 401.43,481.48C403.346,485.274 405.588,488.894 408.13,492.3C407.91,493.85 407.387,495.342 406.59,496.69C405.04,498.92 405.84,500.75 408.43,501.54C408.34,502.31 408.24,503.18 408.13,504.16C407.02,513.98 405.36,533.5 408.18,543.39C412.05,556.95 412.28,561.47 412.28,561.47C412.28,561.47 412.28,565.53 413.88,567.79C415.48,570.05 418.43,591.07 418.43,594.46C418.43,597.85 426.17,628.35 423.89,635.58C421.61,642.81 423.44,652.98 423.44,652.98C423.44,652.98 422.07,670.83 420.44,674.67C418.81,678.51 418.16,740.42 420.66,756.46C423.16,772.5 424.76,785.83 424.76,785.83C424.76,785.83 423.17,800.52 424.53,802.55C425.89,804.58 428.4,816.79 426.58,817.46C424.76,818.13 423.85,823.11 423.85,823.11C424.812,824.573 425.851,825.985 426.96,827.34C426.258,827.095 425.574,826.804 424.91,826.47C425.63,827.47 426.71,828.89 428.04,830.47L426.79,846.72C426.682,848.023 427.528,849.228 428.79,849.57C436.914,851.778 445.627,849.329 451.41,843.21C462.79,831.69 466.66,833.27 468.71,826.27C468.93,825.52 469.12,824.78 469.28,824.08C470.75,817.84 464.1,813.2 458.81,815.86C459.54,810.92 460.11,805.31 459.56,802.14C458.42,795.59 458.65,778.42 458.65,778.42L457.06,696.17C457.06,696.17 460.01,679.9 463.43,673.58C466.85,667.26 466.43,645.11 466.43,645.11L470.3,572.35L473.94,536.88C473.94,536.88 477.58,524.68 482.13,538.24C482.13,538.24 479.63,565.57 480.77,572.13C481.91,578.69 483.5,610.54 482.36,617.54C481.22,624.54 476.22,662.96 479.36,672.67C482.5,682.38 486,694.15 485.3,698C484.6,701.85 482.3,785.21 482.3,785.21C482.3,785.21 488.45,801.21 483.9,806.45C479.35,811.69 483.67,832.45 483.67,832.45C483.67,832.45 484.22,832.84 485.16,833.38L485.03,835.11L483.6,853.8C483.495,855.104 484.339,856.311 485.6,856.66C493.724,858.871 502.438,856.421 508.22,850.3C519.6,838.77 523.47,840.36 525.52,833.35C525.74,832.6 525.93,831.87 526.1,831.16C527.7,824.35 519.6,819.41 514.18,823.86L513.91,824.09C513.627,824.331 513.33,824.554 513.02,824.76C512.876,824.866 512.726,824.963 512.57,825.05C513.71,819.89 515.37,811.05 514.57,806.91C513.43,800.81 515.7,782.29 515.7,782.29C515.7,782.29 522.3,760.14 522.53,751.29L524.35,680.8C524.35,680.8 524.13,652.1 525.04,645.1C525.95,638.1 533.23,577.54 540.51,559.46C546.1,545.62 548.6,510.3 547.12,492.39C547.04,491.51 546.96,490.66 546.86,489.87C555.79,483.28 556.68,472.32 556.68,472.32C556.68,472.32 548.48,456.66 540.59,450.03C532.7,443.4 531,432 531.28,427.15C531.414,424.195 530.44,421.295 528.55,419.02C526.66,416.745 524.91,407.27 522.48,406.07C522.281,405.969 522.102,405.833 521.95,405.67C520.3,403.9 521.57,398.84 521.57,398.84L521.57,398.68C521.86,397.51 523.57,389.93 523.06,387.99C522.45,385.89 523.36,375.94 523.36,375.94C523.36,375.94 529.13,358.77 528.22,345.21C527.31,331.65 540.06,332.86 540.06,332.86L579.43,332.45L583.91,332.45C585.49,331.109 586.933,329.615 588.22,327.99C595.72,327.1 610.89,324.27 612.59,315.99C614.9,305 605.49,293.85 603.21,292.64ZM420.81,418L421.08,411.11C422.01,411.91 422.63,412.42 422.63,412.42C423.132,414.223 423.156,416.125 422.7,417.94C422.206,419.666 420.949,421.074 419.29,421.76C419.1,421.843 418.916,421.94 418.74,422.05L418.36,418.16L420.81,418ZM563.61,297C561.94,296.25 556.32,296.4 553.43,296.4C550.54,296.4 545.85,293.99 545.85,293.99C544.85,292.04 539.32,290.88 534.4,290.22C530.66,281 525.4,272.01 524.69,262.4C524.69,262.05 524.69,261.7 524.64,261.35L525.21,262.35C525.21,262.35 548.13,276.97 550.71,281.35C552.71,284.69 562.34,292.15 566.8,295.49C566.186,296.291 565.325,296.868 564.35,297.13C564.096,297.158 563.839,297.112 563.61,297Z" style="fill:url(#_Linear1);fill-rule:nonzero;"/>
    </g>
    <g transform="matrix(1,0,0,1,-100.52,-33.01)">
        <path d="M525.76,831.22C525.59,831.92 525.41,832.65 525.19,833.39C523.19,840.39 519.36,838.77 508.19,850.2C502.526,856.272 493.929,858.711 485.92,856.52C484.657,856.186 483.809,854.981 483.92,853.68L485.33,835.14L486,826.22C486,826.22 503.84,831.22 512.92,824.87C513.225,824.662 513.518,824.438 513.8,824.2C513.87,824.137 513.937,824.07 514,824C515.307,822.918 516.952,822.325 518.649,822.325C522.648,822.325 525.939,825.616 525.939,829.615C525.939,830.155 525.879,830.693 525.76,831.22Z" style="fill:rgb(103,100,126);fill-rule:nonzero;"/>
    </g>
    <g transform="matrix(1,0,0,1,-100.52,-33.01)">
        <path d="M469.76,824.22C469.59,824.92 469.41,825.65 469.19,826.39C467.19,833.39 463.36,831.77 452.19,843.2C446.526,849.272 437.929,851.711 429.92,849.52C428.657,849.186 427.809,847.981 427.92,846.68L429.33,828.14L430,819.22C430,819.22 447.84,824.22 456.92,817.87C457.225,817.662 457.518,817.438 457.8,817.2C457.87,817.137 457.937,817.07 458,817C459.307,815.918 460.952,815.325 462.649,815.325C466.648,815.325 469.939,818.616 469.939,822.615C469.939,823.155 469.879,823.693 469.76,824.22Z" style="fill:rgb(103,100,126);fill-rule:nonzero;"/>
    </g>
    <g transform="matrix(1,0,0,1,-100.52,-33.01)">
        <path d="M451.33,827L452.05,836.64C441.81,846.87 429.62,831.64 426.05,826.64C435.44,831.48 451.33,827 451.33,827Z" style="fill-opacity:0.1;fill-rule:nonzero;"/>
    </g>
    <g transform="matrix(1,0,0,1,-100.52,-33.01)">
        <path d="M511.52,830.92L512.86,830.03C503.51,844.25 489.62,837.69 485.29,835.14L485.96,826.22C485.96,826.22 503.8,831.22 512.88,824.87C512.17,828.35 511.52,830.92 511.52,830.92Z" style="fill-opacity:0.1;fill-rule:nonzero;"/>
    </g>
    <g transform="matrix(1,0,0,1,-100.52,-33.01)">
        <path d="M540,561.69C532.82,579.62 525.65,639.69 524.75,646.69C523.85,653.69 524.08,682.11 524.08,682.11L522.28,752C522.05,760.75 515.55,782.72 515.55,782.72C515.55,782.72 513.31,801.1 514.43,807.15C515.55,813.2 511.52,829.15 511.52,829.15L512.86,828.25C501.65,845.25 483.94,832.51 483.94,832.51C483.94,832.51 479.68,811.89 484.17,806.73C488.66,801.57 482.6,785.66 482.6,785.66C482.6,785.66 484.84,702.94 485.51,699.13C486.18,695.32 482.82,683.66 479.68,674.02C476.54,664.38 481.48,626.27 482.6,619.32C483.72,612.37 482.15,580.76 481.03,574.26C479.91,567.76 482.37,540.63 482.37,540.63C477.89,527.18 474.3,539.29 474.3,539.29L470.71,574.48L466.9,646.67C466.9,646.67 467.35,668.67 463.99,674.92C460.63,681.17 457.71,697.33 457.71,697.33L459.28,778.94C459.28,778.94 459.06,795.94 460.18,802.47C461.3,809 457.71,825.79 457.71,825.79C445.16,855.36 425,823.3 425,823.3C425,823.3 425.9,818.37 427.69,817.7C429.48,817.03 427.02,804.92 425.69,802.9C424.36,800.88 425.91,786.31 425.91,786.31C425.91,786.31 424.34,773.09 421.91,757.17C419.48,741.25 420.12,679.83 421.69,676.02C423.26,672.21 424.6,654.5 424.6,654.5C424.6,654.5 422.81,644.41 425.05,637.23C427.29,630.05 419.67,599.8 419.67,596.43C419.67,593.06 416.76,572.22 415.19,569.98C413.62,567.74 413.62,563.7 413.62,563.7C413.62,563.7 413.4,559.22 409.62,545.77C406.84,535.95 408.48,516.59 409.57,506.84C409.96,503.23 410.3,500.93 410.3,500.93C410.3,500.93 538.87,480.08 544,484.79C545.2,485.9 546,489.71 546.47,495.14C548,512.9 545.48,548 540,561.69Z" style="fill:rgb(68,64,83);fill-rule:nonzero;"/>
    </g>
    <g transform="matrix(1,0,0,1,-100.52,-33.01)">
        <path d="M491.34,662.49C491.94,662.49 506.14,663.69 511.34,662.64C516.54,661.59 491.34,662.49 491.34,662.49Z" style="fill-opacity:0.1;fill-rule:nonzero;"/>
    </g>
    <g transform="matrix(1,0,0,1,-100.52,-33.01)">
        <path d="M492.39,670.86C492.39,670.86 512,674.3 513,672.51C514,670.72 492.39,670.86 492.39,670.86Z" style="fill-opacity:0.1;fill-rule:nonzero;"/>
    </g>
    <g transform="matrix(1,0,0,1,-100.52,-33.01)">
        <path d="M432.46,667.27C432.46,667.27 442.62,667.72 448.15,670.27C453.68,672.82 432.46,667.27 432.46,667.27Z" style="fill-opacity:0.1;fill-rule:nonzero;"/>
    </g>
    <g transform="matrix(1,0,0,1,-100.52,-33.01)">
        <path d="M395.54,415.9C395.54,415.9 397.18,447.13 396.29,452.66C396.29,452.66 399.87,477.92 402.86,484.34C405.85,490.76 412.28,498.84 412.28,498.84L421.1,436.84L419,415.6L395.54,415.9Z" style="fill:rgb(239,183,185);fill-rule:nonzero;"/>
    </g>
    <circle cx="387.68" cy="206.09" r="34.52" style="fill:rgb(239,183,185);"/>
    <g transform="matrix(1,0,0,1,-100.52,-33.01)">
        <path d="M470.27,255.23C470.27,255.23 459.51,276.31 448.75,286.17C437.99,296.03 513.31,307.24 515.1,307.24C516.89,307.24 501.65,262.41 504.34,257C507.03,251.59 470.27,255.23 470.27,255.23Z" style="fill:rgb(239,183,185);fill-rule:nonzero;"/>
    </g>
    <g transform="matrix(1,0,0,1,-100.52,-33.01)">
        <path d="M546.49,495.14C544.8,496.431 542.934,497.475 540.95,498.24C527.21,503.62 512.26,511.09 502.1,508.11C491.94,505.13 470.42,508.11 470.42,508.11C470.42,508.11 427.07,504.52 418.42,506.61C414.48,507.56 411.42,507.52 409.42,506.84C409.81,503.23 410.15,500.93 410.15,500.93C410.15,500.93 538.87,480.08 544,484.79C545.22,485.9 546,489.71 546.49,495.14Z" style="fill-opacity:0.1;fill-rule:nonzero;"/>
    </g>
    <g transform="matrix(1,0,0,1,-100.52,-33.01)">
        <path d="M555.9,475.22C555.9,475.22 554.71,490.17 540.95,495.55C527.19,500.93 512.26,508.4 502.1,505.42C491.94,502.44 470.42,505.42 470.42,505.42C470.42,505.42 427.07,501.83 418.42,503.92C409.77,506.01 405.26,503.33 407.95,499.44C410.64,495.55 410.35,482.7 410.35,477.32C410.35,471.94 407.35,450.12 410.04,446.23C412.73,442.34 415.12,427.4 420.5,425C422.135,424.311 423.372,422.916 423.86,421.21C424.305,419.411 424.281,417.527 423.79,415.74C423.299,413.953 422.88,414.99 421.63,413.88C418.46,411.05 413.1,405.8 414.82,404.08C417.21,401.68 414.82,386.14 414.82,386.14C414.82,386.14 409.14,374.19 411.24,369.71C413.34,365.23 393,341.61 393,341.61C393,341.61 393,300.97 417.51,299.17C417.51,299.17 434.85,299.77 436.94,292C439.03,284.23 452.78,279.74 452.78,279.74L484.17,286.62C484.17,286.62 511.96,292.62 517.05,289.01C522.14,285.4 526.05,293.79 526.05,293.79C526.05,293.79 543.38,294.69 545.17,298.28C546.96,301.87 539.5,336.83 539.5,336.83C539.5,336.83 526.94,335.64 527.84,349.09C528.74,362.54 523,379.58 523,379.58C523,379.58 522.1,389.44 522.7,391.53C523.26,393.46 521.52,400.98 521.24,402.14L521.24,402.29C521.24,402.29 519.99,407.29 521.61,409.07C521.76,409.231 521.936,409.366 522.13,409.47C524.53,410.66 528.13,422.32 528.13,422.32C529.996,424.583 530.955,427.46 530.82,430.39C530.53,435.18 532.32,446.53 540.09,453.11C547.86,459.69 555.9,475.22 555.9,475.22Z" style="fill:rgb(163,100,104);fill-rule:nonzero;"/>
    </g>
    <g transform="matrix(1,0,0,1,-100.52,-33.01)">
        <path d="M422.59,406L422.59,407.27L422.05,421.27C422.05,421.27 403.66,422.76 393.65,420.27C383.64,417.78 387.85,406.67 388.25,404.37C388.254,404.34 388.254,404.31 388.25,404.28C388.54,402.18 391.25,384.7 391.25,381.86C391.25,379.02 391.25,367.36 390.8,361.98C390.35,356.6 393,341.61 393,341.61L394.94,339.23L416,347.3L422.59,406Z" style="fill:rgb(163,100,104);fill-rule:nonzero;"/>
    </g>
    <g transform="matrix(1,0,0,1,-100.52,-33.01)">
        <path d="M422.54,407.3L422,421.3C422,421.3 403.61,422.79 393.6,420.3C383.59,417.81 387.8,406.7 388.2,404.4L422.54,407.3Z" style="fill-opacity:0.1;fill-rule:nonzero;"/>
    </g>
    <g transform="matrix(1,0,0,1,-100.52,-33.01)">
        <path d="M423.86,421.22C424.305,419.421 424.281,417.537 423.79,415.75C423.299,413.963 422.88,415 421.63,413.89C437.46,411.68 500.15,403.08 521.26,402.14L521.26,402.29C521.26,402.29 520.01,407.29 521.63,409.07L423.86,421.22Z" style="fill-opacity:0.1;fill-rule:nonzero;"/>
    </g>
    <g transform="matrix(1,0,0,1,-100.52,-33.01)">
        <path d="M523.62,432C523.62,432 527.51,454 513.01,461.74C513,461.78 521.23,450.87 523.62,432Z" style="fill-opacity:0.1;fill-rule:nonzero;"/>
    </g>
    <g transform="matrix(1,0,0,1,-100.52,-33.01)">
        <path d="M428.72,462.37C428.72,462.37 463.72,456.37 470.57,461.03C477.42,465.69 428.72,462.37 428.72,462.37Z" style="fill-opacity:0.1;fill-rule:nonzero;"/>
    </g>
    <g transform="matrix(1,0,0,1,-100.52,-33.01)">
        <path d="M511.52,326.22C511.52,326.22 506.14,348.34 510.17,353.42C514.2,358.5 511.52,326.22 511.52,326.22Z" style="fill-opacity:0.1;fill-rule:nonzero;"/>
    </g>
    <g transform="matrix(1,0,0,1,-100.52,-33.01)">
        <path d="M410.19,308.14C410.19,308.14 415.12,316.36 412.13,324.88C409.14,333.4 410.19,308.14 410.19,308.14Z" style="fill-opacity:0.1;fill-rule:nonzero;"/>
    </g>
    <g transform="matrix(1,0,0,1,-100.52,-33.01)">
        <path d="M400,380.18C400,380.18 406.28,383.91 404.19,389.74C402.1,395.57 400,380.18 400,380.18Z" style="fill-opacity:0.1;fill-rule:nonzero;"/>
    </g>
    <g transform="matrix(1,0,0,1,-100.52,-33.01)">
        <path d="M399.43,363.14C399.43,363.14 405.25,366.28 406,370.91C406.75,375.54 399.43,363.14 399.43,363.14Z" style="fill-opacity:0.1;fill-rule:nonzero;"/>
    </g>
    <g transform="matrix(1,0,0,1,-100.52,-33.01)">
        <path d="M485.81,541.88C485.81,541.88 522.43,545.62 529.75,536.95C529.75,537 496.72,543.53 485.81,541.88Z" style="fill-opacity:0.1;fill-rule:nonzero;"/>
    </g>
    <g transform="matrix(1,0,0,1,-100.52,-33.01)">
        <path d="M422.59,539.79C422.59,539.79 461.9,549.06 469.67,541.73C469.67,541.73 435.89,544.27 422.59,539.79Z" style="fill-opacity:0.1;fill-rule:nonzero;"/>
    </g>
    <g transform="matrix(1,0,0,1,-100.52,-33.01)">
        <path d="M488.65,554C488.65,554 505.09,554 512.71,554.45C520.33,554.9 488.65,554 488.65,554Z" style="fill-opacity:0.1;fill-rule:nonzero;"/>
    </g>
    <g transform="matrix(1,0,0,1,-100.52,-33.01)">
        <path d="M425.28,561C425.28,561 433.35,570.12 442.47,568.48C451.59,566.84 425.28,561 425.28,561Z" style="fill-opacity:0.1;fill-rule:nonzero;"/>
    </g>
    <g transform="matrix(1,0,0,1,-100.52,-33.01)">
        <path d="M441.13,187.65C438.6,191.58 438.51,196.13 437.85,200.49C436.31,210.68 431.32,220.55 423.51,228.87C416.34,236.49 406.51,243.4 404.65,252.71C402.89,261.55 408.86,270.06 411.99,278.71C420.24,301.4 408.72,325.2 405.36,348.62C404.43,355.09 405.55,363.36 413.52,365.51C416.01,366.19 418.86,366.1 421.1,367.18C424.1,368.62 425.02,371.61 425.57,374.3C427.576,383.922 428.269,393.772 427.63,403.58C427.27,409.08 426.87,415.41 432.07,419.19C434.43,420.92 437.61,421.8 440.68,422.63C448.87,424.84 459.46,426.63 464.98,421.44C467.3,419.27 468.17,416.21 471.06,414.49C475.39,411.92 481.53,413.66 486.98,413.93C498.17,414.49 508.45,407.93 512.86,400.02C517.27,392.11 516.86,383.02 515.26,374.49C513.66,365.96 510.8,357.49 510.6,348.83C510.53,345.83 510.8,342.78 512.52,340.12C515.85,334.97 523.6,332.63 528.9,328.58C538.83,320.98 538.8,308.53 535.19,298.11C531.58,287.69 525.1,277.7 524.3,266.93C523.943,264.327 524.46,261.678 525.77,259.4C527.19,257.21 529.67,255.57 531.77,253.76C546.26,241.52 544.55,221.42 532.57,207.66C519.31,192.41 459.23,159.56 441.13,187.65Z" style="fill:rgb(227,120,125);fill-rule:nonzero;"/>
    </g>
    <g opacity="0.1">
        <g transform="matrix(1,0,0,1,-100.52,-33.01)">
            <path d="M413.83,288.13C414.96,279.04 414.75,270.03 411.54,261.18C409.96,256.84 407.67,252.53 406,248.18C405.166,249.753 404.56,251.436 404.2,253.18C402.44,262.02 408.41,270.53 411.54,279.18C412.594,282.081 413.361,285.079 413.83,288.13Z" style="fill-rule:nonzero;"/>
        </g>
        <g transform="matrix(1,0,0,1,-100.52,-33.01)">
            <path d="M427.18,386.05C427.817,376.242 427.128,366.393 425.13,356.77C424.57,354.08 423.65,351.1 420.65,349.66C418.41,348.58 415.56,348.66 413.07,347.99C409.972,347.247 407.385,345.112 406.07,342.21C405.61,344.49 405.21,346.76 404.88,349.04C403.95,355.51 405.07,363.78 413.04,365.93C415.53,366.6 418.38,366.51 420.62,367.59C423.62,369.03 424.54,372.02 425.1,374.71C426.017,379.173 426.659,383.688 427.02,388.23C427.09,387.49 427.13,386.77 427.18,386.05Z" style="fill-rule:nonzero;"/>
        </g>
        <g transform="matrix(1,0,0,1,-100.52,-33.01)">
            <path d="M512.42,382.5C508,390.44 497.72,396.97 486.53,396.41C481.08,396.13 474.94,394.41 470.62,396.97C467.73,398.68 466.85,401.75 464.53,403.92C459.01,409.07 448.42,407.32 440.23,405.11C437.16,404.27 433.99,403.4 431.62,401.67C429.362,400.009 427.837,397.533 427.37,394.77C427.43,397.84 427.37,400.92 427.18,403.99C426.82,409.49 426.42,415.82 431.62,419.61C433.99,421.33 437.16,422.21 440.23,423.04C448.42,425.25 459.01,427.04 464.53,421.85C466.85,419.68 467.73,416.62 470.62,414.85C474.94,412.28 481.08,414.02 486.53,414.29C497.72,414.85 508,408.29 512.42,400.38C516.66,392.74 516.47,384.1 514.99,375.85C514.433,378.171 513.568,380.407 512.42,382.5Z" style="fill-rule:nonzero;"/>
        </g>
        <g transform="matrix(1,0,0,1,-100.52,-33.01)">
            <path d="M531.36,236.28C529.22,238.08 526.74,239.73 525.36,241.92C524.05,244.198 523.533,246.847 523.89,249.45C524.18,252.722 524.872,255.947 525.95,259.05C527.615,257.274 529.44,255.654 531.4,254.21C541.2,245.94 543.58,234.07 540.4,222.99C538.722,228.194 535.584,232.808 531.36,236.28Z" style="fill-rule:nonzero;"/>
        </g>
        <g transform="matrix(1,0,0,1,-100.52,-33.01)">
            <path d="M528.45,311.05C523.16,315.1 515.4,317.45 512.08,322.6C510.35,325.26 510.08,328.33 510.15,331.3C510.273,334.797 510.701,338.277 511.43,341.7C511.619,341.295 511.836,340.904 512.08,340.53C515.4,335.38 523.16,333.04 528.45,328.99C537.52,322.05 538.28,311.07 535.6,301.28C534.24,305.174 531.751,308.576 528.45,311.05Z" style="fill-rule:nonzero;"/>
        </g>
    </g>
    <g transform="matrix(1,0,0,1,-100.52,-33.01)">
        <path d="M582.8,332.35C582.8,332.35 608.66,331.01 610.9,320.1C613.14,309.19 603.9,298.1 601.64,296.93C599.38,295.76 575,277.2 575,277.2L535.7,252.1C535.7,252.1 516.87,198.1 512.7,218.77C508.53,239.44 524.81,266.89 524.81,266.89C524.81,266.89 547.37,281.39 549.91,285.72C552.45,290.05 568,301.41 568,301.41L582.8,332.35Z" style="fill:rgb(239,183,185);fill-rule:nonzero;"/>
    </g>
    <g transform="matrix(1,0,0,1,-100.52,-33.01)">
        <path d="M596.7,314.71C590.58,330.26 582.65,336.39 582.65,336.39L578.24,336.39L539.47,336.79L535,324.58L541.28,298.12L545.16,298.28C545.16,298.28 549.8,300.67 552.63,300.67C555.46,300.67 561.01,300.52 562.63,301.26C562.856,301.371 563.111,301.409 563.36,301.37C564.83,301.22 566.36,299.02 566.36,299.02C566.36,299.02 602.83,299.17 596.7,314.71Z" style="fill:rgb(163,100,104);fill-rule:nonzero;"/>
    </g>
    <g transform="matrix(1,0,0,1,-100.52,-33.01)">
        <path d="M596.7,314.71C590.58,330.26 582.65,336.39 582.65,336.39L578.24,336.39C580.54,330.23 585.39,317.59 587.24,314.67C589.05,311.91 572.81,305.04 563.31,301.33C564.78,301.18 566.31,298.98 566.31,298.98C566.31,298.98 602.83,299.17 596.7,314.71Z" style="fill-opacity:0.1;fill-rule:nonzero;"/>
    </g>
    <ellipse cx="90.82" cy="763.14" rx="44.18" ry="8.64" style="fill:white;fill-opacity:0.1;"/>
    <ellipse cx="827.28" cy="706.15" rx="32.18" ry="6.29" style="fill:white;fill-opacity:0.1;"/>
    <ellipse cx="966.77" cy="731.64" rx="32.18" ry="6.29" style="fill:white;fill-opacity:0.1;"/>
    <ellipse cx="750.78" cy="784.14" rx="32.18" ry="6.29" style="fill:white;fill-opacity:0.1;"/>
    <g transform="matrix(1,0,0,1,-100.52,-33.01)">
        <path d="M233.09,556.31C233.09,556.31 240.33,565.78 229.75,580.06C219.17,594.34 210.46,606.4 214,615.31C214,615.31 229.95,588.78 242.94,588.41C255.93,588.04 247.38,572.27 233.09,556.31Z" style="fill:white;fill-rule:nonzero;"/>
    </g>
    <g transform="matrix(1,0,0,1,-100.52,-33.01)">
        <path d="M233.09,556.31C233.723,557.235 234.222,558.245 234.57,559.31C247.24,574.2 253.99,588.09 241.81,588.44C230.47,588.76 216.86,609.05 213.6,614.17C213.704,614.568 213.835,614.959 213.99,615.34C214.145,615.721 229.94,588.81 242.93,588.44C255.92,588.07 247.38,572.27 233.09,556.31Z" style="fill-opacity:0.1;fill-rule:nonzero;"/>
    </g>
    <g transform="matrix(1,0,0,1,-100.52,-33.01)">
        <path d="M246.54,568.37C246.54,571.7 246.17,574.37 245.71,574.37C245.25,574.37 244.87,571.67 244.87,568.37C244.87,565.07 245.34,566.61 245.8,566.61C246.26,566.61 246.54,565 246.54,568.37Z" style="fill:rgb(255,208,55);fill-rule:nonzero;"/>
    </g>
    <g transform="matrix(1,0,0,1,-100.52,-33.01)">
        <path d="M251.16,572.35C248.24,573.94 245.69,574.91 245.47,574.5C245.25,574.09 247.47,572.5 250.36,570.88C253.25,569.26 252.13,570.45 252.36,570.88C252.59,571.31 254.08,570.75 251.16,572.35Z" style="fill:rgb(255,208,55);fill-rule:nonzero;"/>
    </g>
    <g transform="matrix(1,0,0,1,-100.52,-33.01)">
        <path d="M194.88,556.31C194.88,556.31 187.64,565.78 198.22,580.06C208.8,594.34 217.51,606.4 214,615.31C214,615.31 198,588.78 185,588.41C172,588.04 180.59,572.27 194.88,556.31Z" style="fill:white;fill-rule:nonzero;"/>
    </g>
    <g transform="matrix(1,0,0,1,-100.52,-33.01)">
        <path d="M194.88,556.31C194.247,557.235 193.748,558.245 193.4,559.31C180.73,574.2 173.98,588.09 186.16,588.44C197.5,588.76 211.16,609.05 214.37,614.17C214.264,614.567 214.138,614.957 213.99,615.34C213.842,615.723 197.99,588.81 184.99,588.44C171.99,588.07 180.59,572.27 194.88,556.31Z" style="fill-opacity:0.1;fill-rule:nonzero;"/>
    </g>
    <g transform="matrix(1,0,0,1,-100.52,-33.01)">
        <path d="M181.43,568.37C181.43,571.7 181.8,574.37 182.26,574.37C182.72,574.37 183.1,571.67 183.1,568.37C183.1,565.07 182.63,566.61 182.17,566.61C181.71,566.61 181.43,565 181.43,568.37Z" style="fill:rgb(255,208,55);fill-rule:nonzero;"/>
    </g>
    <g transform="matrix(1,0,0,1,-100.52,-33.01)">
        <path d="M176.81,572.35C179.74,573.94 182.28,574.91 182.51,574.5C182.74,574.09 180.51,572.5 177.61,570.88C174.71,569.26 175.84,570.45 175.61,570.88C175.38,571.31 173.89,570.75 176.81,572.35Z" style="fill:rgb(255,208,55);fill-rule:nonzero;"/>
    </g>
    <ellipse cx="113.46" cy="643.07" rx="75.65" ry="11.61" style="fill:white;fill-opacity:0.1;"/>
    <g transform="matrix(1,0,0,1,-100.52,-33.01)">
        <path d="M252.92,602.56L252.56,605.56L252.05,609.73L251.84,611.47L251.33,615.65L251.11,617.39L250.6,621.56L244.82,669C244.3,673.24 237.38,676.54 229.02,676.54L199,676.54C190.64,676.54 183.73,673.24 183.21,669L177.42,621.55L176.91,617.38L176.7,615.64L176.18,611.46L175.97,609.72L175.46,605.55L175.1,602.55C174.81,600.15 178.55,598.13 183.28,598.13L244.8,598.13C249.47,598.14 253.22,600.16 252.92,602.56Z" style="fill:rgb(101,97,125);fill-rule:nonzero;"/>
    </g>
    <path d="M152.03,572.5L151.53,576.68L75.39,576.68L74.89,572.5L152.03,572.5Z" style="fill:rgb(157,156,181);fill-rule:nonzero;"/>
    <path d="M151.31,578.42L150.81,582.59L76.12,582.59L75.61,578.42L151.31,578.42Z" style="fill:rgb(157,156,181);fill-rule:nonzero;"/>
    <path d="M150.59,584.33L150.08,588.5L76.84,588.5L76.33,584.33L150.59,584.33Z" style="fill:rgb(157,156,181);fill-rule:nonzero;"/>
    <circle cx="179.99" cy="124.52" r="31.5" style="fill:white;fill-opacity:0.1;"/>
    <circle cx="113.99" cy="49.52" r="19.5" style="fill:white;fill-opacity:0.1;"/>
    <circle cx="12" cy="93.02" r="12" style="fill:white;fill-opacity:0.1;"/>
    <g transform="matrix(1,0,0,1,521.499,276.269)">
        <text x="0px" y="0px" style="font-family:'ArialMT', 'Arial', sans-serif;font-size:96px;fill:rgb(89,0,183);">404</text>
    </g>
    <g transform="matrix(1,0,0,1,486.545,321.301)">
        <text x="0px" y="0px" style="font-family:'ArialMT', 'Arial', sans-serif;font-size:36px;fill:rgb(89,0,183);">nie znaleziono</text>
    </g>
    <defs>
        <linearGradient id="_Linear1" x1="0" y1="0" x2="1" y2="0" gradientUnits="userSpaceOnUse" gradientTransform="matrix(4.20054e-14,-686,686,4.20054e-14,499.14,857.42)"><stop offset="0" style="stop-color:rgb(128,128,128);stop-opacity:0.25"/><stop offset="0.54" style="stop-color:rgb(128,128,128);stop-opacity:0.12"/><stop offset="1" style="stop-color:rgb(128,128,128);stop-opacity:0.1"/></linearGradient>
    </defs>
</svg>
