<?xml version="1.0" encoding="UTF-8" standalone="no"?>
<!DOCTYPE svg PUBLIC "-//W3C//DTD SVG 1.1//EN" "http://www.w3.org/Graphics/SVG/1.1/DTD/svg11.dtd">
<svg width="100%" height="100%" viewBox="0 0 801 641" version="1.1" xmlns="http://www.w3.org/2000/svg" xmlns:xlink="http://www.w3.org/1999/xlink" xml:space="preserve" xmlns:serif="http://www.serif.com/" style="fill-rule:evenodd;clip-rule:evenodd;stroke-linejoin:round;stroke-miterlimit:2;">
    <g transform="matrix(0.685858,0,0,0.685858,28.2013,8.48766)">
        <path d="M402,59.3C431.18,33.27 477,28 518.77,30C649.86,36.52 768.19,99.8 870.55,171.39C907.61,197.3 944.09,225.23 968.14,260.92C1017.14,333.57 1002.58,434.21 934.5,494.06C911.33,514.42 883.25,530.06 854.42,543.87C803.16,568.47 747.85,588.22 689.67,593.87C648.19,597.87 606.19,594.62 564.94,589.03C449.71,573.4 336.6,538.84 241.79,479.72C200.21,453.79 161,421.55 143.88,379.6C126.76,337.65 137.71,284.49 180.17,259.66C197.73,249.39 218.73,244.75 239.28,240.39C269.54,233.98 300.28,227.66 327.58,214.63C355.79,201.17 389.18,175.14 383.58,145.34C377.6,113.37 372.8,85.3 402,59.3Z" style="fill:rgb(34,0,145);fill-opacity:0.1;fill-rule:nonzero;"/>
    </g>
    <g transform="matrix(0.685858,0,0,0.685858,71.2252,28.8096)">
        <ellipse cx="460.93" cy="788.9" rx="133.14" ry="41.68" style="fill:rgb(34,0,145);fill-opacity:0.1;"/>
    </g>
    <g transform="matrix(0.685858,0,0,0.685858,71.2252,28.8096)">
        <path d="M733.95,360.24L738.78,616.96L749.05,618.17L745.18,359.22L733.95,360.24Z" style="fill:rgb(245,197,204);fill-rule:nonzero;"/>
    </g>
    <g transform="matrix(0.685858,0,0,0.685858,71.2252,28.8096)">
        <path d="M739.87,355.45L745.38,622.64L749.05,618.17L745.18,359.22L739.87,355.45Z" style="fill:none;fill-rule:nonzero;"/>
    </g>
    <g transform="matrix(0.685858,0,0,0.685858,71.2252,28.8096)">
        <path d="M709.12,355.41L713.95,612.13L724.22,613.34L720.35,354.39L709.12,355.41Z" style="fill:rgb(245,197,204);fill-rule:nonzero;"/>
    </g>
    <g transform="matrix(0.685858,0,0,0.685858,71.2252,28.8096)">
        <path d="M715.04,350.62L720.54,617.81L724.22,613.34L720.35,354.39L715.04,350.62Z" style="fill:none;fill-rule:nonzero;"/>
    </g>
    <g transform="matrix(0.685858,0,0,0.685858,71.2252,28.8096)">
        <path d="M715.19,341.99L715.69,621.99L726.19,620.99L722.19,336.49L715.19,341.99Z" style="fill:rgb(204,146,155);fill-rule:nonzero;"/>
    </g>
    <g transform="matrix(0.685858,0,0,0.685858,71.2252,28.8096)">
        <path d="M425.56,295.24L429.99,527.95L440.26,529.03L436.8,294.3L425.56,295.24Z" style="fill:rgb(245,197,204);fill-rule:nonzero;"/>
    </g>
    <g transform="matrix(0.685858,0,0,0.685858,71.2252,28.8096)">
        <path d="M431.49,290.89L436.57,533.09L440.26,529.03L436.8,294.3L431.49,290.89Z" style="fill:rgb(204,146,155);fill-rule:nonzero;"/>
    </g>
    <g transform="matrix(0.685858,0,0,0.685858,71.2252,28.8096)">
        <path d="M447.41,301.13L451.84,533.83L462.11,534.91L458.65,300.19L447.41,301.13Z" style="fill:rgb(245,197,204);fill-rule:nonzero;"/>
    </g>
    <g transform="matrix(0.685858,0,0,0.685858,71.2252,28.8096)">
        <path d="M453.34,296.77L458.43,538.97L462.11,534.91L458.65,300.19L453.34,296.77Z" style="fill:rgb(204,146,155);fill-rule:nonzero;"/>
    </g>
    <g transform="matrix(0.685858,0,0,0.685858,71.2252,28.8096)">
        <path d="M468.77,307.51L473.2,540.22L483.47,541.3L480.01,306.58L468.77,307.51Z" style="fill:rgb(245,197,204);fill-rule:nonzero;"/>
    </g>
    <g transform="matrix(0.685858,0,0,0.685858,71.2252,28.8096)">
        <path d="M474.7,303.17L479.79,545.36L483.47,541.3L480.01,306.58L474.7,303.17Z" style="fill:rgb(204,146,155);fill-rule:nonzero;"/>
    </g>
    <g transform="matrix(0.685858,0,0,0.685858,71.2252,28.8096)">
        <path d="M489.55,308.81L494.11,549.69L504.38,550.81L500.78,307.85L489.55,308.81Z" style="fill:rgb(245,197,204);fill-rule:nonzero;"/>
    </g>
    <g transform="matrix(0.685858,0,0,0.685858,71.2252,28.8096)">
        <path d="M495.47,304.31L500.7,555.01L504.38,550.81L500.78,307.85L495.47,304.31Z" style="fill:rgb(204,146,155);fill-rule:nonzero;"/>
    </g>
    <g transform="matrix(0.685858,0,0,0.685858,71.2252,28.8096)">
        <path d="M512.08,310.69L516.65,551.56L526.92,552.68L523.32,309.72L512.08,310.69Z" style="fill:rgb(245,197,204);fill-rule:nonzero;"/>
    </g>
    <g transform="matrix(0.685858,0,0,0.685858,71.2252,28.8096)">
        <path d="M518.01,306.19L523.24,556.88L526.92,552.68L523.32,309.72L518.01,306.19Z" style="fill:rgb(204,146,155);fill-rule:nonzero;"/>
    </g>
    <g transform="matrix(0.685858,0,0,0.685858,71.2252,28.8096)">
        <path d="M534.22,318.56L538.78,559.44L549.05,560.56L545.46,317.6L534.22,318.56Z" style="fill:rgb(245,197,204);fill-rule:nonzero;"/>
    </g>
    <g transform="matrix(0.685858,0,0,0.685858,71.2252,28.8096)">
        <path d="M540.14,314.06L545.37,564.76L549.05,560.56L545.46,317.6L540.14,314.06Z" style="fill:rgb(204,146,155);fill-rule:nonzero;"/>
    </g>
    <g transform="matrix(0.685858,0,0,0.685858,71.2252,28.8096)">
        <path d="M559.56,323.76L564.24,571.36L574.51,572.51L570.8,322.77L559.56,323.76Z" style="fill:rgb(245,197,204);fill-rule:nonzero;"/>
    </g>
    <g transform="matrix(0.685858,0,0,0.685858,71.2252,28.8096)">
        <path d="M565.48,319.14L570.83,576.83L574.51,572.51L570.8,322.77L565.48,319.14Z" style="fill:rgb(204,146,155);fill-rule:nonzero;"/>
    </g>
    <g transform="matrix(0.685858,0,0,0.685858,71.2252,28.8096)">
        <path d="M581.61,326.39L586.28,573.99L596.56,575.14L592.84,325.4L581.61,326.39Z" style="fill:rgb(245,197,204);fill-rule:nonzero;"/>
    </g>
    <g transform="matrix(0.685858,0,0,0.685858,71.2252,28.8096)">
        <path d="M587.53,321.76L592.88,579.46L596.56,575.14L592.84,325.4L587.53,321.76Z" style="fill:rgb(204,146,155);fill-rule:nonzero;"/>
    </g>
    <g transform="matrix(0.685858,0,0,0.685858,71.2252,28.8096)">
        <path d="M604.97,332.99L609.65,580.59L619.92,581.75L616.21,332.01L604.97,332.99Z" style="fill:rgb(245,197,204);fill-rule:nonzero;"/>
    </g>
    <g transform="matrix(0.685858,0,0,0.685858,71.2252,28.8096)">
        <path d="M610.9,328.37L616.24,586.07L619.92,581.75L616.21,332.01L610.9,328.37Z" style="fill:rgb(204,146,155);fill-rule:nonzero;"/>
    </g>
    <g transform="matrix(0.685858,0,0,0.685858,71.2252,28.8096)">
        <path d="M405.55,294.83L405.05,280.09L410.25,277.25L783.19,353.74L783.88,372.45L405.55,294.83Z" style="fill:rgb(245,197,204);fill-rule:nonzero;"/>
    </g>
    <g transform="matrix(0.685858,0,0,0.685858,71.2252,28.8096)">
        <path d="M410.25,277.25L784.56,353.68L784.18,360.69L405.82,279.66" style="fill:rgb(204,146,155);fill-rule:nonzero;"/>
    </g>
    <g transform="matrix(0.685858,0,0,0.685858,71.2252,28.8096)">
        <path d="M425.69,661.67L415.19,665.49L405.19,665.49L404.69,270.95L410.19,263.31L415.5,261.75L422.19,260.74L425.69,661.67Z" style="fill:rgb(245,197,204);fill-rule:nonzero;"/>
    </g>
    <g transform="matrix(0.685858,0,0,0.685858,71.2252,28.8096)">
        <path d="M425.69,661.67L415.19,665.49L414.54,271.73L415.5,261.75L422.19,260.74L425.69,661.67Z" style="fill:rgb(204,146,155);fill-rule:nonzero;"/>
    </g>
    <g transform="matrix(0.685858,0,0,0.685858,71.2252,28.8096)">
        <path d="M630.35,340.32L635.03,587.91L645.3,589.07L641.59,339.33L630.35,340.32Z" style="fill:rgb(245,197,204);fill-rule:nonzero;"/>
    </g>
    <g transform="matrix(0.685858,0,0,0.685858,71.2252,28.8096)">
        <path d="M636.27,335.69L641.62,593.39L645.3,589.07L641.59,339.33L636.27,335.69Z" style="fill:rgb(204,146,155);fill-rule:nonzero;"/>
    </g>
    <g transform="matrix(0.685858,0,0,0.685858,71.2252,28.8096)">
        <path d="M655.92,344.23L660.69,597.12L670.96,598.3L667.15,343.23L655.92,344.23Z" style="fill:rgb(245,197,204);fill-rule:nonzero;"/>
    </g>
    <g transform="matrix(0.685858,0,0,0.685858,71.2252,28.8096)">
        <path d="M661.84,339.51L667.28,602.71L670.96,598.3L667.15,343.23L661.84,339.51Z" style="fill:none;fill-rule:nonzero;"/>
    </g>
    <g transform="matrix(0.685858,0,0,0.685858,71.2252,28.8096)">
        <path d="M682.25,348.86L687.08,605.58L697.35,606.79L693.49,347.84L682.25,348.86Z" style="fill:rgb(245,197,204);fill-rule:nonzero;"/>
    </g>
    <g transform="matrix(0.685858,0,0,0.685858,71.2252,28.8096)">
        <path d="M688.17,344.07L693.68,611.27L697.35,606.79L693.49,347.84L688.17,344.07Z" style="fill:rgb(204,146,155);fill-rule:nonzero;"/>
    </g>
    <g transform="matrix(0.685858,0,0,0.685858,71.2252,28.8096)">
        <path d="M280.19,585.99L269.69,586.99L269.2,310.8L269.19,306.99L276.19,301.49L276.3,309.15L280.19,585.99Z" style="fill:rgb(245,197,204);fill-rule:nonzero;"/>
    </g>
    <g transform="matrix(0.685858,0,0,0.685858,71.2252,28.8096)">
        <path d="M317.19,570.49L306.69,571.49L306.2,299.81L306.19,291.49L313.19,285.99L313.35,297.15L317.19,570.49Z" style="fill:rgb(245,197,204);fill-rule:nonzero;"/>
    </g>
    <g transform="matrix(0.685858,0,0,0.685858,71.2252,28.8096)">
        <path d="M378.19,545.49L367.69,546.49L367.21,278.24L367.19,266.49L374.19,260.99L374.41,276.57L378.19,545.49Z" style="fill:rgb(245,197,204);fill-rule:nonzero;"/>
    </g>
    <g transform="matrix(0.685858,0,0,0.685858,71.2252,28.8096)">
        <path d="M404.69,535.49L394.19,536.49L393.72,274.79L393.69,256.49L400.69,250.99L401.05,276.41L404.69,535.49Z" style="fill:rgb(245,197,204);fill-rule:nonzero;"/>
    </g>
    <g transform="matrix(0.685858,0,0,0.685858,71.2252,28.8096)">
        <path d="M298.69,582.99L288.19,583.99L287.69,305.99L287.69,303.99L294.69,298.49L294.76,303.76L298.69,582.99Z" style="fill:rgb(245,197,204);fill-rule:nonzero;"/>
    </g>
    <g transform="matrix(0.685858,0,0,0.685858,71.2252,28.8096)">
        <path d="M352.69,557.99L342.19,558.99L341.7,286.23L341.69,278.99L348.69,273.49L348.83,283.75L352.69,557.99Z" style="fill:rgb(245,197,204);fill-rule:nonzero;"/>
    </g>
    <g transform="matrix(0.685858,0,0,0.685858,71.2252,28.8096)">
        <path d="M335.19,562.99L324.69,563.99L324.21,292.88L324.19,283.99L331.19,278.49L331.35,290.07L335.19,562.99Z" style="fill:rgb(245,197,204);fill-rule:nonzero;"/>
    </g>
    <g transform="matrix(0.685858,0,0,0.685858,28.2013,8.48766)">
        <path d="M331.72,569.48L329.22,574.73C329.22,574.73 322.72,584.48 323.47,599.48C324.22,614.48 313,654.23 313,654.23C313,654.23 323.25,658.98 331,658.48C338.75,657.98 355.5,666.23 355.5,666.23L390.22,677L460.47,693.5C460.47,693.5 501.72,716.5 512.97,716.5C524.22,716.5 568.97,731.75 568.97,731.75C568.97,731.75 629.47,745 634.22,750C638.97,755 659,761.73 661,762C663,762.27 693.5,765.25 693.5,765.25C693.5,765.25 729,773.5 734,764.75C736.914,759.83 738.866,754.4 739.75,748.75C740.634,743.1 755.5,752.25 759.75,747C764,741.75 764.25,730.5 769.25,731C774.25,731.5 794.75,737.75 797,735.5C799.25,733.25 811.25,706.75 819.75,710.75C828.25,714.75 843,721 843,721L834.5,634.5L830.75,610.75C830.75,610.75 694.5,666.25 689.75,666.25C685,666.25 331.72,569.48 331.72,569.48Z" style="fill:rgb(34,0,145);fill-rule:nonzero;"/>
    </g>
    <g transform="matrix(0.685858,0,0,0.685858,28.2013,8.48766)">
        <path d="M830,493.73L829.25,615.73L687.72,670L329.22,574.75C329.22,574.75 304.97,540.5 327.47,508.5C327.47,508.5 298.47,468.5 334.47,442.5L335.36,442.29L471.47,409.5L532,420.56L799.45,469.48C799.45,469.48 825.72,479.23 830,493.73Z" style="fill:rgb(34,0,145);fill-rule:nonzero;"/>
    </g>
    <g transform="matrix(0.685858,0,0,0.685858,28.2013,8.48766)">
        <path d="M527.22,432.23C520.47,435.73 471.47,448.48 461.72,456.23C451.97,463.98 384.47,470 384.47,470L376.97,471.5C376.97,471.5 377.47,466.5 347.72,452C342.967,449.662 338.757,446.354 335.36,442.29L471.47,409.5L532,420.56C532.08,425.35 531.26,430.13 527.22,432.23Z" style="fill-opacity:0.1;fill-rule:nonzero;"/>
    </g>
    <g transform="matrix(0.685858,0,0,0.685858,28.2013,8.48766)">
        <path d="M321.47,384C321.47,384 318.97,432.5 348.72,447C378.47,461.5 378,466.48 378,466.48L385.5,464.98C385.5,464.98 359.5,435.98 361.25,430.98C363,425.98 338,400.73 334.47,399.73C330.94,398.73 321.47,384 321.47,384Z" style="fill:rgb(34,0,145);fill-rule:nonzero;"/>
    </g>
    <g transform="matrix(0.685858,0,0,0.685858,28.2013,8.48766)">
        <path d="M322,384.73C322,384.73 319.5,433.23 349.25,447.73C379,462.23 378.5,467.23 378.5,467.23L386,465.73C386,465.73 360,436.73 361.75,431.73C363.5,426.73 338.47,401.48 335,400.48C331.53,399.48 322,384.73 322,384.73Z" style="fill-opacity:0.1;fill-rule:nonzero;"/>
    </g>
    <g transform="matrix(0.685858,0,0,0.685858,28.2013,8.48766)">
        <path d="M329,405.23C329,405.23 353,441.48 357.25,442.73C361.5,443.98 334.72,405.73 329,405.23Z" style="fill-opacity:0.1;fill-rule:nonzero;"/>
    </g>
    <g transform="matrix(0.685858,0,0,0.685858,28.2013,8.48766)">
        <path d="M318,377.23C318,377.23 333.5,364.73 335.5,362.23C337.5,359.73 359.5,358.73 360.25,358.73C361,358.73 377.75,348.48 396.5,345.23C415.25,341.98 422.75,340.48 422.75,340.48C422.75,340.48 450.25,328.98 451.75,326.48C453.25,323.98 466,321.23 481.75,333.48C497.5,345.73 532.25,400.73 532.5,406.73C532.75,412.73 535,423.73 528.25,427.23C521.5,430.73 472.5,443.48 462.75,451.23C453,458.98 385.47,465 385.47,465L360,437.23L346.5,415.48L324,391.73L318,377.23Z" style="fill:rgb(34,0,145);fill-rule:nonzero;"/>
    </g>
    <g transform="matrix(0.685858,0,0,0.685858,28.2013,8.48766)">
        <path d="M359.8,593.15C359.8,593.15 350.47,595.15 355.8,600.48C361.13,605.81 359.8,593.15 359.8,593.15Z" style="fill-opacity:0.1;fill-rule:nonzero;"/>
    </g>
    <g transform="matrix(0.685858,0,0,0.685858,28.2013,8.48766)">
        <path d="M392.47,603.82C392.47,603.82 382.47,615.82 384.47,619.15C386.47,622.48 392.47,603.82 392.47,603.82Z" style="fill-opacity:0.1;fill-rule:nonzero;"/>
    </g>
    <g transform="matrix(0.685858,0,0,0.685858,28.2013,8.48766)">
        <path d="M451.14,619.15C451.14,619.15 441.14,631.15 443.14,634.48C445.14,637.81 451.14,619.15 451.14,619.15Z" style="fill-opacity:0.1;fill-rule:nonzero;"/>
    </g>
    <g transform="matrix(0.685858,0,0,0.685858,28.2013,8.48766)">
        <path d="M522.47,639.15C522.47,639.15 512.47,651.15 514.47,654.48C516.47,657.81 522.47,639.15 522.47,639.15Z" style="fill-opacity:0.1;fill-rule:nonzero;"/>
    </g>
    <g transform="matrix(0.685858,0,0,0.685858,28.2013,8.48766)">
        <path d="M618.47,663.15C618.47,663.15 608.47,675.15 610.47,678.48C612.47,681.81 618.47,663.15 618.47,663.15Z" style="fill-opacity:0.1;fill-rule:nonzero;"/>
    </g>
    <g transform="matrix(0.685858,0,0,0.685858,28.2013,8.48766)">
        <path d="M421.14,607.15C421.14,607.15 411.14,619.15 413.14,622.48C415.14,625.81 421.14,607.15 421.14,607.15Z" style="fill-opacity:0.1;fill-rule:nonzero;"/>
    </g>
    <g transform="matrix(0.685858,0,0,0.685858,28.2013,8.48766)">
        <path d="M560.47,649.15C560.47,649.15 550.47,661.15 552.47,664.48C554.47,667.81 560.47,649.15 560.47,649.15Z" style="fill-opacity:0.1;fill-rule:nonzero;"/>
    </g>
    <g transform="matrix(0.685858,0,0,0.685858,28.2013,8.48766)">
        <path d="M589.8,658.48C589.8,658.48 579.8,670.48 581.8,673.82C583.8,677.16 589.8,658.48 589.8,658.48Z" style="fill-opacity:0.1;fill-rule:nonzero;"/>
    </g>
    <g transform="matrix(0.685858,0,0,0.685858,28.2013,8.48766)">
        <path d="M477.14,627.15C477.14,627.15 467.14,639.15 469.14,642.48C471.14,645.81 477.14,627.15 477.14,627.15Z" style="fill-opacity:0.1;fill-rule:nonzero;"/>
    </g>
    <g transform="matrix(0.685858,0,0,0.685858,28.2013,8.48766)">
        <path d="M729.14,699.82L739.72,748.73C739.72,748.73 739.8,714.48 729.14,699.82Z" style="fill-opacity:0.1;fill-rule:nonzero;"/>
    </g>
    <g transform="matrix(0.685858,0,0,0.685858,28.2013,8.48766)">
        <path d="M761.8,707.15L769.22,731C769.22,731 768.47,721.82 761.8,707.15Z" style="fill-opacity:0.1;fill-rule:nonzero;"/>
    </g>
    <g transform="matrix(0.685858,0,0,0.685858,28.2013,8.48766)">
        <path d="M797,735.48C797,735.48 781.17,677.82 777.83,673.82C774.49,669.82 787.47,731.82 797,735.48Z" style="fill-opacity:0.1;fill-rule:nonzero;"/>
    </g>
    <g transform="matrix(0.685858,0,0,0.685858,28.2013,8.48766)">
        <path d="M815.8,708.48C815.8,708.48 797.14,675.82 804.47,669.82C811.8,663.82 815.8,708.48 815.8,708.48Z" style="fill-opacity:0.1;fill-rule:nonzero;"/>
    </g>
    <g transform="matrix(0.685858,0,0,0.685858,28.2013,8.48766)">
        <path d="M327.47,508.48L689.8,589.82L829.14,549.15L688.47,585.82C688.47,585.82 338.47,505.15 327.47,508.48Z" style="fill-opacity:0.1;fill-rule:nonzero;"/>
    </g>
    <g transform="matrix(0.685858,0,0,0.685858,71.2252,28.8096)">
        <path d="M275.69,390.49L276.19,623.24L286.44,624.49L286.94,389.74L275.69,390.49Z" style="fill:rgb(245,197,204);fill-rule:nonzero;"/>
    </g>
    <g transform="matrix(0.685858,0,0,0.685858,71.2252,28.8096)">
        <path d="M281.69,386.24L282.69,628.49L286.44,624.49L286.94,389.74L281.69,386.24Z" style="fill:rgb(204,146,155);fill-rule:nonzero;"/>
    </g>
    <g transform="matrix(0.685858,0,0,0.685858,71.2252,28.8096)">
        <path d="M297.44,396.74L297.94,629.49L308.19,630.74L308.69,395.99L297.44,396.74Z" style="fill:rgb(245,197,204);fill-rule:nonzero;"/>
    </g>
    <g transform="matrix(0.685858,0,0,0.685858,71.2252,28.8096)">
        <path d="M303.44,392.49L304.44,634.74L308.19,630.74L308.69,395.99L303.44,392.49Z" style="fill:rgb(204,146,155);fill-rule:nonzero;"/>
    </g>
    <g transform="matrix(0.685858,0,0,0.685858,71.2252,28.8096)">
        <path d="M318.69,403.49L319.19,636.24L329.44,637.49L329.94,402.74L318.69,403.49Z" style="fill:rgb(245,197,204);fill-rule:nonzero;"/>
    </g>
    <g transform="matrix(0.685858,0,0,0.685858,71.2252,28.8096)">
        <path d="M324.69,399.24L325.69,641.49L329.44,637.49L329.94,402.74L324.69,399.24Z" style="fill:rgb(204,146,155);fill-rule:nonzero;"/>
    </g>
    <g transform="matrix(0.685858,0,0,0.685858,71.2252,28.8096)">
        <path d="M339.44,405.14L339.94,646.06L350.19,647.35L350.69,404.36L339.44,405.14Z" style="fill:rgb(245,197,204);fill-rule:nonzero;"/>
    </g>
    <g transform="matrix(0.685858,0,0,0.685858,71.2252,28.8096)">
        <path d="M345.44,400.74L346.44,651.49L350.19,647.35L350.69,404.36L345.44,400.74Z" style="fill:rgb(204,146,155);fill-rule:nonzero;"/>
    </g>
    <g transform="matrix(0.685858,0,0,0.685858,71.2252,28.8096)">
        <path d="M361.94,407.39L362.44,648.31L372.69,649.6L373.19,406.61L361.94,407.39Z" style="fill:rgb(245,197,204);fill-rule:nonzero;"/>
    </g>
    <g transform="matrix(0.685858,0,0,0.685858,71.2252,28.8096)">
        <path d="M367.94,402.99L368.94,653.74L372.69,649.6L373.19,406.61L367.94,402.99Z" style="fill:rgb(204,146,155);fill-rule:nonzero;"/>
    </g>
    <g transform="matrix(0.685858,0,0,0.685858,71.2252,28.8096)">
        <path d="M383.94,415.64L384.44,656.56L394.69,657.85L395.19,414.86L383.94,415.64Z" style="fill:rgb(245,197,204);fill-rule:nonzero;"/>
    </g>
    <g transform="matrix(0.685858,0,0,0.685858,71.2252,28.8096)">
        <path d="M389.94,411.24L390.94,661.99L394.69,657.85L395.19,414.86L389.94,411.24Z" style="fill:rgb(204,146,155);fill-rule:nonzero;"/>
    </g>
    <g transform="matrix(0.685858,0,0,0.685858,71.2252,28.8096)">
        <path d="M409.19,421.26L409.69,668.9L419.94,670.23L420.44,420.46L409.19,421.26Z" style="fill:none;fill-rule:nonzero;"/>
    </g>
    <g transform="matrix(0.685858,0,0,0.685858,71.2252,28.8096)">
        <path d="M415.19,416.74L416.19,674.49L419.94,670.23L420.44,420.46L415.19,416.74Z" style="fill:rgb(204,146,155);fill-rule:nonzero;"/>
    </g>
    <g transform="matrix(0.685858,0,0,0.685858,71.2252,28.8096)">
        <path d="M431.19,424.26L431.69,671.9L441.94,673.23L442.44,423.46L431.19,424.26Z" style="fill:rgb(245,197,204);fill-rule:nonzero;"/>
    </g>
    <g transform="matrix(0.685858,0,0,0.685858,71.2252,28.8096)">
        <path d="M437.19,419.74L438.19,677.49L441.94,673.23L442.44,423.46L437.19,419.74Z" style="fill:rgb(204,146,155);fill-rule:nonzero;"/>
    </g>
    <g transform="matrix(0.685858,0,0,0.685858,71.2252,28.8096)">
        <path d="M454.44,431.26L454.94,678.9L465.19,680.23L465.69,430.46L454.44,431.26Z" style="fill:rgb(245,197,204);fill-rule:nonzero;"/>
    </g>
    <g transform="matrix(0.685858,0,0,0.685858,71.2252,28.8096)">
        <path d="M460.44,426.74L461.44,684.49L465.19,680.23L465.69,430.46L460.44,426.74Z" style="fill:rgb(204,146,155);fill-rule:nonzero;"/>
    </g>
    <g transform="matrix(0.685858,0,0,0.685858,71.2252,28.8096)">
        <path d="M479.69,439.01L480.19,686.65L490.44,687.98L490.94,438.21L479.69,439.01Z" style="fill:rgb(245,197,204);fill-rule:nonzero;"/>
    </g>
    <g transform="matrix(0.685858,0,0,0.685858,71.2252,28.8096)">
        <path d="M485.69,434.49L486.69,692.24L490.44,687.98L490.94,438.21L485.69,434.49Z" style="fill:rgb(204,146,155);fill-rule:nonzero;"/>
    </g>
    <g transform="matrix(0.685858,0,0,0.685858,71.2252,28.8096)">
        <path d="M505.19,443.36L505.69,696.28L515.94,697.64L516.44,442.54L505.19,443.36Z" style="fill:rgb(245,197,204);fill-rule:nonzero;"/>
    </g>
    <g transform="matrix(0.685858,0,0,0.685858,71.2252,28.8096)">
        <path d="M511.19,438.74L512.19,701.99L515.94,697.64L516.44,442.54L511.19,438.74Z" style="fill:rgb(204,146,155);fill-rule:nonzero;"/>
    </g>
    <g transform="matrix(0.685858,0,0,0.685858,71.2252,28.8096)">
        <path d="M531.44,448.43L531.94,705.2L542.19,706.58L542.69,447.6L531.44,448.43Z" style="fill:rgb(204,146,155);fill-rule:nonzero;"/>
    </g>
    <g transform="matrix(0.685858,0,0,0.685858,71.2252,28.8096)">
        <path d="M537.44,443.74L538.44,710.99L542.19,706.58L542.69,447.6L537.44,443.74Z" style="fill:none;fill-rule:nonzero;"/>
    </g>
    <g transform="matrix(0.685858,0,0,0.685858,71.2252,28.8096)">
        <path d="M558.19,455.43L558.69,712.2L568.94,713.58L569.44,454.6L558.19,455.43Z" style="fill:rgb(245,197,204);fill-rule:nonzero;"/>
    </g>
    <g transform="matrix(0.685858,0,0,0.685858,71.2252,28.8096)">
        <path d="M564.19,450.74L565.19,717.99L568.94,713.58L569.44,454.6L564.19,450.74Z" style="fill:rgb(204,146,155);fill-rule:nonzero;"/>
    </g>
    <g transform="matrix(0.685858,0,0,0.685858,71.2252,28.8096)">
        <path d="M582.94,460.68L583.44,717.45L593.69,718.83L594.19,459.85L582.94,460.68Z" style="fill:rgb(204,146,155);fill-rule:nonzero;"/>
    </g>
    <g transform="matrix(0.685858,0,0,0.685858,71.2252,28.8096)">
        <path d="M588.94,455.99L589.94,723.24L593.69,718.83L594.19,459.85L588.94,455.99Z" style="fill:none;fill-rule:nonzero;"/>
    </g>
    <g transform="matrix(0.685858,0,0,0.685858,71.2252,28.8096)">
        <path d="M262.19,668.49L251.69,672.49L241.69,672.49L241.19,305.49L246.69,297.49L252,295.86L259.69,293.49L262.19,668.49Z" style="fill:rgb(245,197,204);fill-rule:nonzero;"/>
    </g>
    <g transform="matrix(0.685858,0,0,0.685858,71.2252,28.8096)">
        <path d="M262.19,668.49L251.69,672.49L251.04,306.3L252,295.86L259.69,293.49L262.19,668.49Z" style="fill:rgb(204,146,155);fill-rule:nonzero;"/>
    </g>
    <g transform="matrix(0.685858,0,0,0.685858,71.2252,28.8096)">
        <circle cx="252.69" cy="671.99" r="12" style="fill:rgb(64,65,77);"/>
    </g>
    <g transform="matrix(0.685858,0,0,0.685858,71.2252,28.8096)">
        <path d="M799.19,724.67L788.69,728.49L778.69,728.49L778.19,324.95L783.69,326.31L789,324.75L796.69,322.49L799.19,724.67Z" style="fill:rgb(245,197,204);fill-rule:nonzero;"/>
    </g>
    <g transform="matrix(0.685858,0,0,0.685858,71.2252,28.8096)">
        <path d="M799.19,724.67L788.69,728.49L788.04,334.73L789,324.75L796.69,322.49L799.19,724.67Z" style="fill:rgb(204,146,155);fill-rule:nonzero;"/>
    </g>
    <g transform="matrix(0.685858,0,0,0.685858,71.2252,28.8096)">
        <path d="M653.69,648.99L643.19,649.99L642.71,380.4L642.69,369.99L649.69,364.49L649.89,378.86L653.69,648.99Z" style="fill:rgb(245,197,204);fill-rule:nonzero;"/>
    </g>
    <g transform="matrix(0.685858,0,0,0.685858,71.2252,28.8096)">
        <path d="M690.69,633.49L680.19,634.49L679.72,369.88L679.69,354.49L686.69,348.99L686.95,367.25L690.69,633.49Z" style="fill:rgb(245,197,204);fill-rule:nonzero;"/>
    </g>
    <g transform="matrix(0.685858,0,0,0.685858,71.2252,28.8096)">
        <path d="M751.69,608.49L741.19,609.49L740.72,345.5L740.69,329.49L747.69,323.99L747.95,342.5L751.69,608.49Z" style="fill:rgb(245,197,204);fill-rule:nonzero;"/>
    </g>
    <g transform="matrix(0.685858,0,0,0.685858,71.2252,28.8096)">
        <path d="M767.19,319.49L767.69,599.49L778.19,598.49L774.19,313.99L767.19,319.49Z" style="fill:rgb(245,197,204);fill-rule:nonzero;"/>
    </g>
    <g transform="matrix(0.685858,0,0,0.685858,71.2252,28.8096)">
        <path d="M672.19,645.99L661.69,646.99L661.21,375.87L661.19,366.99L668.19,361.49L668.36,373.7L672.19,645.99Z" style="fill:rgb(245,197,204);fill-rule:nonzero;"/>
    </g>
    <g transform="matrix(0.685858,0,0,0.685858,71.2252,28.8096)">
        <path d="M708.69,625.99L698.19,626.99L697.72,363.08L697.69,346.99L704.69,341.49L704.95,360.17L708.69,625.99Z" style="fill:rgb(245,197,204);fill-rule:nonzero;"/>
    </g>
    <g transform="matrix(0.685858,0,0,0.685858,71.2252,28.8096)">
        <path d="M729.02,619.32L718.52,620.32L718.05,356.41L718.05,354.84L718.02,340.32L725.02,334.82L725.26,351.88L725.28,353.5L729.02,619.32Z" style="fill:rgb(245,197,204);fill-rule:nonzero;"/>
    </g>
    <g transform="matrix(0.685858,0,0,0.685858,71.2252,28.8096)">
        <path d="M632.69,647.16L777.69,585.49L787.69,587.82L788.02,610.82L635.36,669.82L632.69,647.16Z" style="fill:rgb(245,197,204);fill-rule:nonzero;"/>
    </g>
    <g transform="matrix(0.685858,0,0,0.685858,71.2252,28.8096)">
        <path d="M777.69,585.49L632.69,647.16L787.15,587.69" style="fill:rgb(204,146,155);fill-rule:nonzero;"/>
    </g>
    <g transform="matrix(0.685858,0,0,0.685858,71.2252,28.8096)">
        <path d="M257.02,614.49L622.69,725.49L622.02,743.49L255.69,630.49L257.02,614.49Z" style="fill:rgb(245,197,204);fill-rule:nonzero;"/>
    </g>
    <g transform="matrix(0.685858,0,0,0.685858,28.2013,8.48766)">
        <path d="M701.42,818.12L690.92,822.12L680.92,822.12L680.42,411.12L680.42,409.12L681.2,407.98L685.92,401.12L691.23,399.49L698.92,397.12L699,411.12L701.42,818.12Z" style="fill:rgb(245,197,204);fill-rule:nonzero;"/>
    </g>
    <g transform="matrix(0.685858,0,0,0.685858,71.2252,28.8096)">
        <path d="M638.69,788.49L628.19,792.49L627.54,380.3L628.5,369.86L636.19,367.49L638.69,788.49Z" style="fill:rgb(204,146,155);fill-rule:nonzero;"/>
    </g>
    <g transform="matrix(0.685858,0,0,0.685858,28.2013,8.48766)">
        <path d="M698.92,397.12L699,411.12C696.106,411.543 693.192,411.817 690.27,411.94C683.07,412.22 680.42,411.13 680.42,411.13C680.42,410.99 680.7,409.87 681.2,408L685.92,401.14L691.23,399.51L698.92,397.12Z" style="fill-opacity:0.1;fill-rule:nonzero;"/>
    </g>
    <g transform="matrix(0.685858,0,0,0.685858,28.2013,8.48766)">
        <path d="M712.42,394.12L712.62,408.49C710.04,409.09 707.647,409.603 705.44,410.03L705.44,399.62L712.42,394.12Z" style="fill-opacity:0.1;fill-rule:nonzero;"/>
    </g>
    <g transform="matrix(0.685858,0,0,0.685858,28.2013,8.48766)">
        <path d="M730.92,391.12L731.09,403.33C728.6,404.12 726.21,404.84 723.94,405.5L723.94,396.62L730.92,391.12Z" style="fill-opacity:0.1;fill-rule:nonzero;"/>
    </g>
    <g transform="matrix(0.685858,0,0,0.685858,28.2013,8.48766)">
        <path d="M749.42,378.62L749.68,396.88C747.18,397.807 744.77,398.683 742.45,399.51L742.45,384.12L749.42,378.62Z" style="fill-opacity:0.1;fill-rule:nonzero;"/>
    </g>
    <g transform="matrix(0.685858,0,0,0.685858,28.2013,8.48766)">
        <path d="M767.42,371.12L767.68,389.8L761.92,392.12L760.45,392.71L760.45,376.62L767.42,371.12Z" style="fill-opacity:0.1;fill-rule:nonzero;"/>
    </g>
    <g transform="matrix(0.685858,0,0,0.685858,28.2013,8.48766)">
        <path d="M810.68,372.13L803.45,375.13L803.45,359.13L810.45,353.63L810.68,372.13Z" style="fill-opacity:0.1;fill-rule:nonzero;"/>
    </g>
    <g transform="matrix(0.685858,0,0,0.685858,28.2013,8.48766)">
        <path d="M788,381.51L780.79,384.51L780.79,369.99L787.79,364.49L788,381.51Z" style="fill-opacity:0.1;fill-rule:nonzero;"/>
    </g>
    <g transform="matrix(0.685858,0,0,0.685858,28.2013,8.48766)">
        <path d="M865.42,361.12C865.42,361.12 846.92,361.12 841.92,359.62C836.92,358.12 826.42,364.12 761.92,390.12C722.92,405.85 701.27,409.5 690.27,409.93C683.07,410.21 680.42,409.12 680.42,409.12C680.42,409.12 693.59,348.7 735.53,337.41C740.206,336.136 744.804,334.59 749.3,332.78L750.11,332.47C753.632,331.106 757.244,329.986 760.92,329.12C774.38,326.03 783.99,320.12 808.32,319.94C823.413,319.687 838.151,324.576 850.1,333.8C858.44,340.36 865.63,349.43 865.42,361.12Z" style="fill:rgb(204,146,155);fill-rule:nonzero;"/>
    </g>
    <g transform="matrix(0.685858,0,0,0.685858,28.2013,8.48766)">
        <path d="M751.92,332.12C700.02,354.5 692.1,396.33 690.27,409.93C683.07,410.21 680.42,409.12 680.42,409.12C680.42,409.12 693.59,348.7 735.53,337.41C740.206,336.136 744.804,334.59 749.3,332.78L750.11,332.47C750.71,332.38 751.31,332.26 751.92,332.12Z" style="fill:rgb(245,197,204);fill-rule:nonzero;"/>
    </g>
    <g transform="matrix(0.685858,0,0,0.685858,28.2013,8.48766)">
        <path d="M338.92,331.12L339.03,338.78C336.5,339.41 334.14,339.96 331.93,340.43L331.93,336.62L338.92,331.12Z" style="fill-opacity:0.1;fill-rule:nonzero;"/>
    </g>
    <g transform="matrix(0.685858,0,0,0.685858,28.2013,8.48766)">
        <path d="M357.42,328.12L357.49,333.39C355.03,334.203 352.673,334.947 350.42,335.62L350.42,333.62L357.42,328.12Z" style="fill-opacity:0.1;fill-rule:nonzero;"/>
    </g>
    <g transform="matrix(0.685858,0,0,0.685858,28.2013,8.48766)">
        <path d="M375.92,315.62L376.08,326.78C373.62,327.72 371.237,328.607 368.93,329.44L368.93,321.12L375.92,315.62Z" style="fill-opacity:0.1;fill-rule:nonzero;"/>
    </g>
    <g transform="matrix(0.685858,0,0,0.685858,28.2013,8.48766)">
        <path d="M393.92,308.12L394.08,319.7C391.78,320.587 389.4,321.523 386.94,322.51L386.94,313.62L393.92,308.12Z" style="fill-opacity:0.1;fill-rule:nonzero;"/>
    </g>
    <g transform="matrix(0.685858,0,0,0.685858,28.2013,8.48766)">
        <path d="M411.42,303.12L411.56,313.38C409.293,314.14 406.917,314.967 404.43,315.86L404.43,308.62L411.42,303.12Z" style="fill-opacity:0.1;fill-rule:nonzero;"/>
    </g>
    <g transform="matrix(0.685858,0,0,0.685858,28.2013,8.48766)">
        <path d="M436.92,290.62L437.14,306.2C434.93,306.66 432.54,307.2 429.94,307.87L429.94,296.12L436.92,290.62Z" style="fill-opacity:0.1;fill-rule:nonzero;"/>
    </g>
    <g transform="matrix(0.685858,0,0,0.685858,28.2013,8.48766)">
        <path d="M463.78,306C461.426,305.113 458.958,304.568 456.45,304.38L456.45,286.08L463.45,280.58L463.78,306Z" style="fill-opacity:0.1;fill-rule:nonzero;"/>
    </g>
    <g transform="matrix(0.685858,0,0,0.685858,28.2013,8.48766)">
        <path d="M488.92,306.12C488.92,306.12 470.42,306.12 465.42,304.62C460.42,303.12 449.92,295.12 385.42,321.12C346.42,336.85 324.77,340.5 313.77,340.93C306.57,341.21 303.92,340.12 303.92,340.12C303.92,340.12 313.85,287.62 357.64,278.76C360.084,278.284 362.498,277.666 364.87,276.91C367.56,276.03 371.8,274.77 377.5,273.46C392.2,270.08 416.57,266.37 448.96,267.94C460.183,268.36 470.837,273.031 478.75,281C485.44,287.62 489.121,296.71 488.92,306.12Z" style="fill:rgb(204,146,155);fill-rule:nonzero;"/>
    </g>
    <g transform="matrix(0.685858,0,0,0.685858,28.2013,8.48766)">
        <path d="M377.5,273.46C325.6,295.84 315.6,327.33 313.77,340.93C306.57,341.21 303.92,340.12 303.92,340.12C303.92,340.12 313.85,287.62 357.64,278.76C360.084,278.284 362.498,277.666 364.87,276.91C367.56,276 371.8,274.77 377.5,273.46Z" style="fill:rgb(245,197,204);fill-rule:nonzero;"/>
    </g>
    <g transform="matrix(0.685858,0,0,0.685858,71.2252,28.8096)">
        <path d="M255.69,389.74L255.44,374.99L260.69,372.24L619.69,452.74L618.69,471.49L255.69,389.74Z" style="fill:rgb(245,197,204);fill-rule:nonzero;"/>
    </g>
    <g transform="matrix(0.685858,0,0,0.685858,71.2252,28.8096)">
        <path d="M260.69,372.24L619.69,452.74L619.19,459.74L256.22,374.58" style="fill:rgb(204,146,155);fill-rule:nonzero;"/>
    </g>
    <g transform="matrix(0.685858,0,0,0.685858,71.2252,28.8096)">
        <circle cx="788.69" cy="728.49" r="12" style="fill:rgb(64,65,77);"/>
    </g>
    <g transform="matrix(0.685858,0,0,0.685858,71.2252,28.8096)">
        <circle cx="629.69" cy="796.49" r="12" style="fill:rgb(64,65,77);"/>
    </g>
    <g transform="matrix(0.685858,0,0,0.685858,28.2013,8.48766)">
        <path d="M332.09,579.45C332.09,579.45 321.42,591.45 318.09,602.12C314.76,612.79 322.09,652.79 322.09,652.79C325.848,646.135 328.547,638.935 330.09,631.45C332.75,618.79 332.09,579.45 332.09,579.45Z" style="fill:rgb(34,0,145);fill-rule:nonzero;"/>
    </g>
    <g transform="matrix(0.685858,0,0,0.685858,28.2013,8.48766)">
        <path d="M838.42,679.12C838.42,679.12 844.92,712.12 845.42,717.12C845.92,722.12 828.92,714.62 828.92,714.62L838.42,679.12Z" style="fill:rgb(34,0,145);fill-rule:nonzero;"/>
    </g>
    <g transform="matrix(0.685858,0,0,0.685858,28.2013,8.48766)">
        <path d="M641.42,270.81L641.25,270.81C641.209,270.47 641.082,270.146 640.88,269.87C640.423,269.336 639.857,268.906 639.22,268.61L634.53,266L638.58,267.47C638.39,267.144 638.179,266.83 637.95,266.53L638.42,266.79L638.1,266.34L637.67,266.19C635.51,263.66 631.91,262.61 628.42,262.66L628.48,262.66C628.93,262.6 629.39,262.56 629.84,262.53C628.839,262.467 627.835,262.497 626.84,262.62C626.952,262.668 627.069,262.702 627.19,262.72C626.87,262.72 626.55,262.78 626.19,262.82C625.676,262.959 625.134,262.959 624.62,262.82C623.978,262.494 623.528,261.88 623.41,261.17C622.91,259.17 623.7,257.02 623.93,254.93C624.043,253.949 623.937,252.955 623.62,252.02L623.62,251.42C623.286,250.523 622.541,249.839 621.62,249.58C621.615,249.657 621.615,249.733 621.62,249.81L621.45,249.74L621.45,255.12C619.897,253.895 618.52,252.462 617.36,250.86C617.153,250.616 617.012,250.324 616.95,250.01C616.85,249.1 618.01,248.47 618.08,247.55C618.072,246.945 617.663,246.413 617.08,246.25L617.38,246.14C617.024,245.975 616.631,245.906 616.24,245.94C615.384,246.135 614.542,246.389 613.72,246.7L613.98,246.75C613.786,246.814 613.589,246.867 613.39,246.91C610.88,247.43 608.64,245.43 606.83,243.62L606.44,243.23C605.58,235.7 604.19,227.07 604.19,227.07C604.19,227.07 602.94,217.21 601.19,211.91C599.44,206.61 596.92,197.25 596.92,197.25C596.92,197.25 591.16,185.88 589.92,185.38C589.436,185.138 588.966,184.871 588.51,184.58C587.969,182.879 587.633,181.12 587.51,179.34C587.2,169.4 597.82,162.34 599.42,152.49C600.73,144.49 595.69,136.49 596.42,128.38C596.76,124.83 598.19,121.49 598.96,118.01C599.691,114.634 599.789,111.152 599.25,107.74C598.995,105.905 598.441,104.125 597.61,102.47C599.064,100.592 600.276,98.539 601.22,96.36C602.84,91.74 601.09,86.58 598.56,82.36C590.43,68.93 573.96,58.36 558.56,56.99C552.35,56.42 546.12,56.31 539.9,56.21C532.76,56.08 525.38,56 518.78,58.76C505.66,64.25 499.45,78.92 491.48,90.76C484.896,100.552 476.465,108.966 466.66,115.53C462.05,118.61 456.66,121.89 455.58,127.36C455.477,127.885 455.414,128.416 455.39,128.95C455.255,128.469 455.145,127.982 455.06,127.49C453.97,133.2 458,138.49 460.06,143.94C461.136,146.788 461.757,149.788 461.9,152.83C461.98,151.391 461.98,149.949 461.9,148.51C463.9,158.89 460.23,170.03 457.96,180.64C457.79,181.42 457.66,182.2 457.5,182.98C455.637,183.5 453.863,184.299 452.24,185.35C448.679,187.72 444.646,189.289 440.42,189.95C434.752,190.84 429.649,193.905 426.2,198.49C425.56,199.35 424.94,199.94 424.4,200C422.15,200.26 409.61,239.42 409.61,239.42C409.61,239.42 407,255.55 407,259.33C407,263.11 402.49,290.41 402.49,290.41C402.49,290.41 400.98,295.41 401.49,297.48C401.78,298.63 401.09,302.48 400.44,305.58C400.168,305.467 399.927,305.288 399.74,305.06C398.99,303.55 385.19,305.06 389.46,315.17C390.521,317.89 392.171,320.342 394.29,322.35C392.39,327.11 390.74,331.54 390.96,332.1C390.96,332.1 390.96,335.71 391.28,340.17C388.35,342.17 385.95,343.97 385.95,343.97C385.74,349.49 389.42,350.37 392.88,350.17C393.77,353.37 395.07,355.91 396.98,356.6C403.25,358.88 407.26,357.87 409.27,359.6C411.28,361.33 422,364.69 422,364.69C426.553,365.376 431.14,365.813 435.74,366L437.58,366.92L437.36,365.92C437.95,365.81 437.68,365.11 436.94,363.92C436.61,362.39 436.19,360.39 435.72,358.11L438.47,357.11L439.22,358.22C438.22,363.46 437.58,366.95 437.58,366.95C437.58,366.95 432.58,384.89 434.82,387.67C437.06,390.45 434.82,393.99 434.82,393.99C434.82,393.99 434.32,398.53 435.58,398.53C436.84,398.53 438.33,404.34 437.08,404.6C435.83,404.86 430.08,409.65 432.08,410.66C434.08,411.67 432.08,413.94 432.08,416.22C432.08,417.88 435.14,420.34 436.8,421.55C436.5,422.63 436.19,423.78 435.9,424.91C435.04,428.25 434.37,431.47 434.58,432.64C435.08,435.42 433.33,443.25 433.83,445.78C434.33,448.31 436.09,453.86 434.83,456.14C433.57,458.42 435.08,465.99 435.08,465.99L437.34,487.46C437.34,487.46 435.84,493.53 437.34,495.04C438.84,496.55 440.1,514.25 441.6,516.27C443.1,518.29 445.37,528.9 443.6,532.44C441.83,535.98 445.86,543.3 445.86,543.3C445.86,543.3 445.61,551.89 445.61,554.16C445.61,556.43 447.86,559.97 447.86,559.97C447.86,559.97 450.12,572.1 449.86,575.13C449.6,578.16 451.36,582.46 451.36,582.46C451.36,582.46 452.87,591.3 452.62,593.32C452.37,595.34 454.62,598.12 454.62,598.12C454.62,598.12 457.38,604.69 456.62,607.47C455.86,610.25 458.37,613.03 458.37,613.03C458.37,613.03 458.12,619.09 458.12,619.85C458.12,620.61 463.39,626.67 463.39,626.67C463.39,626.67 461.13,631.22 462.39,632.99C463.65,634.76 463.39,641.07 465.39,643.1C467.39,645.13 466.89,653.45 469.39,654.97C471.89,656.49 474.15,657.75 474.65,661.03C475.15,664.31 477.16,669.12 479.42,669.88C479.849,670.175 480.221,670.544 480.52,670.97L479.52,675.22L476.43,688.07C476.43,688.07 473.43,706.76 473.67,709.54C473.91,712.32 470.67,715.1 470.67,715.1C470.67,715.1 467.91,731.27 467.41,733.29C466.91,735.31 467.66,739.1 467.66,739.1C467.66,739.1 465.91,748.7 467.16,749.21C468.41,749.72 473.68,755.02 473.68,755.02L474.09,755.02L473.55,756.92L464.9,787.62C464.9,787.62 456.9,801.01 475.44,807.83C476.06,809.03 476.63,809.06 475.96,808.83C476.57,809.35 488.96,819.83 489.96,824.74C490.96,829.65 499.49,834.84 502.5,835.35C505.51,835.86 525.57,852.02 532.84,836.11C540.11,820.2 520.05,809.83 520.05,809.83L504.78,800C504.78,800 497.01,788.63 495.78,786.61C494.55,784.59 492.27,774.73 493.78,773.22C494.55,772.44 496.96,765.52 499.14,758.94C499.34,758.31 499.55,757.69 499.75,757.07C504.01,758.07 508.83,756.07 508.83,756.07L520,738.45L522,735.36L522.36,736.08C522.36,736.08 531.64,736.84 536.15,737.6C537.583,737.658 539.016,737.479 540.39,737.07C540.56,737.44 540.73,737.82 540.89,738.2C541.985,740.542 542.913,742.958 543.67,745.43C544.42,748.71 545.18,760.33 545.18,760.33C545.18,760.33 540.18,777.01 538.91,780.04C537.64,783.07 540.16,808.34 564.99,798.23C564.99,798.23 567.99,793.43 570.75,793.43C573.51,793.43 580.28,786.61 577.75,779.28C575.22,771.95 564.75,749.47 571.99,737.6C577.83,728.04 577.36,715.22 569.51,709.26C569.18,709.01 568.83,708.79 568.51,708.57C568.595,707.298 568.595,706.022 568.51,704.75C566.75,680.5 555.51,679.23 555.51,679.23C555.51,679.23 548.99,677.72 548.24,675.23C547.8,673.77 542.15,666.23 537.47,660.1C537.63,659.84 537.78,659.58 537.93,659.32C537.93,659.23 538.03,659.14 538.07,659.05C538.29,658.64 538.5,658.22 538.7,657.78C542.34,649.6 541.4,637.7 541.21,635.57C540.96,632.79 541.21,629.25 541.21,625.21C541.21,621.17 545.21,615.1 544.72,612.83C544.23,610.56 549.49,601.21 549.49,598.93C549.49,596.65 553.18,583 553.18,583C553.18,583 560.45,567.33 561.96,562.78C563.4,558.42 589.08,478.94 591.16,472.5C591.199,472.357 591.245,472.217 591.3,472.08C591.355,471.943 599.5,445.25 594.01,427.63C593.654,426.467 593.223,425.328 592.72,424.22C594.4,423.41 595.56,422.82 595.56,422.82C595.56,422.82 592.3,413.22 593.8,409.68C595.3,406.14 594.3,399.32 594.3,399.32C594.3,399.32 588.3,395.78 588.04,394.27C587.78,392.76 585.28,390.73 586.04,388.71C586.8,386.69 591.04,387.71 590.55,383.15C590.06,378.59 584.79,373.8 585.29,371.02C585.79,368.24 587.79,363.19 585.29,360.16C582.79,357.13 581.78,352.33 581.53,348.54C581.46,347.54 581.68,344.59 582.03,340.7C584.703,342.363 587.464,343.882 590.3,345.25C593.136,346.618 601.08,346.77 601.59,345.76C602.554,344.473 603.646,343.287 604.85,342.22C618.39,338.94 612.37,314.22 612.37,314.22C612.37,314.22 612.17,312.41 611.85,309.43C612.19,309.344 612.51,309.191 612.79,308.98C613.94,308.14 614.22,306.54 614.92,305.28C615.716,304.089 616.649,302.995 617.7,302.02C620.18,299.32 621.65,295.87 623.07,292.48C623.97,290.32 624.89,288.16 625.8,285.99C626.71,283.82 627.8,281.23 629.8,279.66C632.1,277.81 635.22,277.45 638.15,277.18C638.032,274.936 637.194,272.79 635.76,271.06C637.543,270.514 639.48,270.809 641.02,271.86C641.061,271.792 641.097,271.722 641.13,271.65L641.19,271.65C641.357,271.403 641.438,271.108 641.42,270.81ZM427.29,340C427.35,339.5 427.44,339 427.55,338.5C428.04,338.04 428.63,337.5 429.26,337L432.76,337.34C431.9,338.04 431.15,338.68 430.54,339.2C429.46,338.65 428.28,339.19 427.29,340ZM434.29,333.07C434.785,333.034 435.273,332.93 435.74,332.76L438.8,332.76C437.13,333.93 435.44,335.23 433.94,336.44L434.29,333.15L434.29,333.07ZM440.06,282.07C440.06,282.07 439.83,289.25 440.34,296.47C439.56,297.02 438.75,297.62 437.95,298.25L439.72,281.6L440.06,282.07Z" style="fill:url(#_Linear1);fill-rule:nonzero;"/>
    </g>
    <g transform="matrix(0.685858,0,0,0.685858,28.2013,8.48766)">
        <path d="M570.67,792.37C567.92,792.37 564.92,797.12 564.92,797.12C540.17,807.12 537.67,782.12 538.92,779.12C540.17,776.12 545.17,759.62 545.17,759.62C545.17,759.62 544.42,748.12 543.67,744.87C542.912,742.426 541.986,740.037 540.9,737.72C539.22,733.89 537.42,730.12 537.42,730.12C537.42,730.12 548.17,703.62 562.42,706.12C564.96,706.545 567.361,707.574 569.42,709.12C577.25,715.02 577.72,727.71 571.89,737.12C564.64,748.87 575.14,771.12 577.64,778.37C580.14,785.62 573.42,792.37 570.67,792.37Z" style="fill:rgb(253,194,204);fill-rule:nonzero;"/>
    </g>
    <g transform="matrix(0.685858,0,0,0.685858,28.2013,8.48766)">
        <path d="M532.92,834.62C525.67,850.37 505.67,834.37 502.67,833.87C499.67,833.37 491.17,828.37 490.17,823.37C489.17,818.37 476.8,808.14 476.17,807.63C476.84,807.84 476.27,807.81 475.65,806.63C457.15,799.88 465.15,786.63 465.15,786.63L473.77,756.25L476.15,747.88L503.15,746.13C503.15,746.13 501.3,752.04 499.24,758.25C497.07,764.76 494.67,771.61 493.9,772.38C492.4,773.88 494.65,783.63 495.9,785.63C497.15,787.63 504.9,798.88 504.9,798.88L520.15,808.63C520.15,808.63 540.17,818.87 532.92,834.62Z" style="fill:rgb(253,194,204);fill-rule:nonzero;"/>
    </g>
    <g transform="matrix(0.685858,0,0,0.685858,28.2013,8.48766)">
        <path d="M503.17,746.12C503.17,746.12 501.32,752.03 499.26,758.24C497.85,757.835 496.597,757.008 495.67,755.87L473.92,756.37L473.79,756.24L476.17,747.87L503.17,746.12Z" style="fill-opacity:0.1;fill-rule:nonzero;"/>
    </g>
    <g transform="matrix(0.685858,0,0,0.685858,28.2013,8.48766)">
        <path d="M591.17,474.37C591.17,474.37 591.17,474.51 591.04,474.78C588.96,481.15 563.36,559.78 561.92,564.12C560.42,568.62 553.17,584.12 553.17,584.12C553.17,584.12 549.42,597.62 549.42,599.87C549.42,602.12 544.17,611.37 544.67,613.62C545.17,615.87 541.17,621.87 541.17,625.87C541.17,629.87 540.92,633.37 541.17,636.12C541.36,638.23 542.29,650.01 538.66,658.12C537.868,660.007 536.694,661.71 535.21,663.12C534.806,663.486 534.375,663.82 533.92,664.12C524.92,670.12 524.17,731.62 524.17,731.62L523.75,732.28L520.1,738L508.92,755.4C508.92,755.4 499.92,759.15 495.67,753.9L473.92,754.4C473.92,754.4 468.67,749.15 467.42,748.65C466.17,748.15 467.92,738.65 467.92,738.65C467.92,738.65 467.17,734.9 467.67,732.9C468.17,730.9 470.92,714.9 470.92,714.9C470.92,714.9 474.17,712.15 473.92,709.4C473.67,706.65 476.67,688.15 476.67,688.15L479.75,675.44L481.27,669.17L484.42,656.17L505.67,468.42L532.67,460.17L584.67,462.67L590.37,472.97L591.17,474.37Z" style="fill:rgb(95,93,126);fill-rule:nonzero;"/>
    </g>
    <g transform="matrix(0.685858,0,0,0.685858,28.2013,8.48766)">
        <path d="M517.92,566.62C517.67,571.37 516.42,578.62 516.92,582.87C517.42,587.12 519.17,603.12 518.42,606.12C517.67,609.12 521.17,612.62 522.42,614.12C523.67,615.62 522.92,620.12 523.17,623.62C523.42,627.12 526.67,630.37 526.67,630.37C526.67,630.37 522.92,638.37 525.67,639.62C528.42,640.87 534.17,652.37 534.17,652.37C534.17,652.37 536.1,654.8 538.66,658.1C537.681,660.509 536.037,662.59 533.92,664.1C524.92,670.1 524.17,731.6 524.17,731.6L523.75,732.26L518.17,721.1C518.17,721.1 484.92,670.85 482.67,670.1C482.128,669.888 481.647,669.544 481.27,669.1L484.42,656.1L505.67,468.35L532.67,460.1L584.67,462.6L557.29,465.35C557.29,465.35 545.12,474.08 545.04,474.35L523.17,483.6L519.17,543.6C519.17,543.6 518.17,561.87 517.92,566.62Z" style="fill-opacity:0.1;fill-rule:nonzero;"/>
    </g>
    <g transform="matrix(0.685858,0,0,0.685858,28.2013,8.48766)">
        <path d="M590.37,472.92C589.68,475.7 517.67,467.37 517.67,467.37L518.17,486.62L514.17,546.62C514.17,546.62 513.17,564.87 512.92,569.62C512.67,574.37 511.42,581.62 511.92,585.87C512.42,590.12 514.17,606.12 513.42,609.12C512.67,612.12 516.17,615.62 517.42,617.12C518.67,618.62 517.92,623.12 518.17,626.62C518.42,630.12 521.67,633.37 521.67,633.37C521.67,633.37 517.92,641.37 520.67,642.62C523.42,643.87 529.17,655.37 529.17,655.37C529.17,655.37 531.92,658.84 535.17,663.1C534.766,663.466 534.335,663.8 533.88,664.1C524.88,670.1 524.13,731.6 524.13,731.6L523.71,732.26L520.1,738L513.17,724.15C513.17,724.15 487.52,685.38 479.75,675.44L481.27,669.17L484.42,656.17L505.67,468.42L532.67,460.17L584.67,462.67L590.37,472.92Z" style="fill-opacity:0.1;fill-rule:nonzero;"/>
    </g>
    <g transform="matrix(0.685858,0,0,0.685858,28.2013,8.48766)">
        <path d="M569.45,709.08C568.45,726.98 549.59,735.74 540.9,737.72C539.22,733.89 537.42,730.12 537.42,730.12C537.42,730.12 548.17,703.62 562.42,706.12C564.967,706.529 567.378,707.544 569.45,709.08Z" style="fill-opacity:0.1;fill-rule:nonzero;"/>
    </g>
    <g transform="matrix(0.685858,0,0,0.685858,28.2013,8.48766)">
        <path d="M514.92,566.62C514.67,571.37 513.42,578.62 513.92,582.87C514.42,587.12 516.17,603.12 515.42,606.12C514.67,609.12 518.17,612.62 519.42,614.12C520.67,615.62 519.92,620.12 520.17,623.62C520.42,627.12 523.67,630.37 523.67,630.37C523.67,630.37 519.92,638.37 522.67,639.62C525.42,640.87 531.17,652.37 531.17,652.37C531.17,652.37 547.42,672.87 548.17,675.37C548.92,677.87 555.42,679.37 555.42,679.37C555.42,679.37 566.67,680.62 568.42,704.62C570.17,728.62 540.67,737.87 536.17,737.12C531.67,736.37 522.42,735.62 522.42,735.62L515.17,721.12C515.17,721.12 481.92,670.87 479.67,670.12C477.42,669.37 475.42,664.62 474.92,661.37C474.42,658.12 472.17,656.87 469.67,655.37C467.17,653.87 467.67,645.62 465.67,643.62C463.67,641.62 463.92,635.37 462.67,633.62C461.42,631.87 463.67,627.37 463.67,627.37C463.67,627.37 458.42,621.37 458.42,620.62C458.42,619.87 458.67,613.87 458.67,613.87C458.67,613.87 456.17,611.12 456.92,608.37C457.67,605.62 454.92,599.12 454.92,599.12C454.92,599.12 452.67,596.37 452.92,594.37C453.17,592.37 451.67,583.62 451.67,583.62C451.67,583.62 449.92,579.37 450.17,576.37C450.42,573.37 448.17,561.37 448.17,561.37C448.17,561.37 445.92,557.87 445.92,555.62C445.92,553.37 446.17,544.87 446.17,544.87C446.17,544.87 442.17,537.62 443.92,534.12C445.67,530.62 443.42,520.12 441.92,518.12C440.42,516.12 439.17,498.62 437.67,497.12C436.17,495.62 437.67,489.62 437.67,489.62L435.42,468.37C435.42,468.37 433.92,460.87 435.17,458.62C436.42,456.37 434.67,450.87 434.17,448.37C433.67,445.87 435.42,438.12 434.92,435.37C434.71,434.21 435.38,431.03 436.23,427.72C437.41,423.16 438.92,418.37 438.92,418.37C438.92,418.37 567.42,406.37 585.92,418.87C589.92,421.55 592.39,425.62 593.92,430.38C599.39,447.82 591.21,474.38 591.21,474.38L520.21,483.63L516.21,543.63C516.21,543.63 515.17,561.87 514.92,566.62Z" style="fill:rgb(95,93,126);fill-rule:nonzero;"/>
    </g>
    <g transform="matrix(0.685858,0,0,0.685858,28.2013,8.48766)">
        <path d="M494.42,655.62C494.42,655.62 516.67,648.87 521.92,653.37C527.17,657.87 494.42,655.62 494.42,655.62Z" style="fill-opacity:0.1;fill-rule:nonzero;"/>
    </g>
    <g transform="matrix(0.685858,0,0,0.685858,28.2013,8.48766)">
        <path d="M502.42,684.12C502.42,684.12 509.17,676.87 519.17,679.12C525.035,680.487 531.191,679.871 536.67,677.37L502.42,684.12Z" style="fill-opacity:0.1;fill-rule:nonzero;"/>
    </g>
    <g transform="matrix(0.685858,0,0,0.685858,28.2013,8.48766)">
        <path d="M525.92,692.37C525.92,692.37 544.17,689.87 544.92,692.12C545.67,694.37 525.92,692.37 525.92,692.37Z" style="fill-opacity:0.1;fill-rule:nonzero;"/>
    </g>
    <g transform="matrix(0.685858,0,0,0.685858,28.2013,8.48766)">
        <path d="M520.67,707.12C520.67,707.12 540.92,701.12 541.92,703.62C542.92,706.12 519.67,706.87 519.67,706.87L520.67,707.12Z" style="fill-opacity:0.1;fill-rule:nonzero;"/>
    </g>
    <g transform="matrix(0.685858,0,0,0.685858,28.2013,8.48766)">
        <path d="M543.42,572.37C543.42,572.37 524.42,589.12 527.17,590.87C529.92,592.62 543.42,572.37 543.42,572.37Z" style="fill-opacity:0.1;fill-rule:nonzero;"/>
    </g>
    <g transform="matrix(0.685858,0,0,0.685858,28.2013,8.48766)">
        <path d="M527.92,613.87C527.92,613.87 541.17,613.87 538.67,616.87C536.17,619.87 527.92,613.87 527.92,613.87Z" style="fill-opacity:0.1;fill-rule:nonzero;"/>
    </g>
    <g transform="matrix(0.685858,0,0,0.685858,28.2013,8.48766)">
        <path d="M535.92,625.62C535.92,625.62 530.67,630.12 531.92,631.12C533.17,632.12 535.92,625.62 535.92,625.62Z" style="fill-opacity:0.1;fill-rule:nonzero;"/>
    </g>
    <g transform="matrix(0.685858,0,0,0.685858,28.2013,8.48766)">
        <path d="M478.17,732.87C478.17,732.87 494.67,738.37 494.92,741.87C495.17,745.37 478.17,732.87 478.17,732.87Z" style="fill-opacity:0.1;fill-rule:nonzero;"/>
    </g>
    <g transform="matrix(0.685858,0,0,0.685858,28.2013,8.48766)">
        <path d="M558.17,210.12L552.92,241.37C552.92,241.37 507.42,265.37 506.67,265.37C505.92,265.37 473.42,259.87 472.17,259.87C470.92,259.87 449.67,195.62 464.67,191.62C468.73,190.54 474.62,187.94 481.05,184.71C498.39,176.04 519.67,162.87 519.67,162.87C519.67,162.87 551.42,159.37 543.67,181.37C540.67,190 542.21,196.28 545.24,200.73C550,207.63 558.17,210.12 558.17,210.12Z" style="fill:rgb(253,194,204);fill-rule:nonzero;"/>
    </g>
    <g transform="matrix(0.685858,0,0,0.685858,28.2013,8.48766)">
        <path d="M558.17,210.12L552.92,241.37C552.92,241.37 507.42,265.37 506.67,265.37C505.92,265.37 473.42,259.87 472.17,259.87C470.92,259.87 449.67,195.62 464.67,191.62C468.73,190.54 474.62,187.94 481.05,184.71C485.14,184.98 487.92,185.37 487.92,185.37C487.92,185.37 497.92,223.62 498.67,235.37C499.42,247.12 525.42,248.37 527.17,247.87C528.92,247.37 536.17,218.62 536.17,218.62C536.17,218.62 535.42,208.62 537.67,208.62C539.55,208.62 543.89,202.62 545.24,200.73C550,207.63 558.17,210.12 558.17,210.12Z" style="fill-opacity:0.1;fill-rule:nonzero;"/>
    </g>
    <g transform="matrix(0.685858,0,0,0.685858,28.2013,8.48766)">
        <path d="M593.88,430.38C590.4,432.08 582.08,435.96 579.88,435.38C577.13,434.63 570.38,434.63 570.38,434.63C570.38,434.63 566.38,439.13 562.13,438.13C557.88,437.13 541.13,437.88 541.13,437.88C541.13,437.88 511.13,439.13 505.38,437.13C499.63,435.13 479.13,433.38 479.13,433.38C479.13,433.38 451.13,430.13 446.38,428.13C443.656,426.941 440.491,427.325 438.13,429.13C435.769,430.935 437.26,428.56 436.19,427.73C437.37,423.17 438.88,418.38 438.88,418.38C438.88,418.38 567.38,406.38 585.88,418.88C589.88,421.55 592.39,425.62 593.88,430.38Z" style="fill-opacity:0.1;fill-rule:nonzero;"/>
    </g>
    <g transform="matrix(0.685858,0,0,0.685858,28.2013,8.48766)">
        <path d="M487.92,187.37C487.92,187.37 462.67,183.87 452.67,190.62C449.117,192.967 445.098,194.519 440.89,195.17C435.25,196.044 430.163,199.075 426.71,203.62C426.07,204.48 425.45,205.06 424.92,205.12C422.67,205.37 410.17,244.12 410.17,244.12L440.42,286.37C440.42,286.37 439.67,309.87 443.92,314.37C448.17,318.87 437.92,370.37 437.92,370.37C437.92,370.37 432.92,388.12 435.17,390.87C437.42,393.62 435.17,397.12 435.17,397.12C435.17,397.12 434.67,401.62 435.92,401.62C437.17,401.62 438.67,407.37 437.42,407.62C436.17,407.87 430.42,412.62 432.42,413.62C434.42,414.62 432.42,416.87 432.42,419.12C432.42,421.37 438.17,425.12 438.17,425.12C440.531,423.315 443.696,422.931 446.42,424.12C451.17,426.12 479.17,429.37 479.17,429.37C479.17,429.37 499.67,431.12 505.42,433.12C511.17,435.12 541.17,433.87 541.17,433.87C541.17,433.87 557.92,433.12 562.17,434.12C566.42,435.12 570.42,430.62 570.42,430.62C570.42,430.62 577.17,430.62 579.92,431.37C582.67,432.12 595.42,425.62 595.42,425.62C595.42,425.62 592.17,416.12 593.67,412.62C595.17,409.12 594.17,402.37 594.17,402.37C594.17,402.37 588.17,398.87 587.92,397.37C587.67,395.87 585.17,393.87 585.92,391.87C586.67,389.87 590.92,390.87 590.42,386.37C589.92,381.87 584.67,377.12 585.17,374.37C585.67,371.62 587.67,366.62 585.17,363.62C582.67,360.62 581.67,355.87 581.42,352.12C581.17,348.37 585.17,314.37 585.17,314.37L575.92,245.87L604.17,231.87C604.17,231.87 602.92,222.12 601.17,216.87C599.42,211.62 596.92,202.37 596.92,202.37C596.92,202.37 591.17,191.12 589.92,190.62C588.67,190.12 575.42,181.37 572.42,182.62C569.42,183.87 545.67,202.12 545.67,202.12C545.67,202.12 539.92,210.62 537.67,210.62C535.42,210.62 536.17,220.62 536.17,220.62C536.17,220.62 528.92,249.37 527.17,249.87C525.42,250.37 499.42,249.12 498.67,237.37C497.92,225.62 487.92,187.37 487.92,187.37Z" style="fill:rgb(211,153,153);fill-rule:nonzero;"/>
    </g>
    <g transform="matrix(0.685858,0,0,0.685858,28.2013,8.48766)">
        <path d="M448.72,335.18C445.252,335.943 441.72,336.378 438.17,336.48C433.04,336.62 428.53,335.97 427.42,334.12C424.42,329.12 424.42,319.62 424.42,319.62C424.42,319.62 437.98,322.75 447.34,326.17L448.89,326.75C452.52,328.16 455.28,329.6 455.89,330.86C456.76,332.55 453.41,334.13 448.72,335.18Z" style="fill:rgb(253,194,204);fill-rule:nonzero;"/>
    </g>
    <g transform="matrix(0.685858,0,0,0.685858,71.2252,28.8096)">
        <circle cx="484.19" cy="120.74" r="45.75" style="fill-opacity:0.1;"/>
    </g>
    <g transform="matrix(0.685858,0,0,0.685858,71.2252,28.8096)">
        <circle cx="484.19" cy="118.74" r="45.75" style="fill:rgb(253,194,204);"/>
    </g>
    <g transform="matrix(0.685858,0,0,0.685858,28.2013,8.48766)">
        <path d="M445.67,395.37C445.67,395.37 458.67,395.37 463.67,396.62C468.67,397.87 479.17,398.12 479.17,398.12C479.17,398.12 450.17,397.12 445.67,395.37Z" style="fill-opacity:0.1;fill-rule:nonzero;"/>
    </g>
    <g transform="matrix(0.685858,0,0,0.685858,28.2013,8.48766)">
        <path d="M446.17,403.37C446.17,403.37 462.92,404.62 463.17,407.12C463.42,409.62 446.17,403.37 446.17,403.37Z" style="fill-opacity:0.1;fill-rule:nonzero;"/>
    </g>
    <g transform="matrix(0.685858,0,0,0.685858,28.2013,8.48766)">
        <path d="M573.67,372.62C573.67,372.62 583.92,376.37 583.67,377.62C583.42,378.87 574.67,375.62 573.67,372.62Z" style="fill-opacity:0.1;fill-rule:nonzero;"/>
    </g>
    <g transform="matrix(0.685858,0,0,0.685858,28.2013,8.48766)">
        <path d="M416.67,239.62L410.17,244.12C410.17,244.12 407.42,260.12 407.42,263.87C407.42,267.62 402.92,294.62 402.92,294.62C402.92,294.62 401.42,299.62 401.92,301.62C402.42,303.62 399.92,313.87 399.92,313.87C399.92,313.87 390.92,334.62 391.42,335.87C391.92,337.12 434.17,341.12 434.17,341.12L440.17,285.12L416.67,239.62Z" style="fill:rgb(211,153,153);fill-rule:nonzero;"/>
    </g>
    <g transform="matrix(0.685858,0,0,0.685858,28.2013,8.48766)">
        <path d="M397.67,329.12L391.42,335.87C391.42,335.87 391.17,357.87 397.42,360.12C403.67,362.37 407.67,361.37 409.67,363.12C411.67,364.87 422.42,368.12 422.42,368.12C422.42,368.12 434.17,369.87 437.67,369.37C441.17,368.87 417.17,349.62 432.92,333.37L397.67,329.12Z" style="fill:rgb(211,153,153);fill-rule:nonzero;"/>
    </g>
    <g transform="matrix(0.685858,0,0,0.685858,28.2013,8.48766)">
        <path d="M595.42,222.12L604.17,231.87C604.17,231.87 607.92,255.12 606.92,258.37C605.92,261.62 612.17,318.12 612.17,318.12C612.17,318.12 618.17,342.62 604.67,345.87C603.471,346.924 602.382,348.096 601.42,349.37C600.92,350.37 590.17,348.87 590.17,348.87L573.67,240.62L595.42,222.12Z" style="fill:rgb(211,153,153);fill-rule:nonzero;"/>
    </g>
    <g transform="matrix(0.685858,0,0,0.685858,28.2013,8.48766)">
        <path d="M476.42,311.62C476.42,311.62 509.17,292.12 515.17,291.12C521.17,290.12 558.42,272.37 558.42,272.37C558.42,272.37 576.92,281.87 578.67,289.12C580.42,296.37 570.92,325.37 570.92,325.37C570.92,325.37 540.42,346.62 538.67,351.12C536.92,355.62 510.67,368.87 510.67,371.12C510.67,373.37 469.17,397.87 450.92,376.37C432.67,354.87 432.92,348.62 432.92,348.62L479.17,337.87L483.67,317.87L476.42,311.62Z" style="fill-opacity:0.1;fill-rule:nonzero;"/>
    </g>
    <g transform="matrix(0.685858,0,0,0.685858,28.2013,8.48766)">
        <path d="M476.42,309.62C476.42,309.62 509.17,290.12 515.17,289.12C521.17,288.12 558.42,270.37 558.42,270.37C558.42,270.37 576.92,279.87 578.67,287.12C580.42,294.37 570.92,323.37 570.92,323.37C570.92,323.37 540.42,344.62 538.67,349.12C536.92,353.62 510.67,366.87 510.67,369.12C510.67,371.37 469.17,395.87 450.92,374.37C432.67,352.87 432.92,346.62 432.92,346.62L479.17,335.87L483.67,315.87L476.42,309.62Z" style="fill:rgb(196,200,226);fill-rule:nonzero;"/>
    </g>
    <g transform="matrix(0.685858,0,0,0.685858,28.2013,8.48766)">
        <path d="M425.92,318.37L424.42,330.87L412.53,330L400.92,329.14C400.92,329.14 394.17,329.14 389.92,319.14C385.67,309.14 399.42,307.64 400.17,309.14C400.74,310.27 415.17,314.98 422.17,317.21L425.92,318.37Z" style="fill:rgb(253,194,204);fill-rule:nonzero;"/>
    </g>
    <g transform="matrix(0.685858,0,0,0.685858,28.2013,8.48766)">
        <path d="M425.92,318.37L424.42,330.87L412.53,330C414.47,327.12 418.53,321.85 422.18,317.21L425.92,318.37Z" style="fill-opacity:0.1;fill-rule:nonzero;"/>
    </g>
    <g transform="matrix(0.685858,0,0,0.685858,28.2013,8.48766)">
        <path d="M424.42,319.62C424.42,319.62 437.98,322.75 447.34,326.17C446.72,327.17 442.58,333.65 438.17,336.48C433.04,336.62 428.53,335.97 427.42,334.12C424.42,329.12 424.42,319.62 424.42,319.62Z" style="fill-opacity:0.1;fill-rule:nonzero;"/>
    </g>
    <g transform="matrix(0.685858,0,0,0.685858,28.2013,8.48766)">
        <path d="M448.72,335.18L448.5,333.45C448.5,333.45 448.4,333.08 448.31,332.52C448.13,331.38 448,329.46 448.84,328.29C449.33,327.6 449.22,327.11 448.9,326.76C452.53,328.17 455.29,329.61 455.9,330.87C456.76,332.55 453.41,334.13 448.72,335.18Z" style="fill-opacity:0.1;fill-rule:nonzero;"/>
    </g>
    <g transform="matrix(0.685858,0,0,0.685858,28.2013,8.48766)">
        <path d="M491.17,327C491.17,327 477.59,340.59 476.75,343.5C475.91,346.41 450.25,346.5 450.25,346.5L448.5,332.5C448.5,332.5 448.4,332.13 448.31,331.57C448.13,330.43 448,328.51 448.84,327.34C450.09,325.59 447.42,325.09 447.42,325.09C447.42,325.09 440.5,336.5 434.67,336.84C434.67,336.84 426.59,342.67 426.67,343.84C426.67,343.84 422.75,347.42 422.67,351.75C422.59,356.08 417.59,357.84 413.92,356.59C410.25,355.34 401.17,352.67 398.25,353.09C395.33,353.51 386.09,356.25 386.42,347.67C386.42,347.67 398.42,338.67 401.42,338.92C404.42,339.17 411.42,335.67 412.42,332.92C413.42,330.17 430.42,309.17 430.42,309.17C430.42,309.17 441.17,299 445.5,298C445.5,298 454.17,291.25 467.25,301.5C467.25,301.5 485.34,312.66 485.92,314.16C486.38,315.34 491.63,320.38 492.07,324.16C492.276,325.197 491.936,326.271 491.17,327Z" style="fill:rgb(253,194,204);fill-rule:nonzero;"/>
    </g>
    <g transform="matrix(0.685858,0,0,0.685858,28.2013,8.48766)">
        <path d="M448.75,307.12C448.75,307.12 450.08,314.79 449.42,317.54C448.76,320.29 447.42,325.04 447.42,325.04C447.42,325.04 455.5,312.37 448.75,307.12Z" style="fill-opacity:0.1;fill-rule:nonzero;"/>
    </g>
    <g transform="matrix(0.685858,0,0,0.685858,28.2013,8.48766)">
        <path d="M449.33,325.79C449.33,325.79 453.5,321.2 454.42,322.37C455.34,323.54 449.33,325.79 449.33,325.79Z" style="fill-opacity:0.1;fill-rule:nonzero;"/>
    </g>
    <g transform="matrix(0.685858,0,0,0.685858,28.2013,8.48766)">
        <path d="M620.05,279C620.05,292.033 611.343,303.568 598.81,307.14C596.251,307.876 593.602,308.253 590.94,308.26L590.79,308.26C574.748,308.255 561.55,295.052 561.55,279.01C561.55,279.007 561.55,279.003 561.55,279C561.545,277.283 561.699,275.569 562.01,273.88C564.349,260.764 575.381,250.832 588.67,249.88C589.37,249.82 590.08,249.79 590.79,249.79C606.825,249.785 620.028,262.965 620.05,279Z" style="fill:rgb(248,189,197);fill-rule:nonzero;"/>
    </g>
    <g transform="matrix(0.685858,0,0,0.685858,28.2013,8.48766)">
        <path d="M635.48,275.41C636.908,277.119 637.743,279.246 637.86,281.47C634.94,281.74 631.86,282.09 629.54,283.92C627.54,285.48 626.54,287.92 625.54,290.19C624.627,292.33 623.72,294.47 622.82,296.61C621.4,299.96 619.94,303.38 617.47,306.05C616.422,307.013 615.49,308.093 614.69,309.27C614,310.52 613.69,312.1 612.57,312.94C611.426,313.639 610.004,313.718 608.79,313.15C607.56,312.69 606.46,311.92 605.23,311.43C604.44,311.126 603.618,310.911 602.78,310.79C599.12,310.25 595.09,311.04 591.98,309.07C591.62,308.831 591.285,308.556 590.98,308.25C589.765,307.059 588.886,305.569 588.43,303.93C588.201,303.265 588.119,302.559 588.19,301.86C588.48,300.566 589.33,299.466 590.51,298.86C590.68,298.76 590.85,298.66 591.03,298.57C594.03,297 598.2,296.63 599.77,293.57C601.27,290.67 599.41,287.14 597.13,284.8C596.05,283.7 594.77,282.45 594.92,280.91C595.06,279.55 596.27,278.6 597.28,277.69C600.137,275.106 602.064,271.649 602.76,267.86C603.026,266.689 603.005,265.471 602.7,264.31C602.389,263.477 601.961,262.693 601.43,261.98L598.19,257.18C597.19,255.486 595.823,254.037 594.19,252.94C592.84,252.13 591.29,251.85 589.93,251.05C589.413,250.767 588.978,250.353 588.67,249.85C588.499,249.569 588.441,249.232 588.51,248.91C588.68,248.11 589.51,247.72 590.34,247.49C592.488,246.867 594.733,246.653 596.96,246.86C597.665,247.01 598.395,247.01 599.1,246.86C599.819,246.668 600.294,245.97 600.21,245.23C602.67,244.59 605,246.51 606.8,248.31C608.6,250.11 610.8,252.08 613.34,251.57C614.25,251.39 615.09,250.87 616.01,250.77C616.93,250.67 618.07,251.27 618.01,252.2C617.95,253.13 616.79,253.73 616.89,254.63C616.95,254.941 617.091,255.231 617.3,255.47C618.454,257.059 619.824,258.479 621.37,259.69L621.37,254.37C623.37,254.87 624.1,257.43 623.87,259.5C623.64,261.57 622.87,263.66 623.35,265.68C623.472,266.381 623.917,266.985 624.55,267.31C625.064,267.449 625.606,267.449 626.12,267.31C630.71,266.66 636.07,267.88 638.35,271.91L634.35,270.46L639,273C639.636,273.293 640.203,273.719 640.66,274.25C641.113,274.802 641.161,275.587 640.78,276.19C639.223,275.143 637.273,274.856 635.48,275.41Z" style="fill:rgb(88,82,104);fill-rule:nonzero;"/>
    </g>
    <g transform="matrix(1,0,0,1,-137.02,-100.02)">
        <g opacity="0.1">
            <g transform="matrix(0.685858,0,0,0.685858,165.221,108.508)">
                <path d="M626.67,267.08C627.184,267.219 627.726,267.219 628.24,267.08C628.69,267.02 629.14,266.98 629.6,266.95C628.599,266.887 627.595,266.917 626.6,267.04L626.67,267.08Z" style="fill-rule:nonzero;"/>
            </g>
            <g transform="matrix(0.685858,0,0,0.685858,165.221,108.508)">
                <path d="M636.43,270.26L638.15,271.21L637.83,270.76L636.43,270.26Z" style="fill-rule:nonzero;"/>
            </g>
            <g transform="matrix(0.685858,0,0,0.685858,165.221,108.508)">
                <path d="M623.53,259.46L623.53,255.96C623.18,255.078 622.441,254.406 621.53,254.14L621.53,257.66C622.158,258.301 622.826,258.902 623.53,259.46Z" style="fill-rule:nonzero;"/>
            </g>
            <g transform="matrix(0.685858,0,0,0.685858,165.221,108.508)">
                <path d="M638.43,275.06C639.313,275.212 640.152,275.553 640.89,276.06C641.066,275.828 641.154,275.541 641.14,275.25C640.261,274.992 639.336,274.927 638.43,275.06Z" style="fill-rule:nonzero;"/>
            </g>
            <g transform="matrix(0.685858,0,0,0.685858,165.221,108.508)">
                <path d="M611,313C609.77,312.54 608.67,311.77 607.44,311.28C606.65,310.976 605.828,310.761 604.99,310.64C601.33,310.1 597.3,310.89 594.19,308.92C593.83,308.681 593.495,308.406 593.19,308.1C591.975,306.909 591.096,305.419 590.64,303.78C590.411,303.115 590.329,302.409 590.4,301.71C590.69,300.416 591.54,299.316 592.72,298.71C592.89,298.61 593.06,298.51 593.24,298.42C596.29,296.85 600.41,296.48 601.98,293.42C603.48,290.52 601.62,286.99 599.34,284.65C598.26,283.55 596.98,282.3 597.13,280.76C597.27,279.4 598.48,278.45 599.49,277.54C602.347,274.956 604.274,271.499 604.97,267.71C605.236,266.539 605.215,265.321 604.91,264.16C604.599,263.327 604.171,262.543 603.64,261.83L600.4,257.03C599.4,255.336 598.033,253.887 596.4,252.79C595.05,251.98 593.5,251.7 592.14,250.9C591.623,250.617 591.188,250.203 590.88,249.7C590.709,249.419 590.651,249.082 590.72,248.76C590.89,247.96 591.77,247.57 592.55,247.34C593.855,246.974 595.197,246.753 596.55,246.68C594.527,246.561 592.499,246.784 590.55,247.34C589.77,247.57 588.89,247.96 588.72,248.76C588.651,249.082 588.709,249.419 588.88,249.7C589.188,250.203 589.623,250.617 590.14,250.9C591.5,251.7 593.05,251.98 594.4,252.79C596.033,253.887 597.4,255.336 598.4,257.03L601.64,261.83C602.171,262.543 602.599,263.327 602.91,264.16C603.215,265.321 603.236,266.539 602.97,267.71C602.274,271.499 600.347,274.956 597.49,277.54C596.49,278.45 595.27,279.4 595.13,280.76C594.98,282.3 596.26,283.55 597.34,284.65C599.62,286.99 601.48,290.52 599.98,293.42C598.41,296.47 594.29,296.84 591.24,298.42C591.06,298.51 590.89,298.61 590.72,298.71C589.54,299.316 588.69,300.416 588.4,301.71C588.329,302.409 588.411,303.115 588.64,303.78C589.096,305.419 589.975,306.909 591.19,308.1C591.495,308.406 591.83,308.681 592.19,308.92C595.3,310.92 599.33,310.1 602.99,310.64C603.828,310.761 604.65,310.976 605.44,311.28C606.67,311.77 607.77,312.54 609,313C609.893,313.367 610.878,313.45 611.82,313.24C611.541,313.18 611.267,313.1 611,313Z" style="fill-rule:nonzero;"/>
            </g>
            <g transform="matrix(0.685858,0,0,0.685858,165.221,108.508)">
                <path d="M615.5,251.34C616.115,251.183 616.72,250.986 617.31,250.75C616.956,250.577 616.562,250.504 616.17,250.54C615.322,250.741 614.487,250.995 613.67,251.3C614.269,251.449 614.895,251.462 615.5,251.34Z" style="fill-rule:nonzero;"/>
            </g>
            <g transform="matrix(0.685858,0,0,0.685858,165.221,108.508)">
                <path d="M599.12,246.68C599.829,246.814 600.558,246.797 601.26,246.63C601.975,246.438 602.449,245.747 602.37,245.01C601.714,244.841 601.026,244.841 600.37,245.01C600.454,245.75 599.979,246.448 599.26,246.64C599.191,246.661 599.121,246.678 599.05,246.69L599.12,246.68Z" style="fill-rule:nonzero;"/>
            </g>
        </g>
    </g>
    <g transform="matrix(0.685858,0,0,0.685858,28.2013,8.48766)">
        <path d="M564.42,263C560.69,265.79 554.74,267 549.27,267.4C544.993,267.739 540.697,267.739 536.42,267.4L526.79,263.78C526.79,263.78 527.57,262.23 528.89,260.18C531.52,256.1 536.3,250.03 541.29,250.28C548.79,250.65 556.67,251.02 557.42,251.02C558.17,251.02 572.79,256.75 564.42,263Z" style="fill:rgb(253,194,204);fill-rule:nonzero;"/>
    </g>
    <g transform="matrix(0.685858,0,0,0.685858,28.2013,8.48766)">
        <path d="M540.06,62.83C532.94,62.7 525.59,62.62 519.06,65.36C505.93,70.79 499.74,85.3 491.8,97C485.215,106.696 476.809,115.02 467.05,121.51C462.45,124.51 457.11,127.81 456,133.21C454.82,138.92 458.9,144.21 461,149.62C465.45,161.13 461,173.88 458.37,185.94C457.14,191.732 456.347,197.609 456,203.52C455.714,206.257 455.893,209.023 456.53,211.7C458.53,218.76 466.09,223.86 466.15,231.2C466.15,236.2 462.63,240.92 463.66,245.78C464.99,251.99 472.53,254.23 478.78,255.3C480.276,255.711 481.862,255.662 483.33,255.16C484.33,254.68 485.15,253.76 486.17,253.25C489.64,251.53 493.49,255.16 497.37,255.09C502.24,255 504.98,249.25 505.1,244.38C505.22,239.51 503.92,234.38 505.67,229.88C508,223.88 514.67,221.03 520.3,217.88C526.53,214.39 532.46,209.35 534.3,202.46C535.45,198.2 534.93,193.69 534.47,189.31C533.77,182.59 533.22,175.84 532.84,169.1C531.84,151.9 546.13,137.57 563.3,138.91L563.62,138.91C568.62,139.32 574.52,139.8 578.05,136.16C579.45,134.71 580.34,132.71 582.05,131.71C585.39,129.81 589.98,132.52 593.34,130.65C595.97,129.18 596.53,125.65 596.12,122.65C595.71,119.65 594.66,116.65 595.22,113.71C596.02,109.54 599.81,106.56 601.22,102.55C602.84,97.98 601.09,92.87 598.57,88.73C590.5,75.42 574.07,65 558.67,63.6C552.48,63 546.27,62.93 540.06,62.83Z" style="fill:rgb(134,90,97);fill-rule:nonzero;"/>
    </g>
    <g transform="matrix(0.685858,0,0,0.685858,28.2013,8.48766)">
        <path d="M528.89,260.15C534.83,261.37 542.06,264.08 549.27,267.39C544.993,267.729 540.697,267.729 536.42,267.39L526.79,263.77C526.79,263.77 527.57,262.2 528.89,260.15Z" style="fill-opacity:0.1;fill-rule:nonzero;"/>
    </g>
    <g transform="matrix(0.685858,0,0,0.685858,28.2013,8.48766)">
        <path d="M602.79,310.79C599.13,310.25 595.1,311.04 591.99,309.07C591.63,308.831 591.295,308.556 590.99,308.25L590.84,308.25C590.827,308.25 590.813,308.25 590.8,308.25C574.754,308.25 561.55,295.046 561.55,279C561.55,279 561.55,279 561.55,279C561.545,277.283 561.699,275.569 562.01,273.88C572.26,279.61 580.57,285.5 582.17,288.38C584.535,292.17 587.319,295.683 590.47,298.85C593.26,301.85 596.25,304.73 598.81,307.14C600.33,308.55 601.7,309.8 602.79,310.79Z" style="fill-opacity:0.1;fill-rule:nonzero;"/>
    </g>
    <g transform="matrix(0.685858,0,0,0.685858,28.2013,8.48766)">
        <path d="M604.42,314.12C604.42,314.12 586.17,298.37 581.17,289.37C576.17,280.37 505.92,242.12 514.92,271.12C523.92,300.12 554.92,302.87 554.92,302.87C554.92,302.87 564.92,314.12 565.92,319.62C566.92,325.12 570.42,333.12 570.42,333.12L587.17,340.62L594.92,338.87C594.92,338.87 613.17,328.87 604.42,314.12Z" style="fill:rgb(253,194,204);fill-rule:nonzero;"/>
    </g>
    <g transform="matrix(0.685858,0,0,0.685858,28.2013,8.48766)">
        <path d="M569.42,332.12C569.42,332.12 598.92,348.87 601.92,309.62L609.42,312.12L601.92,338.62L589.17,347.87C589.17,347.87 571.42,339.62 569.42,332.12Z" style="fill-opacity:0.1;fill-rule:nonzero;"/>
    </g>
    <g transform="matrix(0.685858,0,0,0.685858,28.2013,8.48766)">
        <path d="M570.42,333.12C570.42,333.12 599.92,349.87 602.92,310.62L610.42,313.12L602.92,339.62L590.17,348.87C590.17,348.87 572.42,340.62 570.42,333.12Z" style="fill:rgb(211,153,153);fill-rule:nonzero;"/>
    </g>
    <g transform="matrix(0.685858,0,0,0.685858,28.2013,8.48766)">
        <path d="M596.47,134.22C596.81,130.71 598.24,127.4 598.99,123.95C599.729,120.613 599.831,117.165 599.29,113.79C598.987,111.352 598.079,109.028 596.65,107.03C595.65,105.78 592.65,103.03 590.9,104.27C589.9,104.98 589.63,109.09 589.23,110.27C587.827,114.233 585.946,118.011 583.63,121.52C589.286,129.325 592.333,138.721 592.333,148.36C592.333,173.438 571.708,194.08 546.63,194.1C545.54,194.1 544.46,194.05 543.39,193.97C542.39,195.71 541.48,197.47 540.56,199.23C539.474,201.017 538.74,202.996 538.4,205.06C538.317,207.033 538.619,209.003 539.29,210.86C541.152,216.969 543.723,222.839 546.95,228.35C548.075,230.061 548.998,231.896 549.7,233.82C550.27,235.67 550.37,237.65 551.11,239.43C552.77,243.43 557.11,245.43 561.11,247.1C563.5,248.1 566,249.1 568.58,248.89C568.623,248.893 568.667,248.895 568.71,248.895C569.665,248.895 570.45,248.109 570.45,247.155C570.45,247.143 570.45,247.132 570.45,247.12C570.731,244.996 569.988,242.861 568.45,241.37C571.842,242.433 575.403,242.857 578.95,242.62C579.064,242.644 579.179,242.656 579.295,242.656C580.223,242.656 580.985,241.893 580.985,240.966C580.985,240.677 580.911,240.392 580.77,240.14C579.849,236.368 578.444,232.731 576.59,229.32C574.77,225.96 572.45,222.05 574.11,218.62C575.06,216.62 577.06,215.5 578.88,214.31C585.03,210.31 590.48,203.79 590,196.46C589.74,192.46 587.72,188.65 587.6,184.62C587.29,174.79 597.87,167.76 599.47,158.05C600.74,150.11 595.7,142.25 596.47,134.22Z" style="fill:rgb(134,90,97);fill-rule:nonzero;"/>
    </g>
    <g transform="matrix(1,0,0,1,-137.02,-100.02)">
        <g opacity="0.1">
            <g transform="matrix(0.685858,0,0,0.685858,165.221,108.508)">
                <path d="M465.61,227.2C465.55,219.86 458,214.76 455.99,207.7C455.681,206.587 455.489,205.444 455.42,204.29C455.197,206.774 455.39,209.279 455.99,211.7C457.83,218.15 464.27,222.97 465.42,229.36C465.548,228.647 465.612,227.924 465.61,227.2Z" style="fill-rule:nonzero;"/>
            </g>
            <g transform="matrix(0.685858,0,0,0.685858,165.221,108.508)">
                <path d="M496.83,251.09C492.95,251.16 489.1,247.53 485.63,249.25C484.63,249.76 483.83,250.68 482.79,251.16C481.322,251.662 479.736,251.711 478.24,251.3C472.01,250.23 464.49,248 463.14,241.84C462.885,243.141 462.885,244.479 463.14,245.78C464.47,251.99 472.01,254.23 478.26,255.3C479.756,255.711 481.342,255.662 482.81,255.16C483.81,254.68 484.63,253.76 485.65,253.25C489.12,251.53 492.97,255.16 496.85,255.09C501.72,255 504.46,249.25 504.58,244.38C504.58,243.38 504.58,242.38 504.51,241.38C504,246 501.36,251 496.83,251.09Z" style="fill-rule:nonzero;"/>
            </g>
            <g transform="matrix(0.685858,0,0,0.685858,165.221,108.508)">
                <path d="M533.78,198.45C531.92,205.34 525.99,210.38 519.78,213.87C514.15,217.03 507.48,219.87 505.15,225.87C504.292,228.461 503.999,231.206 504.29,233.92C504.377,232.535 504.666,231.171 505.15,229.87C507.48,223.87 514.15,221.02 519.78,217.87C526.01,214.38 531.94,209.34 533.78,202.45C534.415,199.834 534.627,197.133 534.41,194.45C534.332,195.801 534.121,197.141 533.78,198.45Z" style="fill-rule:nonzero;"/>
            </g>
            <g transform="matrix(0.685858,0,0,0.685858,165.221,108.508)">
                <path d="M588.53,127.3C586.12,127.12 583.61,126.56 581.53,127.72C579.78,128.72 578.89,130.72 577.53,132.17C574,135.81 568.15,135.33 563.1,134.92L562.78,134.92C545.61,133.58 531.34,147.92 532.32,165.11L532.32,165.51C533.268,150.603 545.795,138.848 560.733,138.848C561.409,138.848 562.085,138.872 562.76,138.92L563.08,138.92C568.08,139.33 573.98,139.81 577.51,136.17C578.91,134.72 579.8,132.72 581.51,131.72C583.51,130.56 586.06,131.12 588.51,131.3C590.433,136.08 591.532,141.152 591.76,146.3C591.76,145.65 591.81,145 591.81,144.3C591.81,138.476 590.697,132.706 588.53,127.3Z" style="fill-rule:nonzero;"/>
            </g>
            <g transform="matrix(0.685858,0,0,0.685858,165.221,108.508)">
                <path d="M462.33,158.44C462.63,154.092 462.006,149.73 460.5,145.64C458.92,141.55 456.21,137.54 455.5,133.37C454.41,139.02 458.44,144.25 460.5,149.64C461.569,152.459 462.186,155.429 462.33,158.44Z" style="fill-rule:nonzero;"/>
            </g>
            <g transform="matrix(0.685858,0,0,0.685858,165.221,108.508)">
                <path d="M599.05,116.12C598.959,117.409 598.772,118.689 598.49,119.95C597.74,123.4 596.31,126.71 595.97,130.22C595.85,131.47 595.85,132.73 595.97,133.98C596.35,130.56 597.72,127.32 598.46,123.98C599.039,121.403 599.238,118.755 599.05,116.12Z" style="fill-rule:nonzero;"/>
            </g>
            <g transform="matrix(0.685858,0,0,0.685858,165.221,108.508)">
                <path d="M598.93,154.07C597.33,163.78 586.75,170.81 587.06,180.64C587.076,181.172 587.123,181.703 587.2,182.23C588.46,173.62 597.47,166.97 598.93,158.07C599.178,156.458 599.212,154.821 599.03,153.2C599,153.49 599,153.78 598.93,154.07Z" style="fill-rule:nonzero;"/>
            </g>
            <g transform="matrix(0.685858,0,0,0.685858,165.221,108.508)">
                <path d="M600.75,98.53C599.806,100.673 598.596,102.688 597.15,104.53C597.565,105.335 597.9,106.179 598.15,107.05C599.205,105.647 600.069,104.11 600.72,102.48C601.347,100.614 601.505,98.622 601.18,96.68C601.092,97.308 600.949,97.927 600.75,98.53Z" style="fill-rule:nonzero;"/>
            </g>
            <g transform="matrix(0.685858,0,0,0.685858,165.221,108.508)">
                <path d="M589.34,195.39C588.45,201.51 583.66,206.84 578.34,210.33C576.52,211.52 574.52,212.68 573.57,214.64C572.912,216.114 572.816,217.78 573.3,219.32C573.371,219.086 573.461,218.859 573.57,218.64C574.52,216.64 576.52,215.52 578.34,214.33C584.49,210.33 589.94,203.81 589.46,196.48C589.44,196.11 589.39,195.75 589.34,195.39Z" style="fill-rule:nonzero;"/>
            </g>
            <g transform="matrix(0.685858,0,0,0.685858,165.221,108.508)">
                <path d="M569.34,244.47C568.97,244.753 568.516,244.908 568.05,244.91C565.47,245.13 562.97,244.12 560.58,243.12C556.58,241.46 552.22,239.44 550.58,235.45C549.84,233.67 549.74,231.69 549.17,229.84C548.468,227.916 547.545,226.081 546.42,224.37C543.193,218.859 540.622,212.989 538.76,206.88C538.47,205.957 538.229,205.019 538.04,204.07C537.97,204.4 537.91,204.74 537.87,205.07C537.787,207.043 538.089,209.013 538.76,210.87C540.622,216.979 543.193,222.849 546.42,228.36C547.545,230.071 548.468,231.906 549.17,233.83C549.74,235.68 549.84,237.66 550.58,239.44C552.24,243.44 556.58,245.44 560.58,247.11C562.97,248.11 565.47,249.11 568.05,248.9C568.093,248.903 568.137,248.905 568.18,248.905C569.135,248.905 569.92,248.119 569.92,247.165C569.92,247.153 569.92,247.142 569.92,247.13C570.052,246.12 569.949,245.094 569.62,244.13C569.548,244.26 569.453,244.375 569.34,244.47Z" style="fill-rule:nonzero;"/>
            </g>
            <g transform="matrix(0.685858,0,0,0.685858,165.221,108.508)">
                <path d="M579.72,238.33C579.31,238.525 578.864,238.631 578.41,238.64C574.863,238.877 571.302,238.453 567.91,237.39C569.149,238.589 569.883,240.218 569.96,241.94C572.726,242.592 575.574,242.828 578.41,242.64C578.524,242.664 578.639,242.676 578.755,242.676C579.683,242.676 580.445,241.913 580.445,240.986C580.445,240.697 580.371,240.412 580.23,240.16C580.08,239.54 579.9,238.93 579.72,238.33Z" style="fill-rule:nonzero;"/>
            </g>
        </g>
    </g>
    <g transform="matrix(0.685858,0,0,0.685858,28.2013,8.48766)">
        <path d="M440.17,260.37C440.17,260.37 439.17,280.87 442.17,282.37C445.17,283.87 440.17,260.37 440.17,260.37Z" style="fill-opacity:0.1;fill-rule:nonzero;"/>
    </g>
    <g transform="matrix(0.685858,0,0,0.685858,28.2013,8.48766)">
        <path d="M496.92,314.37C497.92,314.37 501.92,316.37 502.42,318.62C502.92,320.87 496.92,314.37 496.92,314.37Z" style="fill-opacity:0.1;fill-rule:nonzero;"/>
    </g>
    <g transform="matrix(0.685858,0,0,0.685858,28.2013,8.48766)">
        <path d="M494.42,317.62C495.42,317.62 499.42,319.62 499.92,321.87C500.42,324.12 494.42,317.62 494.42,317.62Z" style="fill-opacity:0.1;fill-rule:nonzero;"/>
    </g>
    <g transform="matrix(0.685858,0,0,0.685858,28.2013,8.48766)">
        <path d="M503.67,326.62C504.67,326.62 508.67,328.62 509.17,330.87C509.67,333.12 503.67,326.62 503.67,326.62Z" style="fill-opacity:0.1;fill-rule:nonzero;"/>
    </g>
    <g transform="matrix(0.685858,0,0,0.685858,28.2013,8.48766)">
        <path d="M491.17,327C491.17,327 477.59,340.59 476.75,343.5C475.91,346.41 450.25,346.5 450.25,346.5L448.5,332.5C448.5,332.5 448.4,332.13 448.31,331.57C455.4,329.75 478.39,321.26 492.07,324.27C492.237,325.272 491.9,326.294 491.17,327Z" style="fill-opacity:0.1;fill-rule:nonzero;"/>
    </g>
    <g transform="matrix(0.685858,0,0,0.685858,28.2013,8.48766)">
        <path d="M429.33,344.2C429.33,344.2 442.42,332.62 446.42,332.87C450.42,333.12 499.17,312.37 502.42,335.62C505.67,358.87 440.17,360.12 440.17,360.12L430.17,363.87C430.17,363.87 421.83,345.7 429.33,344.2Z" style="fill:rgb(253,194,204);fill-rule:nonzero;"/>
    </g>
    <g transform="matrix(0.685858,0,0,0.685858,28.2013,8.48766)">
        <path d="M425.5,345.87C425.5,345.87 431.5,337.54 433.33,347.7C435.16,357.86 437.92,370.37 437.92,370.37L424.5,363.7L425.5,345.87Z" style="fill:rgb(211,153,153);fill-rule:nonzero;"/>
    </g>
    <g transform="matrix(0.685858,0,0,0.685858,71.2252,28.8096)">
        <ellipse cx="918.38" cy="664.49" rx="44.79" ry="6.87" style="fill:rgb(34,0,145);fill-opacity:0.1;"/>
    </g>
    <g transform="matrix(0.685858,0,0,0.685858,71.2252,28.8096)">
        <ellipse cx="791.95" cy="788.53" rx="70" ry="10.74" style="fill:rgb(34,0,145);fill-opacity:0.1;"/>
    </g>
    <g transform="matrix(0.685858,0,0,0.685858,71.2252,28.8096)">
        <ellipse cx="70" cy="678.54" rx="70" ry="10.74" style="fill:rgb(34,0,145);fill-opacity:0.1;"/>
    </g>
    <g transform="matrix(0.685858,0,0,0.685858,28.2013,8.48766)">
        <path d="M945.79,628.21C945.79,628.21 939.46,657.71 967.64,661.21L969.39,657.93C969.39,657.93 947.54,637.39 945.79,628.21Z" style="fill:rgb(34,0,145);fill-rule:nonzero;"/>
    </g>
    <g transform="matrix(0.685858,0,0,0.685858,28.2013,8.48766)">
        <path d="M978.35,657.7L971.8,659.09L971.14,659.24C971.14,659.24 953.66,645.04 953.88,613.35C956.222,618.02 959.019,622.448 962.23,626.57C969.16,635.73 977,648 978.35,657.7Z" style="fill:rgb(34,0,145);fill-rule:nonzero;"/>
    </g>
    <g transform="matrix(0.685858,0,0,0.685858,28.2013,8.48766)">
        <path d="M980.57,660.74C979.525,661.422 978.225,661.592 977.04,661.2C960.21,657.27 965.9,602.43 965.9,602.43C966.83,602.87 967.9,609.84 971.72,618.85C978.51,634.67 986,656.77 980.57,660.74Z" style="fill:rgb(34,0,145);fill-rule:nonzero;"/>
    </g>
    <g transform="matrix(0.685858,0,0,0.685858,28.2013,8.48766)">
        <path d="M1017.89,628.21C1017.89,628.21 1018.99,657.71 990.8,661.21L989.05,657.93C989.05,657.93 1016.15,637.39 1017.89,628.21Z" style="fill:rgb(34,0,145);fill-rule:nonzero;"/>
    </g>
    <g transform="matrix(0.685858,0,0,0.685858,28.2013,8.48766)">
        <path d="M1009.81,613.35C1010.02,645.04 987.31,659.24 987.31,659.24L986.65,659.09L980.1,657.7C981.39,647.97 989.29,635.7 996.21,626.57C1000.13,621.574 1004.71,617.128 1009.81,613.35Z" style="fill:rgb(34,0,145);fill-rule:nonzero;"/>
    </g>
    <g transform="matrix(0.685858,0,0,0.685858,28.2013,8.48766)">
        <path d="M986.55,657.87C985.537,659.102 984.254,660.084 982.8,660.74C982.361,660.942 981.902,661.097 981.43,661.2C977.28,662.2 975.84,659.2 976.08,654.11C976.47,645.11 982.15,629.41 987.25,617.69C990.92,609.25 996.92,602.85 997.81,602.43C997.79,602.43 997.54,645.13 986.55,657.87Z" style="fill:rgb(34,0,145);fill-rule:nonzero;"/>
    </g>
    <g transform="matrix(0.685858,0,0,0.685858,28.2013,8.48766)">
        <path d="M981.84,583.2C981.84,583.2 963.05,649.84 979.22,659.89C995.39,669.94 986,589.1 981.84,583.2Z" style="fill:rgb(34,0,145);fill-rule:nonzero;"/>
    </g>
    <g transform="matrix(0.685858,0,0,0.685858,28.2013,8.48766)">
        <path d="M945.79,628.21C945.79,628.21 939.46,657.71 967.64,661.21L969.39,657.93C969.39,657.93 947.54,637.39 945.79,628.21Z" style="fill-opacity:0.1;fill-rule:nonzero;"/>
    </g>
    <g transform="matrix(0.685858,0,0,0.685858,28.2013,8.48766)">
        <path d="M978.35,657.7L971.8,659.09L971.14,659.24C971.14,659.24 953.66,645.04 953.88,613.35C956.222,618.02 959.019,622.448 962.23,626.57C969.16,635.73 977,648 978.35,657.7Z" style="fill-opacity:0.1;fill-rule:nonzero;"/>
    </g>
    <g transform="matrix(0.685858,0,0,0.685858,28.2013,8.48766)">
        <path d="M980.57,660.74C979.525,661.422 978.225,661.592 977.04,661.2C960.21,657.27 965.9,602.43 965.9,602.43C966.83,602.87 967.9,609.84 971.72,618.85C978.51,634.67 986,656.77 980.57,660.74Z" style="fill-opacity:0.1;fill-rule:nonzero;"/>
    </g>
    <g transform="matrix(0.685858,0,0,0.685858,28.2013,8.48766)">
        <path d="M1017.89,628.21C1017.89,628.21 1018.99,657.71 990.8,661.21L989.05,657.93C989.05,657.93 1016.15,637.39 1017.89,628.21Z" style="fill-opacity:0.1;fill-rule:nonzero;"/>
    </g>
    <g transform="matrix(0.685858,0,0,0.685858,28.2013,8.48766)">
        <path d="M1009.81,613.35C1010.02,645.04 987.31,659.24 987.31,659.24L986.65,659.09L980.1,657.7C981.39,647.97 989.29,635.7 996.21,626.57C1000.13,621.574 1004.71,617.128 1009.81,613.35Z" style="fill-opacity:0.1;fill-rule:nonzero;"/>
    </g>
    <g transform="matrix(0.685858,0,0,0.685858,28.2013,8.48766)">
        <path d="M986.55,657.87C985.537,659.102 984.254,660.084 982.8,660.74C982.361,660.942 981.902,661.097 981.43,661.2C977.28,662.2 975.84,659.2 976.08,654.11C976.47,645.11 982.15,629.41 987.25,617.69C990.92,609.25 996.92,602.85 997.81,602.43C997.79,602.43 997.54,645.13 986.55,657.87Z" style="fill-opacity:0.1;fill-rule:nonzero;"/>
    </g>
    <g transform="matrix(0.685858,0,0,0.685858,28.2013,8.48766)">
        <path d="M981.84,583.2C981.84,583.2 963.05,649.84 979.22,659.89C995.39,669.94 986,589.1 981.84,583.2Z" style="fill-opacity:0.1;fill-rule:nonzero;"/>
    </g>
    <g transform="matrix(0.685858,0,0,0.685858,28.2013,8.48766)">
        <path d="M945.79,628.21C945.79,628.21 942.08,657.71 970.26,661.21L972.01,657.93C972.01,657.93 947.54,637.39 945.79,628.21Z" style="fill:rgb(34,0,145);fill-rule:nonzero;"/>
    </g>
    <g transform="matrix(0.685858,0,0,0.685858,28.2013,8.48766)">
        <path d="M981,657.7L974.45,659.09L973.79,659.24C973.79,659.24 953.69,645.04 953.91,613.35C953.91,613.35 959.06,618.87 964.91,626.57C971.79,635.73 979.66,648 981,657.7Z" style="fill:rgb(34,0,145);fill-rule:nonzero;"/>
    </g>
    <g transform="matrix(0.685858,0,0,0.685858,28.2013,8.48766)">
        <path d="M981,657.7L974.45,659.09C968.24,653.64 965.77,639.4 964.88,626.57C971.79,635.73 979.66,648 981,657.7Z" style="fill-opacity:0.1;fill-rule:nonzero;"/>
    </g>
    <g transform="matrix(0.685858,0,0,0.685858,28.2013,8.48766)">
        <path d="M983.19,660.74C982.145,661.422 980.845,661.592 979.66,661.2C962.83,657.27 965.9,602.43 965.9,602.43C966.83,602.87 970.47,609.84 974.34,618.85C981.13,634.67 988.59,656.77 983.19,660.74Z" style="fill:rgb(34,0,145);fill-rule:nonzero;"/>
    </g>
    <g transform="matrix(0.685858,0,0,0.685858,28.2013,8.48766)">
        <path d="M1017.89,628.21C1017.89,628.21 1021.61,657.71 993.42,661.21L991.68,657.93C991.68,657.93 1016.15,637.39 1017.89,628.21Z" style="fill:rgb(34,0,145);fill-rule:nonzero;"/>
    </g>
    <g transform="matrix(0.685858,0,0,0.685858,28.2013,8.48766)">
        <path d="M1009.81,613.35C1010.02,645.04 989.93,659.24 989.93,659.24L989.27,659.09L982.72,657.7C984.02,647.97 991.91,635.7 998.83,626.57C1004.66,618.87 1009.81,613.35 1009.81,613.35Z" style="fill:rgb(34,0,145);fill-rule:nonzero;"/>
    </g>
    <g transform="matrix(0.685858,0,0,0.685858,28.2013,8.48766)">
        <path d="M998.83,626.57C997.99,638.57 995.83,651.71 990.48,657.87C990.112,658.311 989.708,658.719 989.27,659.09L982.72,657.7C984,648 991.91,635.73 998.83,626.57Z" style="fill-opacity:0.1;fill-rule:nonzero;"/>
    </g>
    <g transform="matrix(0.685858,0,0,0.685858,28.2013,8.48766)">
        <path d="M989.17,657.87C988.159,659.104 986.875,660.086 985.42,660.74C984.977,660.941 984.515,661.095 984.04,661.2C979.9,662.2 978.45,659.2 978.69,654.11C979.08,645.11 984.76,629.41 989.86,617.69C993.53,609.25 996.86,602.85 997.8,602.43C997.79,602.43 1000.17,645.13 989.17,657.87Z" style="fill:rgb(34,0,145);fill-rule:nonzero;"/>
    </g>
    <g transform="matrix(0.685858,0,0,0.685858,28.2013,8.48766)">
        <path d="M983.19,660.74C982.237,660.738 981.307,660.441 980.53,659.89C972.61,654.96 972.45,636.45 974.34,618.89C981.13,634.67 988.59,656.77 983.19,660.74Z" style="fill-opacity:0.1;fill-rule:nonzero;"/>
    </g>
    <g transform="matrix(0.685858,0,0,0.685858,28.2013,8.48766)">
        <path d="M989.17,657.87C988.26,659.87 987.03,660.87 985.42,660.74C984.611,660.636 983.837,660.345 983.16,659.89C981.106,658.475 979.543,656.454 978.69,654.11C979.08,645.11 984.76,629.41 989.86,617.69C991.67,634 992.27,651.2 989.17,657.87Z" style="fill-opacity:0.1;fill-rule:nonzero;"/>
    </g>
    <g transform="matrix(0.685858,0,0,0.685858,28.2013,8.48766)">
        <path d="M981.84,583.2C981.84,583.2 965.68,649.84 981.84,659.89C998,669.94 986,589.1 981.84,583.2Z" style="fill:rgb(34,0,145);fill-rule:nonzero;"/>
    </g>
    <g transform="matrix(0.685858,0,0,0.685858,71.2252,28.8096)">
        <path d="M950.14,626.99L882.85,626.99L882.85,638.13L893.11,638.13L893.37,639.44L897.48,661.07L936.6,661.07L940.71,639.44L940.96,638.13L950.14,638.13L950.14,626.99Z" style="fill:rgb(75,71,112);fill-rule:nonzero;"/>
    </g>
    <g transform="matrix(0.685858,0,0,0.685858,71.2252,28.8096)">
        <path d="M950.14,626.99L882.85,626.99L882.85,638.13L893.11,638.13L893.37,639.44L897.48,661.07L936.6,661.07L940.71,639.44L940.96,638.13L950.14,638.13L950.14,626.99Z" style="fill-opacity:0.1;fill-rule:nonzero;"/>
    </g>
    <g transform="matrix(0.685858,0,0,0.685858,71.2252,28.8096)">
        <path d="M944.46,633.54L943.34,639.44L939.22,661.07L900.1,661.07L895.99,639.44L894.86,633.54L944.46,633.54Z" style="fill:rgb(75,71,112);fill-rule:nonzero;"/>
    </g>
    <g transform="matrix(0.685858,0,0,0.685858,71.2252,28.8096)">
        <path d="M944.46,633.54L943.34,639.44L895.99,639.44L894.86,633.54L944.46,633.54Z" style="fill-opacity:0.1;fill-rule:nonzero;"/>
    </g>
    <g transform="matrix(0.685858,0,0,0.685858,71.2252,28.8096)">
        <rect x="885.47" y="626.99" width="67.29" height="11.14" style="fill:rgb(75,71,112);"/>
    </g>
    <g transform="matrix(0.685858,0,0,0.685858,28.2013,8.48766)">
        <path d="M171.88,590.79C170.921,592.105 170.153,593.549 169.6,595.08C169.46,595.45 169.32,595.88 169.18,596.29C168.928,596.17 168.663,596.08 168.39,596.02C167.225,595.723 166.019,595.618 164.82,595.71C164.82,595.25 164.88,594.71 164.89,594.24C165.04,588.97 164.42,581.63 159.39,584.74C154.57,587.74 158.01,592.74 161.12,595.94C161.39,596.22 161.66,596.48 161.92,596.73C159.08,598.73 158.54,603.46 158.07,608.37C157.6,613.28 153.43,618.65 150.66,621.71C150.38,622.02 150.13,622.3 149.88,622.56C147.632,620.762 144.718,620.008 141.88,620.49C141.77,620.06 141.65,619.61 141.51,619.13C139.22,611 134.58,597 128.64,594C128.89,593.69 129.15,593.37 129.42,593C131.94,589.7 134.78,584.8 130.59,583.55C126.4,582.3 126.02,587.8 126.25,591.92C126.25,592.43 126.33,592.92 126.37,593.38C124.685,593.456 123.103,594.223 122,595.5L121.35,594.73C117.95,590.73 111.72,584.37 109.83,589.18C108.08,593.65 113.56,599.47 117.42,602.84L117.66,603.05C115.07,613.57 126.38,622.14 132.47,625.88L133.26,626.37C124.86,636.26 119.67,654.82 119.67,654.82L143.2,659.02C143.2,659.02 158.79,645.56 156.79,632.93L156.95,632.93C172.54,629.8 176.08,613.18 173.66,603.32L173.93,603.2C176.768,602.039 179.256,600.161 181.15,597.75C185.5,591.68 176.36,584.84 171.88,590.79Z" style="fill:rgb(34,0,145);fill-rule:nonzero;"/>
    </g>
    <g transform="matrix(0.685858,0,0,0.685858,28.2013,8.48766)">
        <path d="M171.88,590.79C170.921,592.105 170.153,593.549 169.6,595.08C169.46,595.45 169.32,595.88 169.18,596.29C168.928,596.17 168.663,596.08 168.39,596.02C167.225,595.723 166.019,595.618 164.82,595.71C164.82,595.25 164.88,594.71 164.89,594.24C165.04,588.97 164.42,581.63 159.39,584.74C154.57,587.74 158.01,592.74 161.12,595.94C161.39,596.22 161.66,596.48 161.92,596.73C159.08,598.73 158.54,603.46 158.07,608.37C157.6,613.28 153.43,618.65 150.66,621.71C150.38,622.02 150.13,622.3 149.88,622.56C147.632,620.762 144.718,620.008 141.88,620.49C141.77,620.06 141.65,619.61 141.51,619.13C139.22,611 134.58,597 128.64,594C128.89,593.69 129.15,593.37 129.42,593C131.94,589.7 134.78,584.8 130.59,583.55C126.4,582.3 126.02,587.8 126.25,591.92C126.25,592.43 126.33,592.92 126.37,593.38C124.685,593.456 123.103,594.223 122,595.5L121.35,594.73C117.95,590.73 111.72,584.37 109.83,589.18C108.08,593.65 113.56,599.47 117.42,602.84L117.66,603.05C115.07,613.57 126.38,622.14 132.47,625.88L133.26,626.37C124.86,636.26 119.67,654.82 119.67,654.82L143.2,659.02C143.2,659.02 158.79,645.56 156.79,632.93L156.95,632.93C172.54,629.8 176.08,613.18 173.66,603.32L173.93,603.2C176.768,602.039 179.256,600.161 181.15,597.75C185.5,591.68 176.36,584.84 171.88,590.79Z" style="fill-opacity:0.1;fill-rule:nonzero;"/>
    </g>
    <g transform="matrix(0.685858,0,0,0.685858,28.2013,8.48766)">
        <path d="M125.06,597.57L122.31,605.57C122.31,605.57 120.78,604.49 118.85,602.79C114.99,599.42 109.51,593.6 111.26,589.13C113.15,584.32 119.38,590.67 122.78,594.68C124.15,596.33 125.06,597.57 125.06,597.57Z" style="fill:rgb(34,0,145);fill-rule:nonzero;"/>
    </g>
    <g transform="matrix(0.685858,0,0,0.685858,28.2013,8.48766)">
        <path d="M130.86,593C130.023,594.097 129.129,595.148 128.18,596.15C127.946,594.749 127.782,593.337 127.69,591.92C127.46,587.8 127.9,582.33 132.03,583.55C136.16,584.77 133.38,589.68 130.86,593Z" style="fill:rgb(34,0,145);fill-rule:nonzero;"/>
    </g>
    <g transform="matrix(0.685858,0,0,0.685858,28.2013,8.48766)">
        <path d="M166.33,594.24C166.25,596.89 165.99,599.01 165.99,599.01C164.777,598.067 163.631,597.041 162.56,595.94C159.45,592.72 156.01,587.74 160.83,584.74C165.86,581.63 166.48,589 166.33,594.24Z" style="fill:rgb(34,0,145);fill-rule:nonzero;"/>
    </g>
    <g transform="matrix(0.685858,0,0,0.685858,28.2013,8.48766)">
        <path d="M182.58,597.72C180.686,600.131 178.198,602.009 175.36,603.17C174.574,603.517 173.765,603.811 172.94,604.05L169.7,599.5C170.043,597.997 170.491,596.52 171.04,595.08C171.593,593.549 172.361,592.105 173.32,590.79C177.8,584.84 186.94,591.68 182.58,597.72Z" style="fill:rgb(34,0,145);fill-rule:nonzero;"/>
    </g>
    <g transform="matrix(0.685858,0,0,0.685858,28.2013,8.48766)">
        <path d="M122.78,594.73C124.15,596.33 125.06,597.57 125.06,597.57L122.31,605.57C122.31,605.57 120.78,604.49 118.85,602.79C119.279,600.212 120.344,597.782 121.95,595.72C122.22,595.4 122.51,595.05 122.78,594.73Z" style="fill-opacity:0.1;fill-rule:nonzero;"/>
    </g>
    <g transform="matrix(0.685858,0,0,0.685858,28.2013,8.48766)">
        <path d="M130.86,593C130.023,594.097 129.129,595.148 128.18,596.15C127.946,594.749 127.782,593.337 127.69,591.92C128.834,591.939 129.943,592.317 130.86,593Z" style="fill-opacity:0.1;fill-rule:nonzero;"/>
    </g>
    <g transform="matrix(0.685858,0,0,0.685858,28.2013,8.48766)">
        <path d="M144.39,624.93L137.54,627.93C137.54,627.93 136.05,627.21 133.9,625.87C126.71,621.45 112.26,610.32 121.9,597.2C131.54,584.08 139.67,607.61 142.9,619.12C143.87,622.57 144.39,624.93 144.39,624.93Z" style="fill:rgb(34,0,145);fill-rule:nonzero;"/>
    </g>
    <g transform="matrix(0.685858,0,0,0.685858,28.2013,8.48766)">
        <path d="M162.56,595.94C163.556,594.917 164.904,594.309 166.33,594.24C166.25,596.89 165.99,599.01 165.99,599.01C164.777,598.067 163.631,597.041 162.56,595.94Z" style="fill-opacity:0.1;fill-rule:nonzero;"/>
    </g>
    <g transform="matrix(0.685858,0,0,0.685858,28.2013,8.48766)">
        <path d="M175.36,603.17C174.574,603.517 173.765,603.811 172.94,604.05L169.7,599.5C170.043,597.997 170.491,596.52 171.04,595.08C173.13,596.3 174.67,599.34 175.36,603.17Z" style="fill-opacity:0.1;fill-rule:nonzero;"/>
    </g>
    <g transform="matrix(0.685858,0,0,0.685858,28.2013,8.48766)">
        <path d="M158.38,632.9L157.23,633.1C134.3,636.58 149.67,624.21 149.67,624.21C149.67,624.21 150.67,623.21 152.1,621.71C154.87,618.65 159.03,613.31 159.51,608.37C160.23,600.94 161.06,593.97 169.83,596.02C178.44,598 180.09,628.55 158.38,632.9Z" style="fill:rgb(34,0,145);fill-rule:nonzero;"/>
    </g>
    <g transform="matrix(0.685858,0,0,0.685858,71.2252,28.8096)">
        <rect x="51.41" y="660.36" width="43.81" height="11.52" style="fill:rgb(212,223,236);"/>
    </g>
    <g transform="matrix(0.685858,0,0,0.685858,71.2252,28.8096)">
        <rect x="44.45" y="622.91" width="57.24" height="40.2" style="fill:rgb(212,223,236);"/>
    </g>
    <g transform="matrix(0.685858,0,0,0.685858,71.2252,28.8096)">
        <rect x="51.41" y="660.36" width="43.81" height="11.52" style="fill-opacity:0.1;"/>
    </g>
    <g transform="matrix(0.685858,0,0,0.685858,71.2252,28.8096)">
        <rect x="44.45" y="622.91" width="57.24" height="40.2" style="fill-opacity:0.1;"/>
    </g>
    <g transform="matrix(0.685858,0,0,0.685858,71.2252,28.8096)">
        <rect x="54.29" y="660.36" width="43.81" height="11.52" style="fill:rgb(212,223,236);"/>
    </g>
    <g transform="matrix(0.685858,0,0,0.685858,28.2013,8.48766)">
        <path d="M142.9,619.13C143.9,622.57 144.39,624.93 144.39,624.93L137.54,627.93C137.54,627.93 136.05,627.21 133.9,625.87C136.58,622.49 139.6,619.92 142.9,619.13Z" style="fill-opacity:0.1;fill-rule:nonzero;"/>
    </g>
    <g transform="matrix(0.685858,0,0,0.685858,28.2013,8.48766)">
        <path d="M158.38,632.9L157.23,633.1C134.3,636.58 149.67,624.21 149.67,624.21C149.67,624.21 150.67,623.21 152.1,621.71C156.38,625.13 158.15,629 158.38,632.9Z" style="fill-opacity:0.1;fill-rule:nonzero;"/>
    </g>
    <g transform="matrix(0.685858,0,0,0.685858,28.2013,8.48766)">
        <path d="M121.1,654.82C121.1,654.82 133.94,608.82 151.95,623.02C169.96,637.22 144.63,659.02 144.63,659.02L121.1,654.82Z" style="fill:rgb(34,0,145);fill-rule:nonzero;"/>
    </g>
    <g transform="matrix(0.685858,0,0,0.685858,71.2252,28.8096)">
        <circle cx="64.85" cy="574.79" r="1.44" style="fill-opacity:0.1;"/>
    </g>
    <g transform="matrix(0.685858,0,0,0.685858,71.2252,28.8096)">
        <circle cx="64.73" cy="581.51" r="1.44" style="fill-opacity:0.1;"/>
    </g>
    <g transform="matrix(0.685858,0,0,0.685858,71.2252,28.8096)">
        <circle cx="106.5" cy="576.11" r="1.44" style="fill-opacity:0.1;"/>
    </g>
    <g transform="matrix(0.685858,0,0,0.685858,71.2252,28.8096)">
        <circle cx="72.89" cy="610.55" r="1.44" style="fill-opacity:0.1;"/>
    </g>
    <g transform="matrix(0.685858,0,0,0.685858,71.2252,28.8096)">
        <circle cx="103.5" cy="587.27" r="1.44" style="fill-opacity:0.1;"/>
    </g>
    <g transform="matrix(0.685858,0,0,0.685858,71.2252,28.8096)">
        <circle cx="88.62" cy="602.15" r="1.44" style="fill-opacity:0.1;"/>
    </g>
    <g transform="matrix(0.685858,0,0,0.685858,71.2252,28.8096)">
        <circle cx="69.77" cy="577.67" r="1.44" style="fill-opacity:0.1;"/>
    </g>
    <g transform="matrix(0.685858,0,0,0.685858,71.2252,28.8096)">
        <circle cx="102.54" cy="580.43" r="1.44" style="fill-opacity:0.1;"/>
    </g>
    <g transform="matrix(0.685858,0,0,0.685858,71.2252,28.8096)">
        <circle cx="97.62" cy="591.59" r="1.44" style="fill-opacity:0.1;"/>
    </g>
    <g transform="matrix(0.685858,0,0,0.685858,71.2252,28.8096)">
        <circle cx="82.5" cy="609.47" r="1.44" style="fill-opacity:0.1;"/>
    </g>
    <g transform="matrix(0.685858,0,0,0.685858,71.2252,28.8096)">
        <circle cx="79.38" cy="602.39" r="1.44" style="fill-opacity:0.1;"/>
    </g>
    <g transform="matrix(0.685858,0,0,0.685858,71.2252,28.8096)">
        <circle cx="71.93" cy="586.43" r="1.44" style="fill-opacity:0.1;"/>
    </g>
    <g transform="matrix(0.685858,0,0,0.685858,71.2252,28.8096)">
        <rect x="54.29" y="660.36" width="43.81" height="4.21" style="fill-opacity:0.1;"/>
    </g>
    <g transform="matrix(0.685858,0,0,0.685858,71.2252,28.8096)">
        <rect x="47.33" y="622.91" width="57.24" height="40.2" style="fill:rgb(212,223,236);"/>
    </g>
    <g transform="matrix(0.685858,0,0,0.685858,71.2252,28.8096)">
        <circle cx="84.42" cy="615.95" r="1.44" style="fill-opacity:0.1;"/>
    </g>
    <g transform="matrix(0.685858,0,0,0.685858,71.2252,28.8096)">
        <circle cx="75.78" cy="617.75" r="1.44" style="fill-opacity:0.1;"/>
    </g>
    <defs>
        <linearGradient id="_Linear1" x1="0" y1="0" x2="1" y2="0" gradientUnits="userSpaceOnUse" gradientTransform="matrix(4.81899e-14,-787,787,4.81899e-14,513.67,843.12)"><stop offset="0" style="stop-color:rgb(128,128,128);stop-opacity:0.25"/><stop offset="0.54" style="stop-color:rgb(128,128,128);stop-opacity:0.12"/><stop offset="1" style="stop-color:rgb(128,128,128);stop-opacity:0.1"/></linearGradient>
    </defs>
</svg>
