<?xml version="1.0" encoding="UTF-8" standalone="no"?>
<!DOCTYPE svg PUBLIC "-//W3C//DTD SVG 1.1//EN" "http://www.w3.org/Graphics/SVG/1.1/DTD/svg11.dtd">
<svg width="100%" height="100%" viewBox="0 0 32 32" version="1.1" xmlns="http://www.w3.org/2000/svg" xmlns:xlink="http://www.w3.org/1999/xlink" xml:space="preserve" xmlns:serif="http://www.serif.com/" style="fill-rule:evenodd;clip-rule:evenodd;stroke-linejoin:round;stroke-miterlimit:2;">
    <g id="Layer-1" serif:id="Layer 1" transform="matrix(1,0,0,1,0,-1020.36)">
        <g id="path8269" transform="matrix(1,0,0,1,0,1020.36)">
            <path d="M16.352,2.67C14.507,2.67 13.023,4.152 13.023,5.996C13.023,7.84 14.507,9.326 16.352,9.326C18.196,9.326 19.682,7.84 19.682,5.996C19.682,4.152 18.196,2.67 16.352,2.67ZM14.725,3.482L15.49,3.482L16.336,5.15L16.373,5.15L17.217,3.482L17.98,3.482L17.135,5.15L17.977,5.15L17.977,5.824L16.793,5.824L16.674,6.061L16.674,6.496L17.977,6.496L17.977,7.168L16.674,7.168L16.674,8.514L16.002,8.514L16.002,7.168L14.729,7.168L14.729,6.496L16.002,6.496L16.002,6.004L15.912,5.824L14.729,5.824L14.729,5.15L15.57,5.15L14.725,3.482ZM28.654,5.316L28.654,5.33C27.976,5.36 27.317,5.594 26.791,6.004C26.265,6.414 25.892,6.986 25.748,7.621C25.343,7.78 24.915,7.912 24.623,8.236C24.272,8.625 24.057,9.117 24.016,9.635C22.918,8.852 21.643,8.24 20.252,7.846C19.976,8.426 19.574,8.926 19.082,9.33L20,9.33C20.002,9.33 20.005,9.33 20.007,9.33C20.281,9.33 20.507,9.556 20.507,9.83C20.507,10.104 20.281,10.33 20.007,10.33C20.005,10.33 20.002,10.33 20,10.33L16.352,10.33L13,10.33C12.992,10.33 12.984,10.331 12.975,10.331C12.701,10.331 12.475,10.105 12.475,9.83C12.475,9.565 12.685,9.344 12.949,9.33C12.966,9.329 12.983,9.329 13,9.33L13.621,9.33C12.654,8.535 12.023,7.345 12.023,6C12.023,5.955 12.036,5.914 12.037,5.869C11.414,5.538 10.716,5.337 9.977,5.33L9.973,5.33C9.571,5.33 9.167,5.38 8.771,5.486L8.77,5.486C7.202,5.908 5.983,7.139 5.58,8.711C5.491,9.055 5.779,9.379 6.131,9.332C7.059,9.209 7.951,9.469 8.658,9.99C7.839,10.663 7.15,11.459 6.58,12.33L5.104,12.33C3.403,12.33 2,13.666 2,15.33L2,17.33C2,18.994 3.403,20.33 5.104,20.33L6.004,20.33C6.828,22.037 8.21,23.491 10,24.541L10,28.83C10,29.106 10.224,29.33 10.5,29.33L13.5,29.33C13.776,29.33 14,29.106 14,28.83L14,26.018C14.843,26.183 15.694,26.327 16.561,26.33L16.563,26.33C17.739,26.33 18.883,26.093 20,25.795L20,28.83C20,29.106 20.224,29.33 20.5,29.33L23.5,29.33C23.776,29.33 24,29.106 24,28.83L24,24.012C26.5,22.226 27.997,19.615 28,16.83C28,14.388 26.89,12.183 25.088,10.512C25.087,10.508 25.087,10.504 25.086,10.5C25.086,10.5 24.978,10.256 25,9.787L25,9.777L25,9.768C25.008,9.464 25.139,9.144 25.365,8.893C25.461,8.787 25.637,8.759 25.766,8.676C25.822,9.014 25.89,9.351 26.041,9.65C26.21,9.986 26.438,10.316 26.752,10.59C27.068,10.866 27.465,11.077 27.914,11.154C28.364,11.232 28.853,11.172 29.271,10.91L29.273,10.91C29.479,10.783 29.658,10.615 29.789,10.404C29.922,10.191 29.999,9.942 30,9.682C30.001,9.206 29.765,8.835 29.535,8.555C29.161,8.098 28.665,7.73 28.09,7.508C27.748,7.376 27.37,7.422 27,7.404C27.123,7.185 27.198,6.942 27.406,6.779C27.756,6.507 28.225,6.337 28.697,6.316C28.964,6.305 29.177,6.083 29.177,5.816C29.177,5.542 28.951,5.316 28.677,5.316C28.669,5.316 28.662,5.316 28.654,5.316ZM27.219,8.34L27.219,8.344C27.395,8.357 27.567,8.389 27.73,8.451C28.138,8.608 28.497,8.876 28.762,9.199C28.919,9.391 29,9.575 29,9.689C29,9.749 28.98,9.819 28.939,9.885C28.898,9.951 28.832,10.019 28.748,10.07L28.744,10.07L28.742,10.07C28.578,10.173 28.323,10.215 28.084,10.174L28.082,10.174C27.841,10.133 27.602,10.011 27.41,9.844C27.216,9.674 27.058,9.455 26.934,9.209C26.793,8.929 26.707,8.636 26.688,8.35C26.863,8.338 27.043,8.331 27.219,8.34ZM10,13.324C10.549,13.324 11,13.776 11,14.324C11,14.873 10.549,15.324 10,15.324C9.451,15.324 9,14.873 9,14.324C9,13.776 9.451,13.324 10,13.324Z" style="fill:rgb(50,28,145);fill-rule:nonzero;"/>
        </g>
        <g transform="matrix(1.05,0,0,0.995949,-1.55801,1019.93)">
            <ellipse cx="17.058" cy="6.456" rx="3.118" ry="3.245" style="fill:rgb(50,28,145);"/>
        </g>
    </g>
</svg>
