<svg xmlns="http://www.w3.org/2000/svg" width="387" height="387.001" viewBox="0 0 387 387.001"><defs><style>.a{fill:#fff;}</style></defs><g transform="translate(-2 -1022.362)"><path class="a" d="M122.1,1022.362a26.768,26.768,0,0,0-26.69,26.691V1182.5a26.768,26.768,0,0,0,26.69,26.69H255.552a26.768,26.768,0,0,0,26.69-26.69V1049.053a26.768,26.768,0,0,0-26.69-26.69H122.1Zm73.183,40.008a6.672,6.672,0,0,1,6.886,6.672v93.414a6.672,6.672,0,1,1-13.345,0V1078.9l-17.535,6.979a6.672,6.672,0,1,1-4.965-12.386l26.69-10.675a6.633,6.633,0,0,1,2.269-.44ZM28.69,1222.536A26.768,26.768,0,0,0,2,1249.226v133.448a26.768,26.768,0,0,0,26.69,26.69H162.138a26.768,26.768,0,0,0,26.69-26.69V1249.226a26.768,26.768,0,0,0-26.69-26.69Zm200.172,0a26.768,26.768,0,0,0-26.69,26.69v133.448a26.768,26.768,0,0,0,26.69,26.69H362.31a26.768,26.768,0,0,0,26.69-26.69V1249.226a26.768,26.768,0,0,0-26.69-26.69Zm66.724,40.035c16.361,0,29.666,13.584,29.666,30.026A30.022,30.022,0,0,1,313.882,1316a29.913,29.913,0,0,1,9.128,11.865,30.32,30.32,0,0,1-6.406,32.655,29.479,29.479,0,0,1-32.415,6.51,30.066,30.066,0,0,1-18.269-27.729,6.672,6.672,0,1,1,13.345,0,16.687,16.687,0,0,0,10.115,15.427,15.9,15.9,0,0,0,17.7-3.6,16.951,16.951,0,0,0,3.576-18.231,16.277,16.277,0,0,0-15.066-10.273,6.672,6.672,0,1,1,0-13.345,16.8,16.8,0,1,0-16.321-16.682,6.672,6.672,0,1,1-13.345,0c0-16.441,13.3-30.026,29.666-30.026Zm-200.172,0a30.54,30.54,0,0,1,12.491,2.6,33.789,33.789,0,0,1,10.276,7.019,32.649,32.649,0,0,1,6.926,10.276,30.259,30.259,0,0,1,2.6,12.411,30.887,30.887,0,0,1-2.482,12.4,32.661,32.661,0,0,1-6.979,10.422l-32.455,37.631H120.7a6.579,6.579,0,0,1,4.938,2.07,6.939,6.939,0,0,1-4.938,11.877H70.059a6.911,6.911,0,0,1-6.939-6.951,6.68,6.68,0,0,1,1.935-4.939l43.237-49.361a17.972,17.972,0,0,0,5.471-13.158,17.229,17.229,0,0,0-1.468-7.074,18.955,18.955,0,0,0-16.881-11.279A17.6,17.6,0,0,0,88.274,1278a18.564,18.564,0,0,0-5.872,3.87,18.885,18.885,0,0,0-3.937,5.807,18.389,18.389,0,0,0-1.4,7.205,6.973,6.973,0,1,1-13.945,0,31.171,31.171,0,0,1,2.536-12.543,33.579,33.579,0,0,1,7.006-10.277,32.747,32.747,0,0,1,10.276-6.94,31.286,31.286,0,0,1,12.477-2.535Z" transform="translate(0 0)"/></g></svg>