<?xml version="1.0" encoding="UTF-8" standalone="no"?>
<!DOCTYPE svg PUBLIC "-//W3C//DTD SVG 1.1//EN" "http://www.w3.org/Graphics/SVG/1.1/DTD/svg11.dtd">
<svg width="100%" height="100%" viewBox="0 0 28 28" version="1.1" xmlns="http://www.w3.org/2000/svg" xmlns:xlink="http://www.w3.org/1999/xlink" xml:space="preserve" xmlns:serif="http://www.serif.com/" style="fill-rule:evenodd;clip-rule:evenodd;stroke-linejoin:round;stroke-miterlimit:2;">
    <g id="circle3926" transform="matrix(0.476313,0,0,0.476313,2.57244,2.61527)">
        <path d="M24,0L24,0C10.834,0 0,10.834 0,24L0,24C0,37.166 10.834,48 24,48L24,48C37.166,48 48,37.166 48,24L48,24C48,10.834 37.166,0 24,0L24,0ZM24.162,8.988C24.438,8.988 24.662,9.212 24.662,9.488L24.662,10.08C25.243,10.287 25.662,10.837 25.662,11.488L25.662,12.242C27.683,12.884 29.162,14.757 29.162,16.988C29.162,17.478 29.069,17.942 28.938,18.389L30.596,22.391C30.647,22.514 30.647,22.65 30.596,22.773C30.545,22.896 30.447,22.994 30.324,23.045L29.861,23.234L30.625,25.074C32.135,24.101 33.436,22.798 34.396,21.227C34.541,20.992 34.85,20.917 35.086,21.061C35.322,21.206 35.396,21.513 35.252,21.748C34.18,23.501 32.717,24.957 31.018,26.02L35.031,35.707C35.136,35.962 35.015,36.256 34.76,36.361L33.375,36.936L33.947,38.32C34.052,38.575 33.933,38.87 33.678,38.975C33.616,39.001 33.55,39.012 33.486,39.012C33.29,39.012 33.103,38.895 33.023,38.703L32.258,36.855L28.303,27.307C27.452,27.596 26.567,27.782 25.664,27.887L25.664,28.488C25.664,29.315 24.991,29.988 24.164,29.988C23.337,29.988 22.664,29.315 22.664,28.488L22.664,27.887C21.761,27.782 20.873,27.596 20.023,27.307L16.068,36.855L15.303,38.703C15.223,38.896 15.036,39.012 14.84,39.012C14.776,39.012 14.71,39 14.648,38.973C14.393,38.868 14.273,38.575 14.379,38.32L14.953,36.934L13.566,36.359C13.311,36.254 13.192,35.962 13.297,35.707L17.309,26.02C15.608,24.958 14.146,23.501 13.074,21.748C12.93,21.512 13.004,21.206 13.24,21.061C13.476,20.917 13.784,20.992 13.928,21.227C14.887,22.798 16.19,24.102 17.701,25.074L18.463,23.234L18.002,23.045C17.879,22.994 17.781,22.895 17.73,22.773C17.679,22.651 17.679,22.514 17.73,22.391L19.387,18.389C19.255,17.942 19.162,17.478 19.162,16.988C19.162,14.757 20.641,12.884 22.662,12.242L22.662,11.488C22.662,10.837 23.081,10.287 23.662,10.08L23.662,9.488C23.662,9.212 23.886,8.988 24.162,8.988ZM24.162,10.988C23.886,10.988 23.662,11.213 23.662,11.488L23.662,12.039C23.829,12.022 23.991,11.988 24.162,11.988C24.333,11.988 24.495,12.022 24.662,12.039L24.662,11.488C24.662,11.213 24.438,10.988 24.162,10.988ZM24.162,12.988C21.956,12.988 20.162,14.782 20.162,16.988C20.162,17.433 20.252,17.855 20.385,18.254C20.386,18.255 20.388,18.256 20.389,18.258C20.545,18.723 20.784,19.145 21.084,19.512C21.102,19.534 21.12,19.556 21.139,19.578C21.436,19.925 21.79,20.218 22.188,20.445C22.225,20.467 22.266,20.489 22.305,20.51C22.575,20.652 22.861,20.768 23.164,20.846C23.167,20.846 23.167,20.847 23.17,20.848C23.489,20.93 23.816,20.986 24.16,20.986C24.504,20.986 24.833,20.93 25.152,20.848C25.155,20.848 25.155,20.847 25.158,20.846C25.461,20.768 25.748,20.652 26.018,20.51C26.057,20.489 26.097,20.467 26.135,20.445C26.534,20.218 26.887,19.925 27.184,19.578C27.203,19.556 27.22,19.534 27.238,19.512C27.537,19.145 27.777,18.723 27.934,18.258C27.935,18.256 27.937,18.256 27.938,18.254C28.072,17.854 28.162,17.433 28.162,16.988C28.162,14.782 26.368,12.988 24.162,12.988ZM24.162,15.488C24.989,15.488 25.662,16.161 25.662,16.988C25.662,17.815 24.989,18.488 24.162,18.488C23.335,18.488 22.662,17.815 22.662,16.988C22.662,16.161 23.335,15.488 24.162,15.488ZM24.162,16.488C23.886,16.488 23.662,16.713 23.662,16.988C23.662,17.263 23.886,17.488 24.162,17.488C24.438,17.488 24.662,17.263 24.662,16.988C24.662,16.713 24.438,16.488 24.162,16.488ZM19.945,19.65L18.844,22.313L20.23,22.887L21.154,23.268L21.615,23.459L22.369,21.643C22.161,21.562 21.967,21.46 21.773,21.354C21.714,21.321 21.654,21.291 21.596,21.256C21.421,21.15 21.256,21.033 21.096,20.908C21.031,20.857 20.967,20.804 20.904,20.75C20.749,20.616 20.602,20.476 20.465,20.324C20.425,20.279 20.389,20.232 20.35,20.186C20.206,20.014 20.065,19.84 19.945,19.65ZM28.377,19.65C28.256,19.84 28.117,20.015 27.973,20.186C27.934,20.232 27.897,20.279 27.857,20.324C27.719,20.476 27.573,20.616 27.418,20.75C27.356,20.804 27.292,20.857 27.227,20.908C27.067,21.034 26.904,21.15 26.729,21.256C26.671,21.291 26.611,21.321 26.551,21.354C26.357,21.461 26.163,21.563 25.955,21.643L26.707,23.459L27.168,23.268L27.17,23.268L28.094,22.887L29.479,22.313L28.377,19.65ZM23.342,21.904L22.348,24.303C22.268,24.496 22.083,24.611 21.887,24.611C21.823,24.611 21.758,24.6 21.695,24.574L21.232,24.383L20.406,26.379C21.134,26.622 21.892,26.78 22.662,26.877L22.662,26.488C22.662,25.661 23.335,24.988 24.162,24.988C24.989,24.988 25.662,25.661 25.662,26.488L25.662,26.877C26.432,26.78 27.19,26.622 27.918,26.379L27.092,24.383L26.629,24.574C26.567,24.6 26.502,24.611 26.438,24.611C26.241,24.611 26.057,24.495 25.977,24.303L24.982,21.904C24.713,21.949 24.443,21.988 24.162,21.988C23.881,21.988 23.61,21.949 23.342,21.904ZM19.387,23.617L18.574,25.574C18.869,25.731 19.17,25.878 19.477,26.01L20.309,24L19.848,23.809L19.387,23.617ZM28.938,23.617L28.477,23.809L28.016,24L28.848,26.01C29.155,25.878 29.455,25.731 29.75,25.574L28.938,23.617ZM24.162,25.988C23.886,25.988 23.662,26.213 23.662,26.488L23.662,28.488C23.662,28.763 23.886,28.988 24.162,28.988C24.438,28.988 24.662,28.763 24.662,28.488L24.662,26.488C24.662,26.213 24.438,25.988 24.162,25.988ZM18.191,26.502L14.41,35.629L15.336,36.012L19.096,26.932C18.788,26.8 18.487,26.657 18.191,26.502ZM30.133,26.502C29.836,26.657 29.536,26.8 29.229,26.932L32.988,36.012L33.914,35.629L30.133,26.502Z" style="fill:white;"/>
    </g>
</svg>
