<svg id="SvgjsSvg1001" width="288" height="288" xmlns="http://www.w3.org/2000/svg" version="1.1" xmlns:xlink="http://www.w3.org/1999/xlink" xmlns:svgjs="http://svgjs.com/svgjs"><defs id="SvgjsDefs1002"></defs><g id="SvgjsG1008" transform="matrix(0.9167,0,0,0.9167,11.995200000000011,11.995200000000011)"><!--?xml version="1.0"?--><svg xmlns="http://www.w3.org/2000/svg" height="288" id="cloud" viewBox="0 0 32 32" width="288"><path d="M7 14 A7 7 0 0 0 0 21 A7 7 0 0 0 7 28 H27 A5 5 0 0 0 32 23 A5 5 0 0 0 27 18 A10 10 0 0 0 28 14 A10 10 0 0 0 18 4 A10 10 0 0 0 8 14 A7 7 0 0 0 7 14" fill="#246bcb" class="color000 svgShape"></path>
	<metadata>
		<rdf:rdf xmlns:rdf="http://www.w3.org/1999/02/22-rdf-syntax-ns#" xmlns:rdfs="http://www.w3.org/2000/01/rdf-schema#" xmlns:dc="http://purl.org/dc/elements/1.1/">
			<rdf:description about="https://iconscout.com/legal#licenses" dc:title="293669,cloud" dc:description="293669,cloud" dc:publisher="Iconscout" dc:date="2017-02-24" dc:format="image/svg+xml" dc:language="en">
				<dc:creator>
					<rdf:bag>
						<rdf:li>Geom Icons</rdf:li>
					</rdf:bag>
				</dc:creator>
			</rdf:description>
		</rdf:rdf>
    </metadata></svg>
</g></svg>