<?xml version="1.0" encoding="UTF-8" standalone="no"?>
<!DOCTYPE svg PUBLIC "-//W3C//DTD SVG 1.1//EN" "http://www.w3.org/Graphics/SVG/1.1/DTD/svg11.dtd">
<svg width="100%" height="100%" viewBox="0 0 806 575" version="1.1" xmlns="http://www.w3.org/2000/svg" xmlns:xlink="http://www.w3.org/1999/xlink" xml:space="preserve" xmlns:serif="http://www.serif.com/" style="fill-rule:evenodd;clip-rule:evenodd;stroke-miterlimit:10;">
    <g transform="matrix(1,0,0,1,-145,0)">
        <g opacity="0.1">
            <g transform="matrix(0.692897,0,0,0.692897,174.508,73.2155)">
                <ellipse cx="479.42" cy="362.12" rx="11.38" ry="14.9" style="fill:rgb(63,61,86);"/>
            </g>
            <g transform="matrix(0.692897,0,0,0.692897,138.477,-39.4704)">
                <path d="M540.43,461C542.017,458.229 542.839,455.084 542.81,451.89C542.81,443.66 537.71,436.99 531.42,436.99C525.13,436.99 520,443.68 520,451.91C519.971,455.104 520.793,458.249 522.38,461.02C519.211,466.669 519.211,473.581 522.38,479.23C519.211,484.879 519.211,491.791 522.38,497.44C520.79,500.21 519.968,503.356 520,506.55C520,514.77 525.1,521.45 531.38,521.45C537.66,521.45 542.77,514.77 542.77,506.55C542.802,503.356 541.98,500.21 540.39,497.44C543.559,491.791 543.559,484.879 540.39,479.23C543.559,473.581 543.559,466.669 540.39,461.02L540.43,461Z" style="fill:rgb(63,61,86);fill-rule:nonzero;"/>
            </g>
            <g transform="matrix(0.692897,0,0,0.692897,174.508,73.2155)">
                <ellipse cx="479.42" cy="271.07" rx="11.38" ry="14.9" style="fill:rgb(63,61,86);"/>
            </g>
            <g transform="matrix(0.692897,0,0,0.692897,174.508,73.2155)">
                <ellipse cx="479.42" cy="252.86" rx="11.38" ry="14.9" style="fill:rgb(63,61,86);"/>
            </g>
            <g transform="matrix(0.692897,0,0,0.692897,138.477,-39.4704)">
                <path d="M488.82,290.86C487.26,288.883 485.844,286.798 484.58,284.62L514.48,279.71L482.14,279.95C475.885,266.306 475.523,250.669 481.14,236.75L524.53,259.26L484.53,229.84C494.212,212.819 512.347,202.272 531.928,202.272C561.842,202.272 586.458,226.887 586.458,256.802C586.458,269.17 582.25,281.177 574.53,290.84C576.955,293.92 579.04,297.253 580.75,300.78L541.92,321L583.31,307.11C589.214,324.548 585.902,343.84 574.52,358.31C582.078,367.918 586.19,379.794 586.19,392.019C586.19,421.928 561.579,446.539 531.67,446.539C501.761,446.539 477.15,421.928 477.15,392.019C477.15,379.794 481.262,367.918 488.82,358.31C473.312,338.597 473.312,310.603 488.82,290.89L488.82,290.86Z" style="fill:rgb(108,99,255);fill-rule:nonzero;"/>
            </g>
            <g transform="matrix(0.692897,0,0,0.692897,138.477,-39.4704)">
                <path d="M586.19,324.57C586.21,336.798 582.096,348.681 574.52,358.28C582.078,367.888 586.19,379.764 586.19,391.989C586.19,421.898 561.579,446.509 531.67,446.509C501.761,446.509 477.15,421.898 477.15,391.989C477.15,379.764 481.262,367.888 488.82,358.28C481.51,349 586.19,318.45 586.19,324.57Z" style="fill-opacity:0.1;fill-rule:nonzero;"/>
            </g>
        </g>
    </g>
    <g transform="matrix(1,0,0,1,-145,0)">
        <g opacity="0.1">
            <g transform="matrix(0.692897,0,0,0.692897,174.508,73.2155)">
                <ellipse cx="612.28" cy="330.26" rx="8.51" ry="11.13" style="fill:rgb(63,61,86);"/>
            </g>
            <g transform="matrix(0.692897,0,0,0.692897,138.477,-39.4704)">
                <path d="M671,445.26C672.183,443.191 672.794,440.843 672.77,438.46C672.77,432.31 668.96,427.32 664.27,427.32C659.58,427.32 655.76,432.32 655.76,438.46C655.734,440.845 656.349,443.194 657.54,445.26C655.17,449.482 655.17,454.648 657.54,458.87C655.17,463.092 655.17,468.258 657.54,472.48C656.349,474.546 655.734,476.895 655.76,479.28C655.76,485.43 659.57,490.42 664.27,490.42C668.97,490.42 672.77,485.42 672.77,479.28C672.794,476.897 672.183,474.549 671,472.48C673.351,468.253 673.351,463.097 671,458.87C673.351,454.643 673.351,449.487 671,445.26Z" style="fill:rgb(63,61,86);fill-rule:nonzero;"/>
            </g>
            <g transform="matrix(0.692897,0,0,0.692897,174.508,73.2155)">
                <ellipse cx="612.28" cy="262.22" rx="8.51" ry="11.13" style="fill:rgb(63,61,86);"/>
            </g>
            <g transform="matrix(0.692897,0,0,0.692897,174.508,73.2155)">
                <ellipse cx="612.28" cy="248.61" rx="8.51" ry="11.13" style="fill:rgb(63,61,86);"/>
            </g>
            <g transform="matrix(0.692897,0,0,0.692897,138.477,-39.4704)">
                <path d="M632.44,318.11C631.272,316.635 630.213,315.078 629.27,313.45L651.62,309.78L627.45,309.96C622.766,299.766 622.484,288.079 626.67,277.67L659.1,294.5L629.19,272.5C636.457,259.895 649.944,252.103 664.493,252.103C686.848,252.103 705.243,270.498 705.243,292.853C705.243,302.013 702.155,310.91 696.48,318.1C698.29,320.404 699.849,322.895 701.13,325.53L672.13,340.6L703.06,330.22C707.469,343.251 704.994,357.666 696.49,368.48C702.15,375.664 705.23,384.548 705.23,393.694C705.23,416.043 686.839,434.434 664.49,434.434C642.141,434.434 623.75,416.043 623.75,393.694C623.75,384.548 626.83,375.664 632.49,368.48C620.901,353.749 620.901,332.831 632.49,318.1L632.44,318.11Z" style="fill:rgb(108,99,255);fill-rule:nonzero;"/>
            </g>
            <g transform="matrix(0.692897,0,0,0.692897,138.477,-39.4704)">
                <path d="M705.2,343.3C705.214,352.437 702.14,361.317 696.48,368.49C702.14,375.674 705.22,384.558 705.22,393.704C705.22,416.053 686.829,434.444 664.48,434.444C642.131,434.444 623.74,416.053 623.74,393.704C623.74,384.558 626.82,375.674 632.48,368.49C627,361.56 705.2,338.73 705.2,343.3Z" style="fill-opacity:0.1;fill-rule:nonzero;"/>
            </g>
        </g>
    </g>
    <g transform="matrix(1,0,0,1,-145,0)">
        <g opacity="0.1">
            <g transform="matrix(0.692897,0,0,0.692897,174.508,73.2155)">
                <ellipse cx="1038.58" cy="322.12" rx="11.38" ry="14.9" style="fill:rgb(63,61,86);"/>
            </g>
            <g transform="matrix(0.692897,0,0,0.692897,138.477,-39.4704)">
                <path d="M1081.57,421C1079.98,418.229 1079.16,415.084 1079.19,411.89C1079.19,403.66 1084.29,396.99 1090.58,396.99C1096.87,396.99 1101.96,403.66 1101.96,411.89C1101.99,415.084 1101.17,418.229 1099.58,421C1102.75,426.649 1102.75,433.561 1099.58,439.21C1102.75,444.859 1102.75,451.771 1099.58,457.42C1101.17,460.19 1101.99,463.336 1101.96,466.53C1101.96,474.75 1096.86,481.43 1090.58,481.43C1084.3,481.43 1079.19,474.75 1079.19,466.53C1079.16,463.336 1079.98,460.19 1081.57,457.42C1078.4,451.771 1078.4,444.859 1081.57,439.21C1078.4,433.561 1078.4,426.649 1081.57,421Z" style="fill:rgb(63,61,86);fill-rule:nonzero;"/>
            </g>
            <g transform="matrix(0.692897,0,0,0.692897,174.508,73.2155)">
                <ellipse cx="1038.58" cy="231.07" rx="11.38" ry="14.9" style="fill:rgb(63,61,86);"/>
            </g>
            <g transform="matrix(0.692897,0,0,0.692897,174.508,73.2155)">
                <ellipse cx="1038.58" cy="212.86" rx="11.38" ry="14.9" style="fill:rgb(63,61,86);"/>
            </g>
            <g transform="matrix(0.692897,0,0,0.692897,138.477,-39.4704)">
                <path d="M1133.18,250.86C1134.74,248.883 1136.16,246.798 1137.42,244.62L1107.52,239.71L1139.86,239.95C1146.12,226.306 1146.48,210.669 1140.86,196.75L1097.47,219.26L1137.47,189.84C1127.79,172.819 1109.65,162.272 1090.07,162.272C1060.16,162.272 1035.54,186.887 1035.54,216.802C1035.54,229.17 1039.75,241.177 1047.47,250.84C1045.05,253.92 1042.96,257.253 1041.25,260.78L1080.08,281L1038.69,267.11C1032.79,284.548 1036.1,303.84 1047.48,318.31C1039.92,327.918 1035.81,339.794 1035.81,352.019C1035.81,381.928 1060.42,406.539 1090.33,406.539C1120.24,406.539 1144.85,381.928 1144.85,352.019C1144.85,339.794 1140.74,327.918 1133.18,318.31C1148.69,298.597 1148.69,270.603 1133.18,250.89L1133.18,250.86Z" style="fill:rgb(108,99,255);fill-rule:nonzero;"/>
            </g>
            <g transform="matrix(0.692897,0,0,0.692897,138.477,-39.4704)">
                <path d="M1035.81,284.57C1035.79,296.798 1039.9,308.681 1047.48,318.28C1039.92,327.888 1035.81,339.764 1035.81,351.989C1035.81,381.898 1060.42,406.509 1090.33,406.509C1120.24,406.509 1144.85,381.898 1144.85,351.989C1144.85,339.764 1140.74,327.888 1133.18,318.28C1140.49,309 1035.81,278.45 1035.81,284.57Z" style="fill-opacity:0.1;fill-rule:nonzero;"/>
            </g>
        </g>
    </g>
    <g transform="matrix(1,0,0,1,-145,0)">
        <g opacity="0.1">
            <g transform="matrix(0.692897,0,0,0.692897,174.508,73.2155)">
                <ellipse cx="928.72" cy="324.26" rx="8.51" ry="11.13" style="fill:rgb(63,61,86);"/>
            </g>
            <g transform="matrix(0.692897,0,0,0.692897,138.477,-39.4704)">
                <path d="M974,439.26C972.817,437.191 972.206,434.843 972.23,432.46C972.23,426.31 976.04,421.32 980.73,421.32C985.42,421.32 989.24,426.32 989.24,432.46C989.266,434.845 988.651,437.194 987.46,439.26C989.83,443.482 989.83,448.648 987.46,452.87C989.83,457.092 989.83,462.258 987.46,466.48C988.651,468.546 989.266,470.895 989.24,473.28C989.24,479.43 985.43,484.42 980.73,484.42C976.03,484.42 972.23,479.42 972.23,473.28C972.206,470.897 972.817,468.549 974,466.48C971.649,462.253 971.649,457.097 974,452.87C971.649,448.643 971.649,443.487 974,439.26Z" style="fill:rgb(63,61,86);fill-rule:nonzero;"/>
            </g>
            <g transform="matrix(0.692897,0,0,0.692897,174.508,73.2155)">
                <ellipse cx="928.72" cy="256.22" rx="8.51" ry="11.13" style="fill:rgb(63,61,86);"/>
            </g>
            <g transform="matrix(0.692897,0,0,0.692897,174.508,73.2155)">
                <ellipse cx="928.72" cy="242.61" rx="8.51" ry="11.13" style="fill:rgb(63,61,86);"/>
            </g>
            <g transform="matrix(0.692897,0,0,0.692897,138.477,-39.4704)">
                <path d="M1012.56,312.11C1013.73,310.635 1014.79,309.078 1015.73,307.45L993.38,303.78L1017.55,303.96C1022.23,293.766 1022.52,282.079 1018.33,271.67L985.9,288.5L1015.81,266.5C1008.54,253.895 995.056,246.103 980.507,246.103C958.152,246.103 939.757,264.498 939.757,286.853C939.757,296.013 942.845,304.91 948.52,312.1C946.71,314.404 945.151,316.895 943.87,319.53L972.87,334.6L942,324.23C937.591,337.261 940.066,351.676 948.57,362.49C942.91,369.674 939.83,378.558 939.83,387.704C939.83,410.053 958.221,428.444 980.57,428.444C1002.92,428.444 1021.31,410.053 1021.31,387.704C1021.31,378.558 1018.23,369.674 1012.57,362.49C1024.16,347.759 1024.16,326.841 1012.57,312.11L1012.56,312.11Z" style="fill:rgb(108,99,255);fill-rule:nonzero;"/>
            </g>
            <g transform="matrix(0.692897,0,0,0.692897,138.477,-39.4704)">
                <path d="M939.8,337.3C939.786,346.437 942.86,355.317 948.52,362.49C942.86,369.674 939.78,378.558 939.78,387.704C939.78,410.053 958.171,428.444 980.52,428.444C1002.87,428.444 1021.26,410.053 1021.26,387.704C1021.26,378.558 1018.18,369.674 1012.52,362.49C1018,355.56 939.8,332.73 939.8,337.3Z" style="fill-opacity:0.1;fill-rule:nonzero;"/>
            </g>
        </g>
    </g>
    <g transform="matrix(1,0,0,1,-145,0)">
        <g opacity="0.1">
            <g transform="matrix(0.692897,0,0,0.692897,174.508,73.2155)">
                <ellipse cx="61.59" cy="322.12" rx="11.38" ry="14.9" style="fill:rgb(63,61,86);"/>
            </g>
            <g transform="matrix(0.692897,0,0,0.692897,138.477,-39.4704)">
                <path d="M122.59,421C124.177,418.229 124.999,415.084 124.97,411.89C124.97,403.66 119.87,396.99 113.59,396.99C107.31,396.99 102.21,403.66 102.21,411.89C102.178,415.083 102.996,418.228 104.58,421C101.423,426.652 101.423,433.558 104.58,439.21C101.423,444.862 101.423,451.768 104.58,457.42C102.993,460.191 102.175,463.337 102.21,466.53C102.21,474.75 107.3,481.43 113.59,481.43C119.88,481.43 125,474.77 125,466.55C125.032,463.356 124.21,460.21 122.62,457.44C125.789,451.791 125.789,444.879 122.62,439.23C125.789,433.581 125.789,426.669 122.62,421.02L122.59,421Z" style="fill:rgb(63,61,86);fill-rule:nonzero;"/>
            </g>
            <g transform="matrix(0.692897,0,0,0.692897,174.508,73.2155)">
                <ellipse cx="61.59" cy="231.07" rx="11.38" ry="14.9" style="fill:rgb(63,61,86);"/>
            </g>
            <g transform="matrix(0.692897,0,0,0.692897,174.508,73.2155)">
                <ellipse cx="61.59" cy="212.86" rx="11.38" ry="14.9" style="fill:rgb(63,61,86);"/>
            </g>
            <g transform="matrix(0.692897,0,0,0.692897,138.477,-39.4704)">
                <path d="M71,250.86C69.444,248.881 68.027,246.796 66.76,244.62L96.67,239.71L64.3,240C58.045,226.356 57.683,210.719 63.3,196.8L106.7,219.31L66.7,189.89C76.398,172.935 94.493,162.439 114.026,162.439C143.934,162.439 168.546,187.05 168.546,216.959C168.546,229.281 164.368,241.246 156.7,250.89C159.125,253.97 161.21,257.303 162.92,260.83L124.08,281L165.48,267.11C171.37,284.551 168.055,303.837 156.68,318.31C164.238,327.918 168.35,339.794 168.35,352.019C168.35,381.928 143.739,406.539 113.83,406.539C83.921,406.539 59.31,381.928 59.31,352.019C59.31,339.794 63.422,327.918 70.98,318.31C55.472,298.597 55.472,270.603 70.98,250.89L71,250.86Z" style="fill:rgb(108,99,255);fill-rule:nonzero;"/>
            </g>
            <g transform="matrix(0.692897,0,0,0.692897,138.477,-39.4704)">
                <path d="M168.35,284.57C168.37,296.798 164.256,308.681 156.68,318.28C164.238,327.888 168.35,339.764 168.35,351.989C168.35,381.898 143.739,406.509 113.83,406.509C83.921,406.509 59.31,381.898 59.31,351.989C59.31,339.764 63.422,327.888 70.98,318.28C63.67,309 168.35,278.45 168.35,284.57Z" style="fill-opacity:0.1;fill-rule:nonzero;"/>
            </g>
        </g>
    </g>
    <g transform="matrix(1,0,0,1,-145,0)">
        <g opacity="0.1">
            <g transform="matrix(0.692897,0,0,0.692897,174.508,73.2155)">
                <ellipse cx="171.44" cy="324.26" rx="8.51" ry="11.13" style="fill:rgb(63,61,86);"/>
            </g>
            <g transform="matrix(0.692897,0,0,0.692897,138.477,-39.4704)">
                <path d="M230.17,439.26C231.353,437.191 231.964,434.843 231.94,432.46C231.94,426.31 228.14,421.32 223.44,421.32C218.74,421.32 214.93,426.32 214.93,432.46C214.909,434.844 215.524,437.192 216.71,439.26C214.34,443.482 214.34,448.648 216.71,452.87C214.34,457.092 214.34,462.258 216.71,466.48C215.524,468.548 214.909,470.896 214.93,473.28C214.93,479.43 218.74,484.42 223.44,484.42C228.14,484.42 231.94,479.42 231.94,473.28C231.964,470.897 231.353,468.549 230.17,466.48C232.521,462.253 232.521,457.097 230.17,452.87C232.521,448.643 232.521,443.487 230.17,439.26Z" style="fill:rgb(63,61,86);fill-rule:nonzero;"/>
            </g>
            <g transform="matrix(0.692897,0,0,0.692897,174.508,73.2155)">
                <ellipse cx="171.44" cy="256.22" rx="8.51" ry="11.13" style="fill:rgb(63,61,86);"/>
            </g>
            <g transform="matrix(0.692897,0,0,0.692897,174.508,73.2155)">
                <ellipse cx="171.44" cy="242.61" rx="8.51" ry="11.13" style="fill:rgb(63,61,86);"/>
            </g>
            <g transform="matrix(0.692897,0,0,0.692897,138.477,-39.4704)">
                <path d="M191.6,312.11C190.436,310.633 189.376,309.076 188.43,307.45L210.78,303.78L186.61,303.96C181.926,293.766 181.644,282.079 185.83,271.67L218.26,288.5L188.35,266.5C195.617,253.895 209.104,246.103 223.653,246.103C246.008,246.103 264.403,264.498 264.403,286.853C264.403,296.013 261.315,304.91 255.64,312.1C257.457,314.399 259.016,316.891 260.29,319.53L231.29,334.6L262.22,324.22C266.629,337.251 264.154,351.666 255.65,362.48C261.31,369.664 264.39,378.548 264.39,387.694C264.39,410.043 245.999,428.434 223.65,428.434C201.301,428.434 182.91,410.043 182.91,387.694C182.91,378.548 185.99,369.664 191.65,362.48C180.061,347.749 180.061,326.831 191.65,312.1L191.6,312.11Z" style="fill:rgb(108,99,255);fill-rule:nonzero;"/>
            </g>
            <g transform="matrix(0.692897,0,0,0.692897,138.477,-39.4704)">
                <path d="M264.36,337.3C264.374,346.437 261.3,355.317 255.64,362.49C261.3,369.674 264.38,378.558 264.38,387.704C264.38,410.053 245.989,428.444 223.64,428.444C201.291,428.444 182.9,410.053 182.9,387.704C182.9,378.558 185.98,369.674 191.64,362.49C186.14,355.56 264.36,332.73 264.36,337.3Z" style="fill-opacity:0.1;fill-rule:nonzero;"/>
            </g>
        </g>
    </g>
    <g transform="matrix(0.692897,0,0,0.692897,29.5076,73.2155)">
        <ellipse cx="548" cy="493.13" rx="548" ry="8.86" style="fill:rgb(108,99,255);fill-opacity:0.1;"/>
    </g>
    <g transform="matrix(0.692897,0,0,0.692897,29.5076,73.2155)">
        <ellipse cx="548" cy="565.88" rx="548" ry="8.86" style="fill:rgb(108,99,255);fill-opacity:0.1;"/>
    </g>
    <g transform="matrix(0.692897,0,0,0.692897,29.5076,73.2155)">
        <ellipse cx="548" cy="341.3" rx="548" ry="8.86" style="fill:rgb(108,99,255);fill-opacity:0.1;"/>
    </g>
    <g transform="matrix(0.692897,0,0,0.692897,29.5076,73.2155)">
        <ellipse cx="548" cy="417.21" rx="548" ry="8.86" style="fill:rgb(108,99,255);fill-opacity:0.1;"/>
    </g>
    <g transform="matrix(0.692897,0,0,0.692897,-6.523,-39.4704)">
        <path d="M860.79,273C857.22,272.326 853.529,272.73 850.19,274.16C846.138,275.966 841.502,275.966 837.45,274.16C832.652,272.054 827.163,272.16 822.45,274.45C821.123,275.155 819.643,275.526 818.14,275.53C812.06,275.53 807.01,269.41 805.96,261.34C807.156,260.448 808.174,259.339 808.96,258.07C812.52,252.33 818.03,248.64 824.23,248.64C830.43,248.64 835.87,252.28 839.43,257.96C841.584,261.447 845.422,263.554 849.52,263.5L849.68,263.5C854.57,263.45 858.76,267.33 860.79,273Z" style="fill:rgb(108,99,255);fill-opacity:0.1;fill-rule:nonzero;"/>
    </g>
    <g transform="matrix(0.692897,0,0,0.692897,-6.523,-39.4704)">
        <path d="M879.3,247.65L869.48,253.87L875.48,243.03C873.79,241.685 871.699,240.942 869.54,240.92L869.38,240.92C868.71,240.929 868.041,240.879 867.38,240.77L864,242.88L865.43,240.28C863.068,239.462 861.025,237.914 859.6,235.86L853.6,239.64L857.36,232.8C853.88,228.62 849.18,226.06 844.02,226.06C837.82,226.06 832.31,229.74 828.74,235.48C826.6,238.969 822.741,241.05 818.65,240.92L818.32,240.92C811.48,240.92 805.94,248.67 805.94,258.23C805.94,267.79 811.48,275.55 818.32,275.55C819.822,275.54 821.3,275.17 822.63,274.47C827.341,272.174 832.831,272.064 837.63,274.17C841.68,275.989 846.32,275.989 850.37,274.17C855.129,272.112 860.555,272.218 865.23,274.46C866.545,275.148 868.006,275.512 869.49,275.52C876.33,275.52 881.87,267.76 881.87,258.2C881.911,254.524 881.027,250.895 879.3,247.65Z" style="fill:rgb(108,99,255);fill-opacity:0.1;fill-rule:nonzero;"/>
    </g>
    <g transform="matrix(0.692897,0,0,0.692897,-6.523,-39.4704)">
        <path d="M443.26,267.59C440.758,267.117 438.171,267.399 435.83,268.4C432.997,269.666 429.753,269.666 426.92,268.4C423.564,266.926 419.724,267.003 416.43,268.61C415.503,269.093 414.475,269.35 413.43,269.36C409.18,269.36 405.64,265.08 404.9,259.43C405.748,258.808 406.471,258.031 407.03,257.14C409.52,253.14 413.38,250.54 417.72,250.54C422.06,250.54 425.87,253.09 428.36,257.06C429.871,259.502 432.559,260.977 435.43,260.94L435.54,260.94C438.9,260.92 441.83,263.64 443.26,267.59Z" style="fill:rgb(108,99,255);fill-opacity:0.1;fill-rule:nonzero;"/>
    </g>
    <g transform="matrix(0.692897,0,0,0.692897,-6.523,-39.4704)">
        <path d="M456.21,249.86L449.34,254.22L453.51,246.63C452.331,245.687 450.87,245.165 449.36,245.15L449.24,245.15C448.764,245.159 448.289,245.122 447.82,245.04L445.49,246.52L446.49,244.7C444.839,244.126 443.41,243.044 442.41,241.61L438.24,244.25L440.88,239.47C438.636,236.573 435.203,234.834 431.54,234.74C427.2,234.74 423.34,237.32 420.85,241.34C419.35,243.784 416.646,245.241 413.78,245.15L413.55,245.15C408.76,245.15 404.88,250.57 404.88,257.27C404.88,263.97 408.76,269.39 413.55,269.39C414.597,269.382 415.626,269.121 416.55,268.63C419.843,267.032 423.678,266.959 427.03,268.43C428.44,269.073 429.97,269.414 431.52,269.43C433.046,269.427 434.555,269.107 435.95,268.49C439.28,267.049 443.078,267.122 446.35,268.69C447.276,269.175 448.305,269.429 449.35,269.43C454.13,269.43 458.01,264 458.01,257.31C458.05,254.714 457.431,252.151 456.21,249.86Z" style="fill:rgb(108,99,255);fill-opacity:0.1;fill-rule:nonzero;"/>
    </g>
    <g transform="matrix(0.692897,0,0,0.692897,-6.523,-39.4704)">
        <path d="M321.59,346C324.089,345.528 326.672,345.81 329.01,346.81C331.847,348.077 335.093,348.077 337.93,346.81C341.285,345.339 345.123,345.412 348.42,347.01C349.344,347.502 350.373,347.763 351.42,347.77C355.67,347.77 359.21,343.48 359.94,337.83C359.092,337.21 358.373,336.433 357.82,335.54C355.32,331.54 351.46,328.95 347.13,328.95C342.8,328.95 338.98,331.49 336.48,335.47C334.971,337.909 332.287,339.383 329.42,339.35L329.31,339.35C325.94,339.37 323,342.08 321.59,346Z" style="fill:rgb(108,99,255);fill-opacity:0.1;fill-rule:nonzero;"/>
    </g>
    <g transform="matrix(0.692897,0,0,0.692897,-6.523,-39.4704)">
        <path d="M308.63,328.3L315.51,332.66L311.33,325.08C312.512,324.134 313.976,323.609 315.49,323.59L315.6,323.59C316.079,323.597 316.557,323.563 317.03,323.49L319.36,324.96L318.36,323.15C320.008,322.574 321.433,321.493 322.43,320.06L326.6,322.7L324,317.91C326.245,315.015 329.678,313.28 333.34,313.19C337.67,313.19 341.54,315.77 344.03,319.79C345.529,322.23 348.228,323.687 351.09,323.6L351.33,323.6C356.11,323.6 359.99,329.03 359.99,335.72C359.99,342.41 356.11,347.84 351.33,347.84C350.284,347.835 349.255,347.578 348.33,347.09C345.036,345.483 341.196,345.406 337.84,346.88C336.435,347.529 334.907,347.87 333.36,347.88C331.831,347.879 330.319,347.559 328.92,346.94C325.593,345.499 321.799,345.572 318.53,347.14C317.604,347.625 316.575,347.879 315.53,347.88C310.74,347.88 306.86,342.46 306.86,335.76C306.813,333.164 307.422,330.598 308.63,328.3Z" style="fill:rgb(108,99,255);fill-opacity:0.1;fill-rule:nonzero;"/>
    </g>
    <g transform="matrix(0.692897,0,0,0.692897,-6.523,-39.4704)">
        <path d="M716.31,652.89C718.92,648.05 715.96,642.13 712.56,637.82C709.16,633.51 705,629.02 705.09,623.53C705.22,615.64 713.6,610.97 720.29,606.79C725.258,603.675 729.84,599.982 733.94,595.79C735.655,594.176 737.073,592.274 738.13,590.17C739.52,587.09 739.48,583.57 739.39,580.17C739.103,568.91 738.547,557.657 737.72,546.41" style="fill:none;fill-rule:nonzero;stroke:rgb(63,61,86);stroke-width:4px;"/>
    </g>
    <g transform="matrix(0.692897,0,0,0.692897,-6.523,-39.4704)">
        <path d="M750.45,545.85C750.254,541.663 747.932,537.853 744.3,535.76L741.54,541.21L741.63,534.61C740.501,534.278 739.33,534.109 738.153,534.109C731.4,534.109 725.843,539.666 725.843,546.419C725.843,553.172 731.4,558.729 738.153,558.729C744.906,558.729 750.463,553.172 750.463,546.419C750.463,546.229 750.459,546.039 750.45,545.85Z" style="fill:rgb(108,99,255);fill-rule:nonzero;"/>
    </g>
    <g transform="matrix(0.692897,0,0,0.692897,-6.523,-39.4704)">
        <path d="M728.49,629.17C726.383,633.265 722.149,635.848 717.544,635.848C711.029,635.848 705.584,630.676 705.25,624.17C705.158,622.465 705.431,620.761 706.05,619.17C707.893,614.455 712.462,611.334 717.525,611.334C722.638,611.334 727.243,614.517 729.05,619.3L721.36,625.56L729.82,623.56C729.83,625.509 729.374,627.433 728.49,629.17Z" style="fill:rgb(108,99,255);fill-rule:nonzero;"/>
    </g>
    <g transform="matrix(0.692897,0,0,0.692897,-6.523,-39.4704)">
        <path d="M722.41,605.27C722.217,605.279 722.024,605.284 721.831,605.284C715.078,605.284 709.521,599.727 709.521,592.974C709.521,587.471 713.211,582.605 718.51,581.12L718.44,586.19L721.23,580.67C721.422,580.661 721.613,580.657 721.805,580.657C728.56,580.657 734.118,586.215 734.118,592.97C734.118,599.508 728.911,604.965 722.38,605.27L722.41,605.27Z" style="fill:rgb(108,99,255);fill-rule:nonzero;"/>
    </g>
    <g transform="matrix(0.692897,0,0,0.692897,-6.523,-39.4704)">
        <path d="M752.3,585.38C752.088,585.391 751.877,585.396 751.665,585.396C744.912,585.396 739.355,579.839 739.355,573.086C739.355,566.333 744.912,560.776 751.665,560.776C753.794,560.776 755.888,561.329 757.74,562.38L755.57,568.38L760,564C762.542,566.33 763.991,569.625 763.991,573.074C763.991,579.608 758.788,585.063 752.26,585.37L752.3,585.38Z" style="fill:rgb(108,99,255);fill-rule:nonzero;"/>
    </g>
    <g transform="matrix(0.692897,0,0,0.692897,-6.523,-39.4704)">
        <path d="M748.79,549.13C745.95,549.44 743.19,550.32 740.33,550.5C737.47,550.68 734.33,549.99 732.55,547.78C731.713,546.492 730.952,545.157 730.27,543.78C729.493,542.567 728.428,541.563 727.17,540.86C726.285,542.593 725.824,544.511 725.824,546.457C725.824,553.21 731.381,558.767 738.134,558.767C743.916,558.767 748.957,554.693 750.17,549.04C749.72,549.05 749.25,549.08 748.79,549.13Z" style="fill-opacity:0.1;fill-rule:nonzero;"/>
    </g>
    <g transform="matrix(0.692897,0,0,0.692897,-6.523,-39.4704)">
        <path d="M752.3,585.38C752.106,585.389 751.912,585.394 751.718,585.394C744.965,585.394 739.408,579.837 739.408,573.084C739.408,571.263 739.812,569.466 740.59,567.82C741.566,568.479 742.405,569.321 743.06,570.3C743.795,571.702 744.61,573.061 745.5,574.37C747.42,576.62 750.7,577.37 753.67,577.22C756.64,577.07 759.51,576.22 762.47,575.97C762.88,575.97 763.29,575.91 763.71,575.9C762.455,581.238 757.778,585.125 752.3,585.38Z" style="fill-opacity:0.1;fill-rule:nonzero;"/>
    </g>
    <g transform="matrix(0.692897,0,0,0.692897,-6.523,-39.4704)">
        <path d="M722.41,605.27C722.218,605.279 722.026,605.283 721.834,605.283C715.081,605.283 709.524,599.727 709.524,592.973C709.524,591.239 709.891,589.523 710.6,587.94C711.615,588.608 712.499,589.455 713.21,590.44C714.016,591.875 714.908,593.261 715.88,594.59C717.95,596.9 721.45,597.72 724.59,597.59C727.73,597.46 730.59,596.78 733.59,596.59C732.064,601.536 727.579,605.017 722.41,605.27Z" style="fill-opacity:0.1;fill-rule:nonzero;"/>
    </g>
    <g transform="matrix(0.692897,0,0,0.692897,-6.523,-39.4704)">
        <path d="M728.49,629.17C726.383,633.265 722.149,635.848 717.544,635.848C711.029,635.848 705.584,630.676 705.25,624.17C705.158,622.465 705.431,620.761 706.05,619.17C707.064,619.836 707.974,620.648 708.75,621.58C709.92,623 710.69,624.58 712.05,625.95C714.56,628.42 718.63,629.44 722.24,629.53C724.329,629.536 726.416,629.416 728.49,629.17Z" style="fill-opacity:0.1;fill-rule:nonzero;"/>
    </g>
    <g transform="matrix(0.692897,0,0,0.692897,-6.523,-39.4704)">
        <path d="M106.31,580.89C108.92,576.05 105.96,570.13 102.56,565.82C99.16,561.51 95,557 95.09,551.53C95.22,543.64 103.6,538.97 110.29,534.79C115.258,531.675 119.84,527.982 123.94,523.79C125.655,522.176 127.073,520.274 128.13,518.17C129.52,515.09 129.48,511.57 129.39,508.17C129.097,496.91 128.54,485.657 127.72,474.41" style="fill:none;fill-rule:nonzero;stroke:rgb(63,61,86);stroke-width:4px;"/>
    </g>
    <g transform="matrix(0.692897,0,0,0.692897,-6.523,-39.4704)">
        <path d="M140.45,473.85C140.254,469.663 137.932,465.853 134.3,463.76L131.54,469.21L131.63,462.61C130.501,462.278 129.33,462.109 128.153,462.109C121.4,462.109 115.843,467.666 115.843,474.419C115.843,481.172 121.4,486.729 128.153,486.729C134.906,486.729 140.463,481.172 140.463,474.419C140.463,474.229 140.459,474.039 140.45,473.85Z" style="fill:rgb(108,99,255);fill-rule:nonzero;"/>
    </g>
    <g transform="matrix(0.692897,0,0,0.692897,-6.523,-39.4704)">
        <path d="M118.49,557.17C116.383,561.265 112.149,563.848 107.544,563.848C101.029,563.848 95.584,558.676 95.25,552.17C95.158,550.465 95.431,548.761 96.05,547.17C97.893,542.455 102.462,539.334 107.525,539.334C112.638,539.334 117.243,542.517 119.05,547.3L111.36,553.56L119.82,551.56C119.83,553.509 119.374,555.433 118.49,557.17Z" style="fill:rgb(108,99,255);fill-rule:nonzero;"/>
    </g>
    <g transform="matrix(0.692897,0,0,0.692897,-6.523,-39.4704)">
        <path d="M112.41,533.27C112.217,533.279 112.024,533.284 111.831,533.284C105.078,533.284 99.521,527.727 99.521,520.974C99.521,515.471 103.211,510.605 108.51,509.12L108.44,514.19L111.23,508.67C111.422,508.661 111.613,508.657 111.805,508.657C118.56,508.657 124.118,514.215 124.118,520.97C124.118,527.508 118.911,532.965 112.38,533.27L112.41,533.27Z" style="fill:rgb(108,99,255);fill-rule:nonzero;"/>
    </g>
    <g transform="matrix(0.692897,0,0,0.692897,-6.523,-39.4704)">
        <path d="M142.3,513.38C142.088,513.391 141.877,513.396 141.665,513.396C134.912,513.396 129.355,507.839 129.355,501.086C129.355,494.333 134.912,488.776 141.665,488.776C143.794,488.776 145.888,489.329 147.74,490.38L145.57,496.38L150,492C152.542,494.33 153.991,497.625 153.991,501.074C153.991,507.608 148.788,513.063 142.26,513.37L142.3,513.38Z" style="fill:rgb(108,99,255);fill-rule:nonzero;"/>
    </g>
    <g transform="matrix(0.692897,0,0,0.692897,-6.523,-39.4704)">
        <path d="M138.79,477.13C135.95,477.44 133.19,478.32 130.33,478.5C127.47,478.68 124.33,477.99 122.55,475.78C121.713,474.492 120.952,473.157 120.27,471.78C119.493,470.567 118.428,469.563 117.17,468.86C116.285,470.593 115.824,472.511 115.824,474.457C115.824,481.21 121.381,486.767 128.134,486.767C133.916,486.767 138.957,482.693 140.17,477.04C139.72,477.05 139.25,477.08 138.79,477.13Z" style="fill-opacity:0.1;fill-rule:nonzero;"/>
    </g>
    <g transform="matrix(0.692897,0,0,0.692897,-6.523,-39.4704)">
        <path d="M142.3,513.38C142.106,513.389 141.912,513.394 141.718,513.394C134.965,513.394 129.408,507.837 129.408,501.084C129.408,499.263 129.812,497.466 130.59,495.82C131.566,496.479 132.405,497.321 133.06,498.3C133.795,499.702 134.61,501.061 135.5,502.37C137.42,504.62 140.7,505.37 143.67,505.22C146.64,505.07 149.51,504.22 152.47,503.97C152.88,503.97 153.29,503.91 153.71,503.9C152.455,509.238 147.778,513.125 142.3,513.38Z" style="fill-opacity:0.1;fill-rule:nonzero;"/>
    </g>
    <g transform="matrix(0.692897,0,0,0.692897,-6.523,-39.4704)">
        <path d="M112.41,533.27C112.218,533.279 112.026,533.283 111.834,533.283C105.081,533.283 99.524,527.727 99.524,520.973C99.524,519.239 99.891,517.523 100.6,515.94C101.615,516.608 102.499,517.455 103.21,518.44C104.016,519.875 104.908,521.261 105.88,522.59C107.95,524.9 111.45,525.72 114.59,525.59C117.73,525.46 120.59,524.78 123.59,524.59C122.064,529.536 117.579,533.017 112.41,533.27Z" style="fill-opacity:0.1;fill-rule:nonzero;"/>
    </g>
    <g transform="matrix(0.692897,0,0,0.692897,-6.523,-39.4704)">
        <path d="M118.49,557.17C116.383,561.265 112.149,563.848 107.544,563.848C101.029,563.848 95.584,558.676 95.25,552.17C95.158,550.465 95.431,548.761 96.05,547.17C97.064,547.836 97.974,548.648 98.75,549.58C99.92,551 100.69,552.58 102.05,553.95C104.56,556.42 108.63,557.44 112.24,557.53C114.329,557.536 116.416,557.416 118.49,557.17Z" style="fill-opacity:0.1;fill-rule:nonzero;"/>
    </g>
    <g transform="matrix(0.692897,0,0,0.692897,-6.523,-39.4704)">
        <path d="M512.52,498.52C509.91,493.69 512.87,487.77 516.28,483.46C519.69,479.15 523.83,474.66 523.74,469.17C523.62,461.27 515.24,456.61 508.54,452.43C503.574,449.316 498.995,445.624 494.9,441.43C493.177,439.825 491.755,437.925 490.7,435.82C489.32,432.73 489.36,429.22 489.44,425.82C489.74,414.56 490.297,403.307 491.11,392.06" style="fill:none;fill-rule:nonzero;stroke:rgb(63,61,86);stroke-width:4px;"/>
    </g>
    <g transform="matrix(0.692897,0,0,0.692897,-6.523,-39.4704)">
        <path d="M478.39,391.49C478.582,387.304 480.9,383.494 484.53,381.4L487.29,386.85L487.21,380.25C488.524,379.868 489.892,379.703 491.26,379.76C497.79,380.064 502.997,385.52 502.997,392.057C502.997,398.81 497.44,404.367 490.687,404.367C483.934,404.367 478.377,398.81 478.377,392.057C478.377,391.868 478.381,391.679 478.39,391.49Z" style="fill:rgb(108,99,255);fill-rule:nonzero;"/>
    </g>
    <g transform="matrix(0.692897,0,0,0.692897,-6.523,-39.4704)">
        <path d="M500.34,474.81C502.445,478.909 506.682,481.496 511.29,481.496C518.043,481.496 523.6,475.939 523.6,469.186C523.6,462.432 518.043,456.876 511.29,456.876C506.156,456.876 501.537,460.087 499.75,464.9L507.44,471.16L498.98,469.16C498.973,471.125 499.44,473.063 500.34,474.81Z" style="fill:rgb(108,99,255);fill-rule:nonzero;"/>
    </g>
    <g transform="matrix(0.692897,0,0,0.692897,-6.523,-39.4704)">
        <path d="M506.42,450.91C506.617,450.919 506.814,450.924 507.011,450.924C513.764,450.924 519.321,445.367 519.321,438.614C519.321,433.11 515.63,428.244 510.33,426.76L510.39,431.83L507.6,426.31C500.855,425.978 495.032,431.255 494.7,438C494.63,439.42 494.809,440.842 495.23,442.2C496.739,447.166 501.236,450.666 506.42,450.91Z" style="fill:rgb(108,99,255);fill-rule:nonzero;"/>
    </g>
    <g transform="matrix(0.692897,0,0,0.692897,-6.523,-39.4704)">
        <path d="M476.54,431C476.749,431.011 476.957,431.016 477.166,431.016C483.919,431.016 489.476,425.459 489.476,418.706C489.476,411.953 483.919,406.396 477.166,406.396C475.036,406.396 472.942,406.949 471.09,408L473.27,414L468.79,409.71C466.377,411.896 464.936,414.958 464.79,418.21C464.73,419.349 464.835,420.491 465.1,421.6C466.385,426.919 471.073,430.771 476.54,431Z" style="fill:rgb(108,99,255);fill-rule:nonzero;"/>
    </g>
    <g transform="matrix(0.692897,0,0,0.692897,-6.523,-39.4704)">
        <path d="M480.05,394.77C482.89,395.08 485.65,395.96 488.5,396.14C491.35,396.32 494.5,395.63 496.29,393.42C497.124,392.132 497.882,390.796 498.56,389.42C499.341,388.206 500.409,387.203 501.67,386.5C502.557,388.235 503.02,390.156 503.02,392.104C503.02,398.857 497.463,404.414 490.71,404.414C484.921,404.414 479.877,400.331 478.67,394.67C479.12,394.68 479.58,394.72 480.05,394.77Z" style="fill-opacity:0.1;fill-rule:nonzero;"/>
    </g>
    <g transform="matrix(0.692897,0,0,0.692897,-6.523,-39.4704)">
        <path d="M476.54,431C476.729,431.009 476.917,431.013 477.106,431.013C483.865,431.013 489.426,425.452 489.426,418.693C489.426,416.877 489.024,415.083 488.25,413.44C487.271,414.099 486.429,414.941 485.77,415.92C485.035,417.322 484.22,418.681 483.33,419.99C481.42,422.24 478.14,422.99 475.17,422.84C472.2,422.69 469.33,421.84 466.37,421.59C465.96,421.59 465.54,421.53 465.13,421.52C466.382,426.86 471.061,430.748 476.54,431Z" style="fill-opacity:0.1;fill-rule:nonzero;"/>
    </g>
    <g transform="matrix(0.692897,0,0,0.692897,-6.523,-39.4704)">
        <path d="M506.42,450.91C506.617,450.919 506.815,450.924 507.012,450.924C513.759,450.924 519.312,445.372 519.312,438.624C519.312,436.885 518.943,435.166 518.23,433.58C517.217,434.246 516.335,435.093 515.63,436.08C514.824,437.515 513.932,438.901 512.96,440.23C510.88,442.54 507.39,443.36 504.24,443.23C501.09,443.1 498.24,442.42 495.24,442.23C496.758,447.181 501.247,450.666 506.42,450.91Z" style="fill-opacity:0.1;fill-rule:nonzero;"/>
    </g>
    <g transform="matrix(0.692897,0,0,0.692897,-6.523,-39.4704)">
        <path d="M500.34,474.81C502.454,478.884 506.677,481.452 511.267,481.452C518.02,481.452 523.577,475.895 523.577,469.142C523.577,467.662 523.311,466.195 522.79,464.81C521.772,465.47 520.861,466.283 520.09,467.22C518.92,468.64 518.09,470.22 516.79,471.59C514.27,474.06 510.21,475.08 506.59,475.17C504.501,475.171 502.415,475.051 500.34,474.81Z" style="fill-opacity:0.1;fill-rule:nonzero;"/>
    </g>
    <g transform="matrix(0.692897,0,0,0.692897,29.5076,73.2155)">
        <circle cx="779.73" cy="238.18" r="99.96" style="fill:rgb(63,61,86);"/>
    </g>
    <g transform="matrix(0.692897,0,0,0.692897,-6.523,-39.4704)">
        <path d="M874.64,426.59C871.16,423.11 862.79,417.86 858.64,415.9C853.85,413.6 852.09,413.64 848.7,416.09C845.88,418.09 844.05,420.02 840.81,419.31C837.57,418.6 831.15,413.76 824.94,407.57C818.73,401.38 813.91,395 813.22,391.71C812.53,388.42 814.43,386.63 816.45,383.81C818.89,380.42 818.96,378.66 816.64,373.87C814.64,369.72 809.45,361.37 805.94,357.87C802.43,354.37 801.67,355.14 799.75,355.87C797.774,356.698 795.876,357.702 794.08,358.87C790.6,361.2 788.65,363.14 787.28,366.06C785.91,368.98 784.36,374.4 792.33,388.59C798.209,399.445 805.656,409.375 814.43,418.06C823.144,426.854 833.108,434.314 844,440.2C858.18,448.2 863.61,446.61 866.53,445.25C869.45,443.89 871.39,441.96 873.71,438.45C874.88,436.655 875.884,434.757 876.71,432.78C877.37,430.86 878.15,430.08 874.64,426.59Z" style="fill:rgb(108,99,255);fill-rule:nonzero;"/>
    </g>
    <g transform="matrix(0.692897,0,0,0.692897,-6.523,-39.4704)">
        <path d="M831.73,300.86C831.713,300.86 831.697,300.86 831.68,300.86C776.822,300.86 731.68,346.002 731.68,400.86C731.68,455.718 776.822,500.86 831.68,500.86C886.538,500.86 931.68,455.718 931.68,400.86C931.68,400.843 931.68,400.827 931.68,400.81C931.653,345.989 886.551,300.887 831.73,300.86ZM831.73,487.48C784.184,487.48 745.06,448.356 745.06,400.81C745.06,353.264 784.184,314.14 831.73,314.14C879.276,314.14 918.4,353.264 918.4,400.81C918.4,448.356 879.276,487.48 831.73,487.48Z" style="fill-opacity:0.1;fill-rule:nonzero;"/>
    </g>
    <g transform="matrix(0.692897,0,0,0.692897,29.5076,73.2155)">
        <circle cx="550.08" cy="390.01" r="99.96" style="fill:rgb(63,61,86);"/>
    </g>
    <g transform="matrix(0.692897,0,0,0.692897,-6.523,-39.4704)">
        <path d="M658.93,522.44L629,552.89C628.894,552.992 628.833,553.133 628.833,553.28C628.833,553.427 628.894,553.568 629,553.67L650,576C650.673,576.678 651.051,577.595 651.051,578.55C651.051,580.529 649.429,582.159 647.45,582.17C646.491,582.168 645.57,581.787 644.89,581.11L624,558.86C623.78,558.643 623.42,558.643 623.2,558.86L618.11,564C613.902,568.304 608.129,570.732 602.11,570.73C595.977,570.702 590.106,568.206 585.83,563.81L580.94,558.81C580.72,558.593 580.36,558.593 580.14,558.81L559.3,581.01C558.623,581.688 557.703,582.07 556.745,582.07C555.787,582.07 554.867,581.688 554.19,581.01C553.509,580.334 553.126,579.414 553.126,578.455C553.126,577.496 553.509,576.576 554.19,575.9L575.11,553.62C575.301,553.396 575.301,553.064 575.11,552.84L545.18,522.39C545.077,522.286 544.936,522.228 544.79,522.228C544.488,522.228 544.24,522.476 544.24,522.778C544.24,522.779 544.24,522.779 544.24,522.78L544.24,583.71C544.256,588.581 548.259,592.584 553.13,592.6L651,592.6C655.871,592.584 659.874,588.581 659.89,583.71L659.89,522.83C659.89,522.822 659.891,522.814 659.891,522.806C659.891,522.504 659.642,522.256 659.341,522.256C659.184,522.256 659.034,522.323 658.93,522.44Z" style="fill:rgb(108,99,255);fill-rule:nonzero;"/>
    </g>
    <g transform="matrix(0.692897,0,0,0.692897,-6.523,-39.4704)">
        <path d="M602.08,563.5C606.177,563.54 610.121,561.915 613,559L656.59,514.63C655.043,513.348 653.099,512.642 651.09,512.63L553.15,512.63C551.14,512.637 549.194,513.344 547.65,514.63L591.25,559C594.104,561.899 598.012,563.523 602.08,563.5Z" style="fill:rgb(108,99,255);fill-rule:nonzero;"/>
    </g>
    <g transform="matrix(0.692897,0,0,0.692897,-6.523,-39.4704)">
        <path d="M600.82,452.69C600.803,452.69 600.787,452.69 600.77,452.69C545.912,452.69 500.77,497.832 500.77,552.69C500.77,607.548 545.912,652.69 600.77,652.69C655.628,652.69 700.77,607.548 700.77,552.69C700.77,552.673 700.77,552.657 700.77,552.64C700.743,497.819 655.641,452.717 600.82,452.69ZM600.82,639.31C553.274,639.31 514.15,600.186 514.15,552.64C514.15,505.094 553.274,465.97 600.82,465.97C648.366,465.97 687.49,505.094 687.49,552.64C687.49,600.186 648.366,639.31 600.82,639.31Z" style="fill-opacity:0.1;fill-rule:nonzero;"/>
    </g>
    <g transform="matrix(0.692897,0,0,0.692897,29.5076,73.2155)">
        <circle cx="312.85" cy="315.36" r="99.96" style="fill:rgb(63,61,86);"/>
    </g>
    <g transform="matrix(0.692897,0,0,0.692897,-6.523,-39.4704)">
        <path d="M364.85,430.16L325,522.1L328.72,525.82L364.86,509.88L401,525.82L404.72,522.1L364.85,430.16Z" style="fill:rgb(108,99,255);fill-rule:nonzero;"/>
    </g>
    <g transform="matrix(0.692897,0,0,0.692897,-6.523,-39.4704)">
        <path d="M364.85,378C364.833,378 364.817,378 364.8,378C309.942,378 264.8,423.142 264.8,478C264.8,532.858 309.942,578 364.8,578C419.658,578 464.8,532.858 464.8,478C464.8,423.161 419.689,378.027 364.85,378ZM364.85,564.62C317.304,564.62 278.18,525.496 278.18,477.95C278.18,430.404 317.304,391.28 364.85,391.28C412.396,391.28 451.52,430.404 451.52,477.95C451.52,477.967 451.52,477.983 451.52,478C451.515,525.542 412.392,564.66 364.85,564.66L364.85,564.62Z" style="fill-opacity:0.1;fill-rule:nonzero;"/>
    </g>
    <g transform="matrix(0.692897,0,0,0.692897,-6.523,-39.4704)">
        <path d="M840.93,603.88C840.023,601.667 839.093,599.46 838.14,597.26C837.355,595.113 836.201,593.12 834.73,591.37C834.171,590.74 833.491,590.23 832.73,589.87C831.893,589.561 831.012,589.386 830.12,589.35C828.76,589.179 827.387,589.142 826.02,589.24C825.49,589.08 824.89,588.87 824.3,588.63C830.358,587.038 834.694,581.638 834.94,575.38L834.94,574.77C834.94,574.75 834.94,574.73 834.94,574.71C834.94,566.915 828.545,560.493 820.75,560.46C818.116,560.455 815.533,561.193 813.3,562.59C807.248,561.217 800.996,564.23 798.3,569.82C794.952,573.022 793.101,577.489 793.2,582.12L793.2,582.75C793.46,590.52 798.48,596.75 804.82,597.38C804.142,597.685 803.52,598.1 802.98,598.61C801.04,600.48 800.72,603.45 800.51,606.15L800.36,608.15L797,609.35C796.754,609.438 796.588,609.672 796.588,609.934C796.588,610.135 796.686,610.324 796.85,610.44L800.06,612.73L800.06,613.3C800.06,613.49 800.06,613.73 800.12,613.95C799.572,614.433 799.147,615.04 798.88,615.72C798.567,616.77 798.469,617.872 798.59,618.96L798.71,621.75C798.694,623.85 798.981,625.941 799.56,627.96C799.98,629.2 801.8,632.19 803.11,632.21C801.9,637.71 801.58,649.31 801.58,649.31C801.43,649.46 801.85,649.6 802.58,649.72C803.3,655.24 805.65,670.72 809.82,677.53C810.476,679.75 811.001,682.008 811.39,684.29C811.779,686.572 812.58,699 814.15,703.37C815.49,707.09 816.55,716.27 816.84,718.93C816.287,719.072 815.858,719.513 815.73,720.07C814.94,722.45 809.82,726.07 809.82,726.07C808.251,726.854 806.769,727.803 805.4,728.9C803.79,730.35 803.85,731.66 811,730.84C824.8,729.25 827.16,724.84 827.16,724.84C827.16,724.84 826.94,724.1 826.61,723.14C826.189,721.646 825.58,720.212 824.8,718.87C824.6,718.68 824.4,719 824.16,719.5C823.119,713.119 822.803,706.641 823.22,700.19C823.637,693.739 823.61,693.43 821.64,688.66C821.202,686.162 821.202,683.608 821.64,681.11C822.43,677.93 818.49,662.42 818.49,662.42L816.23,651C816.538,651.39 816.753,651.845 816.86,652.33L816.92,652.56L816.98,652.89C817.003,653.007 817.058,653.114 817.14,653.2C818.68,659.6 822.9,677.33 822.9,679.93C822.9,683.11 826.84,691.06 826.84,691.06C826.84,691.06 828.41,704.18 831.17,709.34C833.27,713.27 833.32,719.03 833.22,721.57C833.12,724.11 832.75,724.84 831.96,725.63C831.332,726.411 830.829,727.285 830.47,728.22L830.38,728.41C830.38,728.41 829.2,730.8 829.99,731.2C832.995,732.379 836.247,732.788 839.45,732.39C842.653,731.992 841.03,730.39 841.03,729.61C840.997,729.134 840.937,728.66 840.85,728.19C840.56,726.31 840.02,723.35 840.01,723.32C840.34,722.04 839.01,718.48 839.01,718.48L838.61,707.35C839.342,699.814 838.4,692.209 835.85,685.08C833.3,677.951 833.85,677.93 834.28,675.94C834.71,673.95 833.49,652.88 833.49,652.88L833.37,652.58C833.263,651.09 833.304,649.592 833.49,648.11C833.88,643.34 832.31,633.4 831.91,633.01C831.584,631.942 831.396,630.836 831.35,629.72C831.44,628.89 831.71,626.46 832.08,623.44C835.968,623.307 839.846,622.973 843.7,622.44C844.072,622.44 844.43,622.297 844.7,622.04C844.858,621.8 844.938,621.517 844.93,621.23C845.39,615.24 843.2,609.42 840.93,603.88ZM833,616.49C833.41,613.64 833.85,610.88 834.29,608.83L834.35,609.01C835.107,611.071 835.741,613.174 836.25,615.31C835.2,615.79 834.113,616.185 833,616.49Z" style="fill:url(#_Linear1);fill-rule:nonzero;"/>
    </g>
    <g transform="matrix(0.692897,0,0,0.692897,-6.523,-39.4704)">
        <path d="M802.37,648.68C802.37,648.68 804.73,669.91 809.84,678.16C810.497,680.353 811.021,682.584 811.41,684.84C811.799,687.096 812.59,699.38 814.16,703.7C815.73,708.02 816.91,719.82 816.91,719.82C816.91,719.82 822.41,726.1 824.38,721C823.143,714.262 822.746,707.396 823.2,700.56C823.654,693.724 823.59,693.88 821.63,689.16C821.192,686.693 821.192,684.167 821.63,681.7C822.41,678.55 818.48,663.23 818.48,663.23L815.34,647.9L802.37,648.68Z" style="fill:rgb(190,111,114);fill-rule:nonzero;"/>
    </g>
    <g transform="matrix(0.692897,0,0,0.692897,-6.523,-39.4704)">
        <path d="M827.13,724.93C827.13,724.93 824.77,729.25 811.02,730.82C803.88,731.63 803.83,730.34 805.44,728.9C806.805,727.815 808.279,726.877 809.84,726.1C811.401,725.323 814.95,722.57 815.73,720.21C816.51,717.85 819.27,719.82 819.27,719.82C823.2,725.71 823.99,718.24 824.77,719.03C825.553,720.349 826.161,721.764 826.58,723.24C826.91,724.19 827.13,724.93 827.13,724.93Z" style="fill:rgb(255,111,97);fill-rule:nonzero;"/>
    </g>
    <g transform="matrix(0.692897,0,0,0.692897,-6.523,-39.4704)">
        <path d="M827.13,724.93C827.13,724.93 824.77,729.25 811.02,730.82C803.88,731.63 803.83,730.34 805.44,728.9C806.56,729.61 808.82,729.9 813.37,728.07C819.92,725.39 824.67,723.84 826.58,723.24C826.91,724.19 827.13,724.93 827.13,724.93Z" style="fill-opacity:0.1;fill-rule:nonzero;"/>
    </g>
    <g transform="matrix(0.692897,0,0,0.692897,-6.523,-39.4704)">
        <path d="M823.2,700.56C823.2,700.56 823.59,693.88 821.63,689.16C821.192,686.693 821.192,684.167 821.63,681.7C822.41,678.55 818.48,663.23 818.48,663.23L815.34,647.9L812.62,648.06L815.73,663.23C815.73,663.23 819.66,678.55 818.88,681.7C818.442,684.167 818.442,686.693 818.88,689.16C820.88,693.88 820.45,700.56 820.45,700.56C819.996,707.396 820.393,714.262 821.63,721C821.417,721.64 821.021,722.204 820.49,722.62C821.95,723.28 823.49,723.25 824.38,721C823.143,714.262 822.746,707.396 823.2,700.56Z" style="fill-opacity:0.1;fill-rule:nonzero;"/>
    </g>
    <g transform="matrix(0.692897,0,0,0.692897,-6.523,-39.4704)">
        <path d="M820.64,562.42C818.018,562.415 815.447,563.146 813.22,564.53C807.186,563.137 800.937,566.116 798.22,571.68C794.886,574.833 793.036,579.253 793.13,583.84C793.13,592.2 798.76,598.97 805.7,598.97C810.7,598.97 815.08,595.41 817.09,590.26C818.245,590.566 819.435,590.721 820.63,590.72C828.392,590.72 834.78,584.332 834.78,576.57C834.78,568.808 828.392,562.42 820.63,562.42L820.64,562.42Z" style="fill:rgb(63,61,86);fill-rule:nonzero;"/>
    </g>
    <g transform="matrix(0.692897,0,0,0.692897,-6.523,-39.4704)">
        <path d="M832.24,650.65L833.42,653.79C833.42,653.79 834.6,674.62 834.2,676.59C833.8,678.56 835.78,685.59 835.78,685.59C838.321,692.627 839.261,700.144 838.53,707.59L838.92,718.59C838.92,718.59 840.49,722.91 839.71,723.7C838.93,724.49 833,723 833,723C833,723 833.79,714.75 831,709.64C828.21,704.53 826.68,691.56 826.68,691.56C826.68,691.56 822.75,683.7 822.75,680.56C822.75,677.42 816.46,651.87 816.46,651.87L832.24,650.65Z" style="fill:rgb(190,111,114);fill-rule:nonzero;"/>
    </g>
    <g transform="matrix(0.692897,0,0,0.692897,-6.523,-39.4704)">
        <path d="M801.58,650.26C801.58,650.26 801.98,636.11 803.58,631.79C804.394,629.771 804.981,627.668 805.33,625.52C805.679,623.372 829.12,629.82 831.09,628.25C831.09,628.25 831.48,633.75 831.88,634.14C832.28,634.53 833.88,644.36 833.45,649.08C833.02,653.8 833.45,653.79 833.45,653.79C833.45,653.79 817.33,656.15 816.94,653.79C816.55,651.43 815.37,651.44 815.37,651.44C815.37,651.44 800.8,651 801.58,650.26Z" style="fill:rgb(63,61,86);fill-rule:nonzero;"/>
    </g>
    <g transform="matrix(1,0,0,1,-145,0)">
        <g opacity="0.1">
            <g transform="matrix(0.692897,0,0,0.692897,138.477,-39.4704)">
                <path d="M814.55,650.26C814.55,650.26 804.61,649.99 801.61,649.45L801.61,650.26C800.83,651.04 815.37,651.44 815.37,651.44C815.568,651.458 815.756,651.535 815.91,651.66C815.38,650.26 814.55,650.26 814.55,650.26Z" style="fill-rule:nonzero;"/>
            </g>
            <g transform="matrix(0.692897,0,0,0.692897,138.477,-39.4704)">
                <path d="M831.85,634.14C831.45,633.75 831.06,628.25 831.06,628.25C830.856,628.377 830.628,628.458 830.39,628.49C830.53,630.15 830.8,632.7 831.06,632.96C831.32,633.22 833.06,643.18 832.63,647.9C832.2,652.62 832.63,652.61 832.63,652.61C832.63,652.61 819.88,654.48 816.79,653.23C816.79,653.4 816.88,653.59 816.91,653.79C817.3,656.15 833.42,653.79 833.42,653.79C833.42,653.79 833.02,653.79 833.42,649.08C833.82,644.37 832.24,634.54 831.85,634.14Z" style="fill-rule:nonzero;"/>
            </g>
            <g transform="matrix(0.692897,0,0,0.692897,138.477,-39.4704)">
                <path d="M814.55,650.26C814.55,650.26 804.61,649.99 801.61,649.45L801.61,650.26C800.83,651.04 815.37,651.44 815.37,651.44C815.568,651.458 815.756,651.535 815.91,651.66C815.38,650.26 814.55,650.26 814.55,650.26Z" style="fill:none;fill-rule:nonzero;"/>
            </g>
            <g transform="matrix(0.692897,0,0,0.692897,138.477,-39.4704)">
                <path d="M831.85,634.14C831.45,633.75 831.06,628.25 831.06,628.25C830.856,628.377 830.628,628.458 830.39,628.49C830.53,630.15 830.8,632.7 831.06,632.96C831.32,633.22 833.06,643.18 832.63,647.9C832.2,652.62 832.63,652.61 832.63,652.61C832.63,652.61 819.88,654.48 816.79,653.23C816.79,653.4 816.88,653.59 816.91,653.79C817.3,656.15 833.42,653.79 833.42,653.79C833.42,653.79 833.02,653.79 833.42,649.08C833.82,644.37 832.24,634.54 831.85,634.14Z" style="fill:none;fill-rule:nonzero;"/>
            </g>
        </g>
    </g>
    <g transform="matrix(0.692897,0,0,0.692897,-6.523,-39.4704)">
        <path d="M818.9,587.18C819.239,587.937 819.753,588.602 820.4,589.12C820.817,589.429 821.299,589.638 821.81,589.73C820.93,590.24 819.97,590.62 819.09,591.13C817.706,592.06 816.371,593.062 815.09,594.13C813.781,595.183 812.177,595.805 810.5,595.91C811.696,594.297 811.941,592.161 811.14,590.32C810.78,589.726 810.542,589.067 810.44,588.38C810.44,587.25 811.44,586.38 812.37,585.78C813.12,585.27 813.89,584.78 814.67,584.29C815.28,583.91 816.2,583.11 816.97,583.14C817.74,583.17 817.83,583.85 817.97,584.55C818.168,585.462 818.481,586.346 818.9,587.18Z" style="fill:rgb(190,111,114);fill-rule:nonzero;"/>
    </g>
    <g transform="matrix(0.692897,0,0,0.692897,-6.523,-39.4704)">
        <path d="M818.9,587.18C819.239,587.937 819.753,588.602 820.4,589.12C820.817,589.429 821.299,589.638 821.81,589.73C820.93,590.24 819.97,590.62 819.09,591.13C817.706,592.06 816.371,593.062 815.09,594.13C813.781,595.183 812.177,595.805 810.5,595.91C811.696,594.297 811.941,592.161 811.14,590.32C810.78,589.726 810.542,589.067 810.44,588.38C810.44,587.25 811.44,586.38 812.37,585.78C813.12,585.27 813.89,584.78 814.67,584.29C815.28,583.91 816.2,583.11 816.97,583.14C817.74,583.17 817.83,583.85 817.97,584.55C818.168,585.462 818.481,586.346 818.9,587.18Z" style="fill-opacity:0.1;fill-rule:nonzero;"/>
    </g>
    <g transform="matrix(0.692897,0,0,0.692897,29.5076,73.2155)">
        <circle cx="776.11" cy="438.7" r="9.04" style="fill:rgb(190,111,114);"/>
    </g>
    <g transform="matrix(0.692897,0,0,0.692897,-6.523,-39.4704)">
        <path d="M840.88,729.64C840.88,730.43 839.31,732.39 839.31,732.39C836.118,732.782 832.877,732.377 829.88,731.21C829.09,730.82 830.27,728.46 830.27,728.46L830.36,728.27C830.72,727.344 831.223,726.481 831.85,725.71C832.63,724.93 833.1,721.71 833.1,721.71C835.54,717.71 839.87,723.44 839.87,723.44C839.87,723.44 840.42,726.44 840.71,728.26C840.81,728.91 840.88,729.44 840.88,729.64Z" style="fill:rgb(255,111,97);fill-rule:nonzero;"/>
    </g>
    <g transform="matrix(0.692897,0,0,0.692897,-6.523,-39.4704)">
        <path d="M840.88,729.64C840.88,730.43 839.31,732.39 839.31,732.39C836.118,732.782 832.877,732.377 829.88,731.21C829.09,730.82 830.27,728.46 830.27,728.46L830.36,728.27C833.038,729.514 835.969,730.116 838.92,730.03L840.71,728.24C840.81,728.91 840.88,729.44 840.88,729.64Z" style="fill-opacity:0.1;fill-rule:nonzero;"/>
    </g>
    <g transform="matrix(0.692897,0,0,0.692897,29.5076,73.2155)">
        <circle cx="758.03" cy="419.83" r="8.84" style="fill:rgb(190,111,114);"/>
    </g>
    <g transform="matrix(0.692897,0,0,0.692897,-6.523,-39.4704)">
        <path d="M802.9,600.14C800.96,601.99 800.64,604.92 800.44,607.59L800.14,611.5C800.032,612.553 800.008,613.613 800.07,614.67C800.07,615.32 800.23,615.98 800.29,616.67C800.35,617.36 800.37,618.23 800.38,619.02L800.38,624.8C800.285,625.993 800.506,627.19 801.02,628.27C801.586,629.348 802.897,629.82 804.02,629.35C804.641,628.871 805.079,628.193 805.26,627.43C806.235,625.085 806.907,622.625 807.26,620.11C807.34,619.24 807.35,618.37 807.43,617.5C807.51,616.63 807.66,615.72 807.79,614.84C808.35,611.16 808.6,607.44 808.85,603.73C808.92,602.63 809.91,598.3 808.47,597.82C807.77,597.59 806.32,598.31 805.65,598.55C804.636,598.889 803.7,599.43 802.9,600.14Z" style="fill:rgb(190,111,114);fill-rule:nonzero;"/>
    </g>
    <g transform="matrix(0.692897,0,0,0.692897,-6.523,-39.4704)">
        <path d="M802.9,600.14C800.96,601.99 800.64,604.92 800.44,607.59L800.14,611.5C800.032,612.553 800.008,613.613 800.07,614.67C800.07,615.32 800.23,615.98 800.29,616.67C800.35,617.36 800.37,618.23 800.38,619.02L800.38,624.8C800.285,625.993 800.506,627.19 801.02,628.27C801.586,629.348 802.897,629.82 804.02,629.35C804.641,628.871 805.079,628.193 805.26,627.43C806.235,625.085 806.907,622.625 807.26,620.11C807.34,619.24 807.35,618.37 807.43,617.5C807.51,616.63 807.66,615.72 807.79,614.84C808.35,611.16 808.6,607.44 808.85,603.73C808.92,602.63 809.91,598.3 808.47,597.82C807.77,597.59 806.32,598.31 805.65,598.55C804.636,598.889 803.7,599.43 802.9,600.14Z" style="fill-opacity:0.1;fill-rule:nonzero;"/>
    </g>
    <g transform="matrix(0.692897,0,0,0.692897,-6.523,-39.4704)">
        <path d="M821.23,588.16C821.23,588.16 814.55,593.27 810.62,594.45C810.62,594.45 808.29,597.11 807.89,597.75C807.49,598.39 806.69,605.45 805.89,607.03C805.09,608.61 803.14,612.14 805.89,615.67C805.89,615.67 806.67,619.21 806.28,620.39C805.89,621.57 804.46,625.89 805.76,626.09C807.06,626.29 811,629.03 814.53,628.25C818.06,627.47 831.24,631.25 831.24,631.25C831.24,631.25 833.42,611 835,607.42L831.46,606.24C831.46,606.24 821.64,600.35 827.53,591.31C827.52,591.31 822,590.13 821.23,588.16Z" style="fill:rgb(255,111,97);fill-rule:nonzero;"/>
    </g>
    <g transform="matrix(0.692897,0,0,0.692897,-6.523,-39.4704)">
        <path d="M796.84,611.83L804.96,617.58C805.171,617.735 805.459,617.735 805.67,617.58L807.87,615.93C808.007,615.812 808.086,615.64 808.086,615.46C808.086,615.28 808.007,615.108 807.87,614.99L801.62,609.44C801.455,609.29 801.22,609.243 801.01,609.32L797,610.76C796.755,610.845 796.589,611.077 796.589,611.337C796.589,611.532 796.682,611.715 796.84,611.83Z" style="fill:rgb(63,61,86);fill-rule:nonzero;"/>
    </g>
    <g transform="matrix(0.692897,0,0,0.692897,-6.523,-39.4704)">
        <path d="M799.57,629.15C798.996,627.158 798.71,625.093 798.72,623.02L798.6,620.25C798.479,619.175 798.578,618.086 798.89,617.05C799.514,615.612 800.752,614.528 802.26,614.1C803.753,613.686 805.313,613.573 806.85,613.77C807.057,613.771 807.261,613.826 807.44,613.93C807.597,614.075 807.708,614.263 807.76,614.47C808.219,615.366 808.285,616.414 807.94,617.36C807.708,617.741 807.393,618.066 807.02,618.31C805.93,619.09 804.66,619.61 803.63,620.46C803.421,620.601 803.26,620.804 803.17,621.04C803.12,621.247 803.12,621.463 803.17,621.67C803.298,622.22 803.472,622.759 803.69,623.28C803.778,623.542 803.933,623.776 804.14,623.96C804.33,624.12 804.58,624.18 804.78,624.33C805.21,624.68 806.11,625.14 806.06,625.69C805.91,627.69 804.71,629.93 804.24,631.91C803.34,635.78 800.15,630.84 799.57,629.15Z" style="fill:rgb(190,111,114);fill-rule:nonzero;"/>
    </g>
    <g transform="matrix(1,0,0,1,-145,0)">
        <g opacity="0.1">
            <g transform="matrix(0.692897,0,0,0.692897,138.477,-39.4704)">
                <path d="M812.2,628.25L811.98,628.25C812.829,628.415 813.701,628.415 814.55,628.25L814.8,628.25C813.938,628.124 813.062,628.124 812.2,628.25Z" style="fill-rule:nonzero;"/>
            </g>
            <g transform="matrix(0.692897,0,0,0.692897,138.477,-39.4704)">
                <path d="M832.83,606.83C831.42,610 829.34,627.17 828.97,630.58C830.35,630.94 831.26,631.2 831.26,631.2C831.26,631.2 833.42,611 835,607.42L832.83,606.83Z" style="fill-rule:nonzero;"/>
            </g>
        </g>
    </g>
    <g transform="matrix(0.692897,0,0,0.692897,-6.523,-39.4704)">
        <path d="M828.42,601.61C828.569,602.407 829.034,603.111 829.71,603.56C830.545,604.26 831.311,605.036 832,605.88C832.988,607.27 833.754,608.805 834.27,610.43C835.02,612.465 835.652,614.542 836.16,616.65C831.16,618.97 825.48,618.86 820.16,620.39C817.87,620.994 815.792,622.223 814.16,623.94C812.514,625.686 811.707,628.063 811.95,630.45C811.958,630.588 811.999,630.722 812.07,630.84C812.246,631.039 812.506,631.142 812.77,631.12C814.099,631.118 815.39,630.675 816.44,629.86C817.478,629.049 818.42,628.123 819.25,627.1C819.765,626.429 820.458,625.916 821.25,625.62C824.14,624.74 827.25,624.79 830.25,624.74C834.737,624.652 839.215,624.298 843.66,623.68C843.702,623.685 843.745,623.688 843.788,623.688C844.38,623.688 844.868,623.2 844.868,622.608C844.868,622.565 844.865,622.522 844.86,622.48C845.3,616.58 843.11,610.82 840.86,605.35C839.96,603.157 839.033,600.973 838.08,598.8C837.295,596.677 836.144,594.707 834.68,592.98C834.124,592.352 833.443,591.848 832.68,591.5C831.82,591.19 830.914,591.021 830,591C828.545,590.804 827.072,590.777 825.61,590.92C825.377,591.656 825.236,592.419 825.19,593.19C825.27,595.89 826.45,598.42 827.61,600.86C827.76,601.23 828.19,601.25 828.42,601.61Z" style="fill:rgb(190,111,114);fill-rule:nonzero;"/>
    </g>
    <g transform="matrix(0.692897,0,0,0.692897,-6.523,-39.4704)">
        <path d="M812.41,606.67C811.734,607.828 811.388,609.149 811.41,610.49C811.412,611.02 811.497,611.546 811.66,612.05C812.213,613.481 813.388,614.586 814.85,615.05" style="fill:none;fill-rule:nonzero;stroke:black;stroke-opacity:0.1;stroke-width:1px;"/>
    </g>
    <g transform="matrix(0.692897,0,0,0.692897,-6.523,-39.4704)">
        <path d="M817.5,573.82C817.007,573.818 816.518,573.896 816.05,574.05C814.74,572.05 811.66,570.67 808.05,570.67C803.27,570.67 799.4,573.14 799.4,576.18C799.4,579.22 803.27,581.68 808.05,581.68C809.84,581.699 811.612,581.324 813.24,580.58C814.025,582.204 815.677,583.24 817.48,583.24C820.064,583.24 822.19,581.114 822.19,578.53C822.19,575.946 820.064,573.82 817.48,573.82C817.48,573.82 817.48,573.82 817.48,573.82L817.5,573.82Z" style="fill:rgb(63,61,86);fill-rule:nonzero;"/>
    </g>
    <g transform="matrix(0.692897,0,0,0.692897,-6.523,-39.4704)">
        <path d="M817.89,582.07C816.084,582.07 814.43,581.029 813.65,579.4C812.022,580.144 810.25,580.519 808.46,580.5C803.69,580.5 799.82,578.04 799.82,575C799.805,574.817 799.805,574.633 799.82,574.45C799.535,574.983 799.384,575.576 799.38,576.18C799.38,579.18 803.25,581.68 808.03,581.68C809.82,581.699 811.592,581.324 813.22,580.58C814.004,582.206 815.657,583.244 817.462,583.244C819.717,583.244 821.671,581.625 822.09,579.41C821.315,581.024 819.681,582.059 817.89,582.07Z" style="fill-opacity:0.1;fill-rule:nonzero;"/>
    </g>
    <g transform="matrix(0.692897,0,0,0.692897,-6.523,-39.4704)">
        <path d="M798.23,574C800.947,568.436 807.196,565.457 813.23,566.85C815.462,565.472 818.035,564.741 820.659,564.741C827.975,564.741 834.144,570.419 834.75,577.71L834.75,576.53C834.733,568.785 828.355,562.421 820.61,562.421C817.986,562.421 815.413,563.151 813.18,564.53C807.146,563.137 800.897,566.116 798.18,571.68C794.846,574.833 792.996,579.253 793.09,583.84L793.09,585.02C793.286,580.815 795.134,576.853 798.23,574Z" style="fill-opacity:0.1;fill-rule:nonzero;"/>
    </g>
    <g transform="matrix(0.692897,0,0,0.692897,-6.523,-39.4704)">
        <path d="M888.39,577C891,572.17 888.04,566.24 884.63,561.93C881.22,557.62 877.08,553.14 877.17,547.64C877.29,539.75 885.67,535.09 892.37,530.9C897.337,527.787 901.916,524.095 906.01,519.9C907.73,518.293 909.152,516.393 910.21,514.29C911.59,511.2 911.55,507.69 911.47,504.29C911.177,493.023 910.62,481.77 909.8,470.53" style="fill:none;fill-rule:nonzero;stroke:rgb(63,61,86);stroke-width:4px;"/>
    </g>
    <g transform="matrix(0.692897,0,0,0.692897,-6.523,-39.4704)">
        <path d="M922.52,469.93C922.326,465.747 920.008,461.941 916.38,459.85L913.62,465.3L913.7,458.7C912.388,458.308 911.018,458.143 909.65,458.21C903.12,458.515 897.914,463.97 897.914,470.507C897.914,477.26 903.47,482.817 910.224,482.817C916.977,482.817 922.534,477.26 922.534,470.507C922.534,470.314 922.529,470.122 922.52,469.93Z" style="fill:rgb(108,99,255);fill-rule:nonzero;"/>
    </g>
    <g transform="matrix(0.692897,0,0,0.692897,-6.523,-39.4704)">
        <path d="M900.57,553.26C898.464,557.356 894.228,559.941 889.622,559.941C882.869,559.941 877.312,554.384 877.312,547.631C877.312,540.878 882.869,535.321 889.622,535.321C894.754,535.321 899.371,538.53 901.16,543.34L893.47,549.6L901.93,547.6C901.938,549.568 901.472,551.51 900.57,553.26Z" style="fill:rgb(108,99,255);fill-rule:nonzero;"/>
    </g>
    <g transform="matrix(0.692897,0,0,0.692897,-6.523,-39.4704)">
        <path d="M894.49,529.35C894.293,529.359 894.096,529.364 893.899,529.364C887.146,529.364 881.589,523.807 881.589,517.054C881.589,511.55 885.28,506.684 890.58,505.2L890.52,510.27L893.31,504.76C900.056,504.451 905.864,509.744 906.18,516.49C906.189,516.684 906.194,516.879 906.194,517.073C906.194,523.607 900.987,529.059 894.46,529.36L894.49,529.35Z" style="fill:rgb(108,99,255);fill-rule:nonzero;"/>
    </g>
    <g transform="matrix(0.692897,0,0,0.692897,-6.523,-39.4704)">
        <path d="M924.37,509.47C924.161,509.481 923.953,509.486 923.744,509.486C916.991,509.486 911.434,503.929 911.434,497.176C911.434,490.423 916.991,484.866 923.744,484.866C925.874,484.866 927.968,485.419 929.82,486.47L927.64,492.47L932.12,488.17C934.53,490.358 935.97,493.419 936.12,496.67C936.18,497.809 936.076,498.951 935.81,500.06C934.525,505.381 929.839,509.236 924.37,509.47Z" style="fill:rgb(108,99,255);fill-rule:nonzero;"/>
    </g>
    <g transform="matrix(0.692897,0,0,0.692897,-6.523,-39.4704)">
        <path d="M920.87,473.21C918.03,473.53 915.26,474.41 912.41,474.59C909.56,474.77 906.41,474.08 904.62,471.86C903.784,470.573 903.026,469.238 902.35,467.86C901.57,466.649 900.506,465.646 899.25,464.94C898.363,466.675 897.9,468.596 897.9,470.544C897.9,477.297 903.457,482.854 910.21,482.854C915.999,482.854 921.043,478.771 922.25,473.11C921.79,473.13 921.33,473.16 920.87,473.21Z" style="fill-opacity:0.1;fill-rule:nonzero;"/>
    </g>
    <g transform="matrix(0.692897,0,0,0.692897,-6.523,-39.4704)">
        <path d="M924.37,509.47C924.181,509.479 923.993,509.483 923.804,509.483C917.045,509.483 911.484,503.922 911.484,497.163C911.484,495.347 911.886,493.553 912.66,491.91C913.639,492.565 914.481,493.404 915.14,494.38C915.871,495.784 916.686,497.143 917.58,498.45C919.49,500.71 922.77,501.45 925.74,501.31C928.71,501.17 931.58,500.31 934.54,500.06C934.95,500.06 935.37,499.99 935.78,499.98C934.529,505.322 929.851,509.213 924.37,509.47Z" style="fill-opacity:0.1;fill-rule:nonzero;"/>
    </g>
    <g transform="matrix(0.692897,0,0,0.692897,-6.523,-39.4704)">
        <path d="M894.49,529.35C894.29,529.36 894.089,529.365 893.889,529.365C887.141,529.365 881.589,523.812 881.589,517.065C881.589,515.318 881.961,513.592 882.68,512C883.689,512.671 884.57,513.518 885.28,514.5C886.28,515.85 886.83,517.41 887.95,518.65C890.03,520.97 893.52,521.78 896.67,521.71C899.82,521.64 902.67,520.89 905.67,520.66C904.153,525.613 899.664,529.102 894.49,529.35Z" style="fill-opacity:0.1;fill-rule:nonzero;"/>
    </g>
    <g transform="matrix(0.692897,0,0,0.692897,-6.523,-39.4704)">
        <path d="M900.57,553.26C898.43,557.263 894.244,559.772 889.705,559.772C882.946,559.772 877.385,554.211 877.385,547.452C877.385,546.023 877.634,544.604 878.12,543.26C879.136,543.923 880.046,544.735 880.82,545.67C882,547.1 882.77,548.67 884.12,550.05C886.64,552.52 890.7,553.53 894.32,553.63C896.409,553.628 898.496,553.504 900.57,553.26Z" style="fill-opacity:0.1;fill-rule:nonzero;"/>
    </g>
    <g transform="matrix(0.692897,0,0,0.692897,-6.523,-39.4704)">
        <path d="M1047.39,729C1050,724.17 1047.04,718.24 1043.63,713.93C1040.22,709.62 1036.08,705.14 1036.17,699.64C1036.29,691.75 1044.67,687.09 1051.37,682.9C1056.34,679.787 1060.92,676.095 1065.01,671.9C1066.73,670.293 1068.15,668.393 1069.21,666.29C1070.59,663.2 1070.55,659.69 1070.47,656.29C1070.18,645.023 1069.63,633.77 1068.8,622.53" style="fill:none;fill-rule:nonzero;stroke:rgb(63,61,86);stroke-width:4px;"/>
    </g>
    <g transform="matrix(0.692897,0,0,0.692897,-6.523,-39.4704)">
        <path d="M1081.52,621.93C1081.33,617.747 1079.01,613.941 1075.38,611.85L1072.62,617.3L1072.7,610.7C1071.4,610.314 1070.05,610.148 1068.7,610.21C1062.17,610.515 1056.96,615.97 1056.96,622.507C1056.96,629.26 1062.52,634.817 1069.27,634.817C1076.03,634.817 1081.58,629.26 1081.58,622.507C1081.58,622.314 1081.58,622.122 1081.57,621.93L1081.52,621.93Z" style="fill:rgb(108,99,255);fill-rule:nonzero;"/>
    </g>
    <g transform="matrix(0.692897,0,0,0.692897,-6.523,-39.4704)">
        <path d="M1059.57,705.26C1057.46,709.356 1053.23,711.941 1048.62,711.941C1041.87,711.941 1036.31,706.384 1036.31,699.631C1036.31,692.878 1041.87,687.321 1048.62,687.321C1053.75,687.321 1058.37,690.53 1060.16,695.34L1052.47,701.6L1060.93,699.6C1060.94,701.568 1060.47,703.51 1059.57,705.26Z" style="fill:rgb(108,99,255);fill-rule:nonzero;"/>
    </g>
    <g transform="matrix(0.692897,0,0,0.692897,-6.523,-39.4704)">
        <path d="M1053.49,681.35C1053.29,681.359 1053.1,681.364 1052.9,681.364C1046.15,681.364 1040.59,675.807 1040.59,669.054C1040.59,663.55 1044.28,658.684 1049.58,657.2L1049.52,662.27L1052.31,656.76C1059.06,656.451 1064.86,661.744 1065.18,668.49C1065.19,668.684 1065.19,668.879 1065.19,669.073C1065.19,675.607 1059.99,681.059 1053.46,681.36L1053.49,681.35Z" style="fill:rgb(108,99,255);fill-rule:nonzero;"/>
    </g>
    <g transform="matrix(0.692897,0,0,0.692897,-6.523,-39.4704)">
        <path d="M1083.37,661.47C1083.16,661.481 1082.95,661.486 1082.74,661.486C1075.99,661.486 1070.43,655.929 1070.43,649.176C1070.43,642.423 1075.99,636.866 1082.74,636.866C1084.87,636.866 1086.97,637.419 1088.82,638.47L1086.64,644.47L1091.12,640.17C1093.53,642.358 1094.97,645.419 1095.12,648.67C1095.18,649.809 1095.08,650.951 1094.81,652.06C1093.53,657.381 1088.84,661.236 1083.37,661.47Z" style="fill:rgb(108,99,255);fill-rule:nonzero;"/>
    </g>
    <g transform="matrix(0.692897,0,0,0.692897,-6.523,-39.4704)">
        <path d="M1079.87,625.21C1077.03,625.53 1074.26,626.41 1071.41,626.59C1068.56,626.77 1065.41,626.08 1063.62,623.86C1062.78,622.573 1062.03,621.238 1061.35,619.86C1060.57,618.649 1059.51,617.646 1058.25,616.94C1057.36,618.675 1056.9,620.596 1056.9,622.544C1056.9,629.297 1062.46,634.854 1069.21,634.854C1075,634.854 1080.04,630.771 1081.25,625.11C1080.79,625.13 1080.33,625.16 1079.87,625.21Z" style="fill-opacity:0.1;fill-rule:nonzero;"/>
    </g>
    <g transform="matrix(0.692897,0,0,0.692897,-6.523,-39.4704)">
        <path d="M1083.37,661.47C1083.18,661.479 1082.99,661.483 1082.8,661.483C1076.05,661.483 1070.48,655.922 1070.48,649.163C1070.48,647.347 1070.89,645.553 1071.66,643.91C1072.64,644.565 1073.48,645.404 1074.14,646.38C1074.87,647.784 1075.69,649.143 1076.58,650.45C1078.49,652.71 1081.77,653.45 1084.74,653.31C1087.71,653.17 1090.58,652.31 1093.54,652.06C1093.95,652.06 1094.37,651.99 1094.78,651.98C1093.53,657.322 1088.85,661.213 1083.37,661.47Z" style="fill-opacity:0.1;fill-rule:nonzero;"/>
    </g>
    <g transform="matrix(0.692897,0,0,0.692897,-6.523,-39.4704)">
        <path d="M1053.49,681.35C1053.29,681.36 1053.09,681.365 1052.89,681.365C1046.14,681.365 1040.59,675.812 1040.59,669.065C1040.59,667.318 1040.96,665.592 1041.68,664C1042.69,664.671 1043.57,665.518 1044.28,666.5C1045.28,667.85 1045.83,669.41 1046.95,670.65C1049.03,672.97 1052.52,673.78 1055.67,673.71C1058.82,673.64 1061.67,672.89 1064.67,672.66C1063.15,677.613 1058.66,681.102 1053.49,681.35Z" style="fill-opacity:0.1;fill-rule:nonzero;"/>
    </g>
    <g transform="matrix(0.692897,0,0,0.692897,-6.523,-39.4704)">
        <path d="M1059.57,705.26C1057.43,709.263 1053.24,711.772 1048.7,711.772C1041.95,711.772 1036.38,706.211 1036.38,699.452C1036.38,698.023 1036.63,696.604 1037.12,695.26C1038.14,695.923 1039.05,696.735 1039.82,697.67C1041,699.1 1041.82,700.67 1043.12,702.05C1045.64,704.52 1049.7,705.53 1053.32,705.63C1055.41,705.628 1057.5,705.504 1059.57,705.26Z" style="fill-opacity:0.1;fill-rule:nonzero;"/>
    </g>
    <g transform="matrix(0.692897,0,0,0.692897,-6.523,-39.4704)">
        <path d="M530,587.91C530.026,584.802 528.573,581.859 526.09,579.99C526.059,574.415 521.979,569.626 516.48,568.71C515.64,564.704 512.719,561.439 508.83,560.16C508.366,560.015 507.891,559.904 507.41,559.83L507.27,559.83L507.02,559.83L506.82,559.83L506.6,559.83L506.33,559.83L505.72,559.83C500.256,559.956 495.635,564.043 494.84,569.45C491.33,568.64 488.12,569.69 487.53,571.91C487.382,572.5 487.417,573.121 487.63,573.69C488.23,575.41 490.18,577.06 492.79,577.87L493.13,577.97L493.64,578.1L493.75,578.1C493.193,579.285 492.906,580.58 492.91,581.89C492.893,585.163 494.716,588.181 497.62,589.69L497.39,589.83C497.065,590.126 496.806,590.487 496.63,590.89C495.999,592.006 495.505,593.195 495.16,594.43C494.91,595.49 494.87,596.59 494.56,597.64C493.98,599.57 492.5,601.2 492.33,603.21C492.25,604.11 492.4,605.21 491.76,605.79C491.603,605.927 491.432,606.047 491.25,606.15C490.807,606.463 490.43,606.861 490.14,607.32C489.948,607.736 489.684,608.116 489.36,608.44C488.78,608.87 487.83,608.83 487.55,609.5C487.27,610.17 488,610.96 487.83,611.69C487.66,612.42 487.04,612.56 486.59,612.97C486.067,613.533 485.698,614.222 485.52,614.97C483.606,615.335 481.624,614.829 480.12,613.59C480.375,614.236 480.563,614.906 480.68,615.59C479.81,614.926 478.823,614.431 477.77,614.13C476.586,613.591 475.529,612.807 474.67,611.83L476.33,611.6L469,600.41L466.83,599.96L468.77,603.69C468.442,603.84 468.199,604.13 468.11,604.48C468.007,604.895 467.983,605.326 468.04,605.75C468.14,606.76 468.307,607.762 468.54,608.75L469.1,611.37C469.15,611.61 469.21,611.86 469.28,612.1C468.549,612.064 467.816,612.145 467.11,612.34C465.656,611.799 464.142,611.44 462.6,611.27C462.27,611.203 461.93,611.203 461.6,611.27C461.226,611.447 460.901,611.711 460.65,612.04C459.387,613.505 458.266,615.085 457.3,616.76C453.3,623.62 448.09,629.61 443.16,635.81C439.76,637.19 436.33,638.5 432.9,639.81L425.52,642.63C424.081,643.283 422.52,643.624 420.94,643.63C420.24,643.63 419.37,643.48 418.94,644.08C418.747,644.392 418.596,644.728 418.49,645.08L417.73,645.16C417.38,643.959 416.776,642.847 415.96,641.9C415.595,641.963 415.283,642.203 415.13,642.54C414.95,642.87 414.84,643.23 414.63,643.54C414.24,644.12 413.55,644.4 413.06,644.89C412.57,645.38 412.26,646.14 411.72,646.64C410.984,647.185 410.119,647.529 409.21,647.64C407.84,647.96 406.518,648.461 405.28,649.13C404.827,649.414 404.34,649.639 403.83,649.8C403.267,649.91 402.69,649.93 402.12,649.86L398.22,649.57C397.87,649.526 397.515,649.543 397.17,649.62C396.369,649.946 395.866,650.757 395.93,651.62C396.032,652.476 396.48,653.253 397.17,653.77C397.845,654.268 398.594,654.656 399.39,654.92C402.765,656.234 406.244,657.264 409.79,658L409.79,658.79C412.271,660.041 415.012,660.692 417.79,660.69C417.996,660.704 418.202,660.666 418.39,660.58C418.645,660.389 418.823,660.112 418.89,659.8C419.719,657.32 420.243,654.747 420.45,652.14C420.938,652.107 421.416,651.985 421.86,651.78C423.2,651.41 424.54,652.33 425.93,652.48C427.64,652.67 429.22,651.67 430.84,651.06L431.54,650.83C431.079,651.423 430.533,651.945 429.92,652.38C429.25,652.86 428.5,653.22 427.85,653.72C427.3,654.218 426.711,654.673 426.09,655.08C425.652,655.283 425.201,655.456 424.74,655.6C424.058,655.853 423.41,656.189 422.81,656.6C422.278,656.917 421.829,657.356 421.5,657.88C421.167,658.424 421.125,659.1 421.39,659.68C421.67,660.152 422.14,660.48 422.68,660.58C423.207,660.66 423.743,660.66 424.27,660.58C426.39,660.42 428.5,660.23 430.61,660.04C431.502,659.984 432.388,659.856 433.26,659.66C433.72,659.55 434.18,659.4 434.64,659.27C435.429,659.071 436.237,658.95 437.05,658.91C437.286,658.892 437.523,658.915 437.75,658.98C438.24,659.14 438.59,659.64 439.09,659.74C439.429,659.783 439.773,659.738 440.09,659.61C441.631,659.278 443.203,659.11 444.78,659.11C445.47,659.11 446.28,658.94 446.6,658.3C446.92,657.66 446.34,656.63 446.08,655.78C445.947,655.236 445.873,654.68 445.86,654.12C445.739,652.743 445.345,651.403 444.7,650.18C444.352,649.61 444.061,649.007 443.83,648.38C446.854,647.231 449.747,645.763 452.46,644C453.946,642.924 455.612,642.121 457.38,641.63C459.468,641.381 461.585,641.628 463.56,642.35C468.368,643.743 473.098,645.392 477.73,647.29C479.94,648.2 482.14,649.16 484.42,649.85C485.085,650.742 485.889,651.522 486.8,652.16C488.375,653.046 490.144,653.53 491.95,653.57C494.36,653.79 496.78,653.88 499.2,653.84C501.052,653.92 502.899,653.578 504.6,652.84C505.006,652.637 505.385,652.385 505.73,652.09C507.051,652.202 508.356,651.722 509.29,650.78C510.601,649.657 511.545,648.165 512,646.5C512.59,644.22 512.14,641.5 513.54,639.68C513.91,639.18 514.4,638.78 514.77,638.28C515.218,637.595 515.442,636.788 515.41,635.97C515.426,635.938 515.447,635.908 515.47,635.88C515.777,635.145 515.979,634.371 516.07,633.58C516.242,632.958 516.459,632.35 516.72,631.76C517.431,629.996 518.052,628.197 518.58,626.37C518.941,625.155 519.228,623.92 519.44,622.67C519.59,621.67 519.68,620.67 519.76,619.67C519.866,618.094 520.172,616.539 520.67,615.04C521.922,611.473 522.63,607.738 522.77,603.96L522.77,603.74C526.569,603.304 529.442,600.003 529.35,596.18C529.35,595.067 529.115,593.966 528.66,592.95C529.545,591.418 530.007,589.679 530,587.91ZM494.22,631.38C494.33,631.77 494.46,632.15 494.59,632.53C494,631.96 493.43,631.37 492.84,630.79C493.07,630.87 493.31,630.94 493.53,631.03C493.761,631.124 493.982,631.242 494.19,631.38L494.22,631.38ZM491.39,629.46C487.93,626.46 483.93,624.13 480.39,621.22C482.32,622.17 484.2,623.28 486.06,624.34C488.267,625.6 490.503,626.81 492.77,627.97C492.398,628.551 491.919,629.056 491.36,629.46L491.39,629.46ZM492.86,621.9L493.03,621.73L493.03,622.92L492.1,622.6C492.357,622.382 492.601,622.148 492.83,621.9L492.86,621.9ZM462.43,630C463.849,628.393 465.084,626.632 466.11,624.75C467.48,627.14 469.71,628.87 471.6,630.88C468.55,630.49 465.49,630.16 462.43,630Z" style="fill:url(#_Linear2);fill-rule:nonzero;"/>
    </g>
    <g transform="matrix(0.692897,0,0,0.692897,29.5076,73.2155)">
        <path d="M415.35,438.25L417.53,438.69L424.96,449.68L421.69,450.12L415.35,438.25Z" style="fill:rgb(47,46,65);fill-rule:nonzero;"/>
    </g>
    <g transform="matrix(0.692897,0,0,0.692897,-6.523,-39.4704)">
        <path d="M414.49,645.46C415.081,647.399 415.81,649.294 416.67,651.13C419.132,650.61 421.555,649.918 423.92,649.06C423.454,648.366 422.95,647.699 422.41,647.06C421.823,646.421 421.129,645.89 420.36,645.49C419.54,645.305 418.69,645.305 417.87,645.49C416.75,645.46 415.62,645.48 414.49,645.46Z" style="fill:rgb(251,190,190);fill-rule:nonzero;"/>
    </g>
    <g transform="matrix(0.692897,0,0,0.692897,-6.523,-39.4704)">
        <path d="M420.37,648.39C419.174,647.854 418.268,646.824 417.89,645.57C417.509,644.324 416.864,643.175 416,642.2C415.63,642.251 415.312,642.489 415.16,642.83C414.98,643.15 414.87,643.51 414.67,643.83C414.27,644.4 413.57,644.68 413.07,645.16C412.57,645.64 412.27,646.39 411.73,646.88C410.988,647.427 410.116,647.772 409.2,647.88C407.808,648.194 406.464,648.688 405.2,649.35C404.737,649.627 404.244,649.848 403.73,650.01C403.16,650.095 402.58,650.095 402.01,650.01L398.07,649.73C397.739,649.676 397.401,649.676 397.07,649.73C396.245,650.028 395.726,650.858 395.82,651.73C395.914,652.582 396.37,653.355 397.07,653.85C397.754,654.342 398.51,654.726 399.31,654.99C402.74,656.282 406.273,657.285 409.87,657.99L409.87,658.77C412.375,660 415.129,660.639 417.92,660.64C418.125,660.652 418.33,660.618 418.52,660.54C418.775,660.349 418.953,660.072 419.02,659.76C419.968,656.998 420.523,654.116 420.67,651.2C420.734,650.459 420.677,649.712 420.5,648.99C420.28,648.28 421.02,648.58 420.34,648.3" style="fill:rgb(47,46,65);fill-rule:nonzero;"/>
    </g>
    <g transform="matrix(0.692897,0,0,0.692897,-6.523,-39.4704)">
        <path d="M495.93,633.54C484.25,634.24 472.71,630.82 461.01,630.46C459.558,630.364 458.099,630.455 456.67,630.73C455.182,631.134 453.74,631.693 452.37,632.4C446.1,635.32 439.61,637.74 433.13,640.15L425.68,642.92C424.231,643.574 422.66,643.915 421.07,643.92C420.36,643.92 419.49,643.77 419.07,644.36C417.86,646.16 418.43,648.79 419.23,650.81C419.49,651.46 419.93,652.17 420.63,652.24C421.121,652.207 421.602,652.085 422.05,651.88C423.4,651.52 424.75,652.43 426.15,652.58C427.87,652.76 429.47,651.78 431.1,651.18C433.8,650.18 436.74,650.18 439.58,649.74C444.33,648.95 448.74,646.74 452.86,644.23C454.358,643.162 456.034,642.37 457.81,641.89C459.914,641.642 462.046,641.885 464.04,642.6C468.886,643.967 473.656,645.59 478.33,647.46C480.76,648.518 483.251,649.429 485.79,650.19C491.331,651.64 497.191,651.289 502.52,649.19C504.39,648.45 506.42,647.19 506.52,645.13C506.59,643.98 505.69,642.97 505.1,641.98C504.72,641.35 504.33,640.72 503.92,640.11C501.92,637.21 499.48,633.33 495.93,633.54Z" style="fill:rgb(47,46,65);fill-rule:nonzero;"/>
    </g>
    <g transform="matrix(0.692897,0,0,0.692897,-6.523,-39.4704)">
        <path d="M495.93,633.54C484.25,634.24 472.71,630.82 461.01,630.46C459.558,630.364 458.099,630.455 456.67,630.73C455.182,631.134 453.74,631.693 452.37,632.4C446.1,635.32 439.61,637.74 433.13,640.15L425.68,642.92C424.231,643.574 422.66,643.915 421.07,643.92C420.36,643.92 419.49,643.77 419.07,644.36C417.86,646.16 418.43,648.79 419.23,650.81C419.49,651.46 419.93,652.17 420.63,652.24C421.121,652.207 421.602,652.085 422.05,651.88C423.4,651.52 424.75,652.43 426.15,652.58C427.87,652.76 429.47,651.78 431.1,651.18C433.8,650.18 436.74,650.18 439.58,649.74C444.33,648.95 448.74,646.74 452.86,644.23C454.358,643.162 456.034,642.37 457.81,641.89C459.914,641.642 462.046,641.885 464.04,642.6C468.886,643.967 473.656,645.59 478.33,647.46C480.76,648.518 483.251,649.429 485.79,650.19C491.331,651.64 497.191,651.289 502.52,649.19C504.39,648.45 506.42,647.19 506.52,645.13C506.59,643.98 505.69,642.97 505.1,641.98C504.72,641.35 504.33,640.72 503.92,640.11C501.92,637.21 499.48,633.33 495.93,633.54Z" style="fill-opacity:0.1;fill-rule:nonzero;"/>
    </g>
    <g transform="matrix(0.692897,0,0,0.692897,-6.523,-39.4704)">
        <path d="M436.92,646C438.747,646.62 440.59,647.193 442.45,647.72C443.45,646.01 445.45,644.82 445.88,642.86C445.905,642.775 445.905,642.685 445.88,642.6C445.831,642.517 445.758,642.451 445.67,642.41C444.333,641.676 442.852,641.242 441.33,641.14C440.13,641.07 439.58,642.32 439.04,643.2C438.83,643.59 437.41,646.19 436.92,646Z" style="fill:rgb(251,190,190);fill-rule:nonzero;"/>
    </g>
    <g transform="matrix(0.692897,0,0,0.692897,-6.523,-39.4704)">
        <path d="M439.48,644.78C438.375,644.593 437.399,643.95 436.79,643.01C436.54,642.56 436.26,641.95 435.74,642.01C435.22,642.07 435.05,642.61 434.94,643.08C434.594,644.852 434.088,646.589 433.43,648.27C432.77,649.96 431.651,651.432 430.2,652.52C429.52,652.99 428.77,653.34 428.1,653.84C427.545,654.331 426.954,654.779 426.33,655.18C425.889,655.378 425.434,655.545 424.97,655.68C424.287,655.937 423.636,656.273 423.03,656.68C422.491,656.99 422.034,657.425 421.7,657.95C421.364,658.483 421.327,659.153 421.6,659.72C421.883,660.185 422.354,660.506 422.89,660.6C423.424,660.68 423.966,660.68 424.5,660.6C426.63,660.45 428.76,660.26 430.89,660.07C431.788,660.012 432.68,659.888 433.56,659.7L434.95,659.32C435.744,659.11 436.559,658.989 437.38,658.96C437.619,658.938 437.86,658.962 438.09,659.03C438.58,659.19 438.93,659.68 439.44,659.78C439.779,659.813 440.121,659.768 440.44,659.65C441.994,659.317 443.58,659.153 445.17,659.16C445.87,659.16 446.69,658.98 447.01,658.36C447.41,657.58 446.75,656.71 446.48,655.87C446.351,655.336 446.277,654.789 446.26,654.24C446.141,652.88 445.742,651.559 445.09,650.36C444.55,649.36 443.81,648.26 444.19,647.2C444.379,646.863 444.501,646.493 444.55,646.11C444.4,644.39 440.46,645 439.48,644.78Z" style="fill:rgb(47,46,65);fill-rule:nonzero;"/>
    </g>
    <g transform="matrix(0.692897,0,0,0.692897,-6.523,-39.4704)">
        <path d="M478.42,614.8C476.348,613.892 474.686,612.244 473.76,610.18C473.57,609.74 473.41,609.27 473.22,608.83C472.61,607.34 471.657,606.014 470.44,604.96C470.18,604.685 469.818,604.529 469.44,604.53C469.062,604.644 468.775,604.955 468.69,605.34C468.578,605.747 468.551,606.172 468.61,606.59C468.712,607.573 468.879,608.549 469.11,609.51L469.68,612.09C469.756,612.485 469.873,612.87 470.03,613.24C470.274,613.672 470.596,614.056 470.98,614.37C471.5,614.85 472.03,615.31 472.56,615.77C472.866,616.037 473.202,616.268 473.56,616.46C474.119,616.726 474.716,616.902 475.33,616.98C477.716,617.291 479.993,618.169 481.97,619.54C483.947,620.911 481.97,617.81 481.97,617.62C481.945,617.117 481.771,616.634 481.47,616.23C480.554,615.563 479.519,615.077 478.42,614.8Z" style="fill:rgb(251,190,190);fill-rule:nonzero;"/>
    </g>
    <g transform="matrix(0.692897,0,0,0.692897,-6.523,-39.4704)">
        <path d="M478.42,614.8C476.348,613.892 474.686,612.244 473.76,610.18C473.57,609.74 473.41,609.27 473.22,608.83C472.61,607.34 471.657,606.014 470.44,604.96C470.18,604.685 469.818,604.529 469.44,604.53C469.062,604.644 468.775,604.955 468.69,605.34C468.578,605.747 468.551,606.172 468.61,606.59C468.712,607.573 468.879,608.549 469.11,609.51L469.68,612.09C469.756,612.485 469.873,612.87 470.03,613.24C470.274,613.672 470.596,614.056 470.98,614.37C471.5,614.85 472.03,615.31 472.56,615.77C472.866,616.037 473.202,616.268 473.56,616.46C474.119,616.726 474.716,616.902 475.33,616.98C477.716,617.291 479.993,618.169 481.97,619.54C483.947,620.911 481.97,617.81 481.97,617.62C481.945,617.117 481.771,616.634 481.47,616.23C480.554,615.563 479.519,615.077 478.42,614.8Z" style="fill-opacity:0.1;fill-rule:nonzero;"/>
    </g>
    <g transform="matrix(0.692897,0,0,0.692897,29.5076,73.2155)">
        <ellipse cx="450.2" cy="429.57" rx="2.84" ry="2.86" style="fill:rgb(47,46,65);"/>
    </g>
    <g transform="matrix(0.692897,0,0,0.692897,-6.523,-39.4704)">
        <path d="M500.44,590.48C499.68,590.298 498.878,590.412 498.2,590.8C497.872,591.092 497.61,591.45 497.43,591.85C496.794,592.944 496.297,594.113 495.95,595.33C495.7,596.33 495.66,597.46 495.34,598.49C494.76,600.39 493.27,602 493.1,603.98C493.02,604.87 493.17,605.91 492.52,606.51C492.361,606.648 492.19,606.771 492.01,606.88C491.56,607.18 491.178,607.572 490.89,608.03C490.694,608.438 490.427,608.807 490.1,609.12C489.52,609.55 488.56,609.51 488.28,610.12C488,610.73 488.73,611.56 488.56,612.28C488.39,613 487.76,613.14 487.31,613.54C486.78,614.1 486.407,614.79 486.23,615.54C484.308,615.91 482.316,615.416 480.79,614.19C481.45,616.194 481.738,618.302 481.64,620.41C481.74,621.091 481.56,621.784 481.14,622.33C483.396,622.498 485.63,622.886 487.81,623.49C488.754,623.805 489.776,623.805 490.72,623.49C491.226,623.219 491.679,622.86 492.06,622.43C493.26,621.21 494.52,619.88 494.81,618.19C494.882,617.235 494.899,616.277 494.86,615.32C494.974,614.133 495.219,612.963 495.59,611.83C496.223,609.479 496.648,607.076 496.86,604.65C496.99,603.15 498.29,601.95 498.97,600.65C500.25,598.12 501.57,595.49 501.66,592.65C501.7,591.73 501.38,590.58 500.44,590.48Z" style="fill:rgb(47,46,65);fill-rule:nonzero;"/>
    </g>
    <g transform="matrix(0.692897,0,0,0.692897,-6.523,-39.4704)">
        <path d="M500.44,590.48C499.68,590.298 498.878,590.412 498.2,590.8C497.872,591.092 497.61,591.45 497.43,591.85C496.794,592.944 496.297,594.113 495.95,595.33C495.7,596.33 495.66,597.46 495.34,598.49C494.76,600.39 493.27,602 493.1,603.98C493.02,604.87 493.17,605.91 492.52,606.51C492.361,606.648 492.19,606.771 492.01,606.88C491.56,607.18 491.178,607.572 490.89,608.03C490.694,608.438 490.427,608.807 490.1,609.12C489.52,609.55 488.56,609.51 488.28,610.12C488,610.73 488.73,611.56 488.56,612.28C488.39,613 487.76,613.14 487.31,613.54C486.78,614.1 486.407,614.79 486.23,615.54C484.308,615.91 482.316,615.416 480.79,614.19C481.45,616.194 481.738,618.302 481.64,620.41C481.74,621.091 481.56,621.784 481.14,622.33C483.396,622.498 485.63,622.886 487.81,623.49C488.754,623.805 489.776,623.805 490.72,623.49C491.226,623.219 491.679,622.86 492.06,622.43C493.26,621.21 494.52,619.88 494.81,618.19C494.882,617.235 494.899,616.277 494.86,615.32C494.974,614.133 495.219,612.963 495.59,611.83C496.223,609.479 496.648,607.076 496.86,604.65C496.99,603.15 498.29,601.95 498.97,600.65C500.25,598.12 501.57,595.49 501.66,592.65C501.7,591.73 501.38,590.58 500.44,590.48Z" style="fill-opacity:0.1;fill-rule:nonzero;"/>
    </g>
    <g transform="matrix(0.692897,0,0,0.692897,-6.523,-39.4704)">
        <path d="M497.78,636C495.35,634.84 493.57,632.69 491.6,630.84C487.85,627.31 483.26,624.84 479.31,621.51C476.69,619.32 474.31,616.77 471.48,614.93C468.945,613.323 466.074,612.32 463.09,612C462.761,611.924 462.419,611.924 462.09,612C461.712,612.161 461.384,612.42 461.14,612.75C459.865,614.189 458.73,615.746 457.75,617.4C452.75,625.9 445.64,633.04 439.75,640.94C439.615,641.104 439.516,641.295 439.46,641.5C439.435,641.806 439.513,642.112 439.68,642.37L440.88,644.71C441.55,646.03 442.63,647.56 444.07,647.3C444.718,647.112 445.299,646.741 445.74,646.23L451.12,641.08L456.76,635.69C460.06,632.54 463.42,629.31 465.58,625.27C467.26,628.19 470.25,630.1 472.29,632.77C473.07,633.77 473.71,634.9 474.41,635.98C475.52,637.7 476.79,639.32 478.05,640.98L484.52,649.23C485.34,650.395 486.355,651.41 487.52,652.23C489.115,653.098 490.894,653.575 492.71,653.62C495.14,653.837 497.58,653.923 500.02,653.88C501.888,653.955 503.75,653.614 505.47,652.88C507.217,652.112 508.369,650.398 508.42,648.49C508.32,647.521 508.002,646.588 507.49,645.76C505.15,641.59 502.13,638.07 497.78,636Z" style="fill:rgb(47,46,65);fill-rule:nonzero;"/>
    </g>
    <g transform="matrix(0.692897,0,0,0.692897,29.5076,73.2155)">
        <ellipse cx="451.95" cy="431.55" rx="2.19" ry="2.2" style="fill:rgb(232,232,240);"/>
    </g>
    <g transform="matrix(0.692897,0,0,0.692897,-6.523,-39.4704)">
        <path d="M503.47,592.53C503.958,593.512 504.045,594.646 503.71,595.69C503.365,596.716 502.891,597.693 502.3,598.6C501.792,599.534 501.178,600.406 500.47,601.2C503.85,601.36 507.12,600.04 510.09,598.44C512.49,597.15 514.88,595.56 516.16,593.15C515.388,593.334 514.573,593.181 513.92,592.73C513.275,592.286 512.699,591.751 512.21,591.14L510.52,589.24C510.137,588.822 509.801,588.363 509.52,587.87C509.149,587.196 508.992,586.425 509.07,585.66C508.396,586.363 507.645,586.987 506.83,587.52C505.62,588.31 504.29,588.88 503.07,589.66C502.65,589.94 501.69,590.38 501.94,590.94C502.19,591.5 503.13,591.93 503.47,592.53Z" style="fill:rgb(251,190,190);fill-rule:nonzero;"/>
    </g>
    <g transform="matrix(0.692897,0,0,0.692897,-6.523,-39.4704)">
        <path d="M503.47,592.53C503.958,593.512 504.045,594.646 503.71,595.69C503.365,596.716 502.891,597.693 502.3,598.6C501.792,599.534 501.178,600.406 500.47,601.2C503.85,601.36 507.12,600.04 510.09,598.44C512.49,597.15 514.88,595.56 516.16,593.15C515.388,593.334 514.573,593.181 513.92,592.73C513.275,592.286 512.699,591.751 512.21,591.14L510.52,589.24C510.137,588.822 509.801,588.363 509.52,587.87C509.149,587.196 508.992,586.425 509.07,585.66C508.396,586.363 507.645,586.987 506.83,587.52C505.62,588.31 504.29,588.88 503.07,589.66C502.65,589.94 501.69,590.38 501.94,590.94C502.19,591.5 503.13,591.93 503.47,592.53Z" style="fill-opacity:0.1;fill-rule:nonzero;"/>
    </g>
    <g transform="matrix(0.692897,0,0,0.692897,-6.523,-39.4704)">
        <path d="M503.51,592.86C502.81,593.846 502.81,595.174 503.51,596.16C503.61,596.28 503.97,597.03 504.12,597.04C504.268,597.028 504.406,596.955 504.5,596.84C505.269,596.038 505.984,595.186 506.64,594.29C507.31,593.396 508.273,592.766 509.36,592.51C510.707,592.459 512.031,592.872 513.11,593.68C513.612,593.909 514.053,594.251 514.4,594.68C514.641,595.121 514.785,595.609 514.82,596.11C515.147,599.128 515.274,602.165 515.2,605.2C515.257,607.392 515.114,609.584 514.77,611.75C514.55,612.86 514.23,613.95 514.08,615.08C513.963,616.075 513.916,617.078 513.94,618.08L513.94,622.26C513.913,623.027 513.967,623.794 514.1,624.55C514.3,625.46 514.73,626.31 515.02,627.2C515.319,628.222 515.523,629.27 515.63,630.33L516.2,634.65C516.38,636.01 516.52,637.5 515.69,638.65C515.32,639.14 514.83,639.54 514.45,640.03C513.04,641.87 513.45,644.5 512.9,646.75C512.437,648.397 511.48,649.863 510.16,650.95C509.207,651.893 507.884,652.365 506.55,652.24C504.79,651.91 503.74,650.08 503.26,648.35C502.78,646.62 502.61,644.74 501.57,643.28C500.616,642.175 499.487,641.233 498.23,640.49C496.958,639.736 496.023,638.522 495.62,637.1C495.51,636.47 495.62,635.82 495.51,635.18C495.319,633.542 494.247,632.132 492.72,631.51C491.82,631.16 490.72,631.03 490.2,630.21C491.487,629.404 492.426,628.144 492.83,626.68C493.228,625.226 493.443,623.727 493.47,622.22L493.77,617.22C493.91,614.97 493.97,612.75 494.96,610.73C495.4,609.83 495.96,608.98 496.41,608.09C497.02,606.839 497.538,605.546 497.96,604.22C498.68,602.16 499.4,600.1 500.04,598.02C500.29,597.01 500.673,596.038 501.18,595.13C501.72,594.19 502.5,593.06 503.51,592.86Z" style="fill:rgb(232,232,240);fill-rule:nonzero;"/>
    </g>
    <g transform="matrix(0.692897,0,0,0.692897,-6.523,-39.4704)">
        <path d="M492.36,625.5L493.69,625.5L493.97,623.5C494.006,623.099 494.101,622.704 494.25,622.33C494.47,621.933 494.728,621.557 495.02,621.21C496.32,619.36 496.23,616.91 496.55,614.66C497.13,611.687 498.112,608.807 499.47,606.1L502.05,600.35C502.285,599.88 502.472,599.387 502.61,598.88C502.718,598.32 502.772,597.751 502.77,597.18C502.77,596.29 503.05,593.05 503.08,592.18C503.08,591.85 502.35,592.03 502.2,591.74C501.88,591.1 501.44,592.83 500.83,593.21C500.257,593.647 499.84,594.257 499.64,594.95C499.08,596.39 498.74,597.95 498.22,599.38C497.768,600.872 496.938,602.223 495.81,603.3C495.28,603.76 494.67,604.13 494.17,604.63C492.57,606.21 492.41,608.72 492.36,610.98C492.32,612.36 492.06,625.5 492.36,625.5Z" style="fill:rgb(47,46,65);fill-rule:nonzero;"/>
    </g>
    <g transform="matrix(0.692897,0,0,0.692897,-6.523,-39.4704)">
        <path d="M511.5,590.47C510.248,591.125 509.371,592.328 509.13,593.72C508.902,595.099 508.498,596.443 507.93,597.72C506.31,600.54 502.18,601.36 501.03,604.41C500.741,605.436 500.586,606.495 500.57,607.56C500.37,609.75 499.65,611.86 499.43,614.04C499.32,615.737 499.36,617.44 499.55,619.13L501,636.35C501.278,638.883 501.132,641.445 500.57,643.93C502.056,644.142 503.572,643.89 504.91,643.21C506.26,642.59 507.5,641.74 508.81,641.02C511.05,639.78 513.53,638.91 515.5,637.26C515.853,636.979 516.157,636.641 516.4,636.26C516.701,635.537 516.903,634.777 517,634C517.17,633.391 517.388,632.796 517.65,632.22C518.372,630.482 518.999,628.706 519.53,626.9C519.891,625.705 520.178,624.49 520.39,623.26C520.55,622.26 520.64,621.26 520.72,620.26C520.824,618.709 521.134,617.179 521.64,615.71C522.895,612.199 523.606,608.516 523.75,604.79C523.789,604.254 523.752,603.715 523.64,603.19C523.42,602.547 523.125,601.933 522.76,601.36C522.16,600.23 521.76,598.99 521.24,597.84C519.822,595.307 517.789,593.172 515.33,591.63C514.17,590.84 512.81,590 511.5,590.47Z" style="fill:rgb(47,46,65);fill-rule:nonzero;"/>
    </g>
    <g transform="matrix(0.692897,0,0,0.692897,-6.523,-39.4704)">
        <path d="M481.29,618.57C480.264,618.031 479.334,617.325 478.54,616.48C478.18,616.06 477.88,615.59 477.54,615.17C476.613,614.172 475.407,613.476 474.08,613.17C472.767,612.881 471.424,612.75 470.08,612.78C469.178,612.719 468.272,612.828 467.41,613.1C466.537,613.392 465.87,614.109 465.64,615C465.566,616.105 466.08,617.17 466.99,617.8C467.771,618.441 468.693,618.886 469.68,619.1C470.484,619.243 471.295,619.34 472.11,619.39C476.89,619.89 481.16,622.49 485.35,624.86C489.03,626.953 492.783,628.9 496.61,630.7C496.758,629.556 496.822,628.403 496.8,627.25C496.8,626.39 496.73,625.07 495.92,624.56C494.768,624.078 493.568,623.719 492.34,623.49C489.872,622.684 487.463,621.708 485.13,620.57C483.81,620 482.54,619.3 481.29,618.57Z" style="fill:rgb(251,190,190);fill-rule:nonzero;"/>
    </g>
    <g transform="matrix(0.692897,0,0,0.692897,29.5076,73.2155)">
        <ellipse cx="450.2" cy="420.35" rx="8.52" ry="8.57" style="fill:rgb(251,190,190);"/>
    </g>
    <g transform="matrix(0.692897,0,0,0.692897,-6.523,-39.4704)">
        <path d="M513.93,600.18C513.25,601.135 512.695,602.173 512.28,603.27C511.28,605.43 509.58,607.27 508.75,609.56C507.92,611.85 507.91,614.79 506.2,616.66C505.858,616.946 505.599,617.319 505.45,617.74C505.443,618.002 505.416,618.262 505.37,618.52C505.12,619.2 504.01,619.23 503.8,619.93C503.74,620.13 503.8,620.35 503.7,620.55C503.53,621 502.93,621.07 502.54,621.34C501.71,621.9 501.88,623.2 501.29,624.01C500.767,624.623 499.952,624.91 499.16,624.76C498.384,624.602 497.638,624.322 496.95,623.93C496.703,623.795 496.431,623.71 496.15,623.68C495.818,623.692 495.497,623.803 495.23,624C493.7,625.127 492.834,626.952 492.93,628.85C493.045,630.724 493.492,632.563 494.25,634.28C494.334,634.577 494.481,634.854 494.68,635.09C495.288,635.567 496.128,635.63 496.8,635.25C497.452,634.862 498.147,634.55 498.87,634.32C500.19,634.08 501.48,634.99 502.82,634.91C503.796,634.766 504.715,634.362 505.48,633.74C506.826,632.937 508.034,631.924 509.06,630.74C509.64,629.97 510.06,629.1 510.58,628.28C511.242,627.283 511.959,626.325 512.73,625.41L517.65,619.41C518.139,618.84 518.58,618.231 518.97,617.59C519.407,616.714 519.743,615.792 519.97,614.84C520.496,613.255 520.832,611.614 520.97,609.95C521,608.574 520.88,607.199 520.61,605.85C520.461,604.506 520.124,603.19 519.61,601.94C518.54,599.68 515.94,597.84 513.93,600.18Z" style="fill:rgb(47,46,65);fill-rule:nonzero;"/>
    </g>
    <g transform="matrix(0.692897,0,0,0.692897,-6.523,-39.4704)">
        <path d="M531.05,589C531.065,585.921 529.597,583.015 527.11,581.2C527.027,575.65 522.907,570.926 517.42,570.09C516.387,564.937 511.821,561.195 506.566,561.195C501.089,561.195 496.394,565.26 495.61,570.68C492.07,569.88 488.83,570.92 488.24,573.1C487.65,575.28 490.15,578.1 493.88,579.1C495.057,579.43 496.282,579.551 497.5,579.46C499.255,582.046 502.025,583.773 505.12,584.21C506.044,588.408 509.272,591.737 513.44,592.79C514.01,594.156 514.89,595.372 516.01,596.34L516.01,597.17C516.01,601.125 519.265,604.38 523.22,604.38C527.175,604.38 530.43,601.125 530.43,597.17C530.431,596.07 530.195,594.982 529.74,593.98C530.62,592.47 531.073,590.748 531.05,589Z" style="fill:rgb(248,109,112);fill-rule:nonzero;"/>
    </g>
    <g transform="matrix(0.692897,0,0,0.692897,-6.523,-39.4704)">
        <path d="M490.64,573.56C491.23,571.38 494.47,570.34 498.01,571.14C498.873,565.744 503.546,561.718 509.01,561.66L509.74,561.66C508.722,561.35 507.664,561.192 506.6,561.19C501.136,561.248 496.463,565.274 495.6,570.67C492.06,569.87 488.82,570.91 488.23,573.09C487.64,575.27 490.14,578.09 493.87,579.09C494.569,579.284 495.286,579.408 496.01,579.46C492.44,578.39 490.05,575.79 490.64,573.56Z" style="fill-opacity:0.1;fill-rule:nonzero;"/>
    </g>
    <g transform="matrix(0.692897,0,0,0.692897,-6.523,-39.4704)">
        <path d="M518.37,597.59C518.355,597.317 518.355,597.043 518.37,596.77C517.244,595.807 516.363,594.59 515.8,593.22C511.626,592.172 508.394,588.835 507.48,584.63C504.382,584.202 501.607,582.478 499.85,579.89C499.14,579.949 498.426,579.929 497.72,579.83C499.488,582.208 502.136,583.782 505.07,584.2C505.994,588.398 509.222,591.727 513.39,592.78C513.96,594.146 514.84,595.362 515.96,596.33L515.96,597.16C515.893,601.168 519.122,604.528 523.13,604.62C520.241,603.499 518.339,600.689 518.37,597.59Z" style="fill-opacity:0.1;fill-rule:nonzero;"/>
    </g>
    <g transform="matrix(0.551767,-0.419118,0.419118,0.551767,-180.315,254.72)">
        <ellipse cx="505.04" cy="584.74" rx="1.31" ry="1.75" style="fill:rgb(251,190,190);"/>
    </g>
    <defs>
        <linearGradient id="_Linear1" x1="0" y1="0" x2="1" y2="0" gradientUnits="userSpaceOnUse" gradientTransform="matrix(1.05393e-14,-172.12,172.12,1.05393e-14,819.07,732.58)"><stop offset="0" style="stop-color:rgb(128,128,128);stop-opacity:0.25"/><stop offset="0.54" style="stop-color:rgb(128,128,128);stop-opacity:0.12"/><stop offset="1" style="stop-color:rgb(128,128,128);stop-opacity:0.1"/></linearGradient>
        <linearGradient id="_Linear2" x1="0" y1="0" x2="1" y2="0" gradientUnits="userSpaceOnUse" gradientTransform="matrix(6.18385e-15,-100.99,100.99,6.18385e-15,462.91,660.68)"><stop offset="0" style="stop-color:rgb(128,128,128);stop-opacity:0.25"/><stop offset="0.54" style="stop-color:rgb(128,128,128);stop-opacity:0.12"/><stop offset="1" style="stop-color:rgb(128,128,128);stop-opacity:0.1"/></linearGradient>
    </defs>
</svg>
