<svg id="Layer_1" data-name="Layer 1" xmlns="http://www.w3.org/2000/svg" viewBox="0 0 25 25"><defs><style>.cls-1{fill:#5e35b1;}</style></defs><title>Delete</title><path class="cls-1" d="M19.8,27H9.2a3,3,0,0,1-3-2.7L4.51,7.1A1,1,0,0,1,5.4,6H23.5a1,1,0,0,1,1,1v.1L22.78,24.3A3,3,0,0,1,19.8,27ZM6.6,8,8.21,24.1a1,1,0,0,0,1,.9H19.8a1,1,0,0,0,1-.9L22.4,8Z" transform="translate(-2 -2)"/><path class="cls-1" d="M26,8H3A1,1,0,0,1,3,6H26a1,1,0,0,1,0,2Z" transform="translate(-2 -2)"/><path class="cls-1" d="M14.5,23a1,1,0,0,1-1-1V11a1,1,0,0,1,2,0V22A1,1,0,0,1,14.5,23Z" transform="translate(-2 -2)"/><path class="cls-1" d="M11,23a1,1,0,0,1-1-.91l-1-11A1,1,0,0,1,9.91,10a1,1,0,0,1,1.09.91l1,11A1,1,0,0,1,11.09,23Z" transform="translate(-2 -2)"/><path class="cls-1" d="M18,23a1,1,0,0,1-1-1v-.09l1-11a1,1,0,1,1,2,.18l-1,11A1,1,0,0,1,18,23Z" transform="translate(-2 -2)"/><path class="cls-1" d="M19,8H10A1,1,0,0,1,9,7V3a1,1,0,0,1,1-1h9a1,1,0,0,1,1,1V7A1,1,0,0,1,19,8ZM11,6h7V4H11Z" transform="translate(-2 -2)"/></svg>