<svg id="Warstwa_1" data-name="Warstwa 1" xmlns="http://www.w3.org/2000/svg" viewBox="0 0 1784 1408"><defs><style>.cls-1{fill:#5e35b1;}</style></defs><title>Edit</title><path class="cls-1" d="M888,1184l116-116L852,916,736,1032v56h96v96Zm440-720q-16-16-33,1L945,815q-17,17-1,33t33-1l350-350Q1344,480,1328,464Zm80,594v190q0,119-84.5,203.5T1120,1536H288q-119,0-203.5-84.5T0,1248V416Q0,297,84.5,212.5T288,128h832q63,0,117,25,15,7,18,23,3,17-9,29l-49,49q-14,14-32,8a177.83,177.83,0,0,0-45-6H288q-66,0-113,47T128,416v832q0,66,47,113t113,47h832q66,0,113-47t47-113V1122a29.92,29.92,0,0,1,9-22l64-64q15-15,35-7T1408,1058Zm-96-738,288,288L928,1280H640V992Zm444,132-92,92L1376,256l92-92q28-28,68-28t68,28l152,152q28,28,28,68T1756,452Z" transform="translate(0 -128)"/></svg>