<?xml version="1.0" encoding="UTF-8" standalone="no"?>
<!DOCTYPE svg PUBLIC "-//W3C//DTD SVG 1.1//EN" "http://www.w3.org/Graphics/SVG/1.1/DTD/svg11.dtd">
<svg width="100%" height="100%" viewBox="0 0 52 52" version="1.1" xmlns="http://www.w3.org/2000/svg" xmlns:xlink="http://www.w3.org/1999/xlink" xml:space="preserve" xmlns:serif="http://www.serif.com/" style="fill-rule:evenodd;clip-rule:evenodd;stroke-linejoin:round;stroke-miterlimit:2;">
    <path d="M43.334,41.697C39.824,48.477 31.214,49.927 30.844,49.987C30.794,49.997 30.734,49.997 30.684,49.997C30.624,49.997 30.564,49.987 30.504,49.977C30.464,49.977 30.424,49.967 30.384,49.947C30.31,49.936 30.241,49.905 30.184,49.857C30.134,49.827 30.084,49.797 30.044,49.757C30.001,49.736 29.963,49.705 29.934,49.667C29.924,49.657 29.914,49.647 29.914,49.637C29.804,49.497 29.734,49.337 29.704,49.177C29.694,49.167 29.694,49.167 29.694,49.157C29.684,49.107 29.684,49.057 29.684,49.007C29.684,48.947 29.694,48.887 29.704,48.827C29.704,48.787 29.724,48.737 29.734,48.687C29.744,48.667 29.744,48.657 29.744,48.647C29.774,48.597 29.794,48.547 29.824,48.507C29.854,48.457 29.884,48.407 29.924,48.367C29.944,48.327 29.984,48.287 30.024,48.257L30.054,48.227C36.874,42.147 35.294,36.457 35.224,36.217C35.194,36.147 35.184,36.067 35.174,35.997C34.854,30.977 30.914,25.377 28.434,22.327C27.964,27.067 25.034,34.197 24.294,35.927C24.104,36.377 23.614,36.617 23.154,36.517C22.683,36.411 22.353,35.979 22.374,35.497C22.434,33.927 21.164,31.837 20.044,30.347C19.544,31.607 18.584,33.557 16.764,36.647C15.954,38.027 15.484,39.437 15.374,40.817C14.984,45.787 18.184,47.617 18.984,47.987C19.094,48.037 19.154,48.057 19.164,48.057C19.314,48.117 19.444,48.197 19.544,48.317C19.584,48.347 19.614,48.387 19.644,48.427C19.694,48.517 19.744,48.607 19.764,48.697C19.824,48.847 19.834,49.007 19.804,49.167C19.794,49.227 19.774,49.287 19.754,49.347C19.644,49.647 19.404,49.867 19.114,49.947C19.064,49.967 19.014,49.977 18.964,49.987C18.914,49.997 18.864,49.997 18.814,49.997C18.704,49.997 18.584,49.977 18.474,49.937L18.454,49.937C13.174,47.887 9.704,44.777 8.154,40.697C5.774,34.447 8.624,27.707 9.954,25.097C10.624,23.797 11.484,22.477 12.664,20.937C19.174,12.447 20.954,2.917 20.974,2.827C21.034,2.457 21.304,2.157 21.664,2.047C22.014,1.937 22.404,2.037 22.674,2.297C28.244,7.997 32.594,12.557 35.584,15.857C38.224,18.767 40.354,21.847 41.914,25.037C45.154,31.647 45.634,37.247 43.334,41.697Z" style="fill:rgb(50,28,145);fill-rule:nonzero;"/>
</svg>
