<?xml version="1.0" encoding="utf-8"?>
<!-- Generator: Adobe Illustrator 23.0.3, SVG Export Plug-In . SVG Version: 6.00 Build 0)  -->
<svg version="1.1" id="Layer_2" xmlns="http://www.w3.org/2000/svg" xmlns:xlink="http://www.w3.org/1999/xlink" x="0px" y="0px"
	 viewBox="0 0 1080 1080" style="enable-background:new 0 0 1080 1080;" xml:space="preserve">
<style type="text/css">
	.st0{fill:#CCE9FF;}
	.st1{fill:#F7F7F7;}
	.st2{fill:#CCEEFF;}
	.st3{fill:#B6EAFF;}
	.st4{fill:#B0E1FF;}
	.st5{fill:#F2F2F2;}
	.st6{fill:none;stroke:#FFBE55;stroke-miterlimit:10;}
	.st7{fill:#2A94F4;}
	.st8{fill:#FCD2B1;}
	.st9{fill:#1D87D6;}
	.st10{fill:#0B4870;}
	.st11{fill:#083751;}
	.st12{fill:#FFE3CA;}
	.st13{fill:#FFBE55;}
	.st14{fill:#2286D1;}
	.st15{fill:#49B0FC;}
	.st16{fill:#FFE4D2;}
	.st17{fill:none;stroke:#FFBE55;stroke-width:0.75;stroke-miterlimit:10;}
	.st18{fill:none;stroke:#CCE9FF;stroke-miterlimit:10;stroke-dasharray:12,14;}
	.st19{fill:#0E538C;}
	.st20{fill:none;stroke:#F7F7F7;stroke-miterlimit:10;}
</style>
<g>
	<path class="st0" d="M1020.8,320.8c-13.6-23.1-35.5-41.3-60.8-50.2c-10.9-3.8-24-5.6-32.9,1.7c-8.9,7.3-5.8,26,5.7,25.7
		c-35.5-24.6-78.3-38.5-121.5-39.6c-10.8-0.3-23.1,0.9-29.9,9.3c-6.9,8.4-1.1,25,9.5,23.1c-32.6-20.9-75.6-14.5-112.1-1.5
		c-10.6,3.8-21.1,8-31.6,12.2c-11.5,4.6-8.1,21.7,4.3,21.6L1020.8,320.8z"/>
</g>
<g>
	<path class="st0" d="M93.1,201.6c-13.6,3.3-27.4-8-24.5-17.5c2.9-9.5,16.1-16,29.4-19.9c30.1-8.8,65.8-8.7,95.8,0.3
		c-7-3.6-6.4-11.2-0.9-15.7c5.6-4.5,14.5-6.5,23.1-7.6c41-5.2,85.9,6.8,110,29.6c-7.9-5.6-3.6-15.6,5.9-19.8s22.1-4.2,33.4-2.8
		c48.6,5.8,89.8,23.5,99.1,55.9L93.1,201.6z"/>
</g>
<g>
	<path class="st1" d="M71,959.6c39.1-75.2,82.1-148.4,128.8-219.1c18.8-28.5,40-58.1,71.6-71.2c27.7-11.5,60.1-8.1,87.4,4.5
		c27.2,12.6,49.8,33.7,68.5,57.2c16.1,20.1,33.3,44.3,59,46.4c27.4,2.3,49.1-21.7,66-43.5c55.5-71.5,111-143.1,166.5-214.6
		c18.4-23.7,41.1-49.6,71-49.5c26.8,0.1,48.5,21.3,65.2,42.3C953,635,991.2,793.7,1026.7,946.7L71,959.6z"/>
</g>
<g>
	<circle class="st2" cx="977.4" cy="745.5" r="71.6"/>
	<g>
		<g>
			<path class="st3" d="M977,943.1c-1.1-0.2-1.8-1.2-1.8-2.3V767.5c0-1.2,0.9-2.3,2.1-2.3c1.3-0.1,2.3,0.9,2.3,2.2v173.6
				C979.6,942.3,978.4,943.4,977,943.1z"/>
		</g>
		<g>
			<path class="st3" d="M977.4,781.9c-0.6,0-1.1-0.2-1.6-0.6c-0.9-0.9-0.9-2.3,0-3.1l19.6-19.6c0.9-0.9,2.3-0.9,3.1,0
				c0.9,0.9,0.9,2.3,0,3.1L979,781.3C978.5,781.7,978,781.9,977.4,781.9z"/>
		</g>
		<g>
			<path class="st3" d="M977.4,800.1c-0.6,0-1.1-0.2-1.6-0.6c-0.9-0.9-0.9-2.3,0-3.1l19.6-19.6c0.9-0.9,2.3-0.9,3.1,0
				c0.9,0.9,0.9,2.3,0,3.1L979,799.5C978.5,799.9,978,800.1,977.4,800.1z"/>
		</g>
	</g>
</g>
<g>
	<g>
		<circle class="st4" cx="155.5" cy="714.8" r="110.9"/>
	</g>
	<g>
		<g>
			<path class="st2" d="M155.5,933.9c-1.4,0-2.5-1.1-2.5-2.5V714.8c0-1.4,1.1-2.5,2.5-2.5c1.4,0,2.5,1.1,2.5,2.5v216.5
				C158.1,932.7,156.9,933.9,155.5,933.9z"/>
		</g>
		<g>
			<path class="st2" d="M155.5,774.7c-0.6,0-1.3-0.2-1.8-0.7l-31-31c-1-1-1-2.6,0-3.6c1-1,2.6-1,3.6,0l31,31.1c1,1,1,2.6,0,3.6
				C156.8,774.5,156.2,774.7,155.5,774.7z"/>
		</g>
		<g>
			<path class="st2" d="M155.5,803.6c-0.6,0-1.3-0.2-1.8-0.7l-31-31c-1-1-1-2.6,0-3.6c1-1,2.6-1,3.6,0l31,31c1,1,1,2.6,0,3.6
				C156.8,803.3,156.2,803.6,155.5,803.6z"/>
		</g>
	</g>
</g>
<path class="st5" d="M89.5,922.1h918.7c14.5,0,26.2,11.7,26.2,26.2v32.8c0,14.5-11.7,26.2-26.2,26.2H89.5
	c-14.5,0-26.2-11.7-26.2-26.2v-32.8C63.3,933.9,75,922.1,89.5,922.1z"/>
<circle class="st6" cx="712.2" cy="328.3" r="152.6"/>
<g>
	<path class="st7" d="M688.4,504.7c31.5,15.4,22.3,44.9,22.3,44.9s-17.6,25.4-49.2,10c-31.5-15.4-65-65.8-65-65.8
		S656.9,489.3,688.4,504.7z"/>
	<path class="st0" d="M688.4,504.7c31.5,15.4,22.3,44.9,22.3,44.9l-114.2-55.8C596.5,493.8,656.9,489.3,688.4,504.7z"/>
</g>
<g>
	<path class="st7" d="M738.6,669.8c-31.5,15.4-22.3,44.9-22.3,44.9s17.6,25.4,49.2,10c31.5-15.4,65-65.8,65-65.8
		S770.2,654.4,738.6,669.8z"/>
	<path class="st0" d="M738.6,669.8c-31.5,15.4-22.3,44.9-22.3,44.9l114.2-55.8C830.5,658.9,770.2,654.4,738.6,669.8z"/>
</g>
<g>
	<path class="st0" d="M811.5,932.3c-40.1,50.1-100.8,27.3-100.8,27.3s-35.6-54.2,4.5-104.4C755.3,805,867,764.1,867,764.1
		S851.6,882.1,811.5,932.3z"/>
	<path class="st7" d="M811.5,932.3c-40.1,50.1-100.8,27.3-100.8,27.3L867,764.1C867,764.1,851.6,882.1,811.5,932.3z"/>
</g>
<g>
	<path class="st0" d="M613.6,932.3c40.1,50.1,100.8,27.3,100.8,27.3s35.6-54.2-4.5-104.4c-40.1-50.1-151.8-91.1-151.8-91.1
		S573.5,882.1,613.6,932.3z"/>
	<path class="st7" d="M613.6,932.3c40.1,50.1,100.8,27.3,100.8,27.3L558.1,764.1C558.1,764.1,573.5,882.1,613.6,932.3z"/>
</g>
<path class="st8" d="M512.8,538l-28.7,9.2l-4.2-2l-8.1-8l0.8-13.1l15.9-0.4L512.8,538C512.8,538,512.8,538,512.8,538z"/>
<path class="st9" d="M417.2,370c0,0-9.8,113.2,71.2,153.7c-3.3,3.9-16.9,10.1-16.9,10.1s-79.3-48.1-76.5-101.5S417.2,370,417.2,370z
	"/>
<path class="st10" d="M263.7,886.1c0,0,10.6,49,18.4,71.1c0.9,2.6-2.4,4.7-4.3,2.8c-13.1-12.9-31.3-39-37.3-45
	c-7.5-7.5-19-21.5-19-21.5l27.5-24.2l18.1,9.1L263.7,886.1z"/>
<path class="st11" d="M362.1,922.1c0,0,43.7,24.4,65.5,33.3c2.6,1.1,2,4.9-0.8,5.1c-18.3,1.3-50-2.3-58.4-1.8
	c-10.5,0.7-28.7,0-28.7,0v-36.6l18.8-7.6L362.1,922.1z"/>
<path class="st11" d="M406.4,498.3c0,0-4.2,218.7-6.6,223.6c-2.4,4.8-37.7,200.3-37.7,200.3h-22.4c0,0,4-204.3,12.8-211.9
	c0-18-6.1-210.2,11-223.9C388.5,484.9,406.4,498.3,406.4,498.3z"/>
<path class="st10" d="M330.6,477.2c-32.3,23.8-38.8,135-5.9,220.9c-21.5,38.6-85.8,191.7-85.8,191.7l19,11.4
	c0,0,131.1-180.3,126.1-198.9c-5-18.6,4.5-217.5,4.5-217.5L330.6,477.2z"/>
<path class="st7" d="M423.3,344.9c0.7,2.7,1.6,5.4,2.7,8c7,16.6,16.6,50.9,15.9,56.6c-0.8,6.2-22.7,27.3-28.5,43.4
	s-6.8,45.4-6.8,45.4l-75.8-21.1c0,0,21.1-52,21.9-75.5s8.9-72.1,38.8-77C414.3,320.9,421.3,337.3,423.3,344.9z"/>
<g>
	<path class="st10" d="M446.4,245.7c1.4-3.5,0.9-7.5-1.3-10.6c-11.4-15.5-31.9-24.2-50.9-20.8c-21.1,3.8-38.8,22-42,43.2
		c-1.2,8.2-0.5,16.6-2.2,24.7c-2,9.5-7.5,18.3-15.2,24.2c-9.6,7.4-22,10.2-32.7,16c-10.8,5.9-19.7,14.7-27.3,24.4
		c-7.6,9.7-14.2,20.6-16.3,32.8s0.9,25.7,10,34c5.8,5.3,13.3,8,20.7,10.5c14.8,5,30.3,9.5,45.8,7.8c15.5-1.7,31.2-10.9,36-25.8
		c6.7-21-9.8-43.1-6.8-64.9c2.1-14.8,12.9-27,24.9-35.9s25.6-15.7,37-25.3C434.6,272.9,442.7,254.7,446.4,245.7z"/>
</g>
<path class="st8" d="M425.9,308.5c-3.8,7.8-7.3,28.3-4,37c3,8.6,1.9,10,1.9,10l-33.3-27.3l7.7-37.5L425.9,308.5z"/>
<path class="st12" d="M453,277c0,19.3-5,39-21,39s-37-19.7-37-39s13-35,29-35S453,257.7,453,277z"/>
<path class="st10" d="M451.3,238.5c5.7-0.5,9.6,5.6,6.8,10.5c-5.5,9.9-15.3,19.8-38.1,17c-10.4-1.3-27,0-28,7l-8-19c0,0,2-12,4-12
	s21.8,0,21.8,0L451.3,238.5z"/>
<path class="st10" d="M408,264c-3,6-4.6,16.7-8.6,18.7c-5-2.9-11.2-18-10.8-17.9c0.4,0.1,5.4-2.9,6.4-2.9S408,264,408,264z"/>
<ellipse transform="matrix(0.9121 -0.4099 0.4099 0.9121 -81.5746 187.5998)" class="st12" cx="396.8" cy="284.1" rx="5.6" ry="9"/>
<circle class="st13" cx="397.9" cy="293.4" r="5.2"/>
<g>
	<path class="st7" d="M479.8,652.8l-62.1-54.9c-2.2-1.9-2.4-5.3-0.5-7.5l38.5-47.5c1.9-2.2,5.3-2.4,7.5-0.5l66,58.3
		c2.2,1.9,2.4,5.3,0.5,7.5l-42.4,44.1C485.3,654.5,482,654.7,479.8,652.8z"/>
	<polygon class="st7" points="540.9,670.5 484.1,644.2 498.8,627.2 545.6,658.3 546.3,658.8 540.9,670.5 	"/>
	<path class="st7" d="M518.1,545.6c7,6,9.3,17.1,6.4,31.3l-5.2,25.7l-57.9-50.1l25.6-8.9C500.2,538.9,511.2,539.6,518.1,545.6
		 M521.4,541.8c-8-6.9-20.6-8.4-36.1-3l-33.7,11.8l71,61.3l6.9-34.1C532.8,561.3,529.5,548.8,521.4,541.8L521.4,541.8z"/>
	<path class="st14" d="M540.9,670.5c-3.6-6.7,0.1-10.3,4.7-12.2l0.7,0.5L540.9,670.5z"/>
</g>
<path class="st15" d="M374.4,352c-1.4,45.4,17,161.8,51.5,207.7c5.9-3.1,12.3-6.6,12.3-6.6s-44-101.2-29.9-186.2
	c1.5-10.5,0-18-3.2-23.2C396.7,329.6,374.9,335.7,374.4,352z"/>
<path class="st8" d="M425.9,559.8c0,0,9.9,20.5,12.3,22.7c2.3,2.2,19.3,11.3,24.1,13.1c4.8,1.7-6.5-8.6-6.5-8.6s8.8,5.6,12.9,7.8
	c0.6,0.3,1.1-0.4,0.7-0.9c-3.1-3.7-10.7-9.7-10.7-9.7s11.9,7.1,17.2,9.9c0.6,0.3,1.1-0.4,0.7-0.9c-3.8-3.6-12.4-10.3-13.9-11.1
	c6.3,2.7,10.8,5.3,13.6,6.6c0.4,0.2,0.7-0.3,0.4-0.6c-5.5-5-28.9-21.6-30.1-21.9c-4.8-1.1-9.3-12.5-9.3-12.5L425.9,559.8z"/>
<path class="st16" d="M484.1,547.2l-4.2-2l-0.5-0.7c0,0,11.3-11.5,14.2-12.8c1.9-0.8,9.9,2.3,15,4.4c1.5,0.6,1.4,2.8-0.2,3.3
	C500.3,542,484.1,547.2,484.1,547.2z"/>
<rect x="709.3" y="411.2" class="st7" width="5.8" height="549.6"/>
<g>
	<path class="st13" d="M604,189.4c-12.3,0-22.2,10-22.2,22.2c0-12.3-10-22.2-22.2-22.2c12.3,0,22.2-10,22.2-22.2
		C581.7,179.4,591.7,189.4,604,189.4z"/>
	<path class="st6" d="M614.6,189.4c-18.2,0-32.9,14.7-32.9,32.9c0-18.2-14.7-32.9-32.9-32.9c18.2,0,32.9-14.7,32.9-32.9
		C581.7,174.7,596.5,189.4,614.6,189.4z"/>
</g>
<g>
	<path class="st13" d="M895.1,370c-7.1,0-12.9,5.8-12.9,12.8c0-7.1-5.8-12.8-12.8-12.8c7.1,0,12.8-5.8,12.8-12.8
		C882.2,364.2,888,370,895.1,370z"/>
	<path class="st17" d="M901.2,370c-10.5,0-19,8.5-19,19c0-10.5-8.5-19-19-19c10.5,0,19-8.5,19-19C882.2,361.5,890.7,370,901.2,370z"
		/>
</g>
<line class="st18" x1="554" y1="664.4" x2="692.9" y2="729.7"/>
<line class="st18" x1="546.3" y1="677.2" x2="636.3" y2="849"/>
<line class="st18" x1="574.5" y1="694" x2="692.9" y2="849"/>
<line class="st18" x1="601.9" y1="705.3" x2="696.1" y2="776.5"/>
<path class="st19" d="M689.8,429.8h44.3v22.1c0,12.2-9.9,22.1-22.1,22.1h0c-12.2,0-22.1-9.9-22.1-22.1V429.8z"/>
<g>
	<circle class="st13" cx="712.2" cy="328.3" r="124.2"/>
	<circle class="st20" cx="712.2" cy="328.3" r="93.2"/>
	<g>
		<path class="st1" d="M716.8,288.8c8.4,1.6,13.4,7.9,13.4,17.9v1.6l-11.6,1.1v-1.8c0-5.6-2-8.2-6.4-8.2c-3.6,0-6.1,2.2-6.1,6.7v1.5
			c0,4.4,2.4,8.1,10.2,15.2c10.7,9.9,14.4,16.3,14.4,24.9v1.9c0,10-5.4,16.1-13.9,17.6v8.3h-9.5v-8.3c-8.4-1.8-13.7-8.1-13.7-17.9
			v-4.5l11.6-1.1v4.8c0,5.6,2.3,8.2,7,8.2c3.5,0,6.6-2.2,6.6-6.7v-1.7c0-4.4-2.4-8.1-10.2-15.2c-10.7-9.9-14.4-16.3-14.4-24.9v-1.7
			c0-9.9,4.9-16,13.2-17.6v-7.1h9.5V288.8z"/>
	</g>
</g>
</svg>
