<svg xmlns="http://www.w3.org/2000/svg" width="64.325" height="53.015" viewBox="0 0 64.325 53.015"><defs><style>.a{fill:#6336af;}</style></defs><path class="a" d="M64.525,13.095a4.254,4.254,0,0,1-4.241,4.241H21.335a4.241,4.241,0,0,1,0-8.482H60.284A4.254,4.254,0,0,1,64.525,13.095ZM21.335,39.249H43.46a4.241,4.241,0,1,0,0-8.482H21.335a4.241,4.241,0,1,0,0,8.482ZM52.579,52.679H21.335a4.241,4.241,0,1,0,0,8.482H52.579a4.254,4.254,0,0,0,4.241-4.241A4.209,4.209,0,0,0,52.579,52.679ZM4.865,8.5A4.662,4.662,0,0,0,1.614,9.843,4.733,4.733,0,0,0,.2,13.095a4.585,4.585,0,0,0,4.595,4.595A4.6,4.6,0,0,0,8.046,9.843,4.376,4.376,0,0,0,4.865,8.5Zm0,21.913a4.662,4.662,0,0,0-3.252,1.343A4.733,4.733,0,0,0,.2,35.008,4.586,4.586,0,0,0,4.795,39.6a4.6,4.6,0,0,0,3.252-7.846A4.376,4.376,0,0,0,4.865,30.413Zm0,21.913a4.662,4.662,0,0,0-3.252,1.343A4.733,4.733,0,0,0,.2,56.921a4.585,4.585,0,0,0,4.595,4.595,4.6,4.6,0,0,0,3.252-7.846A4.376,4.376,0,0,0,4.865,52.326Z" transform="translate(-0.2 -8.5)"/></svg>