<?xml version="1.0" encoding="UTF-8" standalone="no"?>
<!DOCTYPE svg PUBLIC "-//W3C//DTD SVG 1.1//EN" "http://www.w3.org/Graphics/SVG/1.1/DTD/svg11.dtd">
<svg width="100%" height="100%" viewBox="0 0 50 50" version="1.1" xmlns="http://www.w3.org/2000/svg" xmlns:xlink="http://www.w3.org/1999/xlink" xml:space="preserve" xmlns:serif="http://www.serif.com/" style="fill-rule:evenodd;clip-rule:evenodd;stroke-linejoin:round;stroke-miterlimit:2;">
    <path id="surface5489" d="M21,6C10.52,6 2,14.52 2,25C2,35.48 10.52,44 21,44C27.961,44 34.598,39.309 39.551,34.734C44.508,30.16 47.809,25.586 47.809,25.586C48.063,25.234 48.063,24.766 47.809,24.414C47.809,24.414 44.508,19.84 39.551,15.266C34.598,10.691 27.961,6 21,6ZM21,8C27.039,8 33.402,12.309 38.199,16.734C42.484,20.691 45.133,24.207 45.723,25C45.133,25.793 42.484,29.309 38.199,33.266C33.402,37.691 27.039,42 21,42C11.598,42 4,34.402 4,25C4,15.598 11.598,8 21,8ZM21,13C18.234,13 16,15.234 16,18L16,20L15,20C13.355,20 12,21.355 12,23L12,31C12,32.645 13.355,34 15,34L27,34C28.645,34 30,32.645 30,31L30,23C30,21.355 28.645,20 27,20L26,20L26,18C26,15.234 23.766,13 21,13ZM21,15C22.715,15 24,16.285 24,18L24,20L18,20L18,18C18,16.285 19.285,15 21,15ZM15,22L16.832,22C16.941,22.02 17.051,22.02 17.16,22L24.832,22C24.941,22.02 25.051,22.02 25.16,22L27,22C27.555,22 28,22.445 28,23L28,31C28,31.555 27.555,32 27,32L15,32C14.445,32 14,31.555 14,31L14,23C14,22.445 14.445,22 15,22ZM21,24C19.895,24 19,24.895 19,26C19,26.715 19.383,27.375 20,27.73L20,29C20,29.602 20.398,30 21,30C21.602,30 22,29.602 22,29L22,27.73C22.617,27.371 23,26.715 23,26C23,24.895 22.105,24 21,24Z" style="fill:rgb(92,0,122);fill-rule:nonzero;"/>
</svg>
