<svg xmlns="http://www.w3.org/2000/svg" width="321.89" height="318.836" viewBox="0 0 321.89 318.836"><defs><style>.a{fill:#512da8;}.b{fill:rgba(118,160,255,0.24);}.c{fill:#fff;}</style></defs><g transform="translate(-5.5 -5.673)"><g transform="translate(31.751 30.525)"><ellipse class="a" cx="134.815" cy="133.537" rx="134.815" ry="133.537" transform="translate(0 0)"/></g><g transform="translate(5.5 5.673)"><ellipse class="b" cx="160.945" cy="159.418" rx="160.945" ry="159.418" transform="translate(0)"/></g><g transform="translate(96.917 95.865)"><path class="c" d="M167.811,51.276a35.093,35.093,0,0,0-23.677-10.25l-2.425-3.2A109.569,109.569,0,0,0,116.52,11.191C108.534,5.9,95.845,2.221,86.376,9.279A20.71,20.71,0,0,0,80.688,16a9.2,9.2,0,0,0,3.325,12.211l13.02,7.93q14.847,9.048,29.751,18.1a13.583,13.583,0,0,1-5.3,3.445,12.124,12.124,0,0,1-12.2-3.452C84.977,30.453,53.124,23.121,33.574,36.816A42.4,42.4,0,0,0,17.637,61.055,15.274,15.274,0,0,0,6.9,65.16,15.486,15.486,0,0,0,5.137,85.449a14.7,14.7,0,0,0,14.686,4.816A39.012,39.012,0,0,0,33.5,101.836a37.485,37.485,0,0,0,13.42,3.824c1.216.105,2.39.141,3.55.169a18.8,18.8,0,0,1,6.025.794c1.645.6,3.3,1.181,4.949,1.765a14.525,14.525,0,0,1-4.506,1.849,19.072,19.072,0,0,1-10.468-.977,11.387,11.387,0,0,0-11.121.6,16.98,16.98,0,0,0-2.369,20.591,21.9,21.9,0,0,0,19.684,8.387,56.344,56.344,0,0,0,14.369-1.968,45.147,45.147,0,0,0,17.793-10.025l.415.373a12.309,12.309,0,0,0,7.986,4.035,22.988,22.988,0,0,0,13.005-2.116,6.7,6.7,0,0,1,3.135-.865h.014a6.609,6.609,0,0,1,3.086.858,24.165,24.165,0,0,0,4.014,1.49,22.949,22.949,0,0,0,6.032.787,28.387,28.387,0,0,0,6.348-.752,3.088,3.088,0,0,0,.808-.288,16.959,16.959,0,0,0,7.164-7.023,15.709,15.709,0,0,0,1.835-9.659c-1.167-8.661-11.178-12.436-15.107-13.919a33.986,33.986,0,0,0-12.12-2.193,38.615,38.615,0,0,1,7.255-3.67,24.163,24.163,0,0,1,12.106-2.2,12.2,12.2,0,0,1,3.459,2.074,23.411,23.411,0,0,0,3.888,2.489,34.813,34.813,0,0,0,13.012,3.311,25.945,25.945,0,0,0,21.5-8.3C182.054,80.233,177.737,61.681,167.811,51.276ZM65.138,130.1C56.829,132.4,42.987,133.428,39,126.827a10.335,10.335,0,0,1,.6-11.374c.745-.583,1.757-.394,4.823.541a25.769,25.769,0,0,0,14.06,1.09A23.337,23.337,0,0,0,68.667,111.8l10.988,10.264A37.963,37.963,0,0,1,65.138,130.1ZM167.284,86.728a19.34,19.34,0,0,1-15.768,5.835,27.713,27.713,0,0,1-10.369-2.657,15.9,15.9,0,0,1-2.692-1.772,18.038,18.038,0,0,0-5.708-3.185A27.641,27.641,0,0,0,116.2,87.333a45.7,45.7,0,0,0-13.3,7.845q-1.666,1.4-3.241,2.932a12.689,12.689,0,0,0-.949,1.09c-.091.112-.19.218-.288.337H96.745a42.336,42.336,0,0,0-14.1-30.145,41.756,41.756,0,0,0-34.37-9.019,3.513,3.513,0,0,0,.647,6.967,3.308,3.308,0,0,0,.647-.063,34.571,34.571,0,0,1,28.478,7.431,36.141,36.141,0,0,1,11.663,28.085c-.007.084-.007.176-.007.26a3.528,3.528,0,0,0,3.508,3.515H99.74a2.9,2.9,0,0,0,.492-.1,3.639,3.639,0,0,0,.612-.077,30.446,30.446,0,0,1,20.394.014c2.692,1.019,9.856,3.719,10.468,8.225a8.8,8.8,0,0,1-1.055,5.364,10.031,10.031,0,0,1-3.81,3.909,18.149,18.149,0,0,1-8.534-.063,17.721,17.721,0,0,1-2.946-1.111,13.206,13.206,0,0,0-5.975-1.483h-.028a13.416,13.416,0,0,0-6.025,1.49,18.819,18.819,0,0,1-2.924,1.111,19.872,19.872,0,0,1-6.636.408c-1.4-.112-2.067-.633-3.761-2.193L71.472,104.8a3.679,3.679,0,0,0-1.23-.745l-1.8-.633c-3.185-1.125-6.376-2.243-9.547-3.4a24.147,24.147,0,0,0-8.246-1.216c-1.005-.028-2.032-.056-3.086-.155a30.329,30.329,0,0,1-10.9-3.093A32.212,32.212,0,0,1,24.182,84.212a3.536,3.536,0,0,0-4.373-1.322A7.909,7.909,0,0,1,10.6,81.027a8.4,8.4,0,0,1,1.188-10.812,9.434,9.434,0,0,1,7.775-1.975,3.525,3.525,0,0,0,4.176-2.65,36.577,36.577,0,0,1,13.842-23c16.542-11.571,45.252-4.4,66.792,16.661a19.106,19.106,0,0,0,19.438,5.062,20.672,20.672,0,0,0,11.171-9.476,3.519,3.519,0,0,0-1.286-4.64q-16.545-10.007-33.013-20.064l-13.02-7.93a2.16,2.16,0,0,1-.794-2.861A13.71,13.71,0,0,1,90.6,14.9c6.545-4.879,15.951-1.884,22.053,2.158a102.833,102.833,0,0,1,23.445,25l3.466,4.577a3.506,3.506,0,0,0,2.784,1.371,28.592,28.592,0,0,1,20.38,8.12C170.363,64.134,173.941,78.918,167.284,86.728ZM153.245,66.848a5.272,5.272,0,1,0,5.272,5.272A5.3,5.3,0,0,0,153.245,66.848Z" transform="translate(-2.157 -5.378)"/></g><g transform="translate(61.36 201.939)"><rect class="c" width="52.998" height="3.97" transform="translate(0)"/></g><g transform="translate(38.028 164.262)"><rect class="c" width="52.998" height="3.97" transform="translate(0 0)"/></g><g transform="translate(61.681 128.547)"><rect class="c" width="52.998" height="3.97" transform="translate(0 0)"/></g></g></svg>