<?xml version="1.0" encoding="UTF-8" standalone="no"?>
<!DOCTYPE svg PUBLIC "-//W3C//DTD SVG 1.1//EN" "http://www.w3.org/Graphics/SVG/1.1/DTD/svg11.dtd">
<svg width="100%" height="100%" viewBox="0 0 24 24" version="1.1" xmlns="http://www.w3.org/2000/svg" xmlns:xlink="http://www.w3.org/1999/xlink" xml:space="preserve" xmlns:serif="http://www.serif.com/" style="fill-rule:evenodd;clip-rule:evenodd;stroke-linejoin:round;stroke-miterlimit:2;">
    <g id="surface8190" transform="matrix(0.932089,0,0,0.982176,0.759608,0.442231)">
        <path d="M12,4C4,4 1,12 1,12C1,12 4,20 12,20C20,20 23,12 23,12C23,12 20,4 12,4ZM12,6C17.277,6 19.945,10.266 20.809,11.996C19.945,13.715 17.254,18 12,18C6.723,18 4.055,13.734 3.191,12.004C4.059,10.285 6.746,6 12,6ZM12,8C9.789,8 8,9.789 8,12C8,14.211 9.789,16 12,16C14.211,16 16,14.211 16,12C16,9.789 14.211,8 12,8ZM12,10C13.105,10 14,10.895 14,12C14,13.105 13.105,14 12,14C10.895,14 10,13.105 10,12C10,10.895 10.895,10 12,10Z" style="fill:rgb(92,0,122);fill-rule:nonzero;"/>
    </g>
</svg>
