<svg xmlns="http://www.w3.org/2000/svg" width="321.846" height="318.793" viewBox="0 0 321.846 318.793"><defs><style>.a{fill:#512da8;}.b{fill:rgba(118,160,255,0.24);}.c{fill:#fff;}</style></defs><g transform="translate(-5.5 -5.673)"><g transform="translate(31.747 30.521)"><ellipse class="a" cx="134.797" cy="133.519" rx="134.797" ry="133.519" transform="translate(0 0)"/></g><g transform="translate(5.5 5.673)"><ellipse class="b" cx="160.923" cy="159.396" rx="160.923" ry="159.396" transform="translate(0)"/></g><g transform="translate(80.899 76.025)"><path class="c" d="M55.751,76.969a4.358,4.358,0,1,0,0,8.717,4.465,4.465,0,0,0,4.358-4.358A4.383,4.383,0,0,0,55.751,76.969Zm99.634-21.792h-4.358a4.358,4.358,0,1,0,0,8.717h4.358a8.717,8.717,0,0,1,0,17.434h-6.451A57.639,57.639,0,0,0,127.4,54.566a34.867,34.867,0,1,0-65.638-16.4v.183a37.89,37.89,0,0,0,.61,6.276,56.25,56.25,0,0,0-9.327,3.312L25.94,43.409a7.639,7.639,0,0,0-1.177-.087,8.106,8.106,0,0,0-5.8,13.773l9.414,9.414a51.1,51.1,0,0,0-8.717,14.819L8.244,85.076a7.482,7.482,0,0,0-4.62,10.2l5.4,16.3a8.21,8.21,0,0,0,7.671,5.492h4.446a57.411,57.411,0,0,0,18.218,22.664v17.434a11.907,11.907,0,0,0,11.594,11.942h8.717a11.81,11.81,0,0,0,11.594-9.85l1.046-6.015a79.309,79.309,0,0,0,26.151,0V157.6a11.819,11.819,0,0,0,11.768,11.768h8.717a11.808,11.808,0,0,0,11.681-9.85l3.923-23.71a51.189,51.189,0,0,0,17.434-37.744,45.435,45.435,0,0,0-.7-7.758h4.1a17.434,17.434,0,1,0,0-34.868ZM96.634,12.2h.009A26.15,26.15,0,0,1,120,50.121,76.906,76.906,0,0,0,84.43,41.4a79.62,79.62,0,0,0-13.947,1.308,36.355,36.355,0,0,1,0-4.358A26.273,26.273,0,0,1,96.634,12.2ZM127.666,129.88a4.886,4.886,0,0,0-1.395,2.528l-4.184,25.279a3.056,3.056,0,0,1-3.051,2.528h-8.717a3.066,3.066,0,0,1-3.051-3.051v-9.85a4.353,4.353,0,0,0-1.743-3.4,4.144,4.144,0,0,0-2.615-.959h-1.133a72.475,72.475,0,0,1-32.427.523,4.476,4.476,0,0,0-3.312.61,4.626,4.626,0,0,0-1.918,2.964l-1.482,10.809a3.056,3.056,0,0,1-3.051,2.528H50.87a3.066,3.066,0,0,1-3.051-3.051V137.464a4.455,4.455,0,0,0-1.831-3.574,47.436,47.436,0,0,1-18.044-22.664,4.357,4.357,0,0,0-4.1-2.877l-6.8.436-5.23-15.6,12.814-4.271A4.538,4.538,0,0,0,27.509,86.3a45.1,45.1,0,0,1,9.937-17.434,4.294,4.294,0,0,0,0-6.015L26.9,52.3l26.151,4.446a5.526,5.526,0,0,0,2.615,0,62.448,62.448,0,0,1,13.424-4.533,70.135,70.135,0,0,1,15.429-1.743,68.376,68.376,0,0,1,34.868,9.24,45.542,45.542,0,0,1,24.059,38.354A42.987,42.987,0,0,1,127.666,129.88Z" transform="translate(-3.01 -3.302)"/></g></g></svg>