<svg xmlns="http://www.w3.org/2000/svg" width="88.375" height="96.817" viewBox="0 0 88.375 96.817"><defs><style>.a{fill:#878787;}</style></defs><path class="a" d="M81.156,98.817H66.46A10.373,10.373,0,0,1,56.5,91.279L47.408,59.537,38.349,91.279a10.373,10.373,0,0,1-9.993,7.538h-14.7A10.373,10.373,0,0,1,3.288,87.268L12.07,11.2A10.373,10.373,0,0,1,22.443,2h49.93a10.373,10.373,0,0,1,10.373,9.2l8.783,76.07A10.373,10.373,0,0,1,81.156,98.817Zm-33.747-46.2a6.915,6.915,0,0,1,6.639,5.014l9.059,31.742A3.458,3.458,0,0,0,66.564,91.9h14.7a3.458,3.458,0,0,0,3.458-3.838l-8.783-76.07a3.458,3.458,0,0,0-3.458-3.077H22.443a3.458,3.458,0,0,0-3.458,3.043L10.2,88.028a3.458,3.458,0,0,0,3.458,3.838h14.7a3.458,3.458,0,0,0,3.458-2.524L40.873,57.6a6.915,6.915,0,0,1,6.535-4.979Z" transform="translate(-3.221 -2)"/></svg>