<?xml version="1.0" encoding="UTF-8" standalone="no"?>
<!DOCTYPE svg PUBLIC "-//W3C//DTD SVG 1.1//EN" "http://www.w3.org/Graphics/SVG/1.1/DTD/svg11.dtd">
<svg width="100%" height="100%" viewBox="0 0 700 539" version="1.1" xmlns="http://www.w3.org/2000/svg" xmlns:xlink="http://www.w3.org/1999/xlink" xml:space="preserve" xmlns:serif="http://www.serif.com/" style="fill-rule:evenodd;clip-rule:evenodd;stroke-miterlimit:10;">
    <g transform="matrix(0.545142,0,0,0.545142,53.8268,81.0128)">
        <path d="M410,86.484C410,81.25 405.75,77 400.516,77L339.484,77C334.25,77 330,81.25 330,86.484L330,97.516C330,102.75 334.25,107 339.484,107L400.516,107C405.75,107 410,102.75 410,97.516L410,86.484Z" style="fill:rgb(34,0,145);fill-opacity:0.1;"/>
    </g>
    <g transform="matrix(0.545142,0,0,0.545142,53.8268,81.0128)">
        <path d="M648,59.484C648,54.25 643.75,50 638.516,50L577.484,50C572.25,50 568,54.25 568,59.484L568,70.516C568,75.75 572.25,80 577.484,80L638.516,80C643.75,80 648,75.75 648,70.516L648,59.484Z" style="fill:rgb(34,0,145);fill-opacity:0.1;"/>
    </g>
    <g transform="matrix(0.545142,0,0,0.545142,53.8268,81.0128)">
        <path d="M604,364.484C604,359.25 599.75,355 594.516,355L533.484,355C528.25,355 524,359.25 524,364.484L524,375.516C524,380.75 528.25,385 533.484,385L594.516,385C599.75,385 604,380.75 604,375.516L604,364.484Z" style="fill:rgb(34,0,145);fill-opacity:0.1;"/>
    </g>
    <g transform="matrix(0.545142,0,0,0.545142,53.8268,81.0128)">
        <path d="M640,397.484C640,392.25 635.75,388 630.516,388L569.484,388C564.25,388 560,392.25 560,397.484L560,408.516C560,413.75 564.25,418 569.484,418L630.516,418C635.75,418 640,413.75 640,408.516L640,397.484Z" style="fill:rgb(34,0,145);fill-opacity:0.1;"/>
    </g>
    <g transform="matrix(0.545142,0,0,0.545142,53.8268,81.0128)">
        <path d="M854,382.484C854,377.25 849.75,373 844.516,373L783.484,373C778.25,373 774,377.25 774,382.484L774,393.516C774,398.75 778.25,403 783.484,403L844.516,403C849.75,403 854,398.75 854,393.516L854,382.484Z" style="fill:rgb(34,0,145);fill-opacity:0.1;"/>
    </g>
    <g transform="matrix(0.545142,0,0,0.545142,53.8268,81.0128)">
        <path d="M203,406.484C203,401.25 198.75,397 193.516,397L132.484,397C127.25,397 123,401.25 123,406.484L123,417.516C123,422.75 127.25,427 132.484,427L193.516,427C198.75,427 203,422.75 203,417.516L203,406.484Z" style="fill:rgb(34,0,145);fill-opacity:0.1;"/>
    </g>
    <g transform="matrix(0.545142,0,0,0.545142,53.8268,81.0128)">
        <path d="M579,430.484C579,425.25 574.75,421 569.516,421L508.484,421C503.25,421 499,425.25 499,430.484L499,441.516C499,446.75 503.25,451 508.484,451L569.516,451C574.75,451 579,446.75 579,441.516L579,430.484Z" style="fill:rgb(34,0,145);fill-opacity:0.1;"/>
    </g>
    <g transform="matrix(0.545142,0,0,0.545142,19.4829,37.1288)">
        <path d="M781.91,262.71L745.25,156.29L732.07,158.29L720.27,159.8C720.57,155.8 721.09,141.44 713.77,133.91C713.06,131.33 711.19,128.4 707.59,125.1C690.05,109.02 686.4,141.91 686.4,141.91C686.4,141.91 682.4,148.85 676.89,158.55L674,158L673.18,165.16C660.98,186.73 644.77,215.92 644.77,218.66C644.77,223.05 642.58,228.89 642.58,228.89C642.58,228.89 630.16,249.35 625.77,259.59C623.215,265.631 619.474,271.099 614.77,275.67C610.066,280.241 613.71,276.48 611.97,277.67C612.081,275.734 612.416,273.818 612.97,271.96C614.57,266.73 618.29,262.25 619.28,256.87C619.512,255.58 619.599,254.269 619.54,252.96C619.77,246.65 616.7,240.44 615.42,234.13C613.93,226.82 614.73,218.77 610.83,212.42C607.83,207.57 602.51,204.55 596.98,203.16C591.9,201.89 586.9,202.34 581.78,201.8C577.08,201.3 572.59,199.22 567.89,198.45C565.379,197.904 562.781,197.904 560.27,198.45C552.32,200.64 549.83,210.66 543.69,216.17C541.48,218.17 538.77,219.55 536.77,221.74C533.86,224.93 532.85,229.38 533,233.74C532.962,235.201 533.049,236.663 533.26,238.11C534.02,243.34 536.04,248.29 537.26,253.42C538.182,257.217 538.682,261.104 538.75,265.01C538.75,265.89 538.75,266.77 538.67,267.64C538.706,269.401 538.238,271.136 537.32,272.64C536.21,274.17 534.38,274.91 532.75,275.89C527.422,271.662 523.423,265.988 521.23,259.55C519.037,253.112 520.96,259.89 520.5,260.55L520.5,259.55C520.5,259.55 510.5,244.87 508.98,232.88L512.46,233.24L520.46,120.69L500.03,117.69C499.46,111.88 497.91,103.45 493.8,97.3C497.23,90.54 498.96,81.39 483.92,80.48C466.32,79.41 467.4,93.12 469.27,100.62C468.422,104.713 468.086,108.895 468.27,113.07L450.27,110.45L450.17,111.91L445.89,111.91L432.79,226.73L443.95,226.17L484.85,230.43C488.12,260.16 493.26,296.9 499.36,305.56C499.563,305.852 499.787,306.13 500.03,306.39L500.03,359C500.03,359 499.3,427 486.87,437.93C494.495,435.217 502.56,433.952 510.65,434.2C510.51,434.65 510.37,435.13 510.23,435.64C508.411,442.352 507.143,449.201 506.44,456.12C506.267,457.647 506.11,459.24 505.97,460.9C504.825,476.132 505.036,491.435 506.6,506.63C511.72,560.71 519.76,599.45 519.76,599.45L522,630.89C522,630.89 519.81,684.24 525.65,701.78C527.851,703.808 530.38,705.448 533.13,706.63C533.18,707.13 533.24,707.63 533.29,708.16C533.34,708.69 533.42,709.51 533.49,710.21C530.87,711.4 525.98,716.12 524.92,734.66C524.92,734.66 526.38,748.55 522.73,755.12C519.08,761.69 521.27,780.7 532.23,782.89C539.234,784.178 546.416,784.178 553.42,782.89C560.424,781.602 558.54,782.89 554.88,764.62L554.24,759.94C554.16,750.89 554.54,741.2 556.34,738.31C559.99,732.46 554.88,726.62 554.88,726.62C554.88,726.62 554.52,726.82 553.93,727.09C552.99,722.04 551.76,713.84 552.2,707.58C552.2,707.05 552.29,706.58 552.35,706.03C554.58,704.865 556.659,703.431 558.54,701.76L558.54,632.35C558.54,632.35 557.81,525.65 565.85,523.45C565.85,523.45 569.5,562.18 568.04,581.19C566.58,600.2 570.23,620.66 570.23,620.66L571.69,698.13C571.69,698.13 573.09,698.8 575.35,699.59L575.2,701C574.31,709.61 572.88,722.61 571.58,730.57C569.801,731.276 568.474,732.808 568.03,734.67C565.84,741.98 567.3,760.25 562.91,765.37C560.32,768.37 557.22,774.48 558.74,778.8C557.79,782.59 558.21,788.51 569.49,789.49C586.3,790.95 593.61,782.18 593.61,782.18C593.61,782.18 595.8,778.53 593.61,771.95C591.42,765.37 594.34,753.68 594.34,753.68C594.34,753.68 595.91,743.76 593.34,742.46C593.12,741.28 592.92,740.53 592.92,740.53C592.955,738.283 592.128,736.107 590.61,734.45C590.55,726.8 590.86,712.65 593.55,703.33C593.71,702.8 593.87,702.33 594.04,701.78C596.206,701.406 598.295,700.672 600.22,699.61C602.145,698.548 599.49,682.8 604.61,671.11C609.73,659.42 606.8,612.64 606.8,612.64C606.8,612.64 604.61,600.35 607.7,590.39C611.24,579.352 613.895,568.05 615.64,556.59L619.95,526.4C619.95,526.4 631.3,489.65 616.35,451.93C615.74,450.37 615.07,448.81 614.35,447.25C613.11,444.54 611.73,441.82 610.19,439.12C609.95,438.7 609.69,438.27 609.44,437.85C611.01,437.46 611.9,437.23 611.9,437.23C611.9,437.23 592.17,391.23 604.59,367.8C604.59,367.8 611.59,360.8 612.59,353.11C613.83,342.94 615.18,332.78 617.4,322.78L617.79,321.02C617.79,321.02 617.85,320.68 617.95,320.07C618.23,319.89 618.5,319.7 618.77,319.5C639.83,304.12 657.99,239.9 657.99,239.9L663.84,228.9L666.62,223.02L660.92,272.75L705.5,283.75L734,281.56L733.92,275.43L755.64,273.74L781.91,262.71ZM499.31,117.71L491.39,116.55C490,109.4 489.06,104.71 489.06,104.71C490.72,102.658 492.189,100.459 493.45,98.14C497.28,104 498.75,112 499.31,117.67L499.31,117.71ZM469.73,102.36C470.28,104.24 470.78,105.45 470.78,105.45L471.78,113.7L469.08,113.31C468.926,109.634 469.147,105.951 469.74,102.32L469.73,102.36ZM719.53,159.97L708.81,161.35C710.32,156.91 712.19,149.63 711.1,143.04C713.224,141.094 714.314,138.258 714.04,135.39C720.41,143 719.81,156.44 719.53,159.94L719.53,159.97ZM701.73,148.56C704.925,147.492 707.888,145.825 710.46,143.65C711.38,150.12 709.46,157.23 708,161.45L698,162.73L695.24,162.2L701.73,148.56Z" style="fill:url(#_Linear1);fill-rule:nonzero;"/>
    </g>
    <g transform="matrix(0.545142,0,0,0.545142,53.8268,81.0128)">
        <path d="M717,184.1L690.91,194.99L660.6,89.3L667.71,80.86L680.74,78.84L717,184.1Z" style="fill:rgb(34,0,145);fill-rule:nonzero;"/>
    </g>
    <g transform="matrix(0.545142,0,0,0.545142,53.8268,81.0128)">
        <path d="M717,184.1L690.91,194.99L660.6,89.3L667.71,80.86L680.74,78.84L717,184.1Z" style="fill:white;fill-opacity:0.2;fill-rule:nonzero;"/>
    </g>
    <g transform="matrix(0.545142,0,0,0.545142,53.8268,81.0128)">
        <path d="M667.71,80.86L622.43,86.67L645.64,198.51L690.91,194.99L667.71,80.86Z" style="fill:rgb(34,0,145);fill-rule:nonzero;"/>
    </g>
    <g transform="matrix(0.545142,0,0,0.545142,53.8268,81.0128)">
        <path d="M667.71,80.86L622.43,86.67L645.64,198.51L690.91,194.99L667.71,80.86Z" style="fill:white;fill-opacity:0.07;fill-rule:nonzero;"/>
    </g>
    <g transform="matrix(0.545142,0,0,0.545142,19.4829,37.1288)">
        <path d="M718.94,163.88L718.22,163.79C718.22,163.52 721.22,137.12 704.65,133.79L704.79,133.08C722.07,136.55 719,163.61 718.94,163.88Z" style="fill:rgb(83,84,97);fill-rule:nonzero;"/>
    </g>
    <g transform="matrix(0.545142,0,0,0.545142,53.8268,81.0128)">
        <rect x="488.44" y="160.44" width="49.88" height="73.01" style="fill:rgb(119,78,85);"/>
    </g>
    <g transform="matrix(0.545142,0,0,0.545142,53.8268,81.0128)">
        <rect x="488.44" y="160.44" width="49.88" height="73.01" style="fill-opacity:0.2;"/>
    </g>
    <g transform="matrix(0.545142,0,0,0.545142,53.8268,81.0128)">
        <path d="M669.51,202.72L641.32,204.89L645.66,95.02L655.05,89.24L668.06,91.41L669.51,202.72Z" style="fill:rgb(34,0,145);fill-rule:nonzero;"/>
    </g>
    <g transform="matrix(0.545142,0,0,0.545142,53.8268,81.0128)">
        <path d="M669.51,202.72L641.32,204.89L645.66,95.02L655.05,89.24L668.06,91.41L669.51,202.72Z" style="fill-opacity:0.2;fill-rule:nonzero;"/>
    </g>
    <g transform="matrix(0.545142,0,0,0.545142,53.8268,81.0128)">
        <path d="M655.05,89.24L610.24,80.56L597.23,194.05L641.32,204.89L655.05,89.24Z" style="fill:rgb(34,0,145);fill-rule:nonzero;"/>
    </g>
    <g transform="matrix(0.545142,0,0,0.545142,53.8268,81.0128)">
        <path d="M391.22,35.03L384.71,35.03L371.7,148.51L400.61,147.07L391.22,35.03Z" style="fill:rgb(34,0,145);fill-rule:nonzero;"/>
    </g>
    <g transform="matrix(0.545142,0,0,0.545142,53.8268,81.0128)">
        <path d="M391.22,35.03L384.71,35.03L371.7,148.51L400.61,147.07L391.22,35.03Z" style="fill-opacity:0.2;fill-rule:nonzero;"/>
    </g>
    <g transform="matrix(0.545142,0,0,0.545142,53.8268,81.0128)">
        <path d="M389.05,33.58L381.1,147.79L450.49,155.02L458.44,43.7L389.05,33.58Z" style="fill:rgb(34,0,145);fill-rule:nonzero;"/>
    </g>
    <g transform="matrix(0.545142,0,0,0.545142,19.4829,37.1288)">
        <path d="M535.9,706.81C535.9,706.81 527.23,706.09 525.78,731.39C525.78,731.39 527.23,745.12 523.61,751.63C519.99,758.14 522.16,776.93 533.01,779.1C539.951,780.379 547.069,780.379 554.01,779.1C560.951,777.821 559.07,779.1 555.46,761.03L548.23,708.26L535.9,706.81Z" style="fill:rgb(92,61,83);fill-rule:nonzero;"/>
    </g>
    <g transform="matrix(0.545142,0,0,0.545142,19.4829,37.1288)">
        <path d="M535.9,706.81C535.9,706.81 527.23,706.09 525.78,731.39C525.78,731.39 527.23,745.12 523.61,751.63C519.99,758.14 522.16,776.93 533.01,779.1C539.951,780.379 547.069,780.379 554.01,779.1C560.951,777.821 559.07,779.1 555.46,761.03L548.23,708.26L535.9,706.81Z" style="fill-opacity:0.05;fill-rule:nonzero;"/>
    </g>
    <g transform="matrix(0.545142,0,0,0.545142,19.4829,37.1288)">
        <path d="M581.35,289.4C580.73,300.16 582.88,306.4 582.88,306.4L564.09,311.46C564.09,311.46 533.01,315.8 545.3,303.46C549.55,299.21 551.64,291.92 552.55,284.22C553.119,278.96 553.297,273.666 553.08,268.38C552.913,263.428 552.486,258.487 551.8,253.58C551.114,248.673 597.34,237.68 587.22,263.7C585.376,268.406 583.922,273.256 582.87,278.2C582.088,281.891 581.58,285.634 581.35,289.4Z" style="fill:rgb(248,189,197);fill-rule:nonzero;"/>
    </g>
    <g transform="matrix(0.545142,0,0,0.545142,19.4829,37.1288)">
        <path d="M587.22,263.71C585.376,268.416 583.922,273.266 582.87,278.21C571.91,280.539 560.507,276.78 553.08,268.39C552.913,263.438 552.486,258.497 551.8,253.59C551.114,248.683 597.34,237.69 587.22,263.71Z" style="fill-opacity:0.1;fill-rule:nonzero;"/>
    </g>
    <g transform="matrix(0.545142,0,0,0.545142,53.8268,81.0128)">
        <circle cx="513.38" cy="165.86" r="31.08" style="fill:rgb(248,189,197);"/>
    </g>
    <g transform="matrix(0.545142,0,0,0.545142,19.4829,37.1288)">
        <path d="M521.44,261.54L521.44,270.94L505.54,312.14L501.2,307.8C500.961,307.543 500.74,307.269 500.54,306.98C490.04,292.06 482.4,192.87 482.4,192.87L472.29,109C472.29,109 461.45,83 485.29,84.42C509.13,85.84 490.35,108.27 490.35,108.27C490.35,108.27 506.25,187.78 504.08,190.67C501.91,193.56 504.08,202.24 504.08,202.24C504.08,202.24 510.59,218.87 509.86,231.15C509.13,243.43 521.44,261.54 521.44,261.54Z" style="fill:rgb(248,189,197);fill-rule:nonzero;"/>
    </g>
    <g transform="matrix(0.545142,0,0,0.545142,19.4829,37.1288)">
        <path d="M700.7,151.67L663.11,231.18L657.33,242C657.33,242 639.33,305.52 618.54,320.73C617.345,321.622 616.05,322.371 614.68,322.96L610.34,288.26L614.34,278.18L614.64,277.41C619.278,272.886 622.964,267.48 625.48,261.51C629.82,251.39 642.11,231.15 642.11,231.15C642.11,231.15 644.28,225.37 644.28,221.03C644.28,216.69 685.48,145.13 685.48,145.13C685.48,145.13 689.09,112.6 706.48,128.5C723.87,144.4 700.7,151.67 700.7,151.67Z" style="fill:rgb(248,189,197);fill-rule:nonzero;"/>
    </g>
    <g transform="matrix(0.545142,0,0,0.545142,19.4829,37.1288)">
        <path d="M555.41,728.49C555.41,728.49 530.83,738.61 533.72,729.21C535.48,723.51 534.83,712.74 534.05,705.21C533.55,700.3 532.99,696.72 532.99,696.72L553.99,698.89C553.256,700.722 552.847,702.668 552.78,704.64C552.09,714.23 555.41,728.49 555.41,728.49Z" style="fill:rgb(248,189,197);fill-rule:nonzero;"/>
    </g>
    <g transform="matrix(0.545142,0,0,0.545142,19.4829,37.1288)">
        <path d="M593.63,700.37C589.84,713.53 590.83,736.45 590.83,736.45C590.83,736.45 568.42,739.34 570.59,733.56C572.1,729.56 574.31,709.74 575.51,698.09C576.04,693 576.37,689.47 576.37,689.47L596.61,693.81C595.232,695.801 594.223,698.023 593.63,700.37Z" style="fill:rgb(248,189,197);fill-rule:nonzero;"/>
    </g>
    <g transform="matrix(0.545142,0,0,0.545142,19.4829,37.1288)">
        <path d="M533,696.69L554,698.86C553.266,700.692 552.857,702.638 552.79,704.61C546.977,707.652 540.077,707.863 534.09,705.18C533.56,700.26 533,696.69 533,696.69Z" style="fill-opacity:0.1;fill-rule:nonzero;"/>
    </g>
    <g transform="matrix(0.545142,0,0,0.545142,19.4829,37.1288)">
        <path d="M596.62,693.8C595.234,695.792 594.218,698.018 593.62,700.37C586.79,701.47 579.62,699.54 575.51,698.09C576.04,693 576.37,689.47 576.37,689.47L596.62,693.8Z" style="fill-opacity:0.1;fill-rule:nonzero;"/>
    </g>
    <g transform="matrix(0.545142,0,0,0.545142,19.4829,37.1288)">
        <path d="M619.75,525.37L615.49,555.23C613.762,566.564 611.133,577.743 607.63,588.66C604.57,598.51 606.74,610.66 606.74,610.66C606.74,610.66 609.63,656.92 604.57,668.49C599.51,680.06 600.23,696.68 600.23,696.68C588.66,703.19 572.04,695.23 572.04,695.23L570.59,618.61C570.59,618.61 566.98,598.37 568.42,579.61C569.86,560.85 566.25,522.51 566.25,522.51C558.25,524.68 559.02,630.21 559.02,630.21L559.02,698.88C541.67,714.06 526.49,698.88 526.49,698.88C520.71,681.53 522.88,628.76 522.88,628.76L520.71,597.68C520.71,597.68 512.71,559.37 507.71,505.88C506.164,490.851 505.956,475.715 507.09,460.65C507.23,459.01 507.383,457.433 507.55,455.92C508.243,449.079 509.494,442.307 511.29,435.67C511.863,433.482 512.599,431.339 513.49,429.26L591.16,432.87L595.74,433.08L606.74,433.59C607.94,435.4 609.07,437.24 610.12,439.08C611.64,441.75 613.01,444.44 614.23,447.08C614.93,448.62 615.59,450.17 616.23,451.71C631,489 619.75,525.37 619.75,525.37Z" style="fill:rgb(94,82,173);fill-rule:nonzero;"/>
    </g>
    <g transform="matrix(0.545142,0,0,0.545142,19.4829,37.1288)">
        <path d="M534.45,436.47C534.45,436.47 531.05,470.47 507.08,460.63C507.22,458.99 507.373,457.413 507.54,455.9C513.18,457.43 528.79,459.54 529.38,436.46L534.45,436.47Z" style="fill-opacity:0.1;fill-rule:nonzero;"/>
    </g>
    <g transform="matrix(0.545142,0,0,0.545142,19.4829,37.1288)">
        <path d="M616.19,451.72C599.59,457.65 593.33,441.86 591.19,432.85L595.77,433.06C598.26,447.23 608.2,448.06 614.25,447.06C614.93,448.64 615.58,450.19 616.19,451.72Z" style="fill-opacity:0.1;fill-rule:nonzero;"/>
    </g>
    <g transform="matrix(0.545142,0,0,0.545142,19.4829,37.1288)">
        <path d="M542.34,724.65C538.65,724.07 533.01,722.04 534.78,714.95C534.78,714.95 527.95,712.59 528.67,740.78C528.67,740.78 527.95,754.51 526.5,757.41C525.05,760.31 526.5,777.65 541.68,776.2C541.68,776.2 552.52,779.81 555.41,774.03C555.41,774.03 553.24,740.78 556.86,735.03C560.48,729.28 555.41,723.46 555.41,723.46C555.41,723.46 550.29,726.3 546.61,725.46C545.21,725.07 543.77,724.88 542.34,724.65Z" style="fill:rgb(92,61,83);fill-rule:nonzero;"/>
    </g>
    <g transform="matrix(0.545142,0,0,0.545142,19.4829,37.1288)">
        <path d="M560.47,771.86C560.47,771.86 553.24,784.15 569.87,785.59C586.5,787.03 593.72,778.36 593.72,778.36C593.72,778.36 595.89,774.75 593.72,768.24C591.55,761.73 594.44,750.17 594.44,750.17C594.44,750.17 596.61,736.44 591.55,739.33C586.49,742.22 560.47,771.86 560.47,771.86Z" style="fill:rgb(92,61,83);fill-rule:nonzero;"/>
    </g>
    <g transform="matrix(0.545142,0,0,0.545142,19.4829,37.1288)">
        <path d="M560.47,771.86C560.47,771.86 553.24,784.15 569.87,785.59C586.5,787.03 593.72,778.36 593.72,778.36C593.72,778.36 595.89,774.75 593.72,768.24C591.55,761.73 594.44,750.17 594.44,750.17C594.44,750.17 596.61,736.44 591.55,739.33C586.49,742.22 560.47,771.86 560.47,771.86Z" style="fill-opacity:0.05;fill-rule:nonzero;"/>
    </g>
    <g transform="matrix(0.545142,0,0,0.545142,19.4829,37.1288)">
        <path d="M579.27,727.77C579.27,727.77 570.6,724.16 568.43,731.38C566.26,738.6 567.71,756.68 563.37,761.74C559.03,766.8 553.25,780.53 570.6,779.81C587.95,779.09 591.6,773.3 591.6,773.3C591.6,773.3 590.88,755.23 593.05,750.17C595.22,745.11 593.05,737.17 593.05,737.17C593.05,737.17 593.72,727 579.27,727.77Z" style="fill:rgb(92,61,83);fill-rule:nonzero;"/>
    </g>
    <g transform="matrix(0.545142,0,0,0.545142,53.8268,81.0128)">
        <circle cx="407.84" cy="43.7" r="1.45" style="fill-opacity:0.2;"/>
    </g>
    <g transform="matrix(0.545142,0,0,0.545142,53.8268,81.0128)">
        <circle cx="438.2" cy="47.31" r="1.45" style="fill-opacity:0.2;"/>
    </g>
    <g transform="matrix(0.545142,0,0,0.545142,19.4829,37.1288)">
        <path d="M501.56,127.82L500.84,127.82C500.84,127.51 501.35,97.02 483.84,94.21C480.39,93.66 477.57,94.44 475.46,96.53C468.23,103.7 471.22,123.95 471.25,124.15L470.54,124.26C470.41,123.41 467.47,103.44 474.96,96.02C477.24,93.75 480.28,92.9 483.96,93.49C502.08,96.39 501.57,127.51 501.56,127.82Z" style="fill:rgb(83,84,97);fill-rule:nonzero;"/>
    </g>
    <g transform="matrix(0.545142,0,0,0.545142,19.4829,37.1288)">
        <path d="M706.09,168.45L705.44,168.14C705.55,167.9 716.69,143.77 701.97,135.36L702.33,134.73C717.62,143.47 706.21,168.2 706.09,168.45Z" style="fill:rgb(83,84,97);fill-rule:nonzero;"/>
    </g>
    <g transform="matrix(0.545142,0,0,0.545142,19.4829,37.1288)">
        <path d="M582.88,306.36L564.09,311.42C564.09,311.42 533.01,315.76 545.3,303.42C549.55,299.17 551.64,291.88 552.55,284.18C557.46,291.88 563.37,289.69 563.37,289.69L581.29,289.34L581.36,289.34C580.73,300.16 582.88,306.36 582.88,306.36Z" style="fill-opacity:0.1;fill-rule:nonzero;"/>
    </g>
    <g transform="matrix(0.545142,0,0,0.545142,19.4829,37.1288)">
        <path d="M618.55,320.75C617.355,321.642 616.06,322.391 614.69,322.98L610.35,288.28L614.35,278.2L615.35,277.43C624.38,280 619.72,313.24 618.55,320.75Z" style="fill-opacity:0.1;fill-rule:nonzero;"/>
    </g>
    <g transform="matrix(0.545142,0,0,0.545142,19.4829,37.1288)">
        <path d="M521.44,261.54L521.44,270.94L505.54,312.14L501.2,307.8C500.961,307.543 500.74,307.269 500.54,306.98C502.42,285.5 521.44,261.54 521.44,261.54Z" style="fill-opacity:0.1;fill-rule:nonzero;"/>
    </g>
    <g transform="matrix(0.545142,0,0,0.545142,19.4829,37.1288)">
        <path d="M610.11,439.06C600,441.59 547.22,453.99 531.56,442.25C525.38,437.62 518.1,435.92 511.29,435.65C511.863,433.462 512.599,431.319 513.49,429.24L591.16,432.85L595.74,433.06L606.74,433.57C607.94,435.39 609.06,437.22 610.11,439.06Z" style="fill-opacity:0.1;fill-rule:nonzero;"/>
    </g>
    <g transform="matrix(0.545142,0,0,0.545142,19.4829,37.1288)">
        <path d="M474.1,90.59C474.1,90.59 484.94,108.66 492.17,90.59" style="fill:rgb(248,189,197);fill-rule:nonzero;"/>
    </g>
    <g transform="matrix(0.545142,0,0,0.545142,19.4829,37.1288)">
        <path d="M697.09,127.81C697.09,127.81 692.75,149.5 710.09,139.38" style="fill:rgb(248,189,197);fill-rule:nonzero;"/>
    </g>
    <g transform="matrix(1,0,0,1,-187,-100)">
        <g opacity="0.1">
            <g transform="matrix(0.545142,0,0,0.545142,206.483,137.129)">
                <path d="M562.89,529.64C562.54,525.24 562.28,522.49 562.28,522.49C554.28,524.66 555.05,630.19 555.05,630.19L555.05,698.86C549.97,703.3 545.05,705.14 540.7,705.53C545.92,705.99 552.14,704.53 558.7,698.86L558.7,630.19C558.7,630.19 558.14,553.72 562.89,529.64Z" style="fill-rule:nonzero;"/>
            </g>
            <g transform="matrix(0.545142,0,0,0.545142,206.483,137.129)">
                <path d="M615.83,451.72C615.22,450.18 614.57,448.63 613.83,447.09C612.61,444.41 611.24,441.72 609.72,439.09C608.72,437.25 607.54,435.42 606.34,433.6L595.34,433.09L590.76,432.88L513.09,429.27L513.02,429.43L587.15,432.88L591.73,433.09L602.73,433.6C603.93,435.41 605.06,437.25 606.11,439.09C607.63,441.76 609,444.45 610.22,447.09C610.92,448.63 611.58,450.18 612.22,451.72C627,489.02 615.78,525.37 615.78,525.37L611.52,555.23C609.792,566.564 607.163,577.743 603.66,588.66C600.6,598.51 602.77,610.66 602.77,610.66C602.77,610.66 605.66,656.92 600.6,668.49C595.54,680.06 596.26,696.68 596.26,696.68C593.468,698.187 590.37,699.042 587.2,699.18C591.575,699.574 595.972,698.706 599.87,696.68C603.768,694.654 599.15,680.05 604.21,668.49C609.27,656.93 606.38,610.66 606.38,610.66C606.38,610.66 604.21,598.5 607.27,588.66C610.773,577.743 613.402,566.564 615.13,555.23L619.39,525.37C619.39,525.37 630.61,489 615.83,451.72Z" style="fill-rule:nonzero;"/>
            </g>
        </g>
    </g>
    <g transform="matrix(0.545142,0,0,0.545142,19.4829,37.1288)">
        <path d="M581.29,290.82C591.29,295.53 614.69,277.44 614.69,277.44C624.81,280.33 617.58,322.26 617.58,322.26L617.19,324C614.99,333.89 613.66,343.94 612.43,354C611.5,361.59 604.57,368.53 604.57,368.53C592.28,391.66 611.8,437.2 611.8,437.2C611.8,437.2 548.91,453.83 531.57,440.81C514.23,427.79 488.2,437.92 488.2,437.92C500.49,427.08 501.2,359.85 501.2,359.85L501.2,307.85C502.65,286.16 522.2,261.59 522.2,261.59C530.2,284 552.43,285.48 552.43,285.48C557.36,293.48 563.43,291.23 563.43,291.23L581.29,290.82Z" style="fill:rgb(235,100,117);fill-rule:nonzero;"/>
    </g>
    <g transform="matrix(0.545142,0,0,0.545142,19.4829,37.1288)">
        <path d="M568.29,202.56C565.809,202.021 563.241,202.021 560.76,202.56C552.9,204.73 550.43,214.64 544.36,220.08C542.18,222.08 539.49,223.42 537.51,225.59C533.99,229.45 533.28,235.17 534.03,240.34C534.78,245.51 536.78,250.41 538.03,255.48C539.264,260.555 539.733,265.786 539.42,271C539.448,272.73 538.983,274.434 538.08,275.91C536.63,277.91 533.96,278.54 532.08,280.14C526.34,285.08 531.08,295.33 526.87,301.64C525.06,304.37 521.67,306.17 520.98,309.37C520.49,311.64 521.53,313.93 522.55,316.02C525.23,321.52 528.01,327.17 532.55,331.27C537.09,335.37 542.7,337.43 548.28,339.52C549.97,340.15 552.09,340.7 553.38,339.45C554.97,337.89 553.77,335.25 552.67,333.32C550.93,330.32 549.57,326.7 550.59,323.32C551.61,319.94 554.88,317.7 557.08,314.88C562.75,307.58 560.89,297.1 558.08,288.3C556.89,284.59 555.55,280.64 556.56,276.87C556.99,275.25 557.84,273.78 558.38,272.19C560.78,265.11 556.75,257.34 557.93,249.96C558.544,247.078 559.553,244.295 560.93,241.69L567.28,228.04C567.919,226.397 568.874,224.896 570.09,223.62C572.063,222.034 574.566,221.254 577.09,221.44C582.29,221.556 587.22,223.803 590.72,227.65C597.52,235.21 597.09,246.65 596.27,256.73L595.68,264.01C595.25,269.25 594.68,274.84 591.38,278.92C588.81,282.08 584.66,284.23 583.6,288.17C582.68,291.56 584.41,295.24 583.5,298.63C582.14,303.7 575.88,305.53 572.57,309.63C569.727,313.269 569.401,318.305 571.75,322.28C573.01,324.28 575.02,326.28 574.75,328.63C574.52,330.52 572.82,332.05 572.83,333.95C572.996,335.686 574.22,337.15 575.9,337.62C577.555,338.049 579.282,338.13 580.97,337.86L598.9,336.24C600.023,336.236 601.124,335.932 602.09,335.36C603.34,334.46 603.75,332.8 603.92,331.27C604.64,324.89 602.92,317.92 606.11,312.34C607.11,310.55 608.58,309.06 609.69,307.34C615.81,297.74 609.64,284.72 612.97,273.83C614.55,268.66 618.23,264.22 619.21,258.91C620.51,251.83 616.82,244.91 615.39,237.91C613.92,230.68 614.71,222.72 610.85,216.43C607.9,211.63 602.62,208.64 597.16,207.27C592.16,206.01 587.16,206.46 582.16,205.92C577.38,205.37 572.94,203.31 568.29,202.56Z" style="fill-opacity:0.1;fill-rule:nonzero;"/>
    </g>
    <g transform="matrix(0.545142,0,0,0.545142,19.4829,37.1288)">
        <path d="M568.29,201.11C565.809,200.571 563.241,200.571 560.76,201.11C552.9,203.28 550.43,213.19 544.36,218.63C542.18,220.63 539.49,221.97 537.51,224.14C533.99,228 533.28,233.72 534.03,238.89C534.78,244.06 536.78,248.96 538.03,254.03C539.264,259.105 539.733,264.336 539.42,269.55C539.448,271.28 538.983,272.984 538.08,274.46C536.63,276.46 533.96,277.09 532.08,278.69C526.34,283.63 531.08,293.88 526.87,300.19C525.06,302.92 521.67,304.72 520.98,307.92C520.49,310.19 521.53,312.48 522.55,314.57C525.23,320.07 528.01,325.72 532.55,329.82C537.09,333.92 542.7,335.98 548.28,338.07C549.97,338.7 552.09,339.25 553.38,338C554.97,336.44 553.77,333.8 552.67,331.87C550.93,328.87 549.57,325.25 550.59,321.87C551.61,318.49 554.88,316.25 557.08,313.43C562.75,306.13 560.89,295.65 558.08,286.85C556.89,283.14 555.55,279.19 556.56,275.42C556.99,273.8 557.84,272.33 558.38,270.74C560.78,263.66 556.75,255.89 557.93,248.51C558.544,245.628 559.553,242.845 560.93,240.24L567.28,226.59C567.919,224.947 568.874,223.446 570.09,222.17C572.063,220.584 574.566,219.804 577.09,219.99C582.29,220.106 587.22,222.353 590.72,226.2C597.52,233.76 597.09,245.2 596.27,255.28L595.68,262.56C595.25,267.8 594.68,273.39 591.38,277.47C588.81,280.63 584.66,282.78 583.6,286.72C582.68,290.11 584.41,293.79 583.5,297.18C582.14,302.25 575.88,304.08 572.57,308.18C569.727,311.819 569.401,316.855 571.75,320.83C573.01,322.83 575.02,324.83 574.75,327.18C574.52,329.07 572.82,330.6 572.83,332.5C572.996,334.236 574.22,335.7 575.9,336.17C577.555,336.599 579.282,336.68 580.97,336.41L598.9,334.79C600.023,334.786 601.124,334.482 602.09,333.91C603.34,333.01 603.75,331.35 603.92,329.82C604.64,323.44 602.92,316.47 606.11,310.89C607.11,309.1 608.58,307.61 609.69,305.89C615.81,296.29 609.64,283.27 612.97,272.38C614.55,267.21 618.23,262.77 619.21,257.46C620.51,250.38 616.82,243.46 615.39,236.46C613.92,229.23 614.71,221.27 610.85,214.98C607.9,210.18 602.62,207.19 597.16,205.82C592.16,204.56 587.16,205.01 582.16,204.47C577.38,203.93 572.94,201.87 568.29,201.11Z" style="fill:rgb(119,78,85);fill-rule:nonzero;"/>
    </g>
    <g transform="matrix(0.545142,0,0,0.545142,19.4829,37.1288)">
        <path d="M529.75,366.71C529.75,366.71 544.21,371.05 565.17,361.65L576,361.65C576,361.65 576.72,371.77 604.91,367.43" style="fill-opacity:0.1;fill-rule:nonzero;"/>
    </g>
    <g transform="matrix(0.545142,0,0,0.545142,53.8268,81.0128)">
        <ellipse cx="537" cy="690" rx="537" ry="49" style="fill:rgb(34,0,145);fill-opacity:0.1;"/>
    </g>
    <g transform="matrix(0.545142,0,0,0.545142,53.8268,81.0128)">
        <path d="M332,267.484C332,262.25 327.75,258 322.516,258L261.484,258C256.25,258 252,262.25 252,267.484L252,278.516C252,283.75 256.25,288 261.484,288L322.516,288C327.75,288 332,283.75 332,278.516L332,267.484Z" style="fill:rgb(34,0,145);fill-opacity:0.1;"/>
    </g>
    <g transform="matrix(0.545142,0,0,0.545142,53.8268,81.0128)">
        <path d="M368,300.484C368,295.25 363.75,291 358.516,291L297.484,291C292.25,291 288,295.25 288,300.484L288,311.516C288,316.75 292.25,321 297.484,321L358.516,321C363.75,321 368,316.75 368,311.516L368,300.484Z" style="fill:rgb(34,0,145);fill-opacity:0.1;"/>
    </g>
    <g transform="matrix(0.545142,0,0,0.545142,53.8268,81.0128)">
        <path d="M683,269.484C683,264.25 678.75,260 673.516,260L612.484,260C607.25,260 603,264.25 603,269.484L603,280.516C603,285.75 607.25,290 612.484,290L673.516,290C678.75,290 683,285.75 683,280.516L683,269.484Z" style="fill:rgb(34,0,145);fill-opacity:0.1;"/>
    </g>
    <g transform="matrix(0.545142,0,0,0.545142,53.8268,81.0128)">
        <path d="M719,302.484C719,297.25 714.75,293 709.516,293L648.484,293C643.25,293 639,297.25 639,302.484L639,313.516C639,318.75 643.25,323 648.484,323L709.516,323C714.75,323 719,318.75 719,313.516L719,302.484Z" style="fill:rgb(34,0,145);fill-opacity:0.1;"/>
    </g>
    <g transform="matrix(0.545142,0,0,0.545142,53.8268,81.0128)">
        <path d="M307,333.484C307,328.25 302.75,324 297.516,324L236.484,324C231.25,324 227,328.25 227,333.484L227,344.516C227,349.75 231.25,354 236.484,354L297.516,354C302.75,354 307,349.75 307,344.516L307,333.484Z" style="fill:rgb(34,0,145);fill-opacity:0.1;"/>
    </g>
    <g transform="matrix(0.545142,0,0,0.545142,53.8268,81.0128)">
        <path d="M387,450.484C387,445.25 382.75,441 377.516,441L316.484,441C311.25,441 307,445.25 307,450.484L307,461.516C307,466.75 311.25,471 316.484,471L377.516,471C382.75,471 387,466.75 387,461.516L387,450.484Z" style="fill:rgb(34,0,145);fill-opacity:0.1;"/>
    </g>
    <g transform="matrix(0.545142,0,0,0.545142,53.8268,81.0128)">
        <path d="M423,483.484C423,478.25 418.75,474 413.516,474L352.484,474C347.25,474 343,478.25 343,483.484L343,494.516C343,499.75 347.25,504 352.484,504L413.516,504C418.75,504 423,499.75 423,494.516L423,483.484Z" style="fill:rgb(34,0,145);fill-opacity:0.1;"/>
    </g>
    <g transform="matrix(0.545142,0,0,0.545142,53.8268,81.0128)">
        <path d="M362,516.484C362,511.25 357.75,507 352.516,507L291.484,507C286.25,507 282,511.25 282,516.484L282,527.516C282,532.75 286.25,537 291.484,537L352.516,537C357.75,537 362,532.75 362,527.516L362,516.484Z" style="fill:rgb(34,0,145);fill-opacity:0.1;"/>
    </g>
    <g transform="matrix(0.545142,0,0,0.545142,53.8268,81.0128)">
        <path d="M709,534.484C709,529.25 704.75,525 699.516,525L638.484,525C633.25,525 629,529.25 629,534.484L629,545.516C629,550.75 633.25,555 638.484,555L699.516,555C704.75,555 709,550.75 709,545.516L709,534.484Z" style="fill:rgb(34,0,145);fill-opacity:0.1;"/>
    </g>
    <g transform="matrix(0.545142,0,0,0.545142,53.8268,81.0128)">
        <path d="M648,567.484C648,562.25 643.75,558 638.516,558L577.484,558C572.25,558 568,562.25 568,567.484L568,578.516C568,583.75 572.25,588 577.484,588L638.516,588C643.75,588 648,583.75 648,578.516L648,567.484Z" style="fill:rgb(34,0,145);fill-opacity:0.1;"/>
    </g>
    <g transform="matrix(1,0,0,1,-187,-100)">
        <g opacity="0.1">
            <g transform="matrix(0.545142,0,0,0.545142,206.483,137.129)">
                <path d="M1008.26,743.89C1008.26,743.89 993.78,670.53 1023.6,620.25C1036.24,599.245 1041.72,574.696 1039.23,550.31C1037.94,538.74 1035.6,527.312 1032.23,516.17" style="fill:none;fill-rule:nonzero;stroke:rgb(83,84,97);stroke-width:2px;"/>
            </g>
            <g transform="matrix(0.545142,0,0,0.545142,206.483,137.129)">
                <path d="M1050.85,484.37C1050.05,493.12 1031.85,517.05 1031.85,517.05C1031.85,517.05 1018.33,490.21 1019.14,481.45C1020.04,473.437 1026.9,467.311 1034.96,467.311C1043.69,467.311 1050.88,474.497 1050.88,483.231C1050.88,483.607 1050.87,483.984 1050.84,484.36L1050.85,484.37Z" style="fill:rgb(34,0,145);fill-rule:nonzero;"/>
            </g>
            <g transform="matrix(0.545142,0,0,0.545142,206.483,137.129)">
                <path d="M1072.6,535.27C1067.17,542.18 1038.9,552.39 1038.9,552.39C1038.9,552.39 1042.14,522.51 1047.57,515.6C1050.56,511.445 1055.38,508.977 1060.49,508.977C1069.23,508.977 1076.41,516.163 1076.41,524.897C1076.41,528.702 1075.05,532.384 1072.57,535.27L1072.6,535.27Z" style="fill:rgb(34,0,145);fill-rule:nonzero;"/>
            </g>
            <g transform="matrix(0.545142,0,0,0.545142,206.483,137.129)">
                <path d="M1063.84,618C1055.66,621.22 1026.11,615.76 1026.11,615.76C1026.11,615.76 1043.99,591.6 1052.17,588.38C1053.96,587.707 1055.86,587.362 1057.77,587.362C1066.51,587.362 1073.69,594.549 1073.69,603.282C1073.69,609.717 1069.79,615.547 1063.84,618Z" style="fill:rgb(34,0,145);fill-rule:nonzero;"/>
            </g>
            <g transform="matrix(0.545142,0,0,0.545142,206.483,137.129)">
                <path d="M1043.11,679.15C1035.59,683.71 1005.54,683.32 1005.54,683.32C1005.54,683.32 1019.08,656.49 1026.6,651.93C1029.14,650.332 1032.08,649.484 1035.08,649.484C1043.81,649.484 1051,656.67 1051,665.404C1051,671.055 1047.99,676.299 1043.11,679.15Z" style="fill:rgb(34,0,145);fill-rule:nonzero;"/>
            </g>
            <g transform="matrix(0.545142,0,0,0.545142,206.483,137.129)">
                <path d="M1005.46,551C1011.18,557.68 1039.85,566.68 1039.85,566.68C1039.85,566.68 1035.35,536.96 1029.64,530.29C1026.62,526.656 1022.13,524.551 1017.4,524.551C1008.67,524.551 1001.48,531.738 1001.48,540.471C1001.48,544.347 1002.9,548.093 1005.46,551Z" style="fill:rgb(34,0,145);fill-rule:nonzero;"/>
            </g>
            <g transform="matrix(0.545142,0,0,0.545142,206.483,137.129)">
                <path d="M982.12,622.82C989.57,627.48 1019.63,627.49 1019.63,627.49C1019.63,627.49 1006.45,600.49 998.99,595.82C996.42,594.165 993.427,593.285 990.371,593.285C981.637,593.285 974.451,600.471 974.451,609.205C974.451,614.766 977.364,619.938 982.12,622.82Z" style="fill:rgb(34,0,145);fill-rule:nonzero;"/>
            </g>
            <g transform="matrix(0.545142,0,0,0.545142,206.483,137.129)">
                <path d="M969,695.71C975.56,701.56 1005.18,706.66 1005.18,706.66C1005.18,706.66 996.75,677.81 990.18,671.96C987.22,669.137 983.283,667.561 979.193,667.561C970.46,667.561 963.273,674.748 963.273,683.481C963.273,688.202 965.373,692.687 969,695.71Z" style="fill:rgb(34,0,145);fill-rule:nonzero;"/>
            </g>
        </g>
    </g>
    <g transform="matrix(1,0,0,1,-187,-100)">
        <g opacity="0.1">
            <g transform="matrix(0.545142,0,0,0.545142,206.483,137.129)">
                <path d="M882.63,727.79C882.63,727.79 874.86,688.4 890.86,661.4C897.646,650.12 900.591,636.936 899.25,623.84C898.566,617.629 897.314,611.493 895.51,605.51" style="fill:none;fill-rule:nonzero;stroke:rgb(83,84,97);stroke-width:2px;"/>
            </g>
            <g transform="matrix(0.545142,0,0,0.545142,206.483,137.129)">
                <path d="M905.5,588.43C905.07,593.13 895.3,605.98 895.3,605.98C895.3,605.98 888.04,591.57 888.47,586.87C889.097,582.705 892.713,579.592 896.925,579.592C901.615,579.592 905.475,583.452 905.475,588.142C905.475,588.238 905.473,588.334 905.47,588.43L905.5,588.43Z" style="fill:rgb(34,0,145);fill-rule:nonzero;"/>
            </g>
            <g transform="matrix(0.545142,0,0,0.545142,206.483,137.129)">
                <path d="M917.17,615.76C914.25,619.47 899.07,624.95 899.07,624.95C899.07,624.95 900.81,608.95 903.73,605.2C905.354,603.257 907.759,602.132 910.292,602.132C914.982,602.132 918.842,605.991 918.842,610.682C918.842,612.509 918.256,614.29 917.17,615.76Z" style="fill:rgb(34,0,145);fill-rule:nonzero;"/>
            </g>
            <g transform="matrix(0.545142,0,0,0.545142,206.483,137.129)">
                <path d="M912.47,660.2C908.08,661.93 892.21,659 892.21,659C892.21,659 901.81,646 906.21,644.3C907.136,643.968 908.112,643.798 909.096,643.798C913.786,643.798 917.646,647.658 917.646,652.348C917.646,655.756 915.609,658.851 912.48,660.2L912.47,660.2Z" style="fill:rgb(34,0,145);fill-rule:nonzero;"/>
            </g>
            <g transform="matrix(0.545142,0,0,0.545142,206.483,137.129)">
                <path d="M901.34,693C897.34,695.45 881.17,695.24 881.17,695.24C881.17,695.24 888.44,680.83 892.48,678.38C893.855,677.501 895.453,677.034 897.084,677.034C901.775,677.034 905.634,680.894 905.634,685.584C905.634,688.643 903.993,691.478 901.34,693Z" style="fill:rgb(34,0,145);fill-rule:nonzero;"/>
            </g>
            <g transform="matrix(0.545142,0,0,0.545142,206.483,137.129)">
                <path d="M881.12,624.22C884.19,627.81 899.59,632.64 899.59,632.64C899.59,632.64 897.18,616.64 894.11,613.1C892.486,611.201 890.109,610.106 887.61,610.106C882.918,610.106 879.056,613.968 879.056,618.66C879.056,620.698 879.785,622.671 881.11,624.22L881.12,624.22Z" style="fill:rgb(34,0,145);fill-rule:nonzero;"/>
            </g>
            <g transform="matrix(0.545142,0,0,0.545142,206.483,137.129)">
                <path d="M868.59,662.77C872.59,665.27 888.73,665.28 888.73,665.28C888.73,665.28 881.65,650.78 877.65,648.28C876.318,647.477 874.792,647.053 873.237,647.053C868.547,647.053 864.687,650.913 864.687,655.603C864.687,658.5 866.159,661.206 868.59,662.78L868.59,662.77Z" style="fill:rgb(34,0,145);fill-rule:nonzero;"/>
            </g>
            <g transform="matrix(0.545142,0,0,0.545142,206.483,137.129)">
                <path d="M861.56,701.91C865.08,705.05 880.99,707.79 880.99,707.79C880.99,707.79 876.47,692.3 872.99,689.16C871.439,687.824 869.458,687.089 867.411,687.089C862.72,687.089 858.861,690.948 858.861,695.639C858.861,698.023 859.858,700.302 861.61,701.92L861.56,701.91Z" style="fill:rgb(34,0,145);fill-rule:nonzero;"/>
            </g>
        </g>
    </g>
    <g transform="matrix(1,0,0,1,-187,-100)">
        <g opacity="0.1">
            <g transform="matrix(0.545142,0,0,0.545142,206.483,137.129)">
                <path d="M249.63,733.79C249.63,733.79 241.86,694.4 257.86,667.4C264.646,656.12 267.591,642.936 266.25,629.84C265.566,623.629 264.314,617.493 262.51,611.51" style="fill:none;fill-rule:nonzero;stroke:rgb(83,84,97);stroke-width:2px;"/>
            </g>
            <g transform="matrix(0.545142,0,0,0.545142,206.483,137.129)">
                <path d="M272.5,594.43C272.07,599.13 262.3,611.98 262.3,611.98C262.3,611.98 255.04,597.57 255.47,592.87C256.097,588.705 259.713,585.592 263.925,585.592C268.615,585.592 272.475,589.452 272.475,594.142C272.475,594.238 272.473,594.334 272.47,594.43L272.5,594.43Z" style="fill:rgb(34,0,145);fill-rule:nonzero;"/>
            </g>
            <g transform="matrix(0.545142,0,0,0.545142,206.483,137.129)">
                <path d="M284.17,621.76C281.25,625.47 266.07,630.95 266.07,630.95C266.07,630.95 267.81,614.95 270.73,611.2C272.354,609.257 274.759,608.132 277.292,608.132C281.982,608.132 285.842,611.991 285.842,616.682C285.842,618.509 285.256,620.29 284.17,621.76Z" style="fill:rgb(34,0,145);fill-rule:nonzero;"/>
            </g>
            <g transform="matrix(0.545142,0,0,0.545142,206.483,137.129)">
                <path d="M279.47,666.2C275.08,667.93 259.21,665 259.21,665C259.21,665 268.81,652 273.21,650.3C274.136,649.968 275.112,649.798 276.096,649.798C280.786,649.798 284.646,653.658 284.646,658.348C284.646,661.756 282.609,664.851 279.48,666.2L279.47,666.2Z" style="fill:rgb(34,0,145);fill-rule:nonzero;"/>
            </g>
            <g transform="matrix(0.545142,0,0,0.545142,206.483,137.129)">
                <path d="M268.34,699C264.34,701.45 248.17,701.24 248.17,701.24C248.17,701.24 255.44,686.83 259.48,684.38C260.855,683.501 262.453,683.034 264.084,683.034C268.775,683.034 272.634,686.894 272.634,691.584C272.634,694.643 270.993,697.478 268.34,699Z" style="fill:rgb(34,0,145);fill-rule:nonzero;"/>
            </g>
            <g transform="matrix(0.545142,0,0,0.545142,206.483,137.129)">
                <path d="M248.12,630.22C251.19,633.81 266.59,638.64 266.59,638.64C266.59,638.64 264.18,622.64 261.11,619.1C259.486,617.201 257.109,616.106 254.61,616.106C249.918,616.106 246.056,619.968 246.056,624.66C246.056,626.698 246.785,628.671 248.11,630.22L248.12,630.22Z" style="fill:rgb(34,0,145);fill-rule:nonzero;"/>
            </g>
            <g transform="matrix(0.545142,0,0,0.545142,206.483,137.129)">
                <path d="M235.59,668.77C239.59,671.27 255.73,671.28 255.73,671.28C255.73,671.28 248.65,656.78 244.65,654.28C243.318,653.477 241.792,653.053 240.237,653.053C235.547,653.053 231.687,656.913 231.687,661.603C231.687,664.5 233.159,667.206 235.59,668.78L235.59,668.77Z" style="fill:rgb(34,0,145);fill-rule:nonzero;"/>
            </g>
            <g transform="matrix(0.545142,0,0,0.545142,206.483,137.129)">
                <path d="M228.56,707.91C232.08,711.05 247.99,713.79 247.99,713.79C247.99,713.79 243.47,698.3 239.99,695.16C238.439,693.824 236.458,693.089 234.411,693.089C229.72,693.089 225.861,696.948 225.861,701.639C225.861,704.023 226.858,706.302 228.61,707.92L228.56,707.91Z" style="fill:rgb(34,0,145);fill-rule:nonzero;"/>
            </g>
        </g>
    </g>
    <defs>
        <linearGradient id="_Linear1" x1="0" y1="0" x2="1" y2="0" gradientUnits="userSpaceOnUse" gradientTransform="matrix(4.34223e-14,-709.14,709.14,4.34223e-14,607.35,789.64)"><stop offset="0" style="stop-color:rgb(128,128,128);stop-opacity:0.25"/><stop offset="0.54" style="stop-color:rgb(128,128,128);stop-opacity:0.12"/><stop offset="1" style="stop-color:rgb(128,128,128);stop-opacity:0.1"/></linearGradient>
    </defs>
</svg>
