<svg xmlns="http://www.w3.org/2000/svg" width="468" height="306.413" viewBox="0 0 468 306.413"><defs><style>.a{fill:#fff;}</style></defs><path class="a" d="M448.255,329.453,355.7,303.637a36.586,36.586,0,0,1-25.184-25.008A77.873,77.873,0,0,0,262,222.677V188.256a7,7,0,0,0-7-7c-17.327,0-31.965-14.807-31.965-32.334a32.563,32.563,0,0,1,32.715-32.334,31.82,31.82,0,0,1,30.092,21.074,7,7,0,1,0,13.138-4.836,45.694,45.694,0,0,0-43.23-30.238A46.359,46.359,0,0,0,248,194.711v28.158a77.851,77.851,0,0,0-66.5,55.76,36.559,36.559,0,0,1-25.162,25.008L63.745,329.453A57.233,57.233,0,0,0,22,384.329V402.39c0,3.866,3.307,6.61,7.173,6.61H482.827c3.866,0,7.173-2.744,7.173-6.61V384.329a57.233,57.233,0,0,0-41.745-54.876Z" transform="translate(-22 -102.587)"/></svg>