<?xml version="1.0" encoding="UTF-8" standalone="no"?>
<!DOCTYPE svg PUBLIC "-//W3C//DTD SVG 1.1//EN" "http://www.w3.org/Graphics/SVG/1.1/DTD/svg11.dtd">
<svg width="100%" height="100%" viewBox="0 0 800 601" version="1.1" xmlns="http://www.w3.org/2000/svg" xmlns:xlink="http://www.w3.org/1999/xlink" xml:space="preserve" xmlns:serif="http://www.serif.com/" style="fill-rule:evenodd;clip-rule:evenodd;stroke-linejoin:round;stroke-miterlimit:2;">
    <g transform="matrix(0.724387,0,0,0.724387,26.6909,-4.4584)">
        <rect x="117.5" y="105.5" width="910" height="490" style="fill:rgb(242,242,242);"/>
    </g>
    <g transform="matrix(0.724387,0,0,0.724387,26.6909,-4.4584)">
        <rect x="205.5" y="189.5" width="294" height="361" style="fill:rgb(108,99,255);fill-opacity:0.3;"/>
    </g>
    <g transform="matrix(0.724387,0,0,0.724387,26.6909,-4.4584)">
        <rect x="612.5" y="215.5" width="235" height="13" style="fill:rgb(63,61,86);"/>
    </g>
    <g transform="matrix(0.724387,0,0,0.724387,26.6909,-4.4584)">
        <rect x="612.5" y="239.5" width="342" height="13" style="fill:rgb(63,61,86);"/>
    </g>
    <g transform="matrix(0.724387,0,0,0.724387,26.6909,-4.4584)">
        <rect x="612.5" y="297.5" width="235" height="13" style="fill:rgb(63,61,86);"/>
    </g>
    <g transform="matrix(0.724387,0,0,0.724387,26.6909,-4.4584)">
        <rect x="612.5" y="393.5" width="235" height="13" style="fill:rgb(63,61,86);"/>
    </g>
    <g transform="matrix(0.724387,0,0,0.724387,26.6909,-4.4584)">
        <rect x="612.5" y="321.5" width="342" height="13" style="fill:rgb(63,61,86);"/>
    </g>
    <g transform="matrix(0.724387,0,0,0.724387,26.6909,-4.4584)">
        <rect x="612.5" y="345.5" width="342" height="13" style="fill:rgb(63,61,86);"/>
    </g>
    <g transform="matrix(0.724387,0,0,0.724387,26.6909,-4.4584)">
        <rect x="612.5" y="369.5" width="342" height="13" style="fill:rgb(63,61,86);"/>
    </g>
    <g transform="matrix(0.724387,0,0,0.724387,26.6909,-4.4584)">
        <rect x="612.5" y="451.5" width="123" height="34" style="fill:rgb(108,99,255);"/>
    </g>
    <g transform="matrix(0.724387,0,0,0.724387,26.6909,-4.4584)">
        <rect x="224.5" y="170" width="294" height="361" style="fill:rgb(63,61,86);"/>
    </g>
    <g transform="matrix(0.724387,0,0,0.724387,-14.237,-40.4967)">
        <path d="M533,419.358C533,489.468 491.32,513.949 439.906,513.949C388.491,513.949 346.811,489.468 346.811,419.358C346.811,349.247 439.906,260.055 439.906,260.055C439.906,260.055 533,349.247 533,419.358Z" style="fill:rgb(108,99,255);fill-rule:nonzero;"/>
    </g>
    <g transform="matrix(0.724387,0,0,0.724387,26.6909,-4.4584)">
        <path d="M380.014,453.474L380.968,394.797L420.647,322.206L381.117,385.593L381.546,359.209L408.893,306.69L381.659,352.227L381.659,352.228L382.43,304.776L411.714,262.964L382.551,297.314L383.033,210.305L380.006,325.49L380.255,320.738L350.482,275.166L379.777,329.859L377.003,382.855L376.921,381.448L342.598,333.49L376.817,386.417L376.47,393.045L376.408,393.145L376.436,393.689L369.398,528.142L378.801,528.142L379.93,458.694L414.064,405.897L380.014,453.474Z" style="fill:rgb(63,61,86);fill-rule:nonzero;"/>
    </g>
    <g transform="matrix(0.724387,0,0,0.724387,26.6909,-4.4584)">
        <ellipse cx="131.5" cy="783.5" rx="131" ry="17" style="fill:rgb(63,61,86);"/>
    </g>
    <g transform="matrix(0.724387,0,0,0.724387,-14.237,-40.4967)">
        <path d="M126.123,362.626L121.772,372.961L126.667,439.865C126.667,439.865 123.947,443.673 126.667,446.393C129.387,449.112 128.843,450.2 128.843,450.2C128.843,450.2 124.491,450.2 126.667,453.464C128.843,456.728 128.843,458.359 128.843,458.359L127.755,461.623C127.755,461.623 129.931,464.343 129.931,466.518C129.931,468.694 144.073,535.599 144.073,535.599L157.672,508.946L150.057,402.877L126.123,362.626Z" style="fill:rgb(108,99,255);fill-rule:nonzero;"/>
    </g>
    <g transform="matrix(0.724387,0,0,0.724387,-14.237,-40.4967)">
        <path d="M269.209,529.983C269.209,529.983 293.141,547.61 293.984,561.707C294.826,575.803 263.134,540.715 262.918,536.761C262.703,532.807 269.209,529.983 269.209,529.983Z" style="fill:rgb(255,185,185);fill-rule:nonzero;"/>
    </g>
    <g transform="matrix(0.724387,0,0,0.724387,-14.237,-40.4967)">
        <path d="M119.052,796.69L113.069,816.272C113.069,816.272 104.366,835.31 116.332,838.03C128.299,840.749 139.722,830.414 139.722,830.414L139.722,817.36L144.073,796.69L119.052,796.69Z" style="fill:rgb(47,46,65);fill-rule:nonzero;"/>
    </g>
    <g transform="matrix(0.724387,0,0,0.724387,-14.237,-40.4967)">
        <path d="M216.961,796.69C216.961,796.69 214.241,833.678 220.225,835.854C226.208,838.03 247.422,838.574 247.966,835.854C248.51,833.134 255.037,830.414 250.142,826.607C245.246,822.799 241.982,800.498 241.982,800.498L216.961,796.69Z" style="fill:rgb(47,46,65);fill-rule:nonzero;"/>
    </g>
    <g transform="matrix(0.724387,0,0,0.724387,-14.237,-40.4967)">
        <path d="M162.023,446.393L162.023,462.711C162.023,462.711 144.073,500.243 137.546,559.532C131.019,618.822 108.717,799.41 114.156,802.674C119.596,805.937 178.341,808.113 179.973,803.761C181.605,799.41 183.237,672.128 183.237,672.128L203.363,582.378C203.363,582.378 207.17,614.47 210.434,619.91C213.698,625.349 204.994,802.13 210.434,804.849C215.873,807.569 289.305,812.464 288.217,803.761C287.129,795.058 262.652,558.988 262.652,558.988C262.652,558.988 250.142,447.481 246.334,446.393C242.526,445.305 207.714,444.217 202.275,445.305C196.835,446.393 162.023,446.393 162.023,446.393Z" style="fill:rgb(47,46,65);fill-rule:nonzero;"/>
    </g>
    <g transform="matrix(0.724387,0,0,0.724387,26.6909,-4.4584)">
        <circle cx="146.863" cy="230.741" r="31.005" style="fill:rgb(255,185,185);"/>
    </g>
    <g transform="matrix(0.724387,0,0,0.724387,-14.237,-40.4967)">
        <path d="M209.89,306.6C209.89,306.6 194.116,331.077 197.923,337.605C201.731,344.132 157.672,331.077 157.672,331.077C157.672,331.077 184.325,298.441 183.781,294.633C183.237,290.826 209.89,306.6 209.89,306.6Z" style="fill:rgb(255,185,185);fill-rule:nonzero;"/>
    </g>
    <g transform="matrix(0.724387,0,0,0.724387,-14.237,-40.4967)">
        <path d="M242.526,343.044C242.526,343.044 213.698,333.797 209.89,329.989C207.447,327.494 205.261,324.761 203.363,321.83C201.465,318.9 168.55,316.935 167.463,316.935C166.375,316.935 158.216,326.726 156.04,328.902C153.864,331.077 126.123,345.764 126.123,349.571C126.123,353.379 121.772,372.961 121.772,372.961C121.772,372.961 131.563,393.087 137.546,397.438C143.529,401.79 145.161,400.702 145.705,407.773C146.249,414.844 153.864,426.267 153.864,426.267C153.864,426.267 158.76,438.778 157.672,442.585C156.584,446.393 151.688,449.656 163.111,448.568C174.534,447.481 231.104,450.744 231.104,444.761C231.104,438.778 220.225,381.664 220.225,381.664L242.526,343.044Z" style="fill:rgb(108,99,255);fill-rule:nonzero;"/>
    </g>
    <g transform="matrix(0.724387,0,0,0.724387,-14.237,-40.4967)">
        <path d="M232.192,344.132L242.526,343.044C242.526,343.044 246.334,345.22 246.878,366.433C247.422,387.647 247.422,438.777 251.229,443.129C255.037,447.481 270.811,514.929 270.811,514.929C270.811,514.929 275.163,516.017 275.163,519.825C275.163,523.632 280.058,526.896 277.882,531.247C275.707,535.599 280.058,534.511 277.339,537.231C274.619,539.95 261.564,545.39 261.02,542.126C260.476,538.862 262.652,538.319 260.476,537.231C258.301,536.143 258.301,535.599 257.757,531.791C257.213,527.984 252.317,524.176 252.861,522.544C253.405,520.912 228.928,473.59 228.928,471.958C228.928,470.326 227.296,464.343 225.12,463.255C222.945,462.167 219.681,461.079 221.313,458.359C222.945,455.64 216.961,374.049 216.961,374.049L232.192,344.132Z" style="fill:rgb(108,99,255);fill-rule:nonzero;"/>
    </g>
    <g transform="matrix(0.724387,0,0,0.724387,-14.237,-40.4967)">
        <path d="M229.581,260.828C220.074,250.508 205.143,245.03 191.45,248.1C177.758,251.169 166.228,263.326 165.158,277.318C164.939,280.18 165.121,283.103 164.38,285.876C163.135,290.541 159.428,294.237 158.122,298.885C157.247,301.998 157.506,305.35 156.578,308.447C154.865,314.171 149.56,317.903 145.516,322.302C143.879,323.915 142.663,325.905 141.975,328.097C141.62,330.042 141.529,332.025 141.707,333.994C141.878,344.601 137.93,354.873 130.7,362.636C134.953,359.476 139.547,356.805 144.398,354.673C141.994,362.328 144.191,371.386 150.24,376.658C156.289,381.93 165.977,382.75 172.517,378.101C176.403,375.339 178.926,371.1 181.336,366.988L190.462,351.417C192.113,348.601 193.836,345.702 196.474,343.778C198.57,342.25 201.116,341.436 203.226,339.927C208.548,336.119 209.977,328.665 208.986,322.197C207.995,315.728 205.086,309.722 203.418,303.394C202.098,298.389 201.684,292.653 204.653,288.413C208.593,282.785 216.692,282.067 222.046,277.761C224.062,276.14 224.963,274.168 226.407,272.139C227.74,270.266 228.079,270.938 230.145,270.852C235.816,270.617 231.683,263.109 229.581,260.828Z" style="fill:rgb(47,46,65);fill-rule:nonzero;"/>
    </g>
    <g transform="matrix(0.724387,0,0,0.724387,26.6909,-4.4584)">
        <ellipse cx="146" cy="241.5" rx="2.5" ry="6" style="fill:rgb(255,185,185);"/>
    </g>
    <g transform="matrix(0.724387,0,0,0.724387,26.6909,-4.4584)">
        <circle cx="674" cy="694" r="32" style="fill:rgb(242,242,242);"/>
    </g>
    <g transform="matrix(0.724387,0,0,0.724387,26.6909,-4.4584)">
        <circle cx="32" cy="64" r="32" style="fill:rgb(242,242,242);"/>
    </g>
    <g transform="matrix(0.724387,0,0,0.724387,-4.52311,-3.02671)">
        <circle cx="1055" cy="32" r="32" style="fill:rgb(242,242,242);"/>
    </g>
</svg>
