<?xml version="1.0" encoding="UTF-8" standalone="no"?>
<!DOCTYPE svg PUBLIC "-//W3C//DTD SVG 1.1//EN" "http://www.w3.org/Graphics/SVG/1.1/DTD/svg11.dtd">
<svg width="100%" height="100%" viewBox="0 0 1098 821" version="1.1" xmlns="http://www.w3.org/2000/svg" xmlns:xlink="http://www.w3.org/1999/xlink" xml:space="preserve" xmlns:serif="http://www.serif.com/" style="fill-rule:evenodd;clip-rule:evenodd;stroke-miterlimit:10;">
    <ellipse cx="570.71" cy="801.97" rx="348.83" ry="18.88" style="fill:white;fill-opacity:0.1;"/>
    <g transform="matrix(1,0,0,1,-51.45,-39.57)">
        <path d="M819.75,767.52L816.75,771.92L798.2,799.52L782.45,804.27L770.7,792.77L771.27,785.18L774.2,745.77C774.2,745.77 701.5,703 695,695C688.5,687 663.5,679.75 663.5,679.75C663.5,679.75 625.25,662 611,631C596.75,600 634.75,595.25 634.75,595.25L777.5,731.77L819.75,767.52Z" style="fill:rgb(255,193,199);fill-rule:nonzero;"/>
    </g>
    <g transform="matrix(1,0,0,1,-51.45,-39.57)">
        <path d="M837.25,783.52L792,825.77C792,825.77 766,830.77 742.75,827.27C727.89,825.03 730.75,816.88 734.66,811.27L734.73,811.17C737.071,807.962 740.497,805.709 744.37,804.83C763.61,800.19 770.25,786.26 770.25,786.26L784.25,798.26L808.5,770L826.43,778.42L837.25,783.52Z" style="fill:rgb(87,89,136);fill-rule:nonzero;"/>
    </g>
    <path d="M729.8,778.69L774.98,739.36" style="fill:none;fill-rule:nonzero;"/>
    <g transform="matrix(1,0,0,1,-51.45,-39.57)">
        <path d="M826.43,778.44L815.78,773.44L816.78,771.92L819.78,767.52L777.5,731.77L634.75,595.27C634.75,595.27 596.75,600 611,631C625.25,662 663.5,679.75 663.5,679.75C663.5,679.75 688.5,687 695,695C701.5,703 774.25,745.75 774.25,745.75L771.32,785.16L771.18,787.04L770.25,786.25C770.25,786.25 763.61,800.18 744.37,804.82C740.497,805.699 737.071,807.952 734.73,811.16L734.66,811.26C730.66,816.86 727.89,825.01 742.75,827.26C766,830.76 792,825.76 792,825.76L837.25,783.51L826.43,778.44Z" style="fill-opacity:0.1;fill-rule:nonzero;"/>
    </g>
    <g transform="matrix(1,0,0,1,-51.45,-39.57)">
        <path d="M63.3,469.55C80.66,543.75 117.41,607.89 175.48,639C296.19,703.62 568.4,670.29 771.55,632C874.188,612.725 967.404,559.436 1036.09,480.77L63.3,469.55Z" style="fill:white;fill-opacity:0.1;fill-rule:nonzero;"/>
    </g>
    <g transform="matrix(1,0,0,1,-51.45,-39.57)">
        <path d="M1128.65,120.29L1017.18,120.29C1012.01,120.123 1007.85,115.826 1007.85,110.655C1007.85,105.484 1012.01,101.187 1017.18,101.02L1036.45,101.02C1031.17,101.02 1026.82,96.673 1026.82,91.39C1026.82,86.107 1031.17,81.76 1036.45,81.76L1022.69,81.76C1017.52,81.593 1013.36,77.296 1013.36,72.125C1013.36,66.954 1017.52,62.657 1022.69,62.49L1080.87,62.49C1067.96,56.49 1052.87,52.22 1035.48,49.98C876.84,29.61 820.2,43.08 800.22,56.98C775.57,74.08 748.07,86.66 718.68,92.72C620.8,112.91 437.75,137.2 271.84,84.94C189.38,58.94 128.1,102.86 91.36,176.22L1148,176.22C1146.62,154.9 1142.49,135.22 1134.91,117.98C1133.17,119.473 1130.94,120.292 1128.65,120.29Z" style="fill:white;fill-opacity:0.1;fill-rule:nonzero;"/>
    </g>
    <g transform="matrix(1,0,0,1,-51.45,-39.57)">
        <path d="M53.84,314.67C49.559,357.825 51.011,401.357 58.16,444.13L1036.84,479.92C1064.09,448.584 1086.96,413.7 1104.84,376.22L53.84,314.67ZM440.92,407L421.65,407C421.753,406.997 421.857,406.995 421.96,406.995C427.249,406.995 431.6,411.347 431.6,416.635C431.6,421.923 427.249,426.275 421.96,426.275C421.857,426.275 421.753,426.273 421.65,426.27L310.18,426.27C305.011,426.103 300.85,421.806 300.85,416.635C300.85,411.464 305.011,407.167 310.18,407L329.45,407C324.167,407 319.82,402.653 319.82,397.37C319.82,392.087 324.167,387.74 329.45,387.74C329.45,387.74 315.69,387.74 315.69,387.74C310.521,387.573 306.36,383.276 306.36,378.105C306.36,372.934 310.521,368.637 315.69,368.47L427.16,368.47C432.329,368.637 436.49,372.934 436.49,378.105C436.49,383.276 432.329,387.573 427.16,387.74L440.92,387.74C446.203,387.74 450.55,392.087 450.55,397.37C450.55,402.653 446.203,407 440.92,407Z" style="fill:white;fill-opacity:0.1;fill-rule:nonzero;"/>
    </g>
    <g transform="matrix(1,0,0,1,-51.45,-39.57)">
        <path d="M1148.05,176.86L79.57,202.86C66.57,236.27 58,274 54,313.19L1129.33,313.19C1136.35,290.192 1141.54,266.675 1144.86,242.86C1148.06,219.85 1149.34,197.59 1148.05,176.86ZM270.92,262L251.65,262C251.753,261.997 251.857,261.995 251.96,261.995C257.249,261.995 261.6,266.347 261.6,271.635C261.6,276.923 257.249,281.275 251.96,281.275C251.857,281.275 251.753,281.273 251.65,281.27L140.18,281.27C135.011,281.103 130.85,276.806 130.85,271.635C130.85,266.464 135.011,262.167 140.18,262L159.45,262C154.167,262 149.82,257.653 149.82,252.37C149.82,247.087 154.167,242.74 159.45,242.74L145.69,242.74C140.521,242.573 136.36,238.276 136.36,233.105C136.36,227.934 140.521,223.637 145.69,223.47L257.16,223.47C262.329,223.637 266.49,227.934 266.49,233.105C266.49,238.276 262.329,242.573 257.16,242.74L270.92,242.74C276.203,242.74 280.55,247.087 280.55,252.37C280.55,257.653 276.203,262 270.92,262Z" style="fill:white;fill-opacity:0.1;fill-rule:nonzero;"/>
    </g>
    <g opacity="0.1">
        <g transform="matrix(1,0,0,1,-51.45,-39.57)">
            <path d="M848.76,533.19C848.76,533.19 876.96,463.69 929.62,437.91C951.774,427.241 969.877,409.662 981.19,387.83C986.482,377.424 990.81,366.555 994.12,355.36" style="fill:none;fill-rule:nonzero;stroke:rgb(83,84,97);stroke-width:2px;"/>
        </g>
        <g transform="matrix(1,0,0,1,-51.45,-39.57)">
            <path d="M1027.21,338.92C1021.72,345.82 993.31,355.92 993.31,355.92C993.31,355.92 996.73,325.97 1002.22,319.07C1005.21,314.798 1010.11,312.249 1015.33,312.249C1024.1,312.249 1031.33,319.471 1031.33,328.249C1031.33,332.199 1029.86,336.013 1027.22,338.95L1027.21,338.92Z" style="fill:white;fill-rule:nonzero;"/>
        </g>
        <g transform="matrix(1,0,0,1,-51.45,-39.57)">
            <path d="M1017.46,393.57C1009.1,396.38 979.78,389.39 979.78,389.39C979.78,389.39 998.93,366.11 1007.29,363.3C1009.22,362.511 1011.28,362.105 1013.36,362.105C1022.13,362.105 1029.36,369.328 1029.36,378.105C1029.36,385.339 1024.45,391.715 1017.46,393.57Z" style="fill:white;fill-rule:nonzero;"/>
        </g>
        <g transform="matrix(1,0,0,1,-51.45,-39.57)">
            <path d="M964.6,458.18C955.97,456.38 934.18,435.55 934.18,435.55C934.18,435.55 962.47,425.12 971.1,426.91C978.034,428.807 982.879,435.154 982.879,442.343C982.879,451.12 975.656,458.343 966.879,458.343C966.116,458.343 965.355,458.289 964.6,458.18Z" style="fill:white;fill-rule:nonzero;"/>
        </g>
        <g transform="matrix(1,0,0,1,-51.45,-39.57)">
            <path d="M913.6,498.05C904.79,497.75 879.79,480.89 879.79,480.89C879.79,480.89 905.91,465.83 914.72,466.14C914.887,466.135 915.053,466.132 915.22,466.132C923.997,466.132 931.22,473.355 931.22,482.132C931.22,490.91 923.997,498.132 915.22,498.132C914.679,498.132 914.138,498.105 913.6,498.05Z" style="fill:white;fill-rule:nonzero;"/>
        </g>
        <g transform="matrix(1,0,0,1,-51.45,-39.57)">
            <path d="M952.48,369.86C953.6,378.61 972.7,401.93 972.7,401.93C972.7,401.93 985.28,374.53 984.15,365.79C982.683,358.313 976.069,352.871 968.449,352.871C959.672,352.871 952.449,360.093 952.449,368.871C952.449,369.201 952.46,369.531 952.48,369.86Z" style="fill:white;fill-rule:nonzero;"/>
        </g>
        <g transform="matrix(1,0,0,1,-51.45,-39.57)">
            <path d="M893.42,417.25C897.11,425.25 922.32,441.8 922.32,441.8C922.32,441.8 926.11,411.9 922.42,403.89C919.623,398.747 914.218,395.534 908.364,395.534C899.587,395.534 892.364,402.757 892.364,411.534C892.364,413.488 892.722,415.425 893.42,417.25Z" style="fill:white;fill-rule:nonzero;"/>
        </g>
        <g transform="matrix(1,0,0,1,-51.45,-39.57)">
            <path d="M842.34,471.19C844.63,479.71 866.67,500.27 866.67,500.27C866.67,500.27 875.47,471.44 873.19,462.92C871.009,456.417 864.879,452.007 858.02,452.007C849.243,452.007 842.02,459.23 842.02,468.007C842.02,469.076 842.127,470.142 842.34,471.19Z" style="fill:white;fill-rule:nonzero;"/>
        </g>
        <g transform="matrix(1,0,0,1,-51.45,-39.57)">
            <path d="M1027.21,338.92C1021.72,345.82 993.31,355.92 993.31,355.92C993.31,355.92 996.73,325.97 1002.22,319.07C1005.21,314.798 1010.11,312.249 1015.33,312.249C1024.1,312.249 1031.33,319.471 1031.33,328.249C1031.33,332.199 1029.86,336.013 1027.22,338.95L1027.21,338.92Z" style="fill-opacity:0.25;fill-rule:nonzero;"/>
        </g>
        <g transform="matrix(1,0,0,1,-51.45,-39.57)">
            <path d="M1017.46,393.57C1009.1,396.38 979.78,389.39 979.78,389.39C979.78,389.39 998.93,366.11 1007.29,363.3C1009.22,362.511 1011.28,362.105 1013.36,362.105C1022.13,362.105 1029.36,369.328 1029.36,378.105C1029.36,385.339 1024.45,391.715 1017.46,393.57Z" style="fill-opacity:0.25;fill-rule:nonzero;"/>
        </g>
        <g transform="matrix(1,0,0,1,-51.45,-39.57)">
            <path d="M964.6,458.18C955.97,456.38 934.18,435.55 934.18,435.55C934.18,435.55 962.47,425.12 971.1,426.91C978.034,428.807 982.879,435.154 982.879,442.343C982.879,451.12 975.656,458.343 966.879,458.343C966.116,458.343 965.355,458.289 964.6,458.18Z" style="fill-opacity:0.25;fill-rule:nonzero;"/>
        </g>
        <g transform="matrix(1,0,0,1,-51.45,-39.57)">
            <path d="M913.6,498.05C904.79,497.75 879.79,480.89 879.79,480.89C879.79,480.89 905.91,465.83 914.72,466.14C914.887,466.135 915.053,466.132 915.22,466.132C923.997,466.132 931.22,473.355 931.22,482.132C931.22,490.91 923.997,498.132 915.22,498.132C914.679,498.132 914.138,498.105 913.6,498.05Z" style="fill-opacity:0.25;fill-rule:nonzero;"/>
        </g>
        <g transform="matrix(1,0,0,1,-51.45,-39.57)">
            <path d="M952.48,369.86C953.6,378.61 972.7,401.93 972.7,401.93C972.7,401.93 985.28,374.53 984.15,365.79C982.683,358.313 976.069,352.871 968.449,352.871C959.672,352.871 952.449,360.093 952.449,368.871C952.449,369.201 952.46,369.531 952.48,369.86Z" style="fill-opacity:0.25;fill-rule:nonzero;"/>
        </g>
        <g transform="matrix(1,0,0,1,-51.45,-39.57)">
            <path d="M893.42,417.25C897.11,425.25 922.32,441.8 922.32,441.8C922.32,441.8 926.11,411.9 922.42,403.89C919.623,398.747 914.218,395.534 908.364,395.534C899.587,395.534 892.364,402.757 892.364,411.534C892.364,413.488 892.722,415.425 893.42,417.25Z" style="fill-opacity:0.25;fill-rule:nonzero;"/>
        </g>
        <g transform="matrix(1,0,0,1,-51.45,-39.57)">
            <path d="M842.34,471.19C844.63,479.71 866.67,500.27 866.67,500.27C866.67,500.27 875.47,471.44 873.19,462.92C871.009,456.417 864.879,452.007 858.02,452.007C849.243,452.007 842.02,459.23 842.02,468.007C842.02,469.076 842.127,470.142 842.34,471.19Z" style="fill-opacity:0.25;fill-rule:nonzero;"/>
        </g>
    </g>
    <g opacity="0.1">
        <g transform="matrix(1,0,0,1,-51.45,-39.57)">
            <path d="M803.86,422C803.86,422 807.42,347.08 848.55,305.29C865.91,287.879 877.16,265.295 880.6,240.95C882.133,229.367 882.602,217.668 882,206" style="fill:none;fill-rule:nonzero;stroke:rgb(83,84,97);stroke-width:2px;"/>
        </g>
        <g transform="matrix(1,0,0,1,-51.45,-39.57)">
            <path d="M907.79,179.5C904.9,187.84 881.44,206.76 881.44,206.76C881.44,206.76 874.74,177.37 877.62,169.04C880.115,163.123 885.941,159.256 892.363,159.256C901.14,159.256 908.363,166.479 908.363,175.256C908.363,176.69 908.17,178.118 907.79,179.5Z" style="fill:white;fill-rule:nonzero;"/>
        </g>
        <g transform="matrix(1,0,0,1,-51.45,-39.57)">
            <path d="M916.72,234.3C909.72,239.72 879.78,242.86 879.78,242.86C879.78,242.86 890.13,214.54 897.08,209.12C899.735,207.311 902.875,206.343 906.088,206.343C914.866,206.343 922.088,213.566 922.088,222.343C922.088,226.91 920.133,231.265 916.72,234.3Z" style="fill:white;fill-rule:nonzero;"/>
        </g>
        <g transform="matrix(1,0,0,1,-51.45,-39.57)">
            <path d="M888.28,312.78C879.54,313.95 852.07,301.52 852.07,301.52C852.07,301.52 875.3,282.3 884.07,281.13C884.434,281.105 884.798,281.093 885.162,281.093C893.94,281.093 901.162,288.315 901.162,297.093C901.162,304.687 895.756,311.286 888.31,312.78L888.28,312.78Z" style="fill:white;fill-rule:nonzero;"/>
        </g>
        <g transform="matrix(1,0,0,1,-51.45,-39.57)">
            <path d="M853.38,367.31C844.97,369.95 815.8,362.31 815.8,362.31C815.8,362.31 835.44,339.45 843.86,336.82C845.715,336.095 847.69,335.723 849.682,335.723C858.459,335.723 865.682,342.946 865.682,351.723C865.682,359.11 860.567,365.583 853.38,367.29L853.38,367.31Z" style="fill:white;fill-rule:nonzero;"/>
        </g>
        <g transform="matrix(1,0,0,1,-51.45,-39.57)">
            <path d="M847.55,233.48C851.55,241.36 877.27,257.03 877.27,257.03C877.27,257.03 880.04,227.03 876.08,219.14C873.209,214.256 867.951,211.247 862.286,211.247C853.509,211.247 846.286,218.47 846.286,227.247C846.286,229.389 846.716,231.508 847.55,233.48Z" style="fill:white;fill-rule:nonzero;"/>
        </g>
        <g transform="matrix(1,0,0,1,-51.45,-39.57)">
            <path d="M807.55,297.78C813.69,304.11 842.95,311.36 842.95,311.36C842.95,311.36 836.62,281.88 830.48,275.55C827.535,272.872 823.695,271.387 819.715,271.387C810.937,271.387 803.715,278.609 803.715,287.387C803.715,291.196 805.075,294.884 807.55,297.78Z" style="fill:white;fill-rule:nonzero;"/>
        </g>
        <g transform="matrix(1,0,0,1,-51.45,-39.57)">
            <path d="M777.25,365.6C782.25,372.88 809.85,384.97 809.85,384.97C809.85,384.97 808.58,354.85 803.61,347.57C800.577,343.743 795.953,341.507 791.07,341.507C782.293,341.507 775.07,348.73 775.07,357.507C775.07,360.34 775.822,363.123 777.25,365.57L777.25,365.6Z" style="fill:white;fill-rule:nonzero;"/>
        </g>
    </g>
    <g transform="matrix(1,0,0,1,-51.45,-39.57)">
        <path d="M482.46,125.07C482.46,125.07 458.63,123.64 461.46,140.34C461.163,142.074 462.023,143.812 463.58,144.63C465.137,145.448 463.58,143.39 466.02,143.81C466.875,143.959 467.745,144.002 468.61,143.94C469.781,143.859 470.894,143.399 471.78,142.63C472.666,141.861 478.48,139.86 481.08,128.91C481.08,128.91 483.01,126.52 482.93,125.91L478.93,127.63C478.93,127.63 480.3,130.53 479.22,132.94C479.22,132.94 479.09,127.73 478.32,127.85C478.16,127.85 476.23,128.85 476.23,128.85C476.23,128.85 478.6,133.91 476.81,137.58C476.81,137.58 477.49,131.35 475.49,129.22L472.66,130.87C472.66,130.87 475.42,136.09 473.55,140.35C473.55,140.35 474.03,133.82 472.07,131.27L469.5,133.27C469.5,133.27 472.1,138.42 470.5,141.95C470.5,141.95 470.3,134.34 468.93,133.77C467.96,134.592 467.094,135.529 466.35,136.56C465.606,137.591 468.12,140.3 467.02,142.27C467.02,142.27 466.35,137.2 465.79,137.18C465.79,137.18 463.55,140.54 463.32,142.84C463.428,140.706 464.093,138.637 465.25,136.84C463.959,137.085 462.767,137.7 461.82,138.61C460.873,139.52 462.17,136.24 465.82,136.03C465.82,136.03 467.67,133.48 468.16,133.33C468.16,133.33 464.55,133.02 462.37,134C462.37,134 464.29,131.76 468.82,132.77L471.36,130.71C471.36,130.71 466.61,130.06 464.59,130.77C464.59,130.77 466.91,128.77 472.04,130.24L474.8,128.59C472.677,128.12 470.502,127.932 468.33,128.03C466.158,128.128 470.88,126.66 475.61,128.14L477.61,127.26C477.61,127.26 474.61,126.68 473.77,126.58C472.93,126.48 472.86,126.25 472.86,126.25C474.738,125.937 476.667,126.152 478.43,126.87C480.193,127.588 482.54,125.34 482.46,125.07Z" style="fill:white;fill-opacity:0.1;fill-rule:nonzero;"/>
    </g>
    <g transform="matrix(1,0,0,1,-51.45,-39.57)">
        <path d="M419.88,206.34C419.88,206.34 411.74,228.79 428.55,230.84C430.131,231.614 432.043,231.282 433.27,230.02C434.497,228.758 432.09,229.63 433.18,227.45C433.551,226.669 433.827,225.847 434,225C434.256,223.856 434.133,222.658 433.65,221.59C433.167,220.522 432.9,214.38 423.14,208.78C423.14,208.78 421.39,206.25 420.78,206.15L421.29,210.49C421.29,210.49 424.46,210 426.47,211.72C426.47,211.72 421.47,210.37 421.33,211.14C421.33,211.3 421.7,213.43 421.7,213.43C421.7,213.43 427.22,212.6 430.24,215.35C430.24,215.35 424.46,212.94 421.85,214.24L422.63,217.43C422.63,217.43 428.42,216.26 431.97,219.27C431.97,219.27 425.84,216.95 422.84,218.11L424.03,221.11C424.03,221.11 429.7,220.11 432.64,222.6C432.64,222.6 425.29,220.6 424.35,221.79C424.863,222.956 425.518,224.055 426.3,225.06C427.082,226.065 430.38,224.42 431.96,226.06C431.96,226.06 426.91,225.27 426.73,225.8C426.73,225.8 429.31,228.9 431.45,229.8C429.444,229.093 427.657,227.872 426.27,226.26C426.149,227.551 426.402,228.85 427,230C427.598,231.15 424.83,229 425.66,225.46C425.66,225.46 423.74,222.96 423.73,222.46C423.73,222.46 422.42,225.84 422.73,228.21C422.73,228.21 421.13,225.73 423.39,221.67L422.13,218.67C422.13,218.67 420.13,223.04 420.27,225.17C420.27,225.17 419.03,222.39 421.87,217.88L421.07,214.77C420.026,216.66 419.229,218.677 418.7,220.77C418.171,222.863 418.11,217.93 420.88,213.83L420.59,211.68C420.59,211.68 419.19,214.36 418.85,215.17C418.51,215.98 418.27,215.95 418.27,215.95C418.507,214.059 419.261,212.27 420.45,210.78C421.639,209.29 420.16,206.35 419.88,206.34Z" style="fill:white;fill-opacity:0.1;fill-rule:nonzero;"/>
    </g>
    <g transform="matrix(1,0,0,1,-51.45,-39.57)">
        <path d="M577.92,187.43C577.92,187.43 569.77,209.87 586.59,211.92C588.166,212.695 590.074,212.367 591.3,211.11C592.526,209.853 590.13,210.72 591.21,208.53C591.594,207.751 591.883,206.928 592.07,206.08C592.328,204.938 592.201,203.742 591.71,202.68C591.219,201.618 590.96,195.47 581.2,189.86C581.2,189.86 579.46,187.33 578.85,187.23L579.35,191.58C579.35,191.58 582.53,191.08 584.53,192.8C584.53,192.8 579.53,191.45 579.4,192.23C579.4,192.38 579.77,194.52 579.77,194.52C579.77,194.52 585.29,193.68 588.3,196.44C588.3,196.44 582.53,194.02 579.91,195.33L580.69,198.51C580.69,198.51 586.48,197.34 590.04,200.35C590.04,200.35 583.91,198.03 580.91,199.2L582.1,202.2C582.1,202.2 587.77,201.2 590.71,203.69C590.71,203.69 583.36,201.69 582.42,202.87C582.932,204.034 583.584,205.132 584.36,206.14C585.136,207.148 588.45,205.5 590.03,207.14C590.03,207.14 584.97,206.35 584.8,206.87C584.8,206.87 587.38,209.97 589.52,210.87C587.511,210.159 585.721,208.935 584.33,207.32C584.198,208.627 584.451,209.945 585.06,211.11C585.669,212.275 582.88,210.11 583.71,206.56C583.71,206.56 581.8,204.07 581.79,203.56C581.79,203.56 580.47,206.93 580.79,209.31C580.79,209.31 579.19,206.82 581.46,202.77L580.19,199.77C580.19,199.77 578.19,204.14 578.34,206.28C578.34,206.28 577.1,203.49 579.94,198.98L579.14,195.87C578.093,197.759 577.297,199.776 576.77,201.87C576.243,203.964 576.17,199.04 578.94,194.93L578.65,192.79C578.65,192.79 577.25,195.47 576.92,196.27C576.59,197.07 576.34,197.06 576.34,197.06C576.571,195.167 577.326,193.377 578.52,191.89C579.714,190.403 578.19,187.43 577.92,187.43Z" style="fill:white;fill-opacity:0.1;fill-rule:nonzero;"/>
    </g>
    <g transform="matrix(1,0,0,1,-51.45,-39.57)">
        <path d="M319.69,159.31C319.69,159.31 311.54,181.76 328.36,183.8C329.935,184.582 331.847,184.253 333.07,182.99C334.293,181.727 331.9,182.6 332.98,180.42C333.36,179.639 333.649,178.817 333.84,177.97C334.093,176.825 333.966,175.627 333.48,174.56C332.994,173.493 332.73,167.35 322.97,161.74C322.97,161.74 321.23,159.22 320.62,159.12L321.12,163.46C321.12,163.46 324.29,162.97 326.3,164.69C326.3,164.69 321.3,163.33 321.17,164.11C321.17,164.27 321.54,166.4 321.54,166.4C321.54,166.4 327.06,165.57 330.07,168.32C330.07,168.32 324.29,165.9 321.68,167.21L322.46,170.4C322.46,170.4 328.25,169.23 331.8,172.24C331.8,172.24 325.68,169.92 322.68,171.08L323.87,174.08C323.87,174.08 329.54,173.08 332.48,175.57C332.48,175.57 325.12,173.57 324.19,174.75C324.702,175.918 325.353,177.019 326.13,178.03C326.907,179.041 330.22,177.38 331.79,179.03C331.79,179.03 326.74,178.24 326.56,178.77C326.56,178.77 329.15,181.86 331.29,182.77C329.278,182.063 327.488,180.838 326.1,179.22C325.968,180.527 326.221,181.845 326.83,183.01C327.439,184.175 324.65,182.01 325.48,178.47C325.48,178.47 323.56,175.97 323.56,175.47C323.56,175.47 322.24,178.85 322.56,181.22C322.56,181.22 320.96,178.74 323.22,174.68L321.96,171.68C321.96,171.68 319.96,176.06 320.1,178.19C320.1,178.19 318.86,175.41 321.7,170.9L320.91,167.78C319.863,169.669 319.067,171.686 318.54,173.78C318.013,175.874 317.94,170.95 320.71,166.84L320.42,164.7C320.42,164.7 319.02,167.38 318.69,168.19C318.36,169 318.11,168.97 318.11,168.97C318.34,167.079 319.092,165.289 320.28,163.8C321.468,162.311 320,159.32 319.69,159.31Z" style="fill:white;fill-opacity:0.1;fill-rule:nonzero;"/>
    </g>
    <g transform="matrix(1,0,0,1,-51.45,-39.57)">
        <path d="M570.05,311.59C570.05,311.59 576.34,334.59 591.26,326.59C592.995,326.314 594.364,324.945 594.64,323.21C594.916,321.475 593.46,323.56 593.08,321.15C592.944,320.295 592.706,319.458 592.37,318.66C591.918,317.58 591.128,316.675 590.12,316.08C589.112,315.485 585.35,310.63 574.12,311.67C574.12,311.67 571.24,310.61 570.68,310.88L573.6,314.14C573.6,314.14 575.9,311.91 578.53,312.14C578.53,312.14 573.64,313.93 574.01,314.62C574.08,314.76 575.63,316.28 575.63,316.28C575.63,316.28 579.63,312.42 583.71,312.93C583.71,312.93 577.6,314.29 576.21,316.86L578.69,319.02C578.69,319.02 582.75,314.72 587.38,315.13C587.38,315.13 581.04,316.77 579.26,319.45L581.98,321.24C581.98,321.24 585.98,317.13 589.87,317.49C589.87,317.49 582.74,320.13 582.63,321.6C583.723,322.259 584.891,322.783 586.11,323.16C587.329,323.537 589.11,320.28 591.29,320.69C591.29,320.69 586.71,322.95 586.87,323.49C586.87,323.49 590.76,324.49 593.02,324.01C590.971,324.59 588.805,324.621 586.74,324.1C587.383,325.244 588.346,326.175 589.51,326.78C590.674,327.385 587.15,327.21 585.79,323.84C585.79,323.84 582.79,322.91 582.48,322.49C582.48,322.49 583.35,326 584.98,327.76C584.98,327.76 582.24,326.66 581.75,322.04L579,320.33C579,320.33 579.9,325.04 581.23,326.72C581.23,326.72 578.61,325.16 578.33,319.84L575.88,317.76C576.124,319.918 576.645,322.035 577.43,324.06C578.215,326.085 575.31,322.06 575.21,317.13L573.73,315.55C573.73,315.55 574.13,318.55 574.33,319.4C574.53,320.25 574.33,320.4 574.33,320.4C573.427,318.721 573.008,316.823 573.12,314.92C573.232,313.017 570.28,311.43 570.05,311.59Z" style="fill:white;fill-opacity:0.1;fill-rule:nonzero;"/>
    </g>
    <g transform="matrix(1,0,0,1,-51.45,-39.57)">
        <path d="M866.94,441.33C869.121,443.851 871.528,446.167 874.13,448.25L893.61,464.85C897.08,467.8 900.61,470.85 905.01,472.24C910.283,473.897 916.038,473.014 920.57,469.85L920.24,469.74L920.57,469.52C917.28,468.46 913.91,467.36 911.2,465.23C908.947,463.542 907.462,461.019 907.08,458.23L907.08,457.82C907.087,457.441 907.124,457.063 907.19,456.69C911.387,456.332 915.425,454.911 918.92,452.56L918.58,452.44L918.92,452.23C908.54,448.9 901.35,439.16 898.09,428.85C894.83,418.54 894.82,407.56 894.47,396.77C894.12,385.98 893.32,374.89 888.66,365.13C886.91,361.47 884.66,357.99 883.81,354.03C883.576,352.855 883.466,351.658 883.48,350.46C883.55,346.61 884.67,342.74 885.7,338.98C887.989,330.583 889.819,322.067 891.18,313.47C891.716,310.414 892.013,307.322 892.07,304.22C892.164,301.193 891.679,298.175 890.64,295.33C886.06,283.43 870.14,277.82 867.71,265.33C867.425,263.649 867.304,261.944 867.35,260.24L867.35,257.44C867.35,256.51 867.35,255.44 867.27,254.52C866.58,245.73 861.14,238.1 855.89,230.97C849.57,222.39 842.89,213.47 833.18,208.9C825.64,205.33 815.56,204.15 806.57,204.95C802.536,201.469 798.113,198.466 793.39,196C786.52,192.18 779.39,188.42 771.78,187.58C762.13,186.52 752.59,190.22 742.91,190.84C729.75,191.69 716.83,186.84 703.67,185.84C690.51,184.84 675.36,189.27 669.48,202.52C668.102,205.737 667.264,209.16 667,212.65C666.94,213.32 666.9,213.98 666.87,214.65L666.87,214.72C666.772,217.425 666.849,220.134 667.1,222.83L667.1,223.14C667.1,223.68 667.2,224.22 667.26,224.76C667.26,224.92 667.26,225.07 667.31,225.23C667.31,225.73 667.42,226.23 667.48,226.73L667.54,227.2C667.62,227.83 667.71,228.46 667.79,229.09C667.942,230.387 668.22,231.667 668.62,232.91C668.865,233.629 669.223,234.304 669.68,234.91C671.11,236.73 673.26,237.27 675.48,237.61L677.23,237.86C677.05,238.22 676.86,238.58 676.69,238.95C672.722,247.315 670.672,256.462 670.69,265.72C670.69,297.18 693.98,323.26 724.41,328L726.24,330.28C737.46,344.34 751.54,363.11 758.24,376.62C750.5,386.23 741.44,403.27 738.86,431.85L735.03,440.79C727,452.34 724.93,469 727,484.5C724.74,492.88 722.16,503.41 720.37,512.12C707.06,509.17 661.63,501.87 650.89,494.78L619.39,479.94C619.39,479.94 578.39,451.3 556.33,460.86C547.9,450.5 535.18,439.65 529.7,435.55C520.3,428.5 496.92,400.96 496.92,400.96L460.29,352.34C460.19,346.71 459.59,341.9 458.05,339.83C453.73,334.05 430.86,321.22 426.29,323.99C421.72,326.76 417.9,317.99 417.9,317.99L417.55,317.8C416.69,317.3 414.25,315.92 410.86,314.1C410.682,310.041 410.782,305.975 411.16,301.93C411.23,301.25 411.32,300.57 411.42,299.93C436.296,299.032 457.698,281.577 463.58,257.39C463.74,256.76 463.85,256.11 463.98,255.47C467.31,256.243 470.812,255.226 473.21,252.79C476.41,249.35 476.55,244.06 475.53,239.5C474.51,234.94 472.53,230.57 472.03,225.91C471.4,219.56 473.64,212.91 471.58,206.91C469.85,201.79 465.29,198.07 460.43,195.64C455.57,193.21 450.25,191.79 445.28,189.58C440.54,187.48 436.13,184.66 431.21,183C424.83,180.85 417.97,180.77 411.21,180.93C406.97,179.22 402.65,177.59 398.11,177.08C393.11,176.51 387.61,177.48 383.8,180.81C380.8,183.47 378.36,187.74 374.29,187.88C372.29,187.95 370.49,186.96 368.71,186.11C363.66,183.69 357.27,182.32 352.71,185.53C349.05,188.09 347.71,192.8 347.08,197.19C346.45,201.58 346.34,206.19 344.22,210.12C342.91,212.54 340.92,214.51 339.27,216.71C335.095,222.293 333.125,229.226 333.74,236.17L333.74,236.37C333.5,235.37 333.27,234.44 333.1,233.46C333.1,234.2 333.1,234.93 333.2,235.67C333.635,239.101 334.381,242.485 335.43,245.78L339.57,260.28C341.67,267.64 343.82,275.11 347.82,281.66C349.38,284.241 351.266,286.61 353.43,288.71C356.839,292.289 361.201,294.819 366,296C367.686,296.378 369.421,296.483 371.14,296.31C371.14,296.52 371.09,296.72 371.05,296.93C370.68,296.86 370.3,296.78 369.95,296.73C368.326,296.391 366.644,296.436 365.04,296.86C357.14,299.67 354.74,308.22 354.04,311.58C353.88,312.44 353.83,312.96 353.83,312.96C353.83,312.96 353.96,313.46 354.11,314.31L354.04,314.6C353.88,315.45 353.83,315.98 353.83,315.98C353.83,315.98 353.96,316.48 354.11,317.35L352.05,317.4L317.6,321.9C309.73,321.36 302.24,321.23 298.23,322.19C297.891,322.265 297.557,322.362 297.23,322.48C292.23,324.21 269.32,340.02 248.76,354.57C248.76,354.17 248.76,353.78 248.7,353.4L242.85,357.56L242.85,358.77C241.39,359.77 239.94,360.83 238.54,361.84C232.25,366.34 226.54,370.4 222.29,373.51C217.11,377.23 213.9,379.58 213.9,379.58C213.9,379.58 212,380.2 210.74,383.13C209.12,386.88 208.56,394.42 214.41,409.26C224.83,435.67 227.11,453.53 227.11,453.53C224.283,453.825 221.508,454.498 218.86,455.53C215.25,456.97 211.48,459.41 209.91,463.53C208.902,466.407 208.878,469.538 209.84,472.43C214.66,489.53 294.45,586.63 294.45,586.63L295.45,586.72C299.542,587.08 303.658,587.08 307.75,586.72C311.48,586.33 314.97,585.44 316.57,583.56C316.57,583.56 334.26,606.27 360.24,590.8C360.06,611.4 359.54,626.51 362.81,634.12C367.9,645.94 367.9,672.85 367.9,672.85L372.74,673.02C372.48,674.02 372.19,675.02 371.88,676.02C369.65,683.39 366.36,692.3 362.88,694.43C357.02,698.03 359.8,759.91 360.04,765.25L360.04,765.57L359.7,790.57L359.7,792.57C358.974,791.594 358.322,790.564 357.75,789.49C357.178,788.416 348.33,798.49 348.16,817.49C347.99,836.49 348.33,837.13 348.33,837.13C348.33,837.13 386.33,835.66 393.46,838.28C400.59,840.9 460.22,836 460.22,836C460.22,836 462.43,830.26 456.07,825.85C466.21,825.12 477.27,823.18 483.75,818.48C498,808.19 455,800.17 452,798.54C449,796.91 434.14,783.8 428,778.89C426.144,777.535 423.95,776.718 421.66,776.53L422.43,754.12C431.58,743.81 441.49,686.96 441.49,686.96C444.73,684.26 446.14,677.69 446.72,673.68C449.139,672.878 450.81,670.638 450.89,668.09C461.36,668.44 474.53,668.36 477.06,665.85C481.38,661.57 480.87,646.98 480.87,646.98L474.77,492.54L474.37,491.95C475.379,484.881 475.399,477.705 474.43,470.63C488.13,474.54 498.79,477.2 498.79,477.2C498.79,477.2 519.41,481 533.88,484.2C531.512,486.715 529.723,489.719 528.64,493C515.64,530 589.37,528.47 589.37,528.47L624.18,544.57L706.12,571.35C679.79,563.58 649.71,554.44 629.24,548.17C627.224,547.553 625.174,547.056 623.1,546.68C604.32,543.28 584.81,550.12 572.85,565.21C572.71,565.4 572.58,565.57 572.43,565.75C566.567,573.377 566.356,584.006 571.91,591.86C575.04,596.29 579.23,602.18 584.14,609.03C573.75,612.17 556.56,620.92 567.01,643.42C581.49,674.61 620.36,692.42 620.36,692.42C620.36,692.42 645.77,699.72 652.36,707.77C654.21,710.03 661.36,715.04 670.71,721.08C676.71,727.43 681.41,731.58 684.2,732.5C695.34,736.17 717.03,753.78 732.29,766.99L730,798.55L729.85,800.45L728.91,799.65C728.91,799.65 722.16,813.65 702.6,818.34C698.678,819.222 695.201,821.488 692.81,824.72L692.74,824.81L692.16,825.65L691.72,825.32C687.72,830.95 685.86,839.15 700.96,841.41C724.59,844.93 750.96,839.9 750.96,839.9L774.52,818.12C777.138,820.323 780.212,821.918 783.52,822.79C801.13,826.79 850.59,845.93 850.59,845.93C850.59,840.56 894.3,771.48 894.3,771.48C953.3,659.8 889.14,576.34 882.05,567.65L881.42,566.89L880.87,557.61L880.75,555.48C880.75,555.48 912.59,541.4 900.39,534.7C888.19,528 881.39,495.79 869.9,482.38C860.9,471.92 861.42,447.64 860.47,426.95C861.502,432.058 863.718,436.854 866.94,440.95C867.01,441.04 867.09,441.11 867.16,441.2L866.31,440.46C866.52,440.78 866.72,441.06 866.94,441.33ZM474.61,432.75C478.71,437.16 485.87,442.8 490.61,446.38C484.93,443.61 480.51,441.27 477.1,439.38C476.3,437.16 475.46,434.94 474.61,432.75ZM353.32,328.1C352.34,331.036 350.556,333.638 348.17,335.61L346.17,326.98C348.79,327.4 351.23,327.79 353.32,328.1ZM753,565.21C753.79,563.51 754.61,561.84 755.44,560.21C758.946,559.069 762.039,556.919 764.33,554.03C766.073,560.079 767.363,566.249 768.19,572.49L768.19,572.94C768.147,575.456 767.767,577.955 767.06,580.37C766.14,583.29 764.46,586.04 761.41,586.37C760.14,586.5 753.89,584.99 744.54,582.44C741.83,581.7 738.85,580.87 735.67,579.97C740.66,579.64 747.6,576.83 753,565.21ZM831.25,354.21C829.38,351.21 825.48,349.29 820.71,348.16C819.84,347.58 818.49,346.66 816.77,345.41C808.37,339.26 791.6,325.41 783.91,307.72C786.054,307.122 788.147,306.357 790.17,305.43C793.311,303.99 796.277,302.195 799.01,300.08C799.93,299.36 800.83,298.61 801.69,297.83C803.894,295.842 805.903,293.649 807.69,291.28C808.4,290.28 809.09,289.33 809.69,288.28C810.671,286.741 811.559,285.145 812.35,283.5C814.171,279.661 815.575,275.638 816.54,271.5C816.93,269.84 817.27,268.15 817.54,266.45C817.81,264.75 818.07,263.04 818.26,261.32C818.881,255.251 819.118,249.149 818.97,243.05L818.97,241.85C818.941,235.667 818.271,229.504 816.97,223.46C817.42,223.63 817.87,223.8 818.3,224C819.023,224.354 819.712,224.773 820.36,225.25C820.2,225.02 820.02,224.79 819.85,224.56C822.75,226.44 824.91,229.37 826.85,232.29C844.838,260.333 849.194,295.063 838.69,326.68C837.23,330.97 835.48,335.24 835.09,339.75C833.68,355.86 849.09,368.15 854.82,383.29C857.69,390.88 858.14,399.29 858.52,407.61C854.2,386.54 838.41,365.8 831.28,354.25L831.25,354.21Z" style="fill:url(#_Linear1);fill-rule:nonzero;"/>
    </g>
    <g transform="matrix(1,0,0,1,-51.45,-39.57)">
        <path d="M449,672.77C449,672.77 448.25,685.27 443.5,689.27C443.5,689.27 433.75,745.77 424.75,756.02L423.25,761.77L385.75,757.52L393.25,707.52L400.25,661.52L449,672.77Z" style="fill:rgb(255,193,200);fill-rule:nonzero;"/>
    </g>
    <g transform="matrix(1,0,0,1,-51.45,-39.57)">
        <path d="M449,672.77C449,672.77 448.25,685.27 443.5,689.27C443.5,689.27 433.75,745.77 424.75,756.02L423.25,761.77L385.75,757.52L393.25,707.52L400.25,661.52L449,672.77Z" style="fill-opacity:0.03;fill-rule:nonzero;"/>
    </g>
    <path d="M357.14,717.15L373.3,716.44L372.44,741.88L360.07,750.17L337.79,745.29L345.92,711.29L357.14,717.15Z" style="fill:rgb(255,116,143);fill-rule:nonzero;"/>
    <path d="M357.14,717.15L373.3,716.44L372.44,741.88L360.07,750.17L337.79,745.29L345.92,711.29L357.14,717.15Z" style="fill-opacity:0.03;fill-rule:nonzero;"/>
    <g transform="matrix(1,0,0,1,-51.45,-39.57)">
        <path d="M411.52,779.5C411.52,779.5 424.21,775.76 430.23,780.64C436.25,785.52 450.89,798.53 453.82,800.16C456.75,801.79 499,809.76 485.05,820C471.1,830.24 435.28,827.32 435.28,827.32C435.28,827.32 411.85,820.48 411.2,820.16C410.55,819.84 396.2,812.84 395.75,812.35C395.3,811.86 399.81,779.35 399.81,779.35L411.52,779.5Z" style="fill:rgb(93,97,140);fill-rule:nonzero;"/>
    </g>
    <g transform="matrix(1,0,0,1,-51.45,-39.57)">
        <path d="M411.52,779.5C411.52,779.5 424.21,775.76 430.23,780.64C436.25,785.52 450.89,798.53 453.82,800.16C456.75,801.79 499,809.76 485.05,820C471.1,830.24 435.28,827.32 435.28,827.32C435.28,827.32 411.85,820.48 411.2,820.16C410.55,819.84 396.2,812.84 395.75,812.35C395.3,811.86 399.81,779.35 399.81,779.35L411.52,779.5Z" style="fill-opacity:0.03;fill-rule:nonzero;"/>
    </g>
    <g transform="matrix(1,0,0,1,-51.45,-39.57)">
        <path d="M374.75,441.52L374,488L372.3,587.15L371.3,588.02C341.55,613.77 320.55,586.52 320.55,586.52C318.97,588.39 315.55,589.28 311.87,589.66C307.845,590.02 303.795,590.02 299.77,589.66L298.77,589.57C298.77,589.57 220.25,493 215.5,476C214.558,473.125 214.583,470.02 215.57,467.16C217.12,463.1 220.83,460.68 224.38,459.25C226.984,458.221 229.716,457.548 232.5,457.25C235.284,456.952 230.25,439.5 220,413.25C214.24,398.5 214.8,391.01 216.39,387.25C217.63,384.34 219.5,383.72 219.5,383.72C219.5,383.72 222.66,381.39 227.75,377.72C231.98,374.63 237.55,370.59 243.75,366.12L249.5,362C270.71,346.78 296.27,328.86 301.5,327C301.826,326.881 302.16,326.784 302.5,326.71C313.23,324.12 349.24,329.5 349.24,329.5L374.75,441.52Z" style="fill:white;fill-rule:nonzero;"/>
    </g>
    <g transform="matrix(1,0,0,1,-51.45,-39.57)">
        <path d="M374.75,441.52L374,488C338.43,477.51 305.36,408 301,402.52C297.27,397.76 301.1,344.75 302.51,326.73C313.24,324.14 349.25,329.52 349.25,329.52L374.75,441.52Z" style="fill:none;fill-rule:nonzero;"/>
    </g>
    <g transform="matrix(1,0,0,1,-51.45,-39.57)">
        <path d="M374.75,441.52L374,488C338.43,477.51 305.36,408 301,402.52C297.27,397.76 301.1,344.75 302.51,326.73C313.24,324.14 349.25,329.52 349.25,329.52L374.75,441.52Z" style="fill-opacity:0.1;fill-rule:nonzero;"/>
    </g>
    <g transform="matrix(1,0,0,1,-51.45,-39.57)">
        <path d="M783,351C783,351 755.25,365.25 751.75,421.25C751.75,421.25 747.25,449.75 744.75,454.75C742.25,459.75 730.25,507 731.75,512.75C731.75,512.75 729.25,518.5 720,516C710.75,513.5 660.75,505.75 649.5,498.25L618.5,483.5C618.5,483.5 558,440.75 545.25,477.5C532.5,514.25 605,512.77 605,512.77L639.25,528.77L743,563C743,563 756.75,569.25 766,549.25C771.918,536.651 778.946,524.603 787,513.25C795.054,501.897 808,454.25 807.75,444.25C807.5,434.25 830.25,410.5 830.25,410.5C830.25,410.5 834.75,347.5 797.75,348.75L783,351Z" style="fill:rgb(255,193,199);fill-rule:nonzero;"/>
    </g>
    <g transform="matrix(1,0,0,1,-51.45,-39.57)">
        <path d="M783,351C783,351 755.25,365.25 751.75,421.25C751.75,421.25 747.25,449.75 744.75,454.75C742.25,459.75 730.25,507 731.75,512.75C731.75,512.75 729.25,518.5 720,516C710.75,513.5 660.75,505.75 649.5,498.25L618.5,483.5C618.5,483.5 558,440.75 545.25,477.5C532.5,514.25 605,512.77 605,512.77L639.25,528.77L743,563C743,563 756.75,569.25 766,549.25C771.918,536.651 778.946,524.603 787,513.25C795.054,501.897 808,454.25 807.75,444.25C807.5,434.25 830.25,410.5 830.25,410.5C830.25,410.5 834.75,347.5 797.75,348.75L783,351Z" style="fill-opacity:0.03;fill-rule:nonzero;"/>
    </g>
    <g transform="matrix(1,0,0,1,-51.45,-39.57)">
        <path d="M489.5,399.64C491,401.39 498,405 498,405C498,405 521,432.37 530.25,439.37C539.5,446.37 569.75,473.12 563.63,483.25C557.51,493.38 550.63,491.12 550.63,491.12L496.5,453.62C496.5,453.62 477.5,440 473.63,433.5C469.76,427 465,413.39 465,413.39L489.5,399.64Z" style="fill:rgb(255,193,200);fill-rule:nonzero;"/>
    </g>
    <g transform="matrix(1,0,0,1,-51.45,-39.57)">
        <path d="M489.5,399.64C491,401.39 498,405 498,405C498,405 521,432.37 530.25,439.37C539.5,446.37 569.75,473.12 563.63,483.25C557.51,493.38 550.63,491.12 550.63,491.12L496.5,453.62C496.5,453.62 477.5,440 473.63,433.5C469.76,427 465,413.39 465,413.39L489.5,399.64Z" style="fill-opacity:0.03;fill-rule:nonzero;"/>
    </g>
    <path d="M407.68,313.32L446.55,365.44L411.55,379.07L397.05,335.44L407.68,313.32Z" style="fill:rgb(220,230,242);fill-rule:nonzero;"/>
    <path d="M407.68,313.32L446.55,365.44L411.55,379.07L397.05,335.44L407.68,313.32Z" style="fill-opacity:0.03;fill-rule:nonzero;"/>
    <g transform="matrix(1,0,0,1,-51.45,-39.57)">
        <path d="M469.25,485.77L476.25,496.02L482.25,649.52C482.25,649.52 482.75,664.02 478.5,668.27C474.25,672.52 439.5,669.77 439.5,669.77C439.5,669.77 440.75,513.27 441.25,510.27C441.75,507.27 469.25,485.77 469.25,485.77Z" style="fill:rgb(87,89,136);fill-rule:nonzero;"/>
    </g>
    <g transform="matrix(1,0,0,1,-51.45,-39.57)">
        <path d="M469.25,485.77L476.25,496.02L482.25,649.52C482.25,649.52 482.75,664.02 478.5,668.27C474.25,672.52 439.5,669.77 439.5,669.77C439.5,669.77 440.75,513.27 441.25,510.27C441.75,507.27 469.25,485.77 469.25,485.77Z" style="fill-opacity:0.1;fill-rule:nonzero;"/>
    </g>
    <g transform="matrix(1,0,0,1,-51.45,-39.57)">
        <path d="M422.44,679.81C420.163,685.407 417.49,690.834 414.44,696.05C411.39,701.266 407.94,733.14 405.17,736.56C403.17,739.06 402.25,757.72 401.92,767.45C401.8,770.97 401.75,773.32 401.75,773.32L363.53,791.54L363.36,767.46L363.36,767.14C363.12,761.83 360.36,700.33 366.15,696.75C369.55,694.64 372.79,685.75 374.98,678.46C376.65,672.83 377.7,668.12 377.7,668.12C377.7,668.12 420.16,665.36 423.7,669.91C425,671.53 424.1,675.47 422.44,679.81Z" style="fill:rgb(255,193,200);fill-rule:nonzero;"/>
    </g>
    <g transform="matrix(1,0,0,1,-51.45,-39.57)">
        <path d="M422.44,679.81C405.22,679.45 383.64,678.72 374.92,678.41C376.59,672.78 377.64,668.07 377.64,668.07C377.64,668.07 420.1,665.31 423.64,669.86C425,671.53 424.1,675.47 422.44,679.81Z" style="fill-opacity:0.1;fill-rule:nonzero;"/>
    </g>
    <g transform="matrix(1,0,0,1,-51.45,-39.57)">
        <path d="M372.25,452.27C372.25,452.27 360.5,514.77 362.75,555.02C365,595.27 361,625 366,636.77C371,648.54 371,675.27 371,675.27C371,675.27 439,677.77 446,676.77C453,675.77 452.75,670.52 452.75,670.52C452.75,670.52 448,629 452.5,616C457,603 456.25,563.25 456.25,563.25L475.25,499.25C475.25,499.25 481,470.5 469,458.75C457,447 372.25,452.27 372.25,452.27Z" style="fill:rgb(87,89,136);fill-rule:nonzero;"/>
    </g>
    <g transform="matrix(1,0,0,1,-51.45,-39.57)">
        <path d="M775.75,782.52L772.75,786.92L754.2,814.52L738.45,819.27L726.7,807.77L727.27,800.18L730.2,760.77C730.2,760.77 657.5,718 651,710C644.5,702 619.5,694.75 619.5,694.75C619.5,694.75 581.25,677 567,646C552.75,615 590.75,610.25 590.75,610.25L733.5,746.77L775.75,782.52Z" style="fill:rgb(255,193,199);fill-rule:nonzero;"/>
    </g>
    <path d="M721.35,747.34L702.8,774.94L687.05,779.69L675.3,768.19L675.87,760.6L688.8,771.69L713.05,743.44L721.35,747.34Z" style="fill-opacity:0.1;fill-rule:nonzero;"/>
    <g transform="matrix(1,0,0,1,-51.45,-39.57)">
        <path d="M793.25,798.52L748,840.77C748,840.77 722,845.77 698.75,842.27C683.89,840.03 686.75,831.88 690.66,826.27L690.73,826.17C693.071,822.962 696.497,820.709 700.37,819.83C719.61,815.19 726.25,801.26 726.25,801.26L740.25,813.26L764.5,785L782.43,793.42L793.25,798.52Z" style="fill:rgb(87,89,136);fill-rule:nonzero;"/>
    </g>
    <g transform="matrix(1,0,0,1,-51.45,-39.57)">
        <path d="M793.25,799L748,841.27C748,841.27 722,846.27 698.75,842.77C683.89,840.53 685.75,832.38 689.66,826.77C694.156,830.334 699.553,832.581 705.25,833.26C718,834.51 737.25,833.26 737.25,833.26L782.43,793.93L793.25,799Z" style="fill:white;fill-rule:nonzero;"/>
    </g>
    <g transform="matrix(1,0,0,1,-51.45,-39.57)">
        <path d="M419.67,292.6C415.99,294.44 414.3,300.12 413.62,306.6C412.47,317.66 414.33,330.98 414.33,330.98C414.33,330.98 364.33,317.31 369.67,314.64C372.74,313.11 374.37,301.97 375.2,292.8C375.82,286.02 376,280.31 376,280.31C376,280.31 429.67,287.6 419.67,292.6Z" style="fill:rgb(255,193,200);fill-rule:nonzero;"/>
    </g>
    <g transform="matrix(1,0,0,1,-51.45,-39.57)">
        <path d="M817.67,353.27C817.67,353.27 757,410.6 759,393.94C759.28,391.62 758.48,388.41 756.9,384.62C751.29,371.1 735.78,350.11 723.65,334.76C714.75,323.5 707.65,315.27 707.65,315.27C707.65,315.27 783,251.94 777,287.94C775.75,296.148 776.892,304.545 780.29,312.12C787.8,329.8 804.44,343.71 812.75,349.85C815.75,352.06 817.67,353.27 817.67,353.27Z" style="fill:rgb(255,193,199);fill-rule:nonzero;"/>
    </g>
    <g transform="matrix(1,0,0,1,-51.45,-39.57)">
        <path d="M768.67,298.93C767.58,300.28 763.54,305.02 762.34,306.27C750.94,318.14 749.42,335.27 731.67,335.27C728.995,335.272 726.323,335.101 723.67,334.76C714.77,323.5 707.67,315.27 707.67,315.27C707.67,315.27 783,251.94 777,287.94C775.58,296.48 765.5,291.45 768.67,298.93Z" style="fill-opacity:0.1;fill-rule:nonzero;"/>
    </g>
    <g transform="matrix(1,0,0,1,-51.45,-39.57)">
        <path d="M794.33,270.6C794.33,270.603 794.33,270.607 794.33,270.61C794.33,304.99 766.04,333.28 731.66,333.28C697.28,333.28 668.99,304.99 668.99,270.61C668.99,236.23 697.28,207.94 731.66,207.94C731.663,207.94 731.667,207.94 731.67,207.94C731.75,207.94 731.83,207.94 731.91,207.94C766.153,207.94 794.33,236.117 794.33,270.36C794.33,270.44 794.33,270.52 794.33,270.6Z" style="fill:rgb(255,193,199);fill-rule:nonzero;"/>
    </g>
    <g transform="matrix(1,0,0,1,-51.45,-39.57)">
        <path d="M817.67,353.27C817.67,353.27 757,410.6 759,393.94C759.28,391.62 758.48,388.41 756.9,384.62L765.67,363.94C776.412,354.53 790.199,349.308 804.48,349.24C807.079,349.238 809.675,349.415 812.25,349.77L812.75,349.85C815.75,352.06 817.67,353.27 817.67,353.27Z" style="fill-opacity:0.1;fill-rule:nonzero;"/>
    </g>
    <g transform="matrix(1,0,0,1,-51.45,-39.57)">
        <path d="M889,773.27C889,773.27 846,841.93 846,847.27C846,847.27 797.33,828.27 780,824.27C762.67,820.27 746.33,783.94 746.33,783.94C746.33,783.94 700.33,740.6 682.33,734.6C667.06,729.51 593.68,626 571.82,594.77C566.344,586.949 566.555,576.415 572.34,568.82L572.75,568.29C584.522,553.479 603.596,546.372 622.19,549.87C624.218,550.243 626.221,550.737 628.19,551.35C659.67,561.08 714.19,577.8 741.69,585.35C750.89,587.88 757.04,589.35 758.29,589.26C761.29,588.95 762.94,586.26 763.85,583.31C764.544,580.91 764.918,578.428 764.96,575.93C765.002,573.432 764.96,575.77 764.96,575.48C764.117,569.122 762.793,562.838 761,556.68C757.79,545.68 752.23,532.77 743,526.6C735.34,521.49 729.25,510.22 726.06,497.12C721.77,479.43 722.76,458.38 732.33,444.6L741.58,422.78L757.05,386.28L765.67,365.94C776.412,356.53 790.199,351.308 804.48,351.24C807.079,351.238 809.675,351.415 812.25,351.77C818.88,352.69 824.61,354.68 827,358.6C834.33,370.6 851,392.6 854.33,414.6C857.66,436.6 853.67,472.6 865,485.94C876.33,499.28 883,531.27 895,537.94C907,544.61 875.67,558.6 875.67,558.6L875.79,560.71L876.33,569.94C876.33,569.94 876.55,570.19 876.95,570.69C883.93,579.33 947,662.28 889,773.27Z" style="fill:white;fill-rule:nonzero;"/>
    </g>
    <g transform="matrix(1,0,0,1,-51.45,-39.57)">
        <path d="M877,570.69C863.86,573.44 835.12,579.43 822.3,582.06L820.05,582.52C819.3,582.67 818.46,582.81 817.55,582.94C804.67,584.71 776.73,583.84 763.94,583.32C764.634,580.92 765.008,578.438 765.05,575.94C765.092,573.442 765.05,575.78 765.05,575.49C774.78,574.86 797.84,573.02 817.6,568.96C819.21,568.63 820.8,568.28 822.35,567.96C824.59,567.44 826.77,566.89 828.85,566.31C846.57,561.31 865.28,560.65 875.85,560.75L876.39,569.98C876.39,569.98 876.55,570.19 877,570.69Z" style="fill:rgb(87,89,136);fill-rule:nonzero;"/>
    </g>
    <g transform="matrix(1,0,0,1,-51.45,-39.57)">
        <path d="M822.25,567.92L822.25,582.06L820,582.52C819.25,582.67 818.41,582.81 817.5,582.94L817.5,569C819.11,568.63 820.7,568.28 822.25,567.92Z" style="fill:rgb(255,101,132);fill-rule:nonzero;"/>
    </g>
    <g transform="matrix(1,0,0,1,-51.45,-39.57)">
        <path d="M834.5,595C834.5,595 807.75,656.25 791.5,662.25C775.25,668.25 734.75,689.5 734.75,689.5C734.75,689.5 758,710 782.25,687.5C806.5,665 841.5,605 834.5,595Z" style="fill-opacity:0.1;fill-rule:nonzero;"/>
    </g>
    <g transform="matrix(1,0,0,1,-51.45,-39.57)">
        <path d="M863.75,586.77C863.75,586.77 866.25,610.02 862.75,614.27C859.25,618.52 863.75,586.77 863.75,586.77Z" style="fill-opacity:0.1;fill-rule:nonzero;"/>
    </g>
    <g transform="matrix(1,0,0,1,-51.45,-39.57)">
        <path d="M878.25,602C878.25,602 891.75,743.5 824.75,744.25C824.75,744.27 887.5,682 878.25,602Z" style="fill-opacity:0.1;fill-rule:nonzero;"/>
    </g>
    <g transform="matrix(1,0,0,1,-51.45,-39.57)">
        <path d="M895.25,636C895.25,636 914.5,710.25 889.25,718.75C889.25,718.77 902.5,680.27 895.25,636Z" style="fill-opacity:0.1;fill-rule:nonzero;"/>
    </g>
    <g transform="matrix(1,0,0,1,-51.45,-39.57)">
        <path d="M775.5,617C774.25,617 723.5,625.75 734.5,632.75C745.5,639.75 775.5,617 775.5,617Z" style="fill-opacity:0.1;fill-rule:nonzero;"/>
    </g>
    <g transform="matrix(1,0,0,1,-51.45,-39.57)">
        <path d="M810.5,516.77C810.5,516.77 852,553.52 844,557.52" style="fill-opacity:0.1;fill-rule:nonzero;"/>
    </g>
    <g transform="matrix(1,0,0,1,-51.45,-39.57)">
        <path d="M807,528.52C807,528.52 831,558.02 828.25,559.77" style="fill-opacity:0.1;fill-rule:nonzero;"/>
    </g>
    <g transform="matrix(1,0,0,1,-51.45,-39.57)">
        <path d="M858.25,524C858.25,524 869.25,537.75 867.5,540.75" style="fill-opacity:0.1;fill-rule:nonzero;"/>
    </g>
    <g transform="matrix(1,0,0,1,-51.45,-39.57)">
        <path d="M869.25,516.77C869.25,516.77 885,529 881.5,533.77" style="fill-opacity:0.1;fill-rule:nonzero;"/>
    </g>
    <g transform="matrix(1,0,0,1,-51.45,-39.57)">
        <path d="M781.75,367.77C781.75,367.77 833,371.77 830.75,413.02C828.5,454.27 790.25,464.77 790.25,464.77L740.5,450.52C740.5,450.52 762.75,370.52 781.75,367.77Z" style="fill:rgb(255,193,199);fill-rule:nonzero;"/>
    </g>
    <g transform="matrix(1,0,0,1,-51.45,-39.57)">
        <path d="M628.23,551.35C659.71,561.08 714.23,577.8 741.73,585.35C738.087,587.206 733.826,587.442 730,586L626.25,551.77L622.19,549.87C624.231,550.242 626.248,550.736 628.23,551.35Z" style="fill-opacity:0.1;fill-rule:nonzero;"/>
    </g>
    <g transform="matrix(1,0,0,1,-51.45,-39.57)">
        <path d="M803.8,449.39C798.93,455.89 794.64,462.89 794.8,467.27C794.88,470.42 792.8,478.45 790.02,487.96C782.859,511.845 773.136,534.886 761.02,556.68C757.81,545.68 752.25,532.77 743.02,526.6C735.36,521.49 729.27,510.22 726.08,497.12C728.51,487.64 730.82,479.67 731.77,477.77C734.27,472.77 738.77,444.27 738.77,444.27C739.193,437.048 740.139,429.866 741.6,422.78C745.23,405.45 751.4,393.78 757.07,386.28C763.91,377.16 770.07,374.02 770.07,374.02L784.82,371.77C801.82,371.2 810.02,384.13 813.97,398.3C818.81,415.91 814.76,434.75 803.8,449.39Z" style="fill-opacity:0.1;fill-rule:nonzero;"/>
    </g>
    <g transform="matrix(1,0,0,1,-51.45,-39.57)">
        <path d="M767,370C767,370 739.25,384.25 735.75,440.25C735.75,440.25 731.25,468.75 728.75,473.75C726.25,478.75 714.25,526 715.75,531.75C715.75,531.75 713.25,537.5 704,535C694.75,532.5 644.75,524.75 633.5,517.25L602.5,502.5C602.5,502.5 542,459.75 529.25,496.5C516.5,533.25 589,531.77 589,531.77L623.25,547.77L727,582C727,582 740.75,588.25 750,568.25C752.31,563.25 754.78,558.5 757.19,554.18C769.67,531.95 779.667,508.416 787,484C789.83,474.49 791.86,466.46 791.78,463.31C791.67,458.93 795.97,451.92 800.78,445.43C811.78,430.79 815.78,411.95 810.88,394.33C806.93,380.16 798.69,367.23 781.73,367.81L767,370Z" style="fill:rgb(255,193,199);fill-rule:nonzero;"/>
    </g>
    <g transform="matrix(1,0,0,1,-51.45,-39.57)">
        <path d="M419.67,292.6C415.99,294.44 414.3,300.12 413.62,306.6L411.67,306.6C398.229,306.625 385.24,301.696 375.2,292.76C375.82,285.98 376,280.27 376,280.27C376,280.27 429.67,287.6 419.67,292.6Z" style="fill-opacity:0.1;fill-rule:nonzero;"/>
    </g>
    <g transform="matrix(1,0,0,1,-51.45,-39.57)">
        <path d="M466.67,249.6C466.67,279.772 441.842,304.6 411.67,304.6C381.498,304.6 356.67,279.772 356.67,249.6C356.67,219.428 381.498,194.6 411.67,194.6C441.817,194.666 466.604,219.453 466.67,249.6Z" style="fill:rgb(255,193,200);fill-rule:nonzero;"/>
    </g>
    <g transform="matrix(1,0,0,1,-51.45,-39.57)">
        <path d="M485.25,465C485.25,465 456.5,476.5 447.5,480.5C438.5,484.5 387,475.25 387,475.25C387,475.25 360.25,461.75 362.5,448.25C364.75,434.75 341,390.52 341,390.52C341,390.52 340.25,351.27 350.75,343.77C361.25,336.27 357.25,320.52 357.25,320.52C357.25,320.52 357.3,320 357.46,319.15C358.11,315.81 360.46,307.31 368.25,304.52C369.827,304.096 371.482,304.051 373.08,304.39C380.55,305.52 392.82,311.08 402.97,316.21C411.37,320.46 418.32,324.41 419.91,325.33L420.25,325.52C420.25,325.52 424,334.27 428.5,331.52C433,328.77 455.5,341.52 459.75,347.27C464,353.02 461,380.02 460.25,386.77C459.5,393.52 464.5,413.52 470,425C475.5,436.48 485.25,465 485.25,465Z" style="fill-opacity:0.1;fill-rule:nonzero;"/>
    </g>
    <g transform="matrix(1,0,0,1,-51.45,-39.57)">
        <path d="M485.25,462C485.25,462 456.5,473.5 447.5,477.5C438.5,481.5 387,472.25 387,472.25C387,472.25 360.25,458.75 362.5,445.25C364.75,431.75 341,387.52 341,387.52C341,387.52 340.25,348.27 350.75,340.77C361.25,333.27 357.25,317.52 357.25,317.52C357.25,317.52 357.3,317 357.46,316.15C358.11,312.81 360.46,304.31 368.25,301.52C369.827,301.096 371.482,301.051 373.08,301.39C380.55,302.52 392.82,308.08 402.97,313.21C411.37,317.46 418.32,321.41 419.91,322.33L420.25,322.52C420.25,322.52 424,331.27 428.5,328.52C433,325.77 455.5,338.52 459.75,344.27C464,350.02 461,377.02 460.25,383.77C459.5,390.52 464.5,410.52 470,422C475.5,433.48 485.25,462 485.25,462Z" style="fill:rgb(220,230,242);fill-rule:nonzero;"/>
    </g>
    <g transform="matrix(1,0,0,1,-51.45,-39.57)">
        <path d="M392.17,423.6C392.17,423.6 367.5,463.6 363.5,465.77L365,479.77C365,479.77 400.17,472.43 402.34,462.6C404.51,452.77 403.34,423.1 403.34,423.1L392.17,423.6Z" style="fill:rgb(87,89,136);fill-rule:nonzero;"/>
    </g>
    <g transform="matrix(1,0,0,1,-51.45,-39.57)">
        <path d="M392.17,423.6C392.17,423.6 367.5,463.6 363.5,465.77L365,479.77C365,479.77 400.17,472.43 402.34,462.6C404.51,452.77 403.34,423.1 403.34,423.1L392.17,423.6Z" style="fill-opacity:0.2;fill-rule:nonzero;"/>
    </g>
    <g transform="matrix(1,0,0,1,-51.45,-39.57)">
        <path d="M426.88,372.64C426.88,372.64 431.25,389.52 438.13,395.27C445.01,401.02 426.88,372.64 426.88,372.64Z" style="fill-opacity:0.1;fill-rule:nonzero;"/>
    </g>
    <g transform="matrix(1,0,0,1,-51.45,-39.57)">
        <path d="M384,417.14C384.63,418.27 405.75,447.02 428,457.64C450.25,468.26 499.88,480.77 499.88,480.77C499.88,480.77 540.13,488.27 547,491.14C553.87,494.01 562.63,481.14 519.5,462.77C476.37,444.4 468,436.27 468,436.27C468,436.27 430.5,418 424.5,409C418.5,400 384,417.14 384,417.14Z" style="fill:rgb(255,193,200);fill-rule:nonzero;"/>
    </g>
    <g transform="matrix(1,0,0,1,-51.45,-39.57)">
        <path d="M399.75,557C400.5,556.5 418.5,537.25 420.75,545.5C423,553.75 399.75,557 399.75,557Z" style="fill-opacity:0.1;fill-rule:nonzero;"/>
    </g>
    <g transform="matrix(1,0,0,1,-51.45,-39.57)">
        <path d="M410.25,519C410,519.75 407.5,541 400.25,543.5" style="fill-opacity:0.1;fill-rule:nonzero;"/>
    </g>
    <g transform="matrix(1,0,0,1,-51.45,-39.57)">
        <path d="M417.75,524.77C417.75,524.77 411.25,547.52 403,549" style="fill-opacity:0.1;fill-rule:nonzero;"/>
    </g>
    <g transform="matrix(1,0,0,1,-51.45,-39.57)">
        <path d="M384.75,593C384.75,593 395.75,593.25 397.25,586.25" style="fill-opacity:0.1;fill-rule:nonzero;"/>
    </g>
    <g transform="matrix(1,0,0,1,-51.45,-39.57)">
        <path d="M399.75,638.52C401.25,638.77 424.75,653.77 418.75,656.77C412.75,659.77 399.75,638.52 399.75,638.52Z" style="fill-opacity:0.1;fill-rule:nonzero;"/>
    </g>
    <g transform="matrix(1,0,0,1,-51.45,-39.57)">
        <path d="M401.88,765.14L401.88,767.45C401.76,770.97 401.71,773.32 401.71,773.32L363.49,791.54L363.32,767.46L363.32,767.14L363.32,765.51L378.62,766L401.88,765.14Z" style="fill-opacity:0.1;fill-rule:nonzero;"/>
    </g>
    <path d="M357.58,760.58L325.7,772.78L311.39,764.32L311.54,752.74L311.87,727.88L327.17,728.37L350.43,727.56L350.43,744.97L357.58,760.58Z" style="fill:rgb(255,116,143);fill-rule:nonzero;"/>
    <g transform="matrix(1,0,0,1,-51.45,-39.57)">
        <path d="M409,800.16L377.12,812.36L362.81,803.9L362.96,792.32C367.161,797.827 373.618,801.169 380.54,801.42C387.462,801.671 391.76,787.42 398.59,783.36C399.57,782.773 400.749,782.614 401.85,782.92L401.85,784.55L409,800.16Z" style="fill-opacity:0.1;fill-rule:nonzero;"/>
    </g>
    <g transform="matrix(1,0,0,1,-51.45,-39.57)">
        <path d="M380.57,803.41C380.57,803.41 367.57,803.58 361.05,791.21C361.05,791.21 351.78,800.16 351.61,819.03C351.44,837.9 351.78,838.55 351.78,838.55C351.78,838.55 389.19,837.09 396.19,839.69C403.19,842.29 461.91,837.41 461.91,837.41C461.91,837.41 465.81,827.16 448.08,823.58C430.35,820 415.71,801.13 415.22,800.32C414.73,799.51 405.46,781.32 398.63,785.32C391.8,789.32 380.57,803.41 380.57,803.41Z" style="fill:rgb(93,97,140);fill-rule:nonzero;"/>
    </g>
    <g transform="matrix(1,0,0,1,-51.45,-39.57)">
        <path d="M415.05,188.84L411.32,188.33L413.65,188.27L415.05,188.84Z" style="fill-opacity:0.1;fill-rule:nonzero;"/>
    </g>
    <g transform="matrix(1,0,0,1,-51.45,-39.57)">
        <path d="M466.67,249.6C466.672,253.866 466.179,258.118 465.2,262.27C464.365,262.055 463.567,261.718 462.83,261.27C461.76,260.58 460.69,259.63 459.43,259.74C458.691,259.856 457.999,260.175 457.43,260.66C451.51,264.99 447.11,272.11 439.91,273.49C440.631,271.383 440.729,269.111 440.19,266.95C437.094,270.063 432.669,271.482 428.34,270.75C428.86,269.502 428.921,268.108 428.51,266.82C423.44,269.66 418.161,272.11 412.72,274.15C412.53,273.15 412.35,272.23 412.16,271.27C404.5,275.01 405.1,287.7 397.44,291.44C392.88,293.67 386.44,292.07 383.29,296.09C383.17,296.25 383.06,296.41 382.95,296.58C366.631,286.598 356.65,268.792 356.65,249.662C356.65,219.49 381.478,194.662 411.65,194.662C441.818,194.662 466.643,219.482 466.65,249.65L466.67,249.6Z" style="fill-opacity:0.1;fill-rule:nonzero;"/>
    </g>
    <g transform="matrix(1,0,0,1,-51.45,-39.57)">
        <path d="M415.05,186.83C410.43,184.92 405.74,183 400.77,182.43C395.8,181.86 390.44,182.83 386.69,186.14C383.69,188.78 381.34,193.02 377.34,193.14C375.39,193.21 373.59,192.23 371.84,191.38C366.84,188.98 360.59,187.62 356.08,190.8C352.48,193.35 351.13,198.03 350.54,202.4C349.95,206.77 349.81,211.4 347.73,215.25C346.44,217.65 344.48,219.61 342.86,221.8C338.744,227.363 336.807,234.247 337.42,241.14C337.838,244.55 338.567,247.914 339.6,251.19L343.68,265.6C345.75,272.92 347.86,280.34 351.8,286.85C355.74,293.36 361.8,298.96 369.2,300.64C373.66,301.64 379.06,300.82 381.56,296.99C382.2,295.99 382.61,294.92 383.31,293.99C386.41,289.99 392.9,291.58 397.46,289.35C405.12,285.61 404.52,272.92 412.18,269.18L412.75,272.05C418.185,270.007 423.46,267.56 428.53,264.73C428.938,266.018 428.882,267.409 428.37,268.66C432.695,269.382 437.113,267.964 440.21,264.86C440.749,267.021 440.651,269.293 439.93,271.4C447.13,270.01 451.53,262.89 457.45,258.56C458.022,258.082 458.713,257.767 459.45,257.65C460.72,257.54 461.78,258.49 462.85,259.17C466.653,261.479 471.588,260.85 474.69,257.66C477.84,254.24 477.98,248.98 476.97,244.44C475.96,239.9 473.97,235.57 473.54,230.94C472.91,224.63 475.11,218.04 473.09,212.04C471.38,206.95 466.9,203.26 462.09,200.84C457.28,198.42 452.09,197.01 447.18,194.84C442.52,192.75 438.18,189.95 433.34,188.3C426.34,185.91 418.73,186.1 411.34,186.3" style="fill:rgb(121,79,106);fill-rule:nonzero;"/>
    </g>
    <g transform="matrix(1,0,0,1,-51.45,-39.57)">
        <path d="M416,373.1C416,373.1 424,319.27 355.5,321.93L321,326.52C321,326.52 353.91,332.44 361.83,333.31L362.67,333.43C370,334.77 395.34,333.1 416,373.1Z" style="fill:white;fill-rule:nonzero;"/>
    </g>
    <g transform="matrix(1,0,0,1,-51.45,-39.57)">
        <path d="M372.25,587.77L372.25,587.15C400.34,562.86 372.25,587.77 372.25,587.77Z" style="fill-opacity:0.1;fill-rule:nonzero;"/>
    </g>
    <g transform="matrix(1,0,0,1,-51.45,-39.57)">
        <path d="M311.82,589.66C307.795,590.02 303.745,590.02 299.72,589.66L215.57,467.18C217.12,463.12 220.83,460.7 224.38,459.27L311.82,589.66Z" style="fill:rgb(87,89,136);fill-rule:nonzero;"/>
    </g>
    <g transform="matrix(1,0,0,1,-51.45,-39.57)">
        <path d="M257.25,458.52L253.25,463.27C253.25,463.27 222.91,412.87 216.39,387.27C217.63,384.36 219.5,383.74 219.5,383.74C219.5,383.74 222.66,381.41 227.75,377.74C229.64,389.78 236.09,419.22 257.25,458.52Z" style="fill:rgb(87,89,136);fill-rule:nonzero;"/>
    </g>
    <g transform="matrix(1,0,0,1,-51.45,-39.57)">
        <path d="M279.5,443L271.5,447.5C249.66,421.94 247.8,379 248,361.89L253.76,357.75C254.54,380.22 279.5,443 279.5,443Z" style="fill:rgb(87,89,136);fill-rule:nonzero;"/>
    </g>
    <g transform="matrix(1,0,0,1,-51.45,-39.57)">
        <path d="M300.5,438.52C300.25,441.77 291,474.77 304.5,480.27C318,485.77 300.5,438.52 300.5,438.52Z" style="fill-opacity:0.1;fill-rule:nonzero;"/>
    </g>
    <g transform="matrix(1,0,0,1,-51.45,-39.57)">
        <path d="M329.5,495.27C330,497.02 334.5,554.02 344.25,549.52C354,545.02 348.75,480.02 348.75,480.02L329.5,495.27Z" style="fill-opacity:0.1;fill-rule:nonzero;"/>
    </g>
    <g transform="matrix(1,0,0,1,-51.45,-39.57)">
        <path d="M794.33,270.6C794.351,286.78 788.079,302.351 776.85,314C772.275,314.969 767.556,315.051 762.95,314.24C760.596,313.942 758.357,313.043 756.45,311.63C754.614,309.936 753.176,307.856 752.24,305.54C748.59,297.69 746.72,288.62 741.6,281.9C736.48,275.18 726.09,272.23 721.15,279.12C718.46,282.86 718.01,288.61 714.42,291.2C710.11,294.32 704.42,290.65 701.07,286.2C691.17,273.2 694.56,247.64 675.68,244.05L674.92,243.92C685.223,221.952 707.396,207.86 731.66,207.86C766.04,207.86 794.33,236.15 794.33,270.53C794.33,270.553 794.33,270.577 794.33,270.6Z" style="fill-opacity:0.1;fill-rule:nonzero;"/>
    </g>
    <g transform="matrix(1,0,0,1,-51.45,-39.57)">
        <path d="M676.68,243.12C673.62,242.53 670.07,242.61 668.02,239.97C666.81,238.41 666.46,236.25 666.17,234.2C664.94,225.34 664.27,215.83 667.8,207.8C673.59,194.63 688.49,190.23 701.44,191.21C714.39,192.19 727.1,197.02 740.05,196.21C749.57,195.59 758.96,191.91 768.45,192.96C775.96,193.8 782.96,197.53 789.71,201.34C796.03,204.9 802.49,208.73 806.97,214.91C813.55,223.96 814.79,236.46 814.97,248.19C815.19,261.96 814.22,276.26 808.44,288.38C800.06,305.97 781.37,316.44 763.95,313.29C761.596,312.992 759.357,312.093 757.45,310.68C755.62,308.983 754.186,306.904 753.25,304.59C749.59,296.73 747.72,287.67 742.6,280.94C737.48,274.21 727.09,271.28 722.15,278.17C719.46,281.9 719.01,287.66 715.42,290.25C711.11,293.36 705.42,289.69 702.07,285.25C692.17,272.24 695.56,246.7 676.68,243.12Z" style="fill:rgb(148,91,121);fill-rule:nonzero;"/>
    </g>
    <g transform="matrix(1,0,0,1,-51.45,-39.57)">
        <path d="M828.86,214.05C838.39,218.6 845,227.46 851.21,235.99C856.38,243.08 861.73,250.66 862.41,259.4C862.68,262.98 862.15,266.62 862.83,270.14C865.22,282.57 880.83,288.14 885.39,299.98C887.51,305.56 886.84,311.77 885.91,317.67C884.573,326.205 882.774,334.66 880.52,343C879.17,348 877.64,353.2 878.67,358.28C879.46,362.22 881.67,365.68 883.43,369.28C888.02,378.99 888.81,390 889.16,400.73C889.51,411.46 889.5,422.38 892.71,432.62C895.92,442.86 903,452.54 913.21,455.85C909.781,458.188 905.805,459.6 901.67,459.95C901.06,463.3 902.97,466.71 905.67,468.83C908.37,470.95 911.67,472.05 914.89,473.1C910.438,476.241 904.761,477.116 899.57,475.46C895.3,474.06 891.77,471.06 888.36,468.12L869.19,451.63C866.629,449.557 864.262,447.254 862.12,444.75C849.72,429.34 857.12,405.99 850.2,387.48C844.56,372.43 829.4,360.21 830.79,344.2C831.17,339.72 832.89,335.48 834.33,331.2C844.665,299.777 840.387,265.32 822.68,237.38C820.49,233.98 817.95,230.56 814.3,228.81C808.75,226.16 800.82,227.3 797.67,222.01C796,219.22 795.67,214.31 795.52,211.18C805.7,208.85 819.34,209.5 828.86,214.05Z" style="fill:rgb(148,91,121);fill-rule:nonzero;"/>
    </g>
    <g transform="matrix(1,0,0,1,-51.45,-39.57)">
        <path d="M341.87,383.36C346.55,352.6 385,341.49 405.41,365C411.31,371.82 416.54,379.29 419.5,386.76C429.5,412.01 430.25,414.26 430.25,414.26C430.25,414.26 368.5,426.26 369,435.26L341,390.51C341,390.51 341.21,387.71 341.87,383.36Z" style="fill-opacity:0.1;fill-rule:nonzero;"/>
    </g>
    <g transform="matrix(1,0,0,1,-51.45,-39.57)">
        <path d="M341.87,380.36C346.55,349.6 385,338.49 405.41,362C411.31,368.82 416.54,376.29 419.5,383.76C429.5,409.01 430.25,411.26 430.25,411.26C430.25,411.26 368.5,423.26 369,432.26L341,387.51C341,387.51 341.21,384.71 341.87,380.36Z" style="fill:rgb(220,230,242);fill-rule:nonzero;"/>
    </g>
    <g transform="matrix(1,0,0,1,-51.45,-39.57)">
        <path d="M359.25,340.89C360,342.14 389.5,378.14 405,383.27C420.5,388.4 359.25,340.89 359.25,340.89Z" style="fill-opacity:0.1;fill-rule:nonzero;"/>
    </g>
    <g transform="matrix(1,0,0,1,-51.45,-39.57)">
        <path d="M232.5,457.27C232.5,457.27 310.5,549.27 320.5,586.52" style="fill-opacity:0.1;fill-rule:nonzero;"/>
    </g>
    <g transform="matrix(1,0,0,1,-51.45,-39.57)">
        <path d="M235.5,372.27C235.5,372.27 252.5,460.27 285.5,497.27C318.5,534.27 352.5,597.27 352.5,597.27" style="fill:none;fill-rule:nonzero;stroke:black;stroke-opacity:0.1;stroke-width:2px;"/>
    </g>
    <g opacity="0.1">
        <g transform="matrix(1,0,0,1,-51.45,-39.57)">
            <path d="M476.51,244.24C476.577,247.164 475.566,250.013 473.67,252.24C470.568,255.43 465.633,256.059 461.83,253.75C460.76,253.07 459.7,252.12 458.43,252.23C457.693,252.347 457.002,252.662 456.43,253.14C450.8,257.26 446.54,263.9 439.93,265.73C440.164,267.497 439.986,269.294 439.41,270.98C446.61,269.59 451.01,262.47 456.93,258.14C457.502,257.662 458.193,257.347 458.93,257.23C460.2,257.12 461.26,258.07 462.33,258.75C466.133,261.059 471.068,260.43 474.17,257.24C477.26,253.84 477.45,248.72 476.51,244.24Z" style="fill-rule:nonzero;"/>
        </g>
        <g transform="matrix(1,0,0,1,-51.45,-39.57)">
            <path d="M472.52,225.48C472.6,226.3 472.74,227.11 472.9,227.92C472.9,222.92 474.09,217.72 472.9,212.92C472.92,217 472.1,221.32 472.52,225.48Z" style="fill-rule:nonzero;"/>
        </g>
        <g transform="matrix(1,0,0,1,-51.45,-39.57)">
            <path d="M439.21,259.4C436.113,262.504 431.695,263.922 427.37,263.2C427.882,261.949 427.938,260.558 427.53,259.27C422.46,262.1 417.185,264.547 411.75,266.59L411.18,263.72C403.52,267.46 404.12,280.15 396.46,283.89C391.9,286.12 385.46,284.51 382.31,288.53C381.61,289.44 381.2,290.53 380.56,291.53C378.06,295.36 372.66,296.19 368.2,295.18C360.78,293.5 354.73,287.9 350.8,281.39C346.87,274.88 344.75,267.46 342.68,260.14L338.6,245.73C337.93,243.33 337.25,240.93 336.81,238.48C336.81,239.22 336.81,239.95 336.92,240.68C337.338,244.09 338.067,247.454 339.1,250.73L343.18,265.14C345.25,272.46 347.36,279.88 351.3,286.39C355.24,292.9 361.3,298.5 368.7,300.18C373.16,301.18 378.56,300.36 381.06,296.53C381.7,295.53 382.11,294.46 382.81,293.53C385.91,289.53 392.4,291.12 396.96,288.89C404.62,285.15 404.02,272.46 411.68,268.72L412.25,271.59C417.675,269.546 422.94,267.099 428,264.27C428.408,265.558 428.352,266.949 427.84,268.2C431.948,268.88 436.149,267.632 439.22,264.82C439.647,263.038 439.643,261.18 439.21,259.4Z" style="fill-rule:nonzero;"/>
        </g>
    </g>
    <g transform="matrix(1,0,0,1,-51.45,-39.57)">
        <path d="M419.91,325.33C414.53,328.43 402.03,335.33 399.5,334.15C396.8,332.9 367.34,322.59 357.5,319.15C358.15,315.81 360.5,307.31 368.29,304.52C369.867,304.096 371.522,304.051 373.12,304.39L403,316.21C411.37,320.46 418.32,324.41 419.91,325.33Z" style="fill-opacity:0.1;fill-rule:nonzero;"/>
    </g>
    <g transform="matrix(1,0,0,1,-51.45,-39.57)">
        <path d="M419.91,322.33C414.53,325.43 402.03,332.33 399.5,331.15C396.8,329.9 367.34,319.59 357.5,316.15C358.15,312.81 360.5,304.31 368.29,301.52C369.867,301.096 371.522,301.051 373.12,301.39L403,313.21C411.37,317.46 418.32,321.41 419.91,322.33Z" style="fill:rgb(220,230,242);fill-rule:nonzero;"/>
    </g>
    <g transform="matrix(1,0,0,1,-51.45,-39.57)">
        <path d="M815,247C814.71,258.27 813.18,269.54 808.49,279.39C800.11,296.98 781.42,307.45 764,304.3C761.646,304.002 759.407,303.103 757.5,301.69C755.67,299.993 754.236,297.914 753.3,295.6C749.64,287.74 747.77,278.68 742.65,271.95C737.53,265.22 727.14,262.29 722.2,269.18C719.51,272.91 719.06,278.67 715.47,281.26C711.16,284.37 705.47,280.7 702.12,276.26C692.22,263.26 695.61,237.69 676.73,234.11C673.67,233.52 670.12,233.6 668.07,230.96C666.86,229.4 666.51,227.24 666.22,225.19C665.88,222.78 665.59,220.32 665.42,217.85C665.072,223.309 665.341,228.791 666.22,234.19C666.51,236.24 666.86,238.4 668.07,239.96C670.12,242.6 673.67,242.52 676.73,243.11C695.61,246.69 692.22,272.23 702.12,285.26C705.46,289.65 711.12,293.32 715.47,290.26C719.06,287.67 719.47,281.91 722.2,278.18C727.14,271.29 737.53,274.23 742.65,280.95C747.77,287.67 749.65,296.74 753.3,304.6C754.236,306.914 755.67,308.993 757.5,310.69C759.407,312.103 761.646,313.002 764,313.3C781.42,316.45 800.11,305.98 808.49,288.39C814.27,276.27 815.24,261.97 815.02,248.2C815,247.76 815,247.36 815,247Z" style="fill-opacity:0.1;fill-rule:nonzero;"/>
    </g>
    <g opacity="0.1">
        <g transform="matrix(1,0,0,1,-51.45,-39.57)">
            <path d="M880.39,295C882.51,300.58 881.84,306.79 880.91,312.69C879.572,321.218 877.773,329.667 875.52,338C874.17,343 872.64,348.2 873.67,353.28C874.46,357.22 876.67,360.68 878.43,364.28C883.02,373.99 883.81,385 884.16,395.73C884.51,406.46 884.5,417.38 887.71,427.62C889.789,434.598 893.764,440.865 899.19,445.72C896.323,441.879 894.132,437.577 892.71,433C889.5,422.76 889.5,411.84 889.16,401.11C888.82,390.38 888.02,379.37 883.43,369.67C881.71,366.04 879.43,362.58 878.67,358.67C877.67,353.59 879.17,348.38 880.52,343.38C882.776,335.024 884.575,326.552 885.91,318C886.84,312.1 887.51,305.88 885.39,300.3C883.68,295.83 880.39,292.3 876.82,288.87C878.315,290.72 879.519,292.787 880.39,295Z" style="fill-rule:nonzero;"/>
        </g>
        <g transform="matrix(1,0,0,1,-51.45,-39.57)">
            <path d="M913.21,456.25C910.537,455.366 908.025,454.056 905.77,452.37C902.941,453.841 899.848,454.739 896.67,455.01C896.06,458.36 897.97,461.77 900.67,463.89C901.207,464.322 901.775,464.713 902.37,465.06C901.674,463.594 901.441,461.951 901.7,460.35C905.823,459.986 909.785,458.575 913.21,456.25Z" style="fill-rule:nonzero;"/>
        </g>
        <g transform="matrix(1,0,0,1,-51.45,-39.57)">
            <path d="M809.27,223.89C805.46,222.07 800.53,222.03 796.79,220.48C797.002,221.175 797.287,221.845 797.64,222.48C800.79,227.76 808.72,226.62 814.27,229.28C814.971,229.632 815.64,230.043 816.27,230.51C814.536,227.746 812.127,225.468 809.27,223.89Z" style="fill-rule:nonzero;"/>
        </g>
        <g transform="matrix(1,0,0,1,-51.45,-39.57)">
            <path d="M906.63,470C902.8,471.633 898.507,471.835 894.54,470.57C890.27,469.17 886.74,466.17 883.33,463.23L864.16,446.74C863.25,445.96 862.35,445.17 861.47,444.37C861.67,444.64 861.87,444.92 862.09,445.19C864.23,447.696 866.596,449.999 869.16,452.07L888.33,468.57C891.74,471.5 895.27,474.51 899.54,475.91C904.732,477.563 910.41,476.685 914.86,473.54C911.966,472.747 909.196,471.556 906.63,470Z" style="fill-rule:nonzero;"/>
        </g>
        <g transform="matrix(1,0,0,1,-51.45,-39.57)">
            <path d="M846.21,231C851.38,238.09 856.73,245.67 857.41,254.41C857.68,257.99 857.15,261.63 857.83,265.15C858.91,270.78 862.72,275.01 866.98,279.04C864.921,276.57 863.497,273.635 862.83,270.49C862.15,266.96 862.68,263.32 862.41,259.74C861.73,251 856.41,243.42 851.21,236.34C847.45,231.17 843.53,225.89 838.92,221.51C841.49,224.55 843.88,227.79 846.21,231Z" style="fill-rule:nonzero;"/>
        </g>
    </g>
    <g transform="matrix(1,0,0,1,-51.45,-39.57)">
        <path d="M802.34,210.27C802.34,210.27 796.34,220.27 813.34,228.6L814.34,225.93L802.34,210.27Z" style="fill-opacity:0.1;fill-rule:nonzero;"/>
    </g>
    <g transform="matrix(1,0,0,1,-51.45,-39.57)">
        <path d="M801.34,210.27C801.34,210.27 795.34,220.27 812.34,228.6L813.34,225.93L801.34,210.27Z" style="fill:rgb(255,101,132);fill-rule:nonzero;"/>
    </g>
    <g transform="matrix(1,0,0,1,-51.45,-39.57)">
        <path d="M1038.05,776.26C1038.05,776.26 1043.55,783.45 1035.52,794.26C1027.49,805.07 1020.87,814.26 1023.52,821.03C1023.52,821.03 1035.64,800.88 1045.52,800.6C1055.4,800.32 1048.9,788.38 1038.05,776.26Z" style="fill:white;fill-rule:nonzero;"/>
    </g>
    <g transform="matrix(1,0,0,1,-51.45,-39.57)">
        <path d="M1038.05,776.26C1038.53,776.954 1038.91,777.711 1039.18,778.51C1048.8,789.82 1053.92,800.37 1044.67,800.63C1036.06,800.88 1025.73,816.28 1023.25,820.17C1023.33,820.47 1023.43,820.76 1023.54,821.06C1023.54,821.06 1035.66,800.91 1045.54,800.63C1055.42,800.35 1048.9,788.38 1038.05,776.26Z" style="fill-opacity:0.1;fill-rule:nonzero;"/>
    </g>
    <g transform="matrix(1,0,0,1,-51.45,-39.57)">
        <path d="M1048.27,785.42C1048.27,787.95 1047.98,790 1047.63,790C1047.28,790 1047,788 1047,785.42C1047,782.84 1047.35,784.08 1047.7,784.08C1048.05,784.08 1048.27,782.89 1048.27,785.42Z" style="fill:rgb(255,208,55);fill-rule:nonzero;"/>
    </g>
    <g transform="matrix(1,0,0,1,-51.45,-39.57)">
        <path d="M1051.77,788.44C1049.55,789.65 1047.61,790.38 1047.45,790.07C1047.29,789.76 1048.94,788.53 1051.16,787.32C1053.38,786.11 1052.51,786.99 1052.68,787.32C1052.85,787.65 1054,787.23 1051.77,788.44Z" style="fill:rgb(255,208,55);fill-rule:nonzero;"/>
    </g>
    <g transform="matrix(1,0,0,1,-51.45,-39.57)">
        <path d="M1009,776.26C1009,776.26 1003.5,783.45 1011.53,794.26C1019.56,805.07 1026.18,814.26 1023.53,821.03C1023.53,821.03 1011.42,800.88 1001.53,800.6C991.64,800.32 998.19,788.38 1009,776.26Z" style="fill:white;fill-rule:nonzero;"/>
    </g>
    <g transform="matrix(1,0,0,1,-51.45,-39.57)">
        <path d="M1009,776.26C1008.52,776.954 1008.14,777.711 1007.87,778.51C998.25,789.82 993.13,800.37 1002.38,800.63C1010.99,800.88 1021.32,816.28 1023.8,820.17C1023.72,820.472 1023.62,820.77 1023.5,821.06C1023.38,821.35 1011.39,800.91 1001.5,800.63C991.61,800.35 998.19,788.38 1009,776.26Z" style="fill-opacity:0.1;fill-rule:nonzero;"/>
    </g>
    <g transform="matrix(1,0,0,1,-51.45,-39.57)">
        <path d="M998.82,785.42C998.82,787.95 999.11,790 999.46,790C999.81,790 1000.09,788 1000.09,785.42C1000.09,782.84 999.74,784.08 999.39,784.08C999.04,784.08 998.82,782.89 998.82,785.42Z" style="fill:rgb(255,208,55);fill-rule:nonzero;"/>
    </g>
    <g transform="matrix(1,0,0,1,-51.45,-39.57)">
        <path d="M995.32,788.44C997.54,789.65 999.47,790.38 999.64,790.07C999.81,789.76 998.15,788.53 995.93,787.32C993.71,786.11 994.58,786.99 994.41,787.32C994.24,787.65 993.1,787.23 995.32,788.44Z" style="fill:rgb(255,208,55);fill-rule:nonzero;"/>
    </g>
    <g transform="matrix(1,0,0,1,-51.45,-39.57)">
        <path d="M1000.57,820.12C1000.57,820.12 1015.93,819.64 1020.57,816.35C1025.21,813.06 1044.2,809.11 1045.35,814.35C1046.5,819.59 1068.43,840.64 1051.09,840.78C1033.75,840.92 1010.8,838.08 1006.18,835.27C1001.56,832.46 1000.57,820.12 1000.57,820.12Z" style="fill:rgb(168,168,168);fill-rule:nonzero;"/>
    </g>
    <g transform="matrix(1,0,0,1,-51.45,-39.57)">
        <path d="M1051.39,839C1034.05,839.14 1011.1,836.3 1006.48,833.49C1002.96,831.34 1001.56,823.65 1001.09,820.11L1000.57,820.11C1000.57,820.11 1001.57,832.5 1006.17,835.32C1010.77,838.14 1033.74,840.97 1051.08,840.83C1056.08,840.83 1057.81,839.01 1057.72,836.37C1057,838 1055.11,839 1051.39,839Z" style="fill-opacity:0.2;fill-rule:nonzero;"/>
    </g>
    <g transform="matrix(1,0,0,1,-51.45,-39.57)">
        <path d="M314.09,802.49C315.926,800.997 317.265,798.981 317.93,796.71C318.42,794.41 317.44,791.65 315.25,790.81C312.79,789.87 310.16,791.58 308.17,793.3C306.18,795.02 303.89,796.99 301.28,796.62C304.007,794.15 305.24,790.418 304.52,786.81C304.406,786.074 304.095,785.383 303.62,784.81C302.26,783.35 299.78,783.98 298.14,785.13C292.94,788.78 291.49,795.85 291.47,802.2C290.94,799.91 291.38,797.52 291.37,795.2C291.36,792.88 290.71,790.2 288.73,788.98C287.507,788.303 286.128,787.958 284.73,787.98C282.39,787.89 279.79,788.13 278.19,789.84C276.19,791.96 276.72,795.53 278.45,797.84C280.18,800.15 282.8,801.65 285.21,803.26C287.149,804.413 288.804,805.989 290.05,807.87C290.196,808.135 290.316,808.413 290.41,808.7L305,808.7C308.297,807.05 311.355,804.961 314.09,802.49Z" style="fill:white;fill-rule:nonzero;"/>
    </g>
    <g transform="matrix(1,0,0,1,-51.45,-39.57)">
        <path d="M197.66,818.26C197.66,818.26 183.66,770.56 200.29,735.44C207.379,720.76 209.52,704.169 206.39,688.17C204.836,680.585 202.594,673.157 199.69,665.98" style="fill:none;fill-rule:nonzero;stroke:rgb(83,84,97);stroke-width:2px;"/>
    </g>
    <g transform="matrix(1,0,0,1,-51.45,-39.57)">
        <path d="M210.08,643.79C210.08,649.63 199.49,666.59 199.49,666.59C199.49,666.59 188.9,649.59 188.9,643.79C188.9,637.98 193.68,633.2 199.49,633.2C205.3,633.2 210.08,637.98 210.08,643.79Z" style="fill:white;fill-rule:nonzero;"/>
    </g>
    <g transform="matrix(1,0,0,1,-51.45,-39.57)">
        <path d="M227.58,676.17C224.4,681.08 206.3,689.56 206.3,689.56C206.3,689.56 206.62,669.56 209.8,664.67C211.769,661.767 215.057,660.024 218.564,660.024C224.374,660.024 229.154,664.805 229.154,670.614C229.154,672.576 228.609,674.5 227.58,676.17Z" style="fill:white;fill-rule:nonzero;"/>
    </g>
    <g transform="matrix(1,0,0,1,-51.45,-39.57)">
        <path d="M226.81,731.52C221.59,734.15 201.68,732.33 201.68,732.33C201.68,732.33 212.06,715.25 217.28,712.61C218.807,711.801 220.509,711.379 222.236,711.379C228.046,711.379 232.826,716.159 232.826,721.969C232.826,726.038 230.48,729.762 226.81,731.52Z" style="fill:white;fill-rule:nonzero;"/>
    </g>
    <g transform="matrix(1,0,0,1,-51.45,-39.57)">
        <path d="M216.8,773.26C212.1,776.74 192.17,778.26 192.17,778.26C192.17,778.26 199.51,759.67 204.17,756.19C206.063,754.639 208.436,753.79 210.883,753.79C216.693,753.79 221.473,758.571 221.473,764.38C221.473,767.917 219.702,771.228 216.76,773.19L216.8,773.26Z" style="fill:white;fill-rule:nonzero;"/>
    </g>
    <g transform="matrix(1,0,0,1,-51.45,-39.57)">
        <path d="M184.07,690.69C188.26,694.77 207.8,698.99 207.8,698.99C207.8,698.99 203.01,679.58 198.8,675.5C196.809,673.465 194.078,672.316 191.231,672.316C185.421,672.316 180.641,677.097 180.641,682.906C180.641,685.862 181.878,688.686 184.05,690.69L184.07,690.69Z" style="fill:white;fill-rule:nonzero;"/>
    </g>
    <g transform="matrix(1,0,0,1,-51.45,-39.57)">
        <path d="M173,739.66C178.22,742.29 198.13,740.48 198.13,740.48C198.13,740.48 187.76,723.39 182.53,720.76C181.052,720.015 179.42,719.627 177.765,719.627C171.959,719.627 167.182,724.404 167.182,730.21C167.182,734.2 169.438,737.864 173,739.66Z" style="fill:white;fill-rule:nonzero;"/>
    </g>
    <g transform="matrix(1,0,0,1,-51.45,-39.57)">
        <path d="M168.74,788.74C173.44,792.21 193.37,793.74 193.37,793.74C193.37,793.74 186.03,775.14 181.37,771.66C179.63,770.499 177.585,769.88 175.493,769.88C169.684,769.88 164.903,774.66 164.903,780.47C164.903,783.641 166.328,786.65 168.78,788.66L168.74,788.74Z" style="fill:white;fill-rule:nonzero;"/>
    </g>
    <g transform="matrix(1,0,0,1,-51.45,-39.57)">
        <path d="M210.08,643.79C210.08,649.63 199.49,666.59 199.49,666.59C199.49,666.59 188.9,649.59 188.9,643.79C188.9,637.98 193.68,633.2 199.49,633.2C205.3,633.2 210.08,637.98 210.08,643.79Z" style="fill:white;fill-rule:nonzero;"/>
    </g>
    <g transform="matrix(1,0,0,1,-51.45,-39.57)">
        <path d="M227.58,676.17C224.4,681.08 206.3,689.56 206.3,689.56C206.3,689.56 206.62,669.56 209.8,664.67C211.769,661.767 215.057,660.024 218.564,660.024C224.374,660.024 229.154,664.805 229.154,670.614C229.154,672.576 228.609,674.5 227.58,676.17Z" style="fill:white;fill-rule:nonzero;"/>
    </g>
    <g transform="matrix(1,0,0,1,-51.45,-39.57)">
        <path d="M226.81,731.52C221.59,734.15 201.68,732.33 201.68,732.33C201.68,732.33 212.06,715.25 217.28,712.61C218.807,711.801 220.509,711.379 222.236,711.379C228.046,711.379 232.826,716.159 232.826,721.969C232.826,726.038 230.48,729.762 226.81,731.52Z" style="fill:white;fill-rule:nonzero;"/>
    </g>
    <g transform="matrix(1,0,0,1,-51.45,-39.57)">
        <path d="M216.8,773.26C212.1,776.74 192.17,778.26 192.17,778.26C192.17,778.26 199.51,759.67 204.17,756.19C206.063,754.639 208.436,753.79 210.883,753.79C216.693,753.79 221.473,758.571 221.473,764.38C221.473,767.917 219.702,771.228 216.76,773.19L216.8,773.26Z" style="fill:white;fill-rule:nonzero;"/>
    </g>
    <g transform="matrix(1,0,0,1,-51.45,-39.57)">
        <path d="M184.07,690.69C188.26,694.77 207.8,698.99 207.8,698.99C207.8,698.99 203.01,679.58 198.8,675.5C196.809,673.465 194.078,672.316 191.231,672.316C185.421,672.316 180.641,677.097 180.641,682.906C180.641,685.862 181.878,688.686 184.05,690.69L184.07,690.69Z" style="fill:white;fill-rule:nonzero;"/>
    </g>
    <g transform="matrix(1,0,0,1,-51.45,-39.57)">
        <path d="M173,739.66C178.22,742.29 198.13,740.48 198.13,740.48C198.13,740.48 187.76,723.39 182.53,720.76C181.052,720.015 179.42,719.627 177.765,719.627C171.959,719.627 167.182,724.404 167.182,730.21C167.182,734.2 169.438,737.864 173,739.66Z" style="fill:white;fill-rule:nonzero;"/>
    </g>
    <g transform="matrix(1,0,0,1,-51.45,-39.57)">
        <path d="M168.74,788.74C173.44,792.21 193.37,793.74 193.37,793.74C193.37,793.74 186.03,775.14 181.37,771.66C179.63,770.499 177.585,769.88 175.493,769.88C169.684,769.88 164.903,774.66 164.903,780.47C164.903,783.641 166.328,786.65 168.78,788.66L168.74,788.74Z" style="fill:white;fill-rule:nonzero;"/>
    </g>
    <g transform="matrix(1,0,0,1,-51.45,-39.57)">
        <path d="M164.45,815.26C164.45,815.26 181.56,811.86 186.12,807.33C190.68,802.8 211.22,794.87 213.5,800.53C215.78,806.19 244.3,825.45 224.91,828.85C205.52,832.25 179.28,833.38 173.57,831.11C167.86,828.84 164.45,815.26 164.45,815.26Z" style="fill:rgb(168,168,168);fill-rule:nonzero;"/>
    </g>
    <g transform="matrix(1,0,0,1,-51.45,-39.57)">
        <path d="M224.91,826.74C205.51,830.14 179.28,831.27 173.57,829.01C169.23,827.28 166.21,819.01 165.02,815.14L164.45,815.26C164.45,815.26 167.87,828.85 173.57,831.11C179.27,833.37 205.51,832.25 224.91,828.85C230.5,827.85 232.1,825.56 231.5,822.65C231,824.55 229.07,826 224.91,826.74Z" style="fill-opacity:0.2;fill-rule:nonzero;"/>
    </g>
    <defs>
        <linearGradient id="_Linear1" x1="0" y1="0" x2="1" y2="0" gradientUnits="userSpaceOnUse" gradientTransform="matrix(4.09693e-14,-669.08,669.08,4.09693e-14,564.84,845.93)"><stop offset="0" style="stop-color:rgb(128,128,128);stop-opacity:0.25"/><stop offset="0.54" style="stop-color:rgb(128,128,128);stop-opacity:0.12"/><stop offset="1" style="stop-color:rgb(128,128,128);stop-opacity:0.1"/></linearGradient>
    </defs>
</svg>
