<svg id="Warstwa_1" data-name="Warstwa 1" xmlns="http://www.w3.org/2000/svg" viewBox="0 0 18 24.03"><defs><style>.cls-1{fill:#5e35b1;}</style></defs><title>security</title><g id="Shield_Check" data-name="Shield Check"><path class="cls-1" d="M20.67,3l-8.5-3a.47.47,0,0,0-.33,0L3.33,3A.51.51,0,0,0,3,3.5v6C3,17.26,4.15,20.1,11.77,24a.51.51,0,0,0,.45,0C19.85,20.1,21,17.26,21,9.5v-6A.51.51,0,0,0,20.67,3ZM17.85,7.85l-7,7a.5.5,0,0,1-.71,0h0l-4-4a.5.5,0,0,1,.71-.71l3.65,3.65,6.65-6.65a.5.5,0,1,1,.71.71Z" transform="translate(-3 0.03)"/></g></svg>