<svg xmlns="http://www.w3.org/2000/svg" width="83.661" height="50.817" viewBox="0 0 83.661 50.817"><defs><style>.a{fill:#fff;}</style></defs><g transform="translate(-2 -8.987)"><path class="a" d="M35.064,42.151c4.092-.508,7.527-1.105,10.842-1.673a94.354,94.354,0,0,1,19.8-2.031A97.938,97.938,0,0,1,85.661,40.6V16.225a7.2,7.2,0,0,0-12.127-5.287L72.34,11.8a12.634,12.634,0,0,1-14.934,0A8.96,8.96,0,0,0,48.595,10.7L12.812,25.335A17.413,17.413,0,0,0,2,39.672a115.351,115.351,0,0,0,33.064,2.479Zm30.615,2.24A99.222,99.222,0,0,0,46.8,46.362c-3.375.6-6.87,1.195-11.141,1.732a64.694,64.694,0,0,1-7.557.388A131.6,131.6,0,0,1,2.448,45.914,18.339,18.339,0,0,0,20.309,59.8H70.7A14.934,14.934,0,0,0,85.452,46.661a92.172,92.172,0,0,0-19.773-2.27Z" transform="translate(0 0)"/></g></svg>