<svg xmlns="http://www.w3.org/2000/svg" width="346.148" height="342.864" viewBox="0 0 346.148 342.864"><defs><style>.a{fill:#512da8;}.b{fill:rgba(118,160,255,0.24);}.c{fill:#fff;}</style></defs><g transform="translate(-5.5 -5.673)"><g transform="translate(33.729 32.398)"><ellipse class="a" cx="144.975" cy="143.601" rx="144.975" ry="143.601" transform="translate(0 0)"/></g><g transform="translate(5.5 5.673)"><ellipse class="b" cx="173.074" cy="171.432" rx="173.074" ry="171.432" transform="translate(0 0)"/></g><g transform="translate(100.414 99.645)"><path class="c" d="M53.787,1H4.519A3.539,3.539,0,0,0,1,4.519V53.787a3.539,3.539,0,0,0,3.519,3.519h7.038a3.539,3.539,0,0,0,3.519-3.519V15.076h38.71a3.539,3.539,0,0,0,3.519-3.519V4.519A3.539,3.539,0,0,0,53.787,1Z" transform="translate(-1 -1)"/><path class="c" d="M67.787,1H18.519A3.539,3.539,0,0,0,15,4.519v7.038a3.539,3.539,0,0,0,3.519,3.519h38.71v38.71a3.539,3.539,0,0,0,3.519,3.519h7.038a3.539,3.539,0,0,0,3.519-3.519V4.519A3.539,3.539,0,0,0,67.787,1Z" transform="translate(83.535 -1)"/><path class="c" d="M67.787,15H60.748a3.539,3.539,0,0,0-3.519,3.519v38.71H18.519A3.539,3.539,0,0,0,15,60.748v7.038a3.539,3.539,0,0,0,3.519,3.519H67.787a3.539,3.539,0,0,0,3.519-3.519V18.519A3.539,3.539,0,0,0,67.787,15Z" transform="translate(83.535 83.535)"/><path class="c" d="M53.787,57.229H15.076V18.519A3.539,3.539,0,0,0,11.557,15H4.519A3.539,3.539,0,0,0,1,18.519V67.787a3.539,3.539,0,0,0,3.519,3.519H53.787a3.539,3.539,0,0,0,3.519-3.519V60.748A3.539,3.539,0,0,0,53.787,57.229Z" transform="translate(-1 83.535)"/></g></g></svg>