<?xml version="1.0" encoding="UTF-8" standalone="no"?>
<!DOCTYPE svg PUBLIC "-//W3C//DTD SVG 1.1//EN" "http://www.w3.org/Graphics/SVG/1.1/DTD/svg11.dtd">
<svg width="100%" height="100%" viewBox="0 0 922 727" version="1.1" xmlns="http://www.w3.org/2000/svg" xmlns:xlink="http://www.w3.org/1999/xlink" xml:space="preserve" xmlns:serif="http://www.serif.com/" style="fill-rule:evenodd;clip-rule:evenodd;stroke-linejoin:round;stroke-miterlimit:2;">
    <ellipse cx="211" cy="709.225" rx="141" ry="17" style="fill:rgb(242,242,242);"/>
    <ellipse cx="508" cy="709.225" rx="141" ry="17" style="fill:rgb(242,242,242);"/>
    <g transform="matrix(1,0,0,1,-139.015,-86.6271)">
        <path d="M830.685,494.618L843.015,420.293L689.067,387.678L695.387,198.089L620.046,198.089L614.255,371.828L407.017,327.922L411.345,198.089L336.004,198.089L332.205,312.072L180.789,279.993L168.458,354.318L329.658,388.47L324.747,535.824L151.345,499.087L139.015,573.411L322.2,612.221L316.087,795.616L391.427,795.616L397.012,628.071L604.25,671.976L600.129,795.616L675.469,795.616L679.062,687.826L801.242,713.711L813.572,639.386L681.609,611.429L686.521,464.075L830.685,494.618ZM606.797,595.579L399.559,551.673L404.47,404.319L611.708,448.225L606.797,595.579Z" style="fill:white;fill-rule:nonzero;"/>
    </g>
    <path d="M488.565,508.952L493.477,361.598L286.239,317.692L286.093,322.065L472.693,361.598L467.927,504.579L488.565,508.952Z" style="fill-opacity:0.2;fill-rule:nonzero;"/>
    <path d="M496.024,285.201L501.815,111.461L481.031,111.461L475.386,280.828L496.024,285.201Z" style="fill-opacity:0.2;fill-rule:nonzero;"/>
    <path d="M568.289,377.448L568.143,381.82L691.67,407.991L692.376,403.737L568.289,377.448Z" style="fill-opacity:0.2;fill-rule:nonzero;"/>
    <path d="M213.974,225.445L217.773,111.461L196.989,111.461L193.336,221.073L213.974,225.445Z" style="fill-opacity:0.2;fill-rule:nonzero;"/>
    <path d="M560.831,601.199L560.685,605.571L662.226,627.084L662.932,622.83L560.831,601.199Z" style="fill-opacity:0.2;fill-rule:nonzero;"/>
    <path d="M278.781,541.443L278.635,545.816L465.235,585.349L461.114,708.989L481.897,708.989L486.019,585.349L278.781,541.443Z" style="fill-opacity:0.2;fill-rule:nonzero;"/>
    <path d="M185.877,444.824L206.515,449.196L211.427,301.843L50.227,267.691L61.851,197.62L41.774,193.366L29.443,267.691L190.643,301.843L185.877,444.824Z" style="fill-opacity:0.2;fill-rule:nonzero;"/>
    <path d="M20.784,486.784L32.408,416.713L12.33,412.459L0,486.784L183.185,525.594L177.072,708.989L197.855,708.989L203.969,525.594L20.784,486.784Z" style="fill-opacity:0.2;fill-rule:nonzero;"/>
    <rect x="733.96" y="116.347" width="76.449" height="130.562" style="fill:rgb(153,140,0);"/>
    <g transform="matrix(1,0,0,1,-139.015,-86.6271)">
        <path d="M964.702,197.49C956.442,221.946 943.776,244.229 917.963,244.229C892.15,244.229 872.678,223.262 871.224,197.49C869.366,164.558 891.554,150.615 917.963,150.751C949.16,150.912 974.504,168.467 964.702,197.49Z" style="fill:rgb(255,255,8);fill-rule:nonzero;"/>
    </g>
    <g transform="matrix(1,0,0,1,-139.015,-86.6271)">
        <path d="M886.769,381.009L859.775,482.56C859.775,482.56 823.782,491.558 827.638,500.556C831.495,509.554 870.058,494.129 870.058,494.129L904.765,409.289L886.769,381.009Z" style="fill:rgb(255,185,185);fill-rule:nonzero;"/>
    </g>
    <g transform="matrix(1,0,0,1,-139.015,-86.6271)">
        <path d="M908.622,715.226C908.622,715.226 933.045,739.65 917.62,756.361L949.756,756.361L929.189,704.943L908.622,715.226Z" style="fill:rgb(255,185,185);fill-rule:nonzero;"/>
    </g>
    <g transform="matrix(1,0,0,1,-139.015,-86.6271)">
        <path d="M933.804,755.542C933.804,755.542 933.804,744.985 923.508,751.319C913.211,757.653 880.034,774.543 880.034,774.543C880.034,774.543 857.153,787.211 890.33,789.323C923.508,791.434 955.541,784.044 955.541,779.822C955.541,775.599 952.109,755.379 952.109,755.379C952.109,755.379 945.244,762.931 933.804,755.542Z" style="fill:rgb(47,46,65);fill-rule:nonzero;"/>
    </g>
    <path d="M799.172,649.166L797.887,691.586L822.31,695.442L822.31,654.308L799.172,649.166Z" style="fill:rgb(255,185,185);fill-rule:nonzero;"/>
    <circle cx="776.034" cy="132.415" r="34.707" style="fill:rgb(255,185,185);"/>
    <g transform="matrix(1,0,0,1,-139.015,-86.6271)">
        <path d="M902.837,246.679C902.837,246.679 919.548,285.243 906.694,298.097C893.839,310.952 925.975,298.097 925.975,298.097C925.975,298.097 942.686,273.674 955.541,272.388C955.541,272.388 936.259,262.105 937.544,235.11L902.837,246.679Z" style="fill:rgb(255,185,185);fill-rule:nonzero;"/>
    </g>
    <g transform="matrix(1,0,0,1,-139.015,-86.6271)">
        <path d="M880.342,433.712L877.771,494.129C877.771,494.129 831.495,614.961 849.491,643.241C867.487,671.521 909.907,722.939 909.907,722.939C909.907,722.939 934.331,711.37 934.331,704.943C934.331,704.943 909.907,644.526 889.34,630.386C889.34,630.386 890.625,605.963 909.907,580.254L927.904,643.241L935.616,739.65C935.616,739.65 957.469,747.362 965.182,743.506C965.182,743.506 981.893,681.804 970.323,645.812L967.753,546.832C967.753,546.832 1001.17,497.985 958.754,440.14L952.327,419.572C952.327,419.572 886.769,426 880.342,433.712Z" style="fill:rgb(47,46,65);fill-rule:nonzero;"/>
    </g>
    <g transform="matrix(1,0,0,1,-139.015,-86.6271)">
        <path d="M940.758,771.786C940.758,771.786 940.758,758.931 929.189,766.644C917.62,774.357 880.342,794.924 880.342,794.924C880.342,794.924 854.633,810.35 891.911,812.92C929.189,815.491 965.182,806.493 965.182,801.351C965.182,796.21 961.325,771.589 961.325,771.589C961.325,771.589 953.613,780.784 940.758,771.786Z" style="fill:rgb(47,46,65);fill-rule:nonzero;"/>
    </g>
    <g transform="matrix(1,0,0,1,-139.015,-86.6271)">
        <path d="M913.121,294.241L953.516,271.079C953.516,271.079 1013.39,272.388 1009.53,303.239C1009.53,303.239 997.961,343.088 994.104,339.232L986.392,331.519C986.392,331.519 958.112,389.364 958.112,400.933C957.996,408.376 956.694,415.753 954.255,422.786L884.841,433.07C884.841,433.07 892.554,389.364 880.985,381.652C869.416,373.939 865.559,353.372 877.128,335.375C881.527,328.465 885.349,321.204 888.557,313.667C892.636,304.227 900.327,296.801 909.904,293.056L913.121,294.241Z" style="fill:white;fill-rule:nonzero;"/>
    </g>
    <g transform="matrix(1,0,0,1,-139.015,-86.6271)">
        <path d="M1003.1,299.383C1003.1,299.383 1071.23,354.657 1059.66,366.226C1048.09,377.795 985.106,424.072 985.106,424.072C985.106,424.072 978.679,462.635 965.824,461.35C952.97,460.064 968.395,413.788 968.395,413.788L1022.38,362.37L992.819,331.519L1003.1,299.383Z" style="fill:rgb(255,185,185);fill-rule:nonzero;"/>
    </g>
    <circle cx="778.948" cy="55.514" r="18.45" style="fill:rgb(255,255,8);"/>
    <g transform="matrix(1,0,0,1,-139.015,-86.6271)">
        <path d="M895.823,132.302C895.824,122.875 903.049,114.888 912.428,113.945C911.821,113.885 911.206,113.852 910.583,113.852C900.462,113.852 892.133,122.181 892.133,132.302C892.133,142.423 900.462,150.751 910.583,150.751C911.206,150.751 911.821,150.718 912.428,150.658C903.049,149.715 895.824,141.728 895.823,132.302Z" style="fill:rgb(255,255,8);fill-rule:nonzero;"/>
    </g>
    <g transform="matrix(1,0,0,1,-139.015,-86.6271)">
        <path d="M896.679,182.006C896.679,182.006 896.294,179.862 881.227,185.512C866.16,191.162 857.129,232.857 864.662,257.34C867.698,267.207 865.228,274.321 861.197,279.298C846.071,297.977 852.026,326.032 874.058,335.637C874.68,335.908 875.315,336.176 875.962,336.441L885.379,342.091C885.379,342.091 873.375,326.296 879.382,306.091C884.599,288.877 885.243,270.597 881.251,253.058C880.562,250.099 879.779,247.049 878.89,243.937C871.357,217.57 875.021,220.615 901.387,194.248C901.387,194.248 916.454,205.548 929.638,211.198C942.821,216.848 954.121,222.498 944.704,241.332C935.288,260.165 912.688,277.115 927.754,301.599C942.821,326.082 944.704,316.666 942.821,326.082L940.938,335.499L952.238,324.199L944.704,339.266C944.704,339.266 969.188,339.266 976.721,320.432L980.488,324.199C980.488,324.199 995.555,297.832 967.305,273.349C967.305,273.349 957.888,267.699 971.071,248.865C984.255,230.032 974.13,189.54 957.18,182.006C940.23,174.473 896.679,182.006 896.679,182.006Z" style="fill:rgb(255,255,8);fill-rule:nonzero;"/>
    </g>
    <path d="M386.429,40.573L367.35,33.045L348.271,25.517L364.33,12.759L380.389,0L383.409,20.287L386.429,40.573Z" style="fill:rgb(242,242,242);fill-rule:nonzero;"/>
    <path d="M371.248,183.963L352.17,176.435L333.091,168.906L348.24,158.453L363.389,148L367.319,165.981L371.248,183.963Z" style="fill:rgb(242,242,242);fill-rule:nonzero;"/>
    <path d="M338.429,376.573L319.35,369.045L300.271,361.517L316.33,348.759L332.389,336L335.409,356.287L338.429,376.573Z" style="fill:rgb(242,242,242);fill-rule:nonzero;"/>
    <path d="M138.374,594.33L120.355,604.127L102.336,613.925L102.86,593.421L103.385,572.918L120.879,583.624L138.374,594.33Z" style="fill:rgb(242,242,242);fill-rule:nonzero;"/>
    <path d="M120.374,134.33L102.355,144.127L84.336,153.925L84.86,133.421L85.385,112.918L102.879,123.624L120.374,134.33Z" style="fill:rgb(242,242,242);fill-rule:nonzero;"/>
    <g transform="matrix(1,0,0,1,-139.015,-86.6271)">
        <path d="M350.862,764.436C363.172,785.429 387.999,793.74 387.999,793.74C387.999,793.74 392.868,768.016 380.558,747.023C368.248,726.031 343.421,717.72 343.421,717.72C343.421,717.72 338.553,743.444 350.862,764.436Z" style="fill:rgb(242,242,242);fill-rule:nonzero;"/>
    </g>
    <g transform="matrix(1,0,0,1,-139.015,-86.6271)">
        <path d="M358.544,757.11C379.832,768.9 388.75,793.515 388.75,793.515C388.75,793.515 363.153,799.014 341.865,787.224C320.577,775.433 311.658,750.818 311.658,750.818C311.658,750.818 337.255,745.319 358.544,757.11Z" style="fill:white;fill-rule:nonzero;"/>
    </g>
    <g transform="matrix(1,0,0,1,-139.015,-86.6271)">
        <path d="M743.035,747.048C728.737,766.741 731.075,792.817 731.075,792.817C731.075,792.817 756.593,786.966 770.891,767.274C785.189,747.581 782.851,721.505 782.851,721.505C782.851,721.505 757.332,727.356 743.035,747.048Z" style="fill:white;fill-rule:nonzero;"/>
    </g>
    <g transform="matrix(1,0,0,1,-139.015,-86.6271)">
        <path d="M752.826,751.148C750.558,775.378 731.582,793.415 731.582,793.415C731.582,793.415 716.283,772.169 718.552,747.94C720.82,723.71 739.796,705.673 739.796,705.673C739.796,705.673 755.095,726.919 752.826,751.148Z" style="fill:white;fill-rule:nonzero;"/>
    </g>
    <g transform="matrix(1,0,0,1,-139.015,-86.6271)">
        <path d="M994.015,288.852L989.015,326.852L994.015,338.852C994.015,338.852 1016.01,311.852 1009.01,296.852C1002.01,281.852 994.015,288.852 994.015,288.852Z" style="fill:white;fill-rule:nonzero;"/>
    </g>
</svg>
