<svg xmlns="http://www.w3.org/2000/svg" width="321.846" height="318.792" viewBox="0 0 321.846 318.792"><defs><style>.a{fill:#512da8;}.b{fill:rgba(118,160,255,0.24);}.c{fill:#fff;}</style></defs><g transform="translate(-5.5 -5.673)"><g transform="translate(31.747 30.521)"><ellipse class="a" cx="134.796" cy="133.519" rx="134.796" ry="133.519" transform="translate(0)"/></g><g transform="translate(5.5 5.673)"><ellipse class="b" cx="160.923" cy="159.396" rx="160.923" ry="159.396"/></g><g transform="translate(88.862 87.883)"><path class="c" d="M77.608,0a77.608,77.608,0,1,0,77.608,77.608A77.686,77.686,0,0,0,77.608,0Zm-29.1,53.3a19.4,19.4,0,0,1,19.4,19.4c.1,6.558-9.8,6.558-9.7,0a9.7,9.7,0,1,0-19.4,0,4.851,4.851,0,1,1-9.7,0,19.4,19.4,0,0,1,19.4-19.4Zm58.206,0a19.4,19.4,0,0,1,19.4,19.4c.1,6.558-9.8,6.558-9.7,0a9.7,9.7,0,1,0-19.4,0,4.851,4.851,0,1,1-9.7,0,19.4,19.4,0,0,1,19.4-19.4Zm8.527,41.588a4.88,4.88,0,0,1,4.055,7.392,48.508,48.508,0,0,1-42.238,23.835c-6.48-.068-6.383-9.779.1-9.72A38.764,38.764,0,0,0,110.941,97.35,4.854,4.854,0,0,1,115.238,94.886Z"/></g></g></svg>