<svg xmlns="http://www.w3.org/2000/svg" width="328.957" height="325.836" viewBox="0 0 328.957 325.836"><defs><style>.a{fill:#512da8;}.b{fill:rgba(118,160,255,0.24);}.c{fill:#fff;}</style></defs><g transform="translate(-5.5 -5.673)"><g transform="translate(32.327 31.071)"><ellipse class="a" cx="137.775" cy="136.469" rx="137.775" ry="136.469"/></g><g transform="translate(5.5 5.673)"><ellipse class="b" cx="164.478" cy="162.918" rx="164.478" ry="162.918"/></g><g transform="translate(163.244 102.156)"><path class="c" d="M13.019,79.222h0a4.51,4.51,0,0,0,3.935,1.265c.281,0,63.522-17.848,68.722-19.253.281-.141.562-.141.7-.281a4.534,4.534,0,0,0,2.249-3.935A4.2,4.2,0,0,0,86.659,53.5c-.281-.281-32.745-15.178-32.745-15.178S39.018,5.862,38.877,5.581a4.772,4.772,0,0,0-3.513-1.968,4.384,4.384,0,0,0-3.935,2.249c-.141.281-.281.422-.281.7-1.405,5.2-19.253,68.441-19.253,68.722A4.1,4.1,0,0,0,13.019,79.222Z" transform="translate(-11.768 -3.614)"/></g><g transform="translate(88.746 82.2)"><path class="c" d="M131.329,47.569l.422-.422.281-.281.281-.281.422-.422.281-.281.281-.281.422-.422L134,44.9l.281-.281.422-.422.281-.281.281-.281.422-.422a4.372,4.372,0,0,0-6.184-6.184l-.422.422-.281.281-.281.281-.422.422-.281.281-.281.281-.422.422-.281.281-.281.281-.422.422-.281.281-.281.281-.422.422a4.372,4.372,0,1,0,6.184,6.184Zm15.74-28.107-.422.422-.281.281-.281.281-.422.422-.281.281-.281.281-.422.422-.281.281-.281.281-.422.422-.281.281-.281.281-.422.422A4.372,4.372,0,0,0,148.9,30l.422-.422.281-.281.281-.281.422-.422.281-.281.281-.281.422-.422.281-.281.281-.281.422-.422.281-.281.281-.281.422-.422a4.372,4.372,0,1,0-6.184-6.184ZM170.819,1.9a4.411,4.411,0,0,0-6.184,0l-.422.422-.281.281-.281.281-.422.422-.281.281-.281.281-.422.422-.281.281-.281.281-.422.422-.281.281-.281.281-.422.422a4.372,4.372,0,1,0,6.184,6.184l.422-.422.281-.281.281-.281.422-.422.281-.281.281-.281.422-.422.281-.281.281-.281.422-.422.281-.281L170.4,8.5l.422-.422A4.411,4.411,0,0,0,170.819,1.9ZM151.425,86.919l-1.686.422c-6.324,1.827-12.086,3.373-17.286,4.919,0,1.124.141,2.249.141,3.513A55.652,55.652,0,1,1,76.941,40.121a27.079,27.079,0,0,1,3.373.141c1.546-5.762,3.373-12.086,5.34-19.113a9.683,9.683,0,0,1,.422-1.124,65.09,65.09,0,0,0-9.135-.562,76.311,76.311,0,1,0,76.311,76.311,68.472,68.472,0,0,0-.562-9.275A1.718,1.718,0,0,1,151.425,86.919Z" transform="translate(-0.63 -0.63)"/></g><g transform="translate(129.08 141.365)"><path class="c" d="M33.924,32.945c1.265-4.357,3.232-11.664,6.605-23.469A36.081,36.081,0,1,0,78.755,47.561c-11.664,3.232-18.972,5.34-23.329,6.605A15.288,15.288,0,0,1,27.46,45.594,14.96,14.96,0,0,1,33.924,32.945Z" transform="translate(-6.66 -9.476)"/></g></g></svg>