<?xml version="1.0" encoding="UTF-8" standalone="no"?>
<!DOCTYPE svg PUBLIC "-//W3C//DTD SVG 1.1//EN" "http://www.w3.org/Graphics/SVG/1.1/DTD/svg11.dtd">
<svg width="100%" height="100%" viewBox="0 0 512 512" version="1.1" xmlns="http://www.w3.org/2000/svg" xmlns:xlink="http://www.w3.org/1999/xlink" xml:space="preserve" xmlns:serif="http://www.serif.com/" style="fill-rule:evenodd;clip-rule:evenodd;stroke-linejoin:round;stroke-miterlimit:2;">
    <circle cx="203" cy="203" r="23" style="fill:rgb(50,28,145);"/>
    <circle cx="309" cy="309" r="23" style="fill:rgb(50,28,145);"/>
    <path d="M372.2,88.4C368.869,90.676 364.471,90.715 361.1,88.5L311.1,55.5L261.6,88.4C258.233,90.596 253.867,90.596 250.5,88.4L201,55.5L151,88.5C147.629,90.715 143.231,90.676 139.9,88.4L101.7,62.4L101.7,458.5L410.3,458.5L410.3,62.4L372.2,88.4ZM160,203C160,179.411 179.411,160 203,160C226.589,160 246,179.411 246,203C246,226.589 226.589,246 203,246C179.424,245.966 160.034,226.576 160,203ZM186.9,341.1C184.397,341.07 181.985,340.147 180.1,338.5C178.041,336.613 176.867,333.944 176.867,331.151C176.867,328.651 177.807,326.24 179.5,324.4L321.4,169.5C323.289,167.443 325.957,166.271 328.75,166.271C334.224,166.271 338.729,170.776 338.729,176.25C338.729,178.749 337.79,181.159 336.1,183L194.2,337.9C192.327,339.946 189.674,341.109 186.9,341.1ZM309,352C285.411,352 266,332.589 266,309C266,285.411 285.411,266 309,266C332.589,266 352,285.411 352,309C351.966,332.576 332.576,351.966 309,352Z" style="fill:rgb(50,28,145);fill-rule:nonzero;"/>
</svg>
